<svg width="224" height="67" viewBox="0 0 224 67" fill="none" xmlns="http://www.w3.org/2000/svg">
<path fill-rule="evenodd" clip-rule="evenodd" d="M180.64 12.62C180.582 12.764 179.509 15.316 180.263 19.839C180.34 20.301 181.48 19.578 181.48 19.578L180.64 12.62Z" fill="#F3F3F3"/>
<path fill-rule="evenodd" clip-rule="evenodd" d="M187.801 33.176L182.302 23.521C182.302 23.521 179.606 36.114 186.845 34.191C186.845 34.191 183.732 33.393 183.52 31.465L185.556 31.704C185.556 31.704 184.042 30.721 183.462 29.812C182.998 29.086 182.959 26.971 182.959 26.971C182.959 26.971 187.975 34.104 187.801 33.176Z" fill="#F3F3F3"/>
<path fill-rule="evenodd" clip-rule="evenodd" d="M188.545 44.647C188.613 44.662 189.647 44.899 189.84 44.512C190.033 44.125 189.014 41.437 189.014 41.437L182.244 40.897C182.244 40.897 182.843 43.7 183.385 44.145C183.926 44.589 186.69 44.879 186.767 44.763C186.845 44.647 186.419 42.444 186.419 42.444C186.419 42.444 187.544 42.333 187.718 42.617C188.12 43.275 188.042 44.537 188.545 44.647Z" fill="#F3F3F3"/>
<path fill-rule="evenodd" clip-rule="evenodd" d="M180.891 0.263959C180.891 0.263959 193.461 -1.01705 204.763 2.06495C206.989 2.77695 211.17 4.36597 212.32 10.793C212.32 10.793 205.545 9.13997 197.224 8.47397C189.747 7.87397 184.343 7.90896 182.669 8.06796C182.06 8.12496 181.814 7.15296 182.873 7.05296C186.845 6.67596 193.832 6.67595 200.79 7.34295C205.279 7.77295 209.112 8.15396 209.112 8.15396C209.112 8.15396 206.183 6.99495 201.051 6.38595C194.615 5.62195 184.266 5.08396 183.111 5.04896C183.111 5.04896 196.15 3.71195 207.934 6.13395C208.219 6.46295 207.783 0.783959 180.891 0.263959Z" fill="#F3F3F3"/>
<path fill-rule="evenodd" clip-rule="evenodd" d="M185.967 23.231L186.845 25.065L211.396 26.312L212.039 23.986C212.039 23.986 187.564 23.618 185.967 23.231Z" fill="#F3F3F3"/>
<path fill-rule="evenodd" clip-rule="evenodd" d="M187.442 26.791L188.313 28.759C188.853 28.841 210.001 29.827 210.351 29.7C210.536 29.632 211.276 27.102 211.276 27.102C211.381 27.109 193.25 27.153 187.442 26.791Z" fill="#F3F3F3"/>
<path fill-rule="evenodd" clip-rule="evenodd" d="M189.036 30.259L210.215 30.405L209.247 33.01L190.036 32.258L189.036 30.259Z" fill="#F3F3F3"/>
<path fill-rule="evenodd" clip-rule="evenodd" d="M190.992 33.518C193.261 33.644 208.872 33.52 209.104 33.518L208.211 35.479L192.025 35.228L190.992 33.518Z" fill="#F3F3F3"/>
<path fill-rule="evenodd" clip-rule="evenodd" d="M209.519 51.722C209.962 51.357 210.415 50.818 210.609 50.061C210.609 50.061 214.01 50.317 215.287 49.365C217.413 47.78 216.775 41.015 216.311 40.203C216.311 40.203 191.862 39.893 191.787 40.223C191.687 40.667 192.995 44.738 194.755 45.415C196.111 45.937 203.264 45.77 204.559 45.286C205.7 44.861 207.246 41.633 207.362 41.517H209.276C209.276 41.517 207.478 46.04 205.72 46.794C203.709 47.656 182.63 47.197 180.554 46.848C178.504 46.504 178.176 43.837 178.06 41.227C177.943 38.618 177.91 34.834 176.397 34.385C175.161 34.018 174.349 35.081 174.001 35.313C173.687 35.522 173.891 23.413 173.935 21.003C174.36 21.253 175.09 21.221 175.47 21.145C175.547 21.338 175.429 22.237 176.717 22.471C177.461 22.606 178.17 22.595 178.17 22.595C178.17 22.595 178.197 23.76 178.283 24.183C178.369 24.612 179.697 24.492 179.825 24.137C179.981 23.705 179.995 21.525 179.161 21.514C178.657 21.507 176.594 21.473 176.594 20.951C177.303 20.782 177.632 20.526 177.798 20.163C177.876 19.992 177.923 17.517 178.001 15.523C178.036 14.628 178.109 13.724 178.136 13.058C178.17 12.236 177.866 11.83 177.418 11.772C176.618 11.666 176.522 11.271 177.075 11.149C177.826 10.984 179.15 11.102 179.567 11.098C179.567 11.098 179.584 10.294 179.533 10.073C178.016 9.95397 176.442 10.025 175.947 10.386C175.591 10.646 175.663 11.248 175.508 11.326C175.354 11.403 174.146 11.133 173.856 12.176C173.709 12.703 173.494 17.057 173.464 19.228C172.773 17.238 172.652 12.389 173.015 11.365C173.241 10.725 174.29 10.32 174.29 10.32C174.685 10.232 173.377 2.67097 178.24 1.16597L171.433 1.32097L154.111 26.035L155.201 25.374L171.159 4.52196L171.043 36.994C171.043 36.994 153.357 45.286 153.512 45.731L154.227 46.446C153.736 47.476 153.523 50.778 154.941 52.129C152.451 52.298 151.038 52.488 151.038 52.689C151.038 53.046 155.523 53.748 162.566 53.748L208.706 53.747C217.407 53.747 223.095 53.093 223.095 52.689C223.095 52.298 217.79 51.949 209.519 51.722ZM212.5 43.632C212.569 43.629 211.953 44.937 212.262 45.034C212.571 45.131 213.374 45.132 213.432 45.055C213.49 44.977 213.75 43.739 213.835 43.497C214.183 43.206 214.934 43.217 215.089 43.236C215.243 43.256 214.663 45.721 214.277 45.914C213.89 46.107 210.737 46.104 210.351 45.892C210.486 45.148 210.495 43.716 212.5 43.632ZM204.007 43.397C204.007 43.397 196.297 43.455 195.968 43.179C197.725 42.776 202.769 42.386 204.743 42.367C204.661 42.671 204.007 43.397 204.007 43.397ZM176.658 37.993L176.796 39.259C176.796 39.259 175.512 38.5 174.07 40.302C174.07 40.302 174.57 37.431 176.658 37.993ZM169.128 42.117C169.37 41.932 172.841 40.714 172.841 40.714L172.71 43.976C170.816 44.437 168.738 44.933 168.738 44.933C168.738 44.933 168.711 42.436 169.128 42.117ZM159.061 45.382C159.061 45.382 164.497 43.344 164.535 43.468C164.58 43.613 164.495 45.121 164.482 45.179C164.469 45.237 159.127 46.759 159.061 46.745C158.994 46.73 159.038 45.417 159.061 45.382ZM155.325 50.905C154.276 50.193 154.757 47.378 155.087 47.199C154.83 48.346 155.013 50.568 155.868 50.208C155.964 51.003 155.461 50.997 155.325 50.905ZM157.19 50.796C156.142 50.084 156.623 47.27 156.953 47.09C156.695 48.237 156.878 50.459 157.734 50.099C157.83 50.895 157.326 50.889 157.19 50.796ZM158.901 47.817C159.221 47.658 164.361 46.367 164.361 46.367C164.361 46.367 164.335 47.397 164.295 47.455L158.901 48.586V47.817ZM160.908 51.839C161.351 51.318 161.648 50.674 161.646 50.548C161.644 50.417 164.868 50.331 164.868 50.331C164.868 50.331 164.931 51.065 165.324 51.703C163.744 51.744 162.269 51.789 160.908 51.839ZM166.539 50.412C165.838 50.538 164.996 47.291 166.021 44.933C165.942 45.88 165.953 48.808 166.569 48.996C167.061 49.147 167.532 47.421 167.552 47.344C167.571 47.267 167.593 50.224 166.539 50.412ZM167.969 42.823C166.712 41.064 165.601 42.965 165.544 43.016C165.544 43.016 165.836 41.515 166.691 41.207C167.922 40.762 168.046 42.726 167.969 42.823ZM168.694 46.427C168.833 46.351 172.752 45.637 172.928 45.653L173 46.947C173.315 46.848 170.791 47.15 168.637 47.476C168.588 47.484 168.629 46.462 168.694 46.427ZM171.608 51.572C171.915 51.103 172.169 50.52 172.203 50.08L173.614 50.041C173.614 50.041 173.869 50.807 174.57 51.529C173.56 51.542 172.573 51.556 171.608 51.572ZM175.614 49.984C173.86 49.76 174.117 44.587 174.57 43.212C174.632 44.45 174.632 48.436 175.653 48.469C176.234 48.488 176.842 46.382 176.842 46.136C176.958 48.788 176.223 49.99 175.614 49.984ZM187.067 51.452C185.429 51.452 183.819 51.456 182.24 51.464C182.649 50.885 182.793 50.226 182.815 49.983L200.674 49.887C200.717 50.315 200.973 51.017 201.594 51.557C197.149 51.49 192.237 51.452 187.067 51.452Z" fill="#F3F3F3"/>
<path fill-rule="evenodd" clip-rule="evenodd" d="M218.118 14.997C217.777 14.266 216.36 13.982 215.692 14.243C215.692 14.243 216.727 16.079 216.727 18.592C216.727 21.105 216.244 21.984 216.244 21.984C216.244 21.984 215.606 14.939 213.866 13.296C213.19 12.658 213.518 11.731 202.423 10.793C191.329 9.85597 183.22 9.19897 182.282 10.426C181.586 11.339 182.437 15.925 182.669 18.901C182.746 19.481 183.152 20.474 184.38 20.853C185.906 21.325 213.066 22.364 213.692 22.245C213.692 22.4 212.504 32.161 208.879 36.568C208.879 36.568 184.99 36.626 180.738 36.307C180.699 36.771 184.808 38.075 189.512 38.307C193.881 38.523 214.301 38.764 214.901 38.694C215.983 38.568 216.517 37.874 216.579 37.152C216.881 33.611 216.458 23.098 216.495 23.521C216.688 23.521 217.841 22.968 218.204 22.191C218.88 20.742 218.389 15.577 218.118 14.997ZM202.117 18.585L184.423 18.534L184.351 17.239C186.417 17.201 203.425 18.123 202.117 18.585ZM208.049 16.227L184.196 15.712L184.09 14.301C191.425 14.253 210.143 16.213 208.049 16.227ZM210.236 14.301C193.975 12.866 184.265 12.98 183.886 12.951L183.786 11.489C189.367 11.01 210.921 13.638 210.236 14.301ZM215.209 26.984C215.209 26.984 215.707 29.725 215.485 30.247C215.192 30.94 214.021 31.117 214.021 31.117C214.021 31.117 214.889 25.65 215.209 26.984ZM215.173 34.982C214.851 35.669 213.228 36.174 212.909 36.058C212.591 35.942 213.576 33.562 213.75 33.359C213.924 33.156 215.113 32.707 215.486 32.422C216.035 32.004 215.416 34.466 215.173 34.982Z" fill="#F3F3F3"/>
<path fill-rule="evenodd" clip-rule="evenodd" d="M31.5 11.753H31.36C25.43 32.945 24.062 37.445 19.406 53.752H4.85001L20.584 1.26697H41.869L57.824 53.752H43.549C38.576 37.373 37.253 31.866 31.5 11.753ZM91.193 33.878H105.609V35.418C105.609 37.307 105.574 38.858 105.504 40.06C105.422 41.261 105.236 42.474 104.933 43.71C104.641 44.946 104.163 46.113 103.51 47.197C102.856 48.282 101.947 49.32 100.78 50.312C99.311 51.513 97.701 52.388 95.952 52.948C94.202 53.519 92.465 53.857 90.738 53.986C89.001 54.114 86.796 54.172 84.125 54.172C79.822 54.172 76.299 54.009 73.57 53.682C70.829 53.344 68.38 52.551 66.21 51.28C64.041 50.008 62.373 48.014 61.195 45.297C60.017 42.579 59.423 38.917 59.423 34.286V20.733C59.423 15.17 60.367 10.948 62.268 8.06696C64.158 5.17496 66.852 3.24996 70.339 2.29396C73.827 1.32596 78.422 0.847961 84.125 0.847961C89.001 0.847961 92.989 1.36096 96.092 2.39896C99.206 3.43696 101.562 5.20996 103.148 7.71696C104.746 10.237 105.539 13.677 105.539 18.063V20.092H91.123V18.063C90.972 16.57 90.529 15.462 89.817 14.739C89.106 14.015 88.196 13.549 87.076 13.339C85.957 13.129 84.464 13.024 82.586 13.024C79.938 13.024 78.014 13.327 76.789 13.934C75.564 14.529 74.76 15.508 74.398 16.838C74.025 18.179 73.838 20.22 73.838 22.961V31.149C73.838 33.458 73.92 35.231 74.071 36.467C74.223 37.704 74.573 38.742 75.133 39.581C75.693 40.433 76.556 41.039 77.711 41.424C78.877 41.809 80.498 41.996 82.586 41.996C84.778 41.996 86.47 41.867 87.636 41.599C88.814 41.331 89.7 40.724 90.295 39.791C90.89 38.858 91.193 37.4 91.193 35.418V33.878ZM126.393 1.26697V21.002H130.592L144.11 1.26697H161.034L142.57 27.008L162.573 53.752H145.218L130.592 33.178H126.393V53.752H112.397V1.26697H126.393Z" fill="white"/>
<path fill-rule="evenodd" clip-rule="evenodd" d="M5.93202 62.334H5.00002V61.114H5.83603C6.03003 61.114 6.18102 61.0979 6.28802 61.0639C6.39402 61.0319 6.47203 60.971 6.52303 60.88C6.57403 60.791 6.59901 60.658 6.59901 60.482C6.59901 60.263 6.53202 60.103 6.39702 60.005C6.26102 59.907 5.98402 59.859 5.56302 59.859C5.31702 59.859 5.12302 59.876 4.98402 59.913C4.84502 59.95 4.74302 60.017 4.67802 60.114C4.61202 60.211 4.58002 60.35 4.58002 60.533H2.89302V60.261C2.89302 59.789 2.99703 59.417 3.20203 59.148C3.40803 58.877 3.70701 58.689 4.09901 58.582C4.49001 58.474 4.98703 58.419 5.59003 58.419C6.19403 58.419 6.69803 58.471 7.10103 58.575C7.50503 58.678 7.81301 58.858 8.03001 59.114C8.24601 59.37 8.35402 59.721 8.35402 60.166C8.35402 60.628 8.28403 60.981 8.14203 61.222C8.00103 61.465 7.72702 61.619 7.31902 61.685V61.755C7.73002 61.793 8.02201 61.927 8.19601 62.159C8.37201 62.391 8.46002 62.719 8.46002 63.142C8.46002 63.547 8.42202 63.872 8.34602 64.117C8.26802 64.362 8.13102 64.558 7.93202 64.704C7.73302 64.85 7.44902 64.956 7.08002 65.02C6.71202 65.084 6.22003 65.117 5.60703 65.117C5.10303 65.117 4.68401 65.087 4.34901 65.03C4.01601 64.972 3.73303 64.866 3.50603 64.714C3.27803 64.561 3.10602 64.34 2.99002 64.047C2.87402 63.756 2.81702 63.382 2.81702 62.924H4.50102C4.50102 63.149 4.53302 63.314 4.59802 63.421C4.66202 63.528 4.76903 63.597 4.92003 63.629C5.06903 63.661 5.29803 63.677 5.60703 63.677C5.89403 63.677 6.11303 63.659 6.26703 63.625C6.41903 63.589 6.52902 63.525 6.59602 63.43C6.66202 63.335 6.69601 63.1959 6.69601 63.0119C6.69601 62.7689 6.63802 62.594 6.52402 62.491C6.41202 62.387 6.21402 62.334 5.93202 62.334ZM13.489 63.932H11.128L10.805 65.0639H8.97902L10.953 58.481H13.622L15.624 65.0639H13.833L13.489 63.932ZM13.138 62.6499L12.322 59.796H12.304L11.506 62.6499H13.138ZM22.197 58.481V65.0639H20.441V60.008H18.15V65.0639H16.395V58.481H22.197ZM27.412 58.481H29.168V65.0639H27.412V62.431C27.029 62.548 26.552 62.606 25.982 62.606C25.389 62.606 24.921 62.53 24.579 62.377C24.235 62.225 23.991 61.985 23.843 61.657C23.695 61.329 23.62 60.898 23.62 60.361V58.481H25.376V60.106C25.376 60.374 25.404 60.577 25.461 60.712C25.517 60.848 25.618 60.943 25.761 60.997C25.904 61.051 26.115 61.079 26.393 61.079C26.791 61.079 27.13 61.0379 27.412 60.9559V58.481ZM34.468 63.932H32.107L31.784 65.0639H29.958L31.931 58.481H34.601L36.602 65.0639H34.812L34.468 63.932ZM34.117 62.6499L33.301 59.796H33.283L32.484 62.6499H34.117ZM41.104 62.571H42.912V62.764C42.912 63.001 42.908 63.196 42.899 63.346C42.889 63.497 42.865 63.649 42.827 63.804C42.791 63.959 42.731 64.106 42.649 64.242C42.567 64.378 42.453 64.508 42.306 64.632C42.122 64.783 41.92 64.893 41.701 64.963C41.481 65.035 41.264 65.077 41.047 65.093C40.829 65.109 40.553 65.117 40.218 65.117C39.678 65.117 39.236 65.096 38.894 65.055C38.55 65.013 38.243 64.913 37.97 64.754C37.698 64.594 37.489 64.344 37.342 64.003C37.194 63.663 37.119 63.203 37.119 62.622V60.922C37.119 60.225 37.238 59.695 37.476 59.334C37.713 58.971 38.051 58.73 38.488 58.61C38.926 58.488 39.502 58.428 40.218 58.428C40.829 58.428 41.329 58.492 41.719 58.623C42.109 58.753 42.405 58.975 42.604 59.29C42.804 59.606 42.904 60.037 42.904 60.588V60.842H41.095V60.588C41.076 60.4 41.021 60.261 40.932 60.17C40.842 60.08 40.728 60.021 40.588 59.995C40.447 59.969 40.26 59.955 40.025 59.955C39.692 59.955 39.451 59.994 39.297 60.069C39.144 60.144 39.043 60.267 38.997 60.434C38.951 60.602 38.927 60.858 38.927 61.202V62.229C38.927 62.519 38.937 62.741 38.956 62.896C38.976 63.051 39.02 63.181 39.09 63.286C39.16 63.393 39.268 63.469 39.413 63.518C39.559 63.566 39.762 63.589 40.025 63.589C40.3 63.589 40.512 63.573 40.658 63.539C40.806 63.506 40.917 63.43 40.992 63.313C41.066 63.196 41.104 63.013 41.104 62.764V62.571ZM46.968 60.008V65.0639H45.212V60.008H43.527V58.481H48.741V60.008H46.968ZM49.61 58.481H51.278V62.815H51.339L53.393 58.481H55.701V65.0639H54.034V60.729H53.974L51.997 65.0639H49.61V58.481ZM61.261 63.554C61.414 63.344 61.539 63.117 61.634 62.871C61.729 62.627 61.798 62.337 61.843 62.002C61.887 61.668 61.909 61.263 61.909 60.789V58.481H66.982V63.554H67.526V66.584H65.859V65.0639H62.4V66.584H60.741V63.554H61.261ZM63.568 59.99L63.577 60.893C63.577 61.319 63.558 61.69 63.518 62.006C63.48 62.322 63.422 62.603 63.341 62.849C63.262 63.095 63.16 63.33 63.032 63.554H65.218V59.99H63.568ZM69.282 58.481H74.619V65.0639H72.855V60.008H70.95V62.773C70.95 63.26 70.878 63.679 70.736 64.028C70.593 64.378 70.375 64.647 70.082 64.834C69.788 65.023 69.426 65.117 68.993 65.117C68.677 65.117 68.378 65.0899 68.097 65.0379V63.616C68.22 63.657 68.399 63.677 68.633 63.677C68.873 63.677 69.041 63.613 69.137 63.483C69.234 63.352 69.282 63.124 69.282 62.798V58.481ZM79.527 65.0639H81.283V58.481H77.912C77.394 58.481 76.98 58.556 76.67 58.703C76.359 58.852 76.135 59.079 75.996 59.383C75.857 59.689 75.788 60.081 75.788 60.561C75.788 60.917 75.827 61.22 75.907 61.47C75.984 61.718 76.108 61.927 76.28 62.099C76.449 62.268 76.678 62.413 76.964 62.534L75.534 65.0639H77.544L78.702 62.747H79.527V65.0639ZM79.527 61.307H78.342C77.81 61.307 77.544 61.079 77.544 60.621C77.544 60.346 77.593 60.16 77.694 60.061C77.794 59.961 77.972 59.912 78.23 59.912H79.527V61.307ZM88.342 65.0639V60.008H91.089V58.481H86.586V65.0639H88.342ZM93.793 65.0639H92.037V58.481H95.346C95.76 58.481 96.109 58.526 96.394 58.618C96.679 58.709 96.909 58.849 97.084 59.04C97.26 59.23 97.389 59.478 97.471 59.784C97.552 60.091 97.593 60.46 97.593 60.893C97.593 61.376 97.561 61.774 97.495 62.086C97.43 62.399 97.316 62.649 97.155 62.836C96.994 63.025 96.768 63.162 96.477 63.248C96.185 63.335 95.809 63.379 95.346 63.379H93.793V65.0639ZM93.793 61.851H94.995C95.234 61.851 95.405 61.829 95.51 61.787C95.616 61.745 95.687 61.658 95.727 61.528C95.766 61.399 95.785 61.187 95.785 60.893C95.785 60.656 95.766 60.476 95.727 60.352C95.689 60.229 95.614 60.14 95.503 60.087C95.39 60.034 95.222 60.008 94.995 60.008H93.793V61.851ZM98.103 58.481H100.095L101.255 61.307H101.334L102.465 58.481H104.493L102 63.563C101.808 63.945 101.615 64.248 101.424 64.474C101.231 64.7 101.014 64.864 100.771 64.964C100.53 65.065 100.234 65.117 99.886 65.117C99.636 65.117 99.343 65.0899 99.007 65.0379V63.616C99.13 63.657 99.323 63.677 99.586 63.677C99.779 63.677 99.923 63.667 100.018 63.648C100.113 63.627 100.185 63.591 100.233 63.537C100.281 63.483 100.326 63.395 100.367 63.272L98.103 58.481ZM108.337 62.334H107.406V61.114H108.241C108.436 61.114 108.586 61.0979 108.693 61.0639C108.8 61.0319 108.877 60.971 108.929 60.88C108.98 60.791 109.005 60.658 109.005 60.482C109.005 60.263 108.937 60.103 108.803 60.005C108.667 59.907 108.39 59.859 107.969 59.859C107.723 59.859 107.529 59.876 107.39 59.913C107.251 59.95 107.148 60.017 107.084 60.114C107.018 60.211 106.986 60.35 106.986 60.533H105.299V60.261C105.299 59.789 105.403 59.417 105.608 59.148C105.814 58.877 106.112 58.689 106.505 58.582C106.895 58.474 107.392 58.419 107.995 58.419C108.599 58.419 109.104 58.471 109.506 58.575C109.91 58.678 110.219 58.858 110.435 59.114C110.652 59.37 110.76 59.721 110.76 60.166C110.76 60.628 110.69 60.981 110.548 61.222C110.406 61.465 110.133 61.619 109.724 61.685V61.755C110.135 61.793 110.428 61.927 110.602 62.159C110.778 62.391 110.866 62.719 110.866 63.142C110.866 63.547 110.827 63.872 110.751 64.117C110.674 64.362 110.536 64.558 110.337 64.704C110.138 64.85 109.855 64.956 109.486 65.02C109.117 65.084 108.626 65.117 108.013 65.117C107.508 65.117 107.09 65.087 106.755 65.03C106.421 64.972 106.139 64.866 105.912 64.714C105.684 64.561 105.511 64.34 105.396 64.047C105.28 63.756 105.223 63.382 105.223 62.924H106.907C106.907 63.149 106.939 63.314 107.004 63.421C107.068 63.528 107.175 63.597 107.325 63.629C107.474 63.661 107.704 63.677 108.013 63.677C108.299 63.677 108.519 63.659 108.673 63.625C108.825 63.589 108.935 63.525 109.002 63.43C109.068 63.335 109.101 63.1959 109.101 63.0119C109.101 62.7689 109.044 62.594 108.93 62.491C108.817 62.387 108.62 62.334 108.337 62.334ZM114.824 65.117C114.337 65.117 113.914 65.083 113.554 65.016C113.195 64.949 112.881 64.829 112.615 64.654C112.351 64.482 112.144 64.235 111.998 63.916C111.853 63.597 111.78 63.191 111.78 62.703V60.842C111.78 60.353 111.853 59.948 111.999 59.626C112.146 59.306 112.352 59.06 112.617 58.888C112.881 58.715 113.195 58.596 113.554 58.529C113.914 58.462 114.337 58.428 114.824 58.428C115.313 58.428 115.737 58.462 116.098 58.529C116.46 58.596 116.771 58.715 117.038 58.888C117.302 59.06 117.507 59.306 117.653 59.626C117.798 59.948 117.872 60.353 117.872 60.842V62.703C117.872 63.191 117.798 63.597 117.653 63.916C117.509 64.235 117.304 64.482 117.038 64.654C116.773 64.829 116.46 64.949 116.098 65.016C115.737 65.083 115.313 65.117 114.824 65.117ZM114.824 63.589C115.161 63.589 115.412 63.566 115.581 63.519C115.747 63.474 115.87 63.374 115.948 63.221C116.025 63.069 116.063 62.83 116.063 62.51V61.026C116.063 60.779 116.041 60.586 115.997 60.446C115.955 60.304 115.885 60.198 115.791 60.128C115.696 60.058 115.575 60.011 115.425 59.989C115.276 59.967 115.076 59.955 114.824 59.955C114.492 59.955 114.243 59.979 114.078 60.024C113.914 60.069 113.794 60.168 113.717 60.318C113.639 60.468 113.597 60.704 113.588 61.026V62.51C113.597 62.833 113.639 63.072 113.715 63.224C113.791 63.374 113.913 63.474 114.078 63.519C114.243 63.566 114.492 63.589 114.824 63.589ZM119.004 65.0639V58.481H122.463C122.939 58.481 123.325 58.523 123.622 58.61C123.919 58.694 124.146 58.861 124.305 59.107C124.463 59.353 124.542 59.705 124.542 60.165C124.542 60.472 124.516 60.726 124.462 60.927C124.406 61.127 124.304 61.293 124.152 61.421C124.001 61.552 123.786 61.639 123.507 61.685V61.755C123.815 61.774 124.054 61.846 124.22 61.97C124.389 62.096 124.501 62.26 124.56 62.463C124.618 62.665 124.648 62.921 124.648 63.23C124.648 63.749 124.569 64.141 124.409 64.406C124.251 64.672 124.021 64.847 123.722 64.934C123.422 65.02 123.014 65.0639 122.497 65.0639H119.004ZM120.759 59.92V61.114H122.023C122.241 61.114 122.402 61.0979 122.505 61.0639C122.608 61.0319 122.681 60.9709 122.724 60.8829C122.767 60.7939 122.787 60.661 122.787 60.482C122.787 60.271 122.75 60.125 122.679 60.043C122.607 59.961 122.458 59.92 122.234 59.92H120.759ZM120.759 62.334V63.625H122.083C122.281 63.625 122.437 63.605 122.554 63.569C122.671 63.531 122.756 63.465 122.81 63.368C122.864 63.272 122.892 63.134 122.892 62.957C122.892 62.697 122.838 62.527 122.731 62.45C122.624 62.372 122.421 62.334 122.12 62.334H120.759ZM127.536 58.481H125.782V65.0639H129.168C129.613 65.0639 129.986 64.991 130.287 64.846C130.589 64.701 130.815 64.474 130.968 64.166C131.12 63.857 131.196 63.461 131.196 62.975C131.196 62.489 131.118 62.091 130.966 61.783C130.814 61.473 130.584 61.246 130.28 61.101C129.976 60.958 129.6 60.886 129.149 60.886H127.536V58.481ZM127.536 62.325H128.754C129.013 62.325 129.192 62.371 129.291 62.46C129.391 62.549 129.44 62.726 129.44 62.992C129.44 63.243 129.391 63.409 129.291 63.496C129.192 63.582 129.013 63.625 128.754 63.625H127.536V62.325ZM133.943 58.481V65.0639H132.188V58.481H133.943ZM141.211 58.481L139.394 61.6759L141.353 65.0639H139.309L138 62.527L136.701 65.0639H134.638L136.613 61.6759L134.762 58.481H136.815L138 60.893L139.194 58.481H141.211ZM149.876 63.932H147.515L147.192 65.0639H145.366L147.34 58.481H150.009L152.011 65.0639H150.22L149.876 63.932ZM149.525 62.6499L148.709 59.796H148.691L147.893 62.6499H149.525ZM152.747 65.0639V58.481H156.206C156.682 58.481 157.068 58.523 157.365 58.61C157.662 58.694 157.889 58.861 158.048 59.107C158.206 59.353 158.285 59.705 158.285 60.165C158.285 60.472 158.259 60.726 158.205 60.927C158.149 61.127 158.047 61.293 157.895 61.421C157.744 61.552 157.529 61.639 157.25 61.685V61.755C157.558 61.774 157.797 61.846 157.963 61.97C158.132 62.096 158.244 62.26 158.303 62.463C158.362 62.665 158.391 62.921 158.391 63.23C158.391 63.749 158.312 64.141 158.152 64.406C157.994 64.672 157.764 64.847 157.465 64.934C157.165 65.02 156.757 65.0639 156.24 65.0639H152.747ZM154.502 59.92V61.114H155.766C155.984 61.114 156.145 61.0979 156.248 61.0639C156.351 61.0319 156.425 60.9709 156.467 60.8829C156.51 60.7939 156.53 60.661 156.53 60.482C156.53 60.271 156.493 60.125 156.422 60.043C156.35 59.961 156.201 59.92 155.977 59.92H154.502ZM154.502 62.334V63.625H155.826C156.024 63.625 156.18 63.605 156.297 63.569C156.414 63.531 156.499 63.465 156.553 63.368C156.607 63.272 156.635 63.134 156.635 62.957C156.635 62.697 156.581 62.527 156.474 62.45C156.367 62.372 156.164 62.334 155.863 62.334H154.502ZM162.464 60.008V65.0639H160.708V60.008H159.023V58.481H164.237V60.008H162.464ZM167.887 65.117C167.399 65.117 166.977 65.083 166.617 65.016C166.257 64.949 165.944 64.829 165.678 64.654C165.413 64.482 165.207 64.235 165.06 63.916C164.915 63.597 164.842 63.191 164.842 62.703V60.842C164.842 60.353 164.915 59.948 165.062 59.626C165.208 59.306 165.414 59.06 165.679 58.888C165.944 58.715 166.257 58.596 166.617 58.529C166.977 58.462 167.399 58.428 167.887 58.428C168.375 58.428 168.799 58.462 169.161 58.529C169.522 58.596 169.834 58.715 170.1 58.888C170.365 59.06 170.57 59.306 170.716 59.626C170.861 59.948 170.934 60.353 170.934 60.842V62.703C170.934 63.191 170.861 63.597 170.716 63.916C170.571 64.235 170.366 64.482 170.1 64.654C169.835 64.829 169.522 64.949 169.161 65.016C168.799 65.083 168.375 65.117 167.887 65.117ZM167.887 63.589C168.223 63.589 168.475 63.566 168.643 63.519C168.81 63.474 168.933 63.374 169.01 63.221C169.088 63.069 169.126 62.83 169.126 62.51V61.026C169.126 60.779 169.104 60.586 169.06 60.446C169.017 60.304 168.947 60.198 168.854 60.128C168.758 60.058 168.637 60.011 168.488 59.989C168.339 59.967 168.138 59.955 167.887 59.955C167.555 59.955 167.306 59.979 167.14 60.024C166.977 60.069 166.857 60.168 166.779 60.318C166.702 60.468 166.659 60.704 166.651 61.026V62.51C166.659 62.833 166.702 63.072 166.778 63.224C166.854 63.374 166.975 63.474 167.14 63.519C167.306 63.566 167.555 63.589 167.887 63.589ZM173.655 60.017L173.831 65.0639H172.075V58.481H174.856L176.113 62.615H176.174L177.368 58.481H180.22V65.0639H178.465L178.64 60.017H178.579L176.911 65.0639H175.393L173.708 60.017H173.655ZM184.397 65.117C183.91 65.117 183.487 65.083 183.127 65.016C182.768 64.949 182.454 64.829 182.188 64.654C181.924 64.482 181.717 64.235 181.571 63.916C181.426 63.597 181.353 63.191 181.353 62.703V60.842C181.353 60.353 181.426 59.948 181.573 59.626C181.719 59.306 181.925 59.06 182.19 58.888C182.454 58.715 182.768 58.596 183.127 58.529C183.487 58.462 183.91 58.428 184.397 58.428C184.886 58.428 185.31 58.462 185.671 58.529C186.033 58.596 186.344 58.715 186.611 58.888C186.876 59.06 187.08 59.306 187.227 59.626C187.371 59.948 187.445 60.353 187.445 60.842V62.703C187.445 63.191 187.371 63.597 187.227 63.916C187.082 64.235 186.877 64.482 186.611 64.654C186.346 64.829 186.033 64.949 185.671 65.016C185.31 65.083 184.886 65.117 184.397 65.117ZM184.397 63.589C184.734 63.589 184.985 63.566 185.154 63.519C185.32 63.474 185.443 63.374 185.521 63.221C185.598 63.069 185.636 62.83 185.636 62.51V61.026C185.636 60.779 185.615 60.586 185.571 60.446C185.528 60.304 185.458 60.198 185.364 60.128C185.269 60.058 185.148 60.011 184.999 59.989C184.85 59.967 184.649 59.955 184.397 59.955C184.065 59.955 183.817 59.979 183.651 60.024C183.487 60.069 183.367 60.168 183.29 60.318C183.212 60.468 183.17 60.704 183.161 61.026V62.51C183.17 62.833 183.212 63.072 183.288 63.224C183.365 63.374 183.486 63.474 183.651 63.519C183.817 63.566 184.065 63.589 184.397 63.589ZM193.361 58.481H188.561V65.0639H191.949C192.4 65.0639 192.776 64.997 193.074 64.864C193.372 64.73 193.598 64.514 193.748 64.217C193.901 63.92 193.976 63.529 193.976 63.045C193.976 62.561 193.902 62.17 193.753 61.873C193.603 61.578 193.38 61.363 193.081 61.228C192.783 61.094 192.405 61.026 191.949 61.026H190.324V59.859H193.361V58.481ZM190.324 62.396H191.533C191.792 62.396 191.971 62.441 192.07 62.53C192.17 62.619 192.22 62.796 192.22 63.063C192.22 63.313 192.17 63.479 192.07 63.566C191.971 63.652 191.792 63.695 191.533 63.695H190.324V62.396ZM195.16 58.481H196.828V62.815H196.889L198.943 58.481H201.252V65.0639H199.584V60.729H199.524L197.548 65.0639H195.16V58.481ZM203.42 58.481H208.757V65.0639H206.992V60.008H205.088V62.773C205.088 63.26 205.016 63.679 204.874 64.028C204.731 64.378 204.513 64.647 204.22 64.834C203.926 65.023 203.563 65.117 203.13 65.117C202.814 65.117 202.516 65.0899 202.235 65.0379V63.616C202.358 63.657 202.536 63.677 202.77 63.677C203.01 63.677 203.179 63.613 203.275 63.483C203.372 63.352 203.42 63.124 203.42 62.798V58.481ZM211.971 59.92V61.123H214.78V62.343H211.971V63.625H215.025V65.0639H210.215V58.481H214.964V59.92H211.971ZM216.474 58.481H218.142V62.815H218.203L220.257 58.481H222.566V65.0639H220.898V60.729H220.838L218.861 65.0639H216.474V58.481ZM218.572 56.657C218.572 56.883 218.632 57.038 218.749 57.12C218.866 57.202 219.074 57.243 219.372 57.243C219.669 57.243 219.877 57.202 219.994 57.122C220.111 57.04 220.169 56.885 220.169 56.657H220.908C220.908 57.034 220.849 57.321 220.729 57.515C220.609 57.71 220.443 57.838 220.226 57.903C220.011 57.966 219.726 57.998 219.372 57.998C219.015 57.998 218.728 57.966 218.512 57.903C218.297 57.838 218.13 57.71 218.011 57.514C217.894 57.319 217.834 57.032 217.834 56.657H218.572Z" fill="white"/>
<path fill-rule="evenodd" clip-rule="evenodd" d="M37.912 34.484H0L2.80801 44.716L40.847 44.717L37.912 34.484Z" fill="#E21C2A"/>
</svg>
