<svg width="20" height="20" viewBox="0 0 20 20" xmlns="http://www.w3.org/2000/svg">
<path d="M8.79375 11.4375C8.79375 11.1958 8.59797 11 8.35625 11H0.4375C0.195781 11 0 11.1958 0 11.4375V19.3563C0 19.598 0.195781 19.7938 0.4375 19.7938H8.35625C8.59797 19.7938 8.79375 19.598 8.79375 19.3563V11.4375ZM7.91875 18.875H0.875V11.875H7.91875V18.875Z"/>
<path d="M19.7937 11.4375C19.7937 11.1958 19.598 11 19.3562 11H11.4375C11.1958 11 11 11.1958 11 11.4375V19.3563C11 19.598 11.1958 19.7938 11.4375 19.7938H19.3562C19.598 19.7938 19.7937 19.598 19.7937 19.3563V11.4375ZM18.9187 18.875H11.875V11.875H18.9187V18.875Z"/>
<path d="M19.7938 0.4375C19.7938 0.195781 19.598 0 19.3563 0H11.4375C11.1958 0 11 0.195781 11 0.4375V8.35625C11 8.59797 11.1958 8.79375 11.4375 8.79375H19.3563C19.598 8.79375 19.7938 8.59797 19.7938 8.35625V0.4375ZM18.9188 7.91875H11.875V0.875H18.9188V7.91875Z"/>
<path d="M8.79374 0.4375C8.79374 0.195781 8.59795 0 8.35624 0H0.437499C0.195781 0 0 0.195781 0 0.4375V8.35625C0 8.59797 0.195781 8.79375 0.437499 8.79375H8.35624C8.59795 8.79375 8.79374 8.59797 8.79374 8.35625V0.4375ZM7.91874 7.91875H0.874999V0.875H7.91874V7.91875Z"/>
</svg>
