<svg width="62" height="62" viewBox="0 0 62 62" fill="none" xmlns="http://www.w3.org/2000/svg">
<g clip-path="url(#clip0)">
<path d="M61.9295 24.0134L56.2122 13.2416C56.0182 12.8763 55.6877 12.6248 55.3132 12.5216C55.3107 12.521 55.3092 12.5201 55.3065 12.5193L31.4885 6.09023C31.2408 6.02358 30.9799 6.0232 30.7322 6.08973L6.79435 12.5188C6.79169 12.5196 6.78992 12.5205 6.78714 12.5212C6.41201 12.6242 6.08103 12.8759 5.88689 13.2416L0.169711 24.0134C-0.0165864 24.3645 -0.0511141 24.7765 0.0740962 25.1537C0.199307 25.5308 0.473504 25.8405 0.83282 26.0102L5.80721 28.3616V43.0762C5.80721 43.6345 6.12669 44.1435 6.62955 44.386L30.4773 55.8955C30.6776 55.9922 30.8938 56.04 31.1093 56.04C31.3232 56.04 31.5358 55.9908 31.7324 55.8975C31.7356 55.8967 31.7386 55.8969 31.7415 55.8954L55.5893 44.3859C56.0922 44.1433 56.4116 43.6344 56.4116 43.0761V28.3629C56.4116 28.3439 56.4095 28.3253 56.4089 28.3066L61.2665 26.0103C61.6258 25.8405 61.9 25.531 62.0252 25.1538C62.1503 24.7764 62.1158 24.3646 61.9295 24.0134ZM31.1084 9.00068L50.1539 14.1415L31.0496 21.2218L11.9544 14.1451L31.1084 9.00068ZM7.85965 15.7297L29.0938 23.5993L24.4171 33.9413L3.45351 24.0315L7.85965 15.7297ZM8.71614 42.1632V29.7368L24.5112 37.2032C24.7075 37.2961 24.92 37.3429 25.1328 37.3429C25.3025 37.3429 25.4724 37.3133 25.6347 37.2536C26.0008 37.119 26.2974 36.843 26.4582 36.4876L29.655 29.4182V52.2688L8.71614 42.1632ZM53.5026 42.1632L32.5638 52.2688V29.6826L35.641 36.4876C35.8018 36.843 36.0984 37.1189 36.4645 37.2536C36.6268 37.3133 36.7968 37.3429 36.9664 37.3429C37.1793 37.3429 37.3917 37.2962 37.588 37.2032L53.5026 29.6802V42.1632ZM37.6821 33.9412L33.0053 23.5992L54.2394 15.7295L58.6457 24.0314L37.6821 33.9412Z" fill="#A9A9A9"/>
</g>
<defs>
<clipPath id="clip0">
<rect width="62" height="62" fill="white"/>
</clipPath>
</defs>
</svg>
