<svg width="24" height="20" viewBox="0 0 24 20" xmlns="http://www.w3.org/2000/svg">
<path d="M7.19922 0L7.19923 5H23.9994V0H7.19922ZM22.7992 3.75H8.39924V1.25H22.7992V3.75Z" />
<path d="M7.19922 12.5H23.9997L23.9992 7.5H7.19922V12.5ZM8.40442 8.68164H22.5933V11.2836H8.40442V8.68164Z" />
<path d="M7.19922 19.9272H23.9994V15H7.19922V19.9272ZM8.39922 16.25H15.5992H22.7992V18.75H8.40409L8.39922 16.25Z"/>
<path d="M0 5H4.8V0H0V5ZM1.2 1.25H3.6V3.75H1.2V1.25Z"/>
<path d="M0 12.5H4.8V7.5H0V12.5ZM1.2 8.75H3.6V11.25H1.2V8.75Z"/>
<path d="M0 20H4.8V15H0V20ZM1.2 16.25H3.6V18.75H1.2V16.25Z"/>
</svg>
