<svg width="48" height="48" viewBox="0 0 48 48" fill="none" xmlns="http://www.w3.org/2000/svg">
<path d="M45.6 9.5999H35.2V6.3999C35.1973 4.1917 33.4082 2.40264 31.2 2.3999H16.8C14.5918 2.40264 12.8027 4.1917 12.8 6.3999V9.5999H2.4C1.07461 9.5999 0 10.6745 0 11.9999V29.8077C0.00507812 30.8226 0.644531 31.7253 1.6 32.0663V43.1999C1.6 44.5253 2.67461 45.5999 4 45.5999H44C45.3254 45.5999 46.4 44.5253 46.4 43.1999V32.0671C47.3555 31.7257 47.9953 30.8226 48 29.8077V11.9999C48 10.6745 46.9254 9.5999 45.6 9.5999ZM14.4 6.3999C14.4 5.07451 15.4746 3.9999 16.8 3.9999H31.2C32.5254 3.9999 33.6 5.07451 33.6 6.3999V9.5999H32V6.3999C32 5.95811 31.6418 5.5999 31.2 5.5999H16.8C16.3582 5.5999 16 5.95811 16 6.3999V9.5999H14.4V6.3999ZM30.4 9.5999H17.6V7.1999H30.4V9.5999ZM44.8 43.1999C44.8 43.6417 44.4418 43.9999 44 43.9999H4C3.5582 43.9999 3.2 43.6417 3.2 43.1999V32.3413L20.8 34.7687V36.7999C20.8 38.1253 21.8746 39.1999 23.2 39.1999H24.8C26.1254 39.1999 27.2 38.1253 27.2 36.7999V34.7687L44.8 32.3413V43.1999ZM25.6 36.7999C25.6 37.2417 25.2418 37.5999 24.8 37.5999H23.2C22.7582 37.5999 22.4 37.2417 22.4 36.7999V31.9999C22.4 31.5581 22.7582 31.1999 23.2 31.1999H24.8C25.2418 31.1999 25.6 31.5581 25.6 31.9999V36.7999ZM46.4 29.8077C46.4004 30.2065 46.107 30.5448 45.7121 30.6007L45.4902 30.6312L27.2 33.1534V31.9999C27.2 30.6745 26.1254 29.5999 24.8 29.5999H23.2C21.8746 29.5999 20.8 30.6745 20.8 31.9999V33.1534L2.28867 30.6007C1.89375 30.5452 1.59961 30.2069 1.6 29.8077V11.9999C1.6 11.5581 1.9582 11.1999 2.4 11.1999H45.6C46.0418 11.1999 46.4 11.5581 46.4 11.9999V29.8077Z" fill="#009028"/>
</svg>
