<svg width="48" height="48" viewBox="0 0 48 48" fill="none" xmlns="http://www.w3.org/2000/svg">
<path d="M10.0636 10.0646C9.20964 10.0646 8.51518 9.37014 8.51518 8.51621C8.51518 7.66227 9.20964 6.96782 10.0636 6.96782C10.9175 6.96782 11.612 7.66227 11.612 8.51621H13.1603C13.1603 6.80834 11.7714 5.41943 10.0636 5.41943C8.3557 5.41943 6.9668 6.80834 6.9668 8.51621C6.9668 10.2241 8.3557 11.613 10.0636 11.613C10.9175 11.613 11.612 12.3074 11.612 13.1614C11.612 14.0153 10.9175 14.7098 10.0636 14.7098C9.20964 14.7098 8.51518 14.0153 8.51518 13.1614H6.9668C6.9668 14.8692 8.3557 16.2581 10.0636 16.2581C11.7714 16.2581 13.1603 14.8692 13.1603 13.1614C13.1603 11.4535 11.7714 10.0646 10.0636 10.0646Z" fill="#009028"/>
<path d="M10.8394 3.87109H9.29102V6.19367H10.8394V3.87109Z" fill="#009028"/>
<path d="M10.8394 15.4839H9.29102V17.8065H10.8394V15.4839Z" fill="#009028"/>
<path d="M0 43.355V48.0001H13.9355V43.355H0ZM12.3871 46.4518H1.54839V44.9034H12.3871V46.4518Z" fill="#009028"/>
<path d="M0 40.2583V44.9035H13.9355V40.2583H0ZM12.3871 43.3551H1.54839V41.8067H12.3871V43.3551Z" fill="#009028"/>
<path d="M0 37.1611V41.8063H13.9355V37.1611H0ZM12.3871 40.2579H1.54839V38.7095H12.3871V40.2579Z" fill="#009028"/>
<path d="M20.1295 43.355V44.9034H27.8715V46.4518H17.0328V44.9034H18.5811V43.355H15.4844V48.0001H29.4199V43.355H20.1295Z" fill="#009028"/>
<path d="M15.4844 40.2583V44.1293H17.0328V41.8067H27.8715V44.1293H29.4199V40.2583H15.4844Z" fill="#009028"/>
<path d="M15.4844 37.1611V41.8063H29.4199V37.1611H15.4844ZM27.8715 40.2579H17.0328V38.7095H27.8715V40.2579Z" fill="#009028"/>
<path d="M15.4844 34.0645V38.7096H29.4199V34.0645H15.4844ZM27.8715 37.1612H17.0328V35.6128H27.8715V37.1612Z" fill="#009028"/>
<path d="M15.4844 30.9678V35.6129H29.4199V30.9678H15.4844ZM27.8715 34.0645H17.0328V32.5162H27.8715V34.0645Z" fill="#009028"/>
<path d="M30.9668 43.355V48.0001H44.9023V43.355H30.9668ZM43.3539 46.4518H32.5152V44.9034H43.3539V46.4518Z" fill="#009028"/>
<path d="M30.9668 40.2583V44.9035H44.9023V40.2583H30.9668ZM43.3539 43.3551H32.5152V41.8067H43.3539V43.3551Z" fill="#009028"/>
<path d="M30.9668 37.1611V41.8063H44.9023V37.1611H30.9668ZM43.3539 40.2579H32.5152V38.7095H43.3539V40.2579Z" fill="#009028"/>
<path d="M30.9668 34.0645V38.7096H44.9023V34.0645H30.9668ZM43.3539 37.1612H32.5152V35.6128H43.3539V37.1612Z" fill="#009028"/>
<path d="M41.8055 30.9678V32.5162H43.3539V34.0645H32.5152V32.5162H40.2571V30.9678H30.9668V35.6129H44.9023V30.9678H41.8055Z" fill="#009028"/>
<path d="M30.9668 27.8711V31.7421H32.5152V29.4195H43.3539V31.7421H44.9023V27.8711H30.9668Z" fill="#009028"/>
<path d="M30.9668 24.7744V29.4196H44.9023V24.7744H30.9668ZM43.3539 27.8712H32.5152V26.3228H43.3539V27.8712Z" fill="#009028"/>
<path d="M36.3863 0C35.1058 0 34.0637 1.04206 34.0637 2.32258C34.0637 3.6031 35.1058 4.64516 36.3863 4.64516H39.9367L28.5329 16.0498L22.4005 12.2168L0.294922 29.5796L1.25183 30.7974L22.5011 14.1066L28.7558 18.0155L43.6745 3.09677H36.3863C35.9589 3.09677 35.6121 2.74916 35.6121 2.32258C35.6121 1.896 35.9589 1.54839 36.3863 1.54839H46.4508V11.6129C46.4508 12.0395 46.104 12.3871 45.6766 12.3871C45.2492 12.3871 44.9024 12.0395 44.9024 11.6129V5.09884L29.2838 20.7166L22.3726 16.8774L2.61208 32.6857L3.57982 33.895L22.529 18.7355L29.5532 22.6382L43.354 8.83664V11.6129C43.354 12.8934 44.3961 13.9355 45.6766 13.9355C46.9571 13.9355 47.9992 12.8934 47.9992 11.6129V0H36.3863Z" fill="#009028"/>
<path d="M4.64604 10.0645H3.09766V11.6128H4.64604V10.0645Z" fill="#009028"/>
<path d="M17.0328 10.0645H15.4844V11.6128H17.0328V10.0645Z" fill="#009028"/>
<path d="M10.0645 0.774414C4.5151 0.774414 0 5.28951 0 10.8389C0 16.3883 4.5151 20.9034 10.0645 20.9034C15.6139 20.9034 20.129 16.3883 20.129 10.8389C20.129 5.28951 15.6139 0.774414 10.0645 0.774414ZM10.0645 19.3551C5.36903 19.3551 1.54839 15.5344 1.54839 10.8389C1.54839 6.14345 5.36903 2.3228 10.0645 2.3228C14.76 2.3228 18.5806 6.14345 18.5806 10.8389C18.5806 15.5344 14.76 19.3551 10.0645 19.3551Z" fill="#009028"/>
</svg>
