<svg width="48" height="48" viewBox="0 0 48 48" fill="none" xmlns="http://www.w3.org/2000/svg">
<path d="M47.25 35.6113H0.75C0.33525 35.6113 0 35.2761 0 34.8613C0 34.4466 0.33525 34.1113 0.75 34.1113H47.25C47.6647 34.1113 48 34.4466 48 34.8613C48 35.2761 47.6647 35.6113 47.25 35.6113Z" fill="#009028"/>
<path d="M37.4977 32.6386H2.25C1.83525 32.6386 1.5 32.3033 1.5 31.8886V23.6431C1.5 23.2283 1.83525 22.8931 2.25 22.8931H37.4977C37.9125 22.8931 38.2477 23.2283 38.2477 23.6431V31.8878C38.2477 32.3026 37.9125 32.6386 37.4977 32.6386ZM3 31.1386H36.7477V24.3946H3V31.1386Z" fill="#009028"/>
<path d="M37.4979 24.3929H2.25014C1.94714 24.3929 1.67264 24.2107 1.55714 23.9302C1.44089 23.6497 1.50539 23.3272 1.71989 23.1127L9.97289 14.8574C10.1139 14.7164 10.3036 14.6377 10.5031 14.6377H45.7509C46.0539 14.6377 46.3284 14.8199 46.4439 15.1004C46.5601 15.3809 46.4956 15.7034 46.2811 15.9179L38.0281 24.1732C37.8879 24.3142 37.6974 24.3929 37.4979 24.3929ZM4.06064 22.8929H37.1874L43.9404 16.1369H10.8136L4.06064 22.8929Z" fill="#009028"/>
<path d="M37.4963 32.6384C37.3043 32.6384 37.1123 32.5649 36.966 32.4187C36.6728 32.1254 36.6728 31.6514 36.966 31.3582L45.2198 23.1052C45.5138 22.8119 45.9863 22.8119 46.2803 23.1052C46.5743 23.3984 46.5743 23.8724 46.2803 24.1657L38.0265 32.4187C37.8803 32.5649 37.6883 32.6384 37.4963 32.6384Z" fill="#009028"/>
<path d="M45.75 24.3857C45.3353 24.3857 45 24.0504 45 23.6357V15.3887C45 14.9739 45.3353 14.6387 45.75 14.6387C46.1655 14.6387 46.5 14.9739 46.5 15.3887V23.6357C46.5 24.0489 46.1655 24.3857 45.75 24.3857Z" fill="#009028"/>
<path d="M10.502 24.3932C10.0872 24.3932 9.75195 24.0579 9.75195 23.6432V15.3887C9.75195 14.9739 10.0872 14.6387 10.502 14.6387C10.9167 14.6387 11.252 14.9739 11.252 15.3887V23.6447C11.252 24.0587 10.9167 24.3932 10.502 24.3932Z" fill="#009028"/>
<path d="M37.4979 46.8737H2.25014C1.94714 46.8737 1.67264 46.6907 1.55714 46.4109C1.44089 46.1297 1.50539 45.8072 1.71989 45.5934L9.97289 37.3374C10.1139 37.1957 10.3036 37.1177 10.5031 37.1177H45.7509C46.0539 37.1177 46.3284 37.2992 46.4439 37.5804C46.5601 37.8602 46.4956 38.1827 46.2811 38.3979L38.0281 46.6539C37.8879 46.7949 37.6974 46.8737 37.4979 46.8737ZM4.06064 45.3737H37.1874L43.9404 38.6177H10.8136L4.06064 45.3737Z" fill="#009028"/>
<path d="M10.502 46.8707C10.0872 46.8707 9.75195 46.5354 9.75195 46.1207V37.8677C9.75195 37.4529 10.0872 37.1177 10.502 37.1177C10.9167 37.1177 11.252 37.4529 11.252 37.8677V46.1207C11.252 46.5354 10.9167 46.8707 10.502 46.8707Z" fill="#009028"/>
<path d="M24 24.396C23.5853 24.396 23.25 24.0607 23.25 23.646V1.87646C23.25 1.46171 23.5853 1.12646 24 1.12646C24.4147 1.12646 24.75 1.46171 24.75 1.87646V23.646C24.75 24.0615 24.4147 24.396 24 24.396Z" fill="#009028"/>
<path d="M29.25 12.375C28.8353 12.375 28.5 12.0398 28.5 11.625V4.875C28.5 4.46025 28.8353 4.125 29.25 4.125C29.6655 4.125 30 4.46025 30 4.875V11.625C30 12.0398 29.6655 12.375 29.25 12.375Z" fill="#009028"/>
<path d="M29.2508 12.3752C29.0588 12.3752 28.866 12.3017 28.7205 12.1554C28.4265 11.8622 28.4265 11.3882 28.7205 11.0949L30.2205 9.59494C30.5145 9.30169 30.987 9.30169 31.281 9.59494C31.575 9.88819 31.575 10.3622 31.281 10.6554L29.781 12.1554C29.6355 12.3009 29.4428 12.3752 29.2508 12.3752Z" fill="#009028"/>
<path d="M29.2508 12.3752C29.0588 12.3752 28.866 12.3017 28.7205 12.1554L27.2205 10.6554C26.9265 10.3622 26.9265 9.88819 27.2205 9.59494C27.5145 9.30169 27.987 9.30169 28.281 9.59494L29.781 11.0949C30.075 11.3882 30.075 11.8622 29.781 12.1554C29.6355 12.3009 29.4428 12.3752 29.2508 12.3752Z" fill="#009028"/>
<path d="M18.7402 12.375C18.3255 12.375 17.9902 12.0398 17.9902 11.625V4.875C17.9902 4.46025 18.3255 4.125 18.7402 4.125C19.155 4.125 19.4902 4.46025 19.4902 4.875V11.625C19.4902 12.0398 19.155 12.375 18.7402 12.375Z" fill="#009028"/>
<path d="M18.7404 12.3752C18.5484 12.3752 18.3564 12.3017 18.2102 12.1554C17.9169 11.8622 17.9169 11.3882 18.2102 11.0949L19.7102 9.59494C20.0034 9.30169 20.4774 9.30169 20.7707 9.59494C21.0639 9.88819 21.0639 10.3622 20.7707 10.6554L19.2707 12.1554C19.1244 12.3009 18.9324 12.3752 18.7404 12.3752Z" fill="#009028"/>
<path d="M18.7404 12.3752C18.5484 12.3752 18.3564 12.3017 18.2102 12.1554L16.7102 10.6554C16.4169 10.3622 16.4169 9.88819 16.7102 9.59494C17.0034 9.30169 17.4774 9.30169 17.7707 9.59494L19.2707 11.0949C19.5639 11.3882 19.5639 11.8622 19.2707 12.1554C19.1244 12.3009 18.9324 12.3752 18.7404 12.3752Z" fill="#009028"/>
</svg>
