<svg width="50" height="50" viewBox="0 0 50 50" fill="none" xmlns="http://www.w3.org/2000/svg">
<path d="M19.125 38.7104C18.3174 38.7104 17.6602 38.0531 17.6602 37.2456C17.6602 36.4365 17.0044 35.7807 16.1953 35.7807C15.3862 35.7807 14.7305 36.4365 14.7305 37.2456C14.7305 39.1609 15.9626 40.7928 17.6758 41.3933V42.6758C17.6758 43.4849 18.3315 44.1406 19.1406 44.1406C19.9497 44.1406 20.6055 43.4849 20.6055 42.6758V41.3826C22.3023 40.7738 23.5195 39.1495 23.5195 37.2456C23.5195 34.8225 21.5481 32.851 19.125 32.851C18.3174 32.851 17.6602 32.1938 17.6602 31.3862C17.6602 30.5782 18.3174 29.9213 19.125 29.9213C19.9326 29.9213 20.5898 30.5782 20.5898 31.3862C20.5898 32.1953 21.2456 32.851 22.0547 32.851C22.8638 32.851 23.5195 32.1953 23.5195 31.3862C23.5195 29.4823 22.3023 27.858 20.6055 27.2488V25.0977C20.6055 24.2886 19.9497 23.6328 19.1406 23.6328C18.3315 23.6328 17.6758 24.2886 17.6758 25.0977V27.2381C15.9626 27.8385 14.7305 29.4704 14.7305 31.3862C14.7305 33.8093 16.7019 35.7807 19.125 35.7807C19.9326 35.7807 20.5898 36.4376 20.5898 37.2456C20.5898 38.0531 19.9326 38.7104 19.125 38.7104Z" fill="#A9A9A9"/>
<path d="M5.97076 47.6078C9.01909 49.2397 13.2042 50 19.1406 50C23.9708 50 27.6062 49.4995 30.4306 48.4352C31.2374 49.3912 32.4432 50 33.7891 50H45.6055C48.0286 50 50 48.0286 50 45.6055C50 44.4809 49.5747 43.454 48.8773 42.6758C49.575 41.8976 50 40.8707 50 39.7461C50 38.6215 49.5747 37.5946 48.8773 36.8164C49.575 36.0382 50 35.0113 50 33.8867C50 32.7621 49.5747 31.7352 48.8773 30.957C49.575 30.1788 50 29.1519 50 28.0273C50 25.6042 48.0286 23.6328 45.6055 23.6328H33.7891C33.6464 23.6328 33.5052 23.6401 33.366 23.6538C31.8958 21.8731 30.1731 20.38 28.2749 19.2348C28.9703 18.4574 29.3945 17.4316 29.3945 16.3086C29.3945 14.558 28.3653 13.0436 26.8803 12.3375L29.3224 4.84886C29.4678 4.40254 29.3907 3.91388 29.1153 3.53432C28.8395 3.15437 28.3989 2.92969 27.9297 2.92969H23.2834C22.6784 1.22452 21.0503 0 19.1406 0C17.2306 0 15.6017 1.22452 14.9971 2.92969H10.3516C9.88235 2.92969 9.44176 3.15437 9.16595 3.53432C8.89053 3.91388 8.81348 4.40254 8.95882 4.84886L11.401 12.3375C9.91592 13.0436 8.88672 14.558 8.88672 16.3086C8.88672 17.4324 9.31129 18.4589 10.0079 19.2368C4.13055 22.784 0 29.5212 0 36.8164C0 41.856 2.00882 45.4865 5.97076 47.6078ZM47.0703 33.8867C47.0703 34.6943 46.413 35.3516 45.6055 35.3516H33.7891C32.9815 35.3516 32.3242 34.6943 32.3242 33.8867C32.3242 33.0791 32.9815 32.4219 33.7891 32.4219H45.6055C46.413 32.4219 47.0703 33.0791 47.0703 33.8867ZM47.0703 39.7461C47.0703 40.5537 46.413 41.2109 45.6055 41.2109H33.7891C32.9815 41.2109 32.3242 40.5537 32.3242 39.7461C32.3242 38.9385 32.9815 38.2812 33.7891 38.2812H45.6055C46.413 38.2812 47.0703 38.9385 47.0703 39.7461ZM45.6055 47.0703H33.7891C32.9815 47.0703 32.3242 46.413 32.3242 45.6055C32.3242 44.7979 32.9815 44.1406 33.7891 44.1406H45.6055C46.413 44.1406 47.0703 44.7979 47.0703 45.6055C47.0703 46.413 46.413 47.0703 45.6055 47.0703ZM47.0703 28.0273C47.0703 28.8349 46.413 29.4922 45.6055 29.4922H33.7891C32.9815 29.4922 32.3242 28.8349 32.3242 28.0273C32.3242 27.2198 32.9815 26.5625 33.7891 26.5625H45.6055C46.413 26.5625 47.0703 27.2198 47.0703 28.0273ZM24.958 17.7734H13.3236C13.3106 17.7731 13.2977 17.7734 13.2847 17.7734H13.2812C12.4737 17.7734 11.8164 17.1162 11.8164 16.3086C11.8164 15.5025 12.471 14.8464 13.2767 14.8441H13.2809C13.2843 14.8441 13.2877 14.8438 13.2912 14.8438H24.9897C24.9931 14.8438 24.9969 14.8441 25.0004 14.8441H25.0046C25.8102 14.8464 26.4648 15.5025 26.4648 16.3086C26.4648 17.1162 25.8076 17.7734 25 17.7734H24.9954C24.9832 17.7734 24.9706 17.7731 24.958 17.7734ZM16.2109 5.85938C17.02 5.85938 17.6758 5.20363 17.6758 4.39453C17.6758 3.58696 18.3331 2.92969 19.1406 2.92969C19.9482 2.92969 20.6055 3.58696 20.6055 4.39453V7.32422C20.6055 8.13332 21.2612 8.78906 22.0703 8.78906C22.8794 8.78906 23.5352 8.13332 23.5352 7.32422V5.85938H25.9113L23.9368 11.9141H14.3444L12.3699 5.85938H16.2109ZM13.567 20.7031H24.7086C26.9268 21.6297 28.9486 23.0888 30.6347 24.9722C29.8679 25.7637 29.3945 26.841 29.3945 28.0273C29.3945 29.1519 29.8199 30.1788 30.5172 30.957C29.8199 31.7352 29.3945 32.7621 29.3945 33.8867C29.3945 35.0113 29.8199 36.0382 30.5172 36.8164C29.8199 37.5946 29.3945 38.6215 29.3945 39.7461C29.3945 40.8707 29.8199 41.8976 30.5172 42.6758C29.8199 43.454 29.3945 44.4809 29.3945 45.6055C29.3945 45.6356 29.3961 45.6654 29.3968 45.6951C26.9188 46.6309 23.6183 47.0703 19.1406 47.0703C13.7054 47.0703 9.95979 46.4203 7.35359 45.0249C4.3354 43.409 2.92969 40.8009 2.92969 36.8164C2.92969 29.9072 7.29065 23.3231 13.567 20.7031Z" fill="#A9A9A9"/>
</svg>
