<svg width="50" height="50" viewBox="0 0 50 50" fill="none" xmlns="http://www.w3.org/2000/svg">
<g clip-path="url(#clip0)">
<path d="M18.3557 22.8432C19.51 22.8432 20.4457 21.9074 20.4457 20.7531C20.4457 19.5988 19.51 18.6631 18.3557 18.6631C17.2014 18.6631 16.2656 19.5988 16.2656 20.7531C16.2656 21.9074 17.2014 22.8432 18.3557 22.8432Z" fill="#A9A9A9"/>
<path d="M31.633 31.3266C32.7873 31.3266 33.7231 30.3908 33.7231 29.2365C33.7231 28.0822 32.7873 27.1465 31.633 27.1465C30.4787 27.1465 29.543 28.0822 29.543 29.2365C29.543 30.3908 30.4787 31.3266 31.633 31.3266Z" fill="#A9A9A9"/>
<path d="M48.8664 27.7606L48.1082 26.7258C47.2886 25.5988 47.2681 24.0723 48.0775 22.9248L48.8151 21.8798C49.9421 20.2815 49.4196 18.0583 47.6881 17.126L46.5612 16.5215C45.3317 15.8658 44.6555 14.4929 44.8912 13.1098L45.1063 11.8496C45.4342 9.92348 43.9896 8.14079 42.0327 8.05883L40.752 8.00761C39.3587 7.94613 38.1497 7.00356 37.7604 5.66142L37.4018 4.43198C36.8588 2.54684 34.7893 1.57353 32.9861 2.35218L31.8079 2.8542C30.5272 3.40745 29.0314 3.0796 28.0991 2.03458L27.2487 1.08176C25.9475 -0.373079 23.6628 -0.362833 22.3719 1.12274L21.5318 2.0858C20.6097 3.14107 19.1241 3.48941 17.8332 2.95666L16.6448 2.46488C14.8313 1.71697 12.7823 2.73126 12.2598 4.6164L11.9217 5.85608C11.5528 7.20847 10.3644 8.17153 8.97102 8.24325L7.69035 8.31497C5.73349 8.42766 4.31963 10.2308 4.67822 12.157L4.91386 13.4171C5.17 14.79 4.51429 16.1731 3.2951 16.8493L2.17836 17.4743C0.467387 18.4271 -0.0243893 20.6606 1.13333 22.2384L1.89149 23.2732C2.71112 24.4001 2.73161 25.9267 1.92222 27.0742L1.18456 28.1192C0.0575735 29.7175 0.580086 31.9407 2.31155 32.873L3.43853 33.4775C4.66797 34.1332 5.34417 35.5061 5.10852 36.8892L4.89337 38.1494C4.56552 40.0755 6.01011 41.8582 7.96697 41.9402L9.24764 41.9914C10.641 42.0529 11.85 42.9954 12.2393 44.3376L12.5979 45.567C13.1409 47.4521 15.2104 48.4254 17.0136 47.6468L18.1918 47.1448C19.4725 46.5915 20.9683 46.9194 21.9006 47.9644L22.751 48.9172C24.0624 50.3721 26.3471 50.3618 27.6278 48.8762L28.4679 47.9132C29.39 46.8579 30.8755 46.5096 32.1665 47.0423L33.3549 47.5341C35.1683 48.282 37.2174 47.2677 37.7399 45.3826L38.078 44.1429C38.4468 42.7905 39.6353 41.8275 41.0287 41.7557L42.3093 41.684C44.2662 41.5713 45.6801 39.7681 45.3215 37.842L45.0858 36.5818C44.8297 35.209 45.4854 33.8258 46.7046 33.1497L47.8213 32.5247C49.5323 31.5821 50.0241 29.3486 48.8664 27.7606ZM13.3048 20.7528C13.3048 17.9661 15.5588 15.7121 18.3455 15.7121C21.1322 15.7121 23.3862 17.9661 23.3862 20.7528C23.3862 23.5395 21.1322 25.7935 18.3455 25.7935C15.5588 25.7935 13.3048 23.5293 13.3048 20.7528ZM19.3188 33.7541C18.8885 34.2766 18.1099 34.3484 17.5873 33.9181C17.0648 33.4878 16.9931 32.7091 17.4234 32.1866L30.6501 16.2551C31.0805 15.7326 31.8591 15.6609 32.3816 16.0912C32.9041 16.5215 32.9758 17.3001 32.5455 17.8226L19.3188 33.7541ZM31.6337 34.2766C28.847 34.2766 26.593 32.0227 26.593 29.2359C26.593 26.4492 28.847 24.1952 31.6337 24.1952C34.4204 24.1952 36.6744 26.4492 36.6744 29.2359C36.6744 32.0227 34.4204 34.2766 31.6337 34.2766Z" fill="#A9A9A9"/>
</g>
<defs>
<clipPath id="clip0">
<rect width="50" height="50" fill="white"/>
</clipPath>
</defs>
</svg>
