<svg width="50" height="50" viewBox="0 0 50 50" fill="none" xmlns="http://www.w3.org/2000/svg">
<path d="M20.6055 26.4648H29.3945V29.3945H20.6055V26.4648Z" fill="#A9A9A9"/>
<path d="M40.5643 29.3945H32.3242V30.8594C32.3242 31.6688 31.6689 32.3242 30.8594 32.3242H19.1406C18.3311 32.3242 17.6758 31.6688 17.6758 30.8594V29.3945H9.43565C7.54166 29.3945 5.86662 28.1872 5.26695 26.3904L0 10.5869V42.5781C0 45.0012 1.97144 46.9726 4.39453 46.9726H45.6055C48.0286 46.9726 50 45.0012 50 42.5781V10.5881L44.7327 26.3904C44.1334 28.1872 42.4583 29.3945 40.5643 29.3945Z" fill="#A9A9A9"/>
<path d="M30.8585 3.02734H19.1398C16.7167 3.02734 14.7453 4.99878 14.7453 7.42188V8.88672H2.51953L8.04436 25.4635C8.24463 26.0628 8.80386 26.4648 9.43481 26.4648H17.6749V25C17.6749 24.1905 18.3303 23.5352 19.1398 23.5352H30.8585C31.668 23.5352 32.3234 24.1905 32.3234 25V26.4648H40.5635C41.1945 26.4648 41.7537 26.0628 41.954 25.4635L47.4792 8.88672H35.2531V7.42188C35.2531 4.99878 33.2816 3.02734 30.8585 3.02734ZM17.6749 8.88672V7.42188C17.6749 6.61354 18.3315 5.95703 19.1398 5.95703H30.8585C31.6669 5.95703 32.3234 6.61354 32.3234 7.42188V8.88672H17.6749Z" fill="#A9A9A9"/>
</svg>
