<svg width="20" height="20" viewBox="0 0 20 20" xmlns="http://www.w3.org/2000/svg">
<path d="M19.1837 4.10197C18.3674 4.10197 17.551 4.10197 16.7347 4.10197C16.7347 3.36727 16.7347 2.63259 16.7347 1.89788C16.7347 1.44703 16.3692 1.08154 15.9184 1.08154C11.9728 1.08154 8.0272 1.08154 4.08161 1.08154C3.63076 1.08154 3.26527 1.447 3.26527 1.89788C3.26527 2.63259 3.26527 3.36727 3.26527 4.10197C2.44893 4.10197 1.63262 4.10197 0.816276 4.10197C0.365458 4.10197 0 4.46746 0 4.91831C0 7.58498 0 10.2517 0 12.9183C0 13.3692 0.365458 13.7347 0.816341 13.7347C1.63268 13.7347 2.44899 13.7347 3.26533 13.7347C3.26533 14.6986 3.26533 15.6625 3.26533 16.6265C3.26533 17.0966 3.26533 17.5667 3.26533 18.0368C3.26533 18.309 3.32036 18.512 3.53072 18.7044C3.6287 18.794 3.73331 18.8521 3.86108 18.888C3.97942 18.9212 4.09638 18.9184 4.21599 18.9184C6.144 18.9184 8.07201 18.9184 9.99998 18.9184C11.928 18.9184 13.856 18.9184 15.784 18.9184C15.9037 18.9184 16.0207 18.9212 16.1391 18.888C16.267 18.8521 16.3717 18.7938 16.4696 18.7041C16.68 18.5114 16.7347 18.3081 16.7347 18.0359C16.7347 17.5655 16.7347 17.0951 16.7347 16.6247C16.7347 15.6614 16.7347 14.698 16.7347 13.7347C17.551 13.7347 18.3673 13.7347 19.1837 13.7347C19.6345 13.7347 20 13.3692 20 12.9184C20 10.2517 20 7.58502 20 4.91835C20 4.4675 19.6346 4.10197 19.1837 4.10197ZM2.04082 6.97953C1.64634 6.97953 1.32654 6.65972 1.32654 6.26524C1.32654 5.87077 1.64634 5.55096 2.04082 5.55096C2.4353 5.55096 2.7551 5.87077 2.7551 6.26524C2.7551 6.65972 2.4353 6.97953 2.04082 6.97953ZM15.9184 18.102H4.08164V11.653H15.9184V18.102ZM15.9184 4.10197C11.9728 4.10197 8.02724 4.10197 4.08164 4.10197C4.08164 3.63939 4.08164 3.17677 4.08164 2.71423C4.08164 2.26337 4.4471 1.89788 4.89798 1.89788C8.29933 1.89788 11.7007 1.89788 15.1021 1.89788C15.5529 1.89788 15.9184 2.26334 15.9184 2.71423C15.9184 3.17684 15.9184 3.63942 15.9184 4.10197Z"/>
</svg>
