<svg width="33" height="20" viewBox="0 0 33 20" fill="none" xmlns="http://www.w3.org/2000/svg">
<path d="M16.5 0C10.195 0 4.47729 3.50721 0.258208 9.20384C-0.0860694 9.67056 -0.0860694 10.3226 0.258208 10.7893C4.47729 16.4928 10.195 20 16.5 20C22.805 20 28.5227 16.4928 32.7418 10.7962C33.0861 10.3294 33.0861 9.67742 32.7418 9.21071C28.5227 3.50721 22.805 0 16.5 0ZM16.9523 17.0419C12.767 17.3095 9.31068 13.8023 9.57395 9.54015C9.78997 6.02608 12.5914 3.17776 16.0477 2.95813C20.233 2.69046 23.6893 6.19767 23.4261 10.4598C23.2033 13.9671 20.4018 16.8154 16.9523 17.0419ZM16.743 13.7886C14.4883 13.9327 12.6252 12.0453 12.7737 9.75292C12.8885 7.85861 14.4006 6.32807 16.2637 6.20453C18.5184 6.0604 20.3816 7.94784 20.233 10.2402C20.1115 12.1414 18.5994 13.6719 16.743 13.7886Z" fill="#A3A3A3"/>
</svg>
