<svg width="39" height="39" viewBox="0 0 39 39" fill="#9B9B9B" xmlns="http://www.w3.org/2000/svg">
<g clip-path="url(#clip0)">
<path d="M38.5853 15.8484L20.0987 2.31291C19.7422 2.05195 19.2579 2.05195 18.9016 2.31291L0.4148 15.8484C-0.0367469 16.1791 -0.134856 16.8131 0.195806 17.2647C0.526468 17.7162 1.1606 17.8142 1.61207 17.4837L19.5 4.38639L37.388 17.4836C37.5684 17.6158 37.778 17.6794 37.9858 17.6794C38.2978 17.6794 38.6057 17.5358 38.8042 17.2646C39.135 16.8131 39.0368 16.1791 38.5853 15.8484Z" fill=""/>
<path d="M33.6867 17.7129C33.1271 17.7129 32.6734 18.1666 32.6734 18.7262V34.8555H24.567V26.0511C24.567 23.2571 22.2939 20.9842 19.5001 20.9842C16.7062 20.9842 14.4331 23.2573 14.4331 26.0511V34.8556H6.32668V18.7263C6.32668 18.1666 5.87292 17.713 5.31336 17.713C4.7538 17.713 4.30005 18.1666 4.30005 18.7263V35.869C4.30005 36.4286 4.7538 36.8823 5.31336 36.8823H15.4464C15.9793 36.8823 16.4154 36.4706 16.4558 35.9479C16.4582 35.9242 16.4597 35.8983 16.4597 35.869V26.0512C16.4597 24.3747 17.8236 23.0109 19.5001 23.0109C21.1765 23.0109 22.5404 24.3748 22.5404 26.0512V35.869C22.5404 35.8982 22.5419 35.9236 22.5444 35.947C22.5843 36.4701 23.0205 36.8823 23.5537 36.8823H33.6868C34.2464 36.8823 34.7001 36.4286 34.7001 35.869V18.7263C34.7 18.1666 34.2463 17.7129 33.6867 17.7129Z" fill=""/>
</g>
<defs>
<clipPath id="clip0">
<rect width="39" height="39" fill="white"/>
</clipPath>
</defs>
</svg>
