<svg width="127" height="72" viewBox="0 0 127 72" fill="none" xmlns="http://www.w3.org/2000/svg">
<path d="M102.575 38.5021C99.6161 38.2173 83.004 37.2886 79.407 36.7774C77.5048 36.5856 72.3325 35.806 70.427 35.4923C68.5216 35.1786 64.7925 34.2942 64.7925 34.2942C62.0958 33.511 60.9333 33.1266 59.3991 32.7279C57.7009 32.2865 54.9019 31.1661 53.2037 30.7247C52.5652 30.4983 51.9264 30.272 51.5018 30.1616C57.9603 27.4227 58.7155 1.1746 58.7155 1.1746C58.7155 1.1746 46.0455 23.3581 48.3121 29.1513C47.2457 28.6926 46.1801 28.2336 45.1137 27.7749C48.1691 23.9095 16.0058 3.93237 16.0058 3.93237C16.0058 3.93237 37.3774 30.0611 44.2838 28.2857C45.3536 28.8663 46.4205 29.3249 47.4936 30.0274C47.9215 30.2596 48.3495 30.4918 48.988 30.7183C37.1674 30.0667 0.845875 33.617 0.845875 33.617C0.845875 33.617 50.823 36.1574 52.6114 32.2047C54.1024 32.7738 57.0814 33.7901 57.0814 33.7901C58.9936 34.3476 60.694 34.9108 62.6062 35.4682C64.515 35.9038 66.4276 36.4613 68.3364 36.8969C70.2452 37.3325 72.1544 37.7678 74.0599 38.0815C77.8742 38.8308 76.241 38.7016 79.4134 39.1025C77.9325 38.8991 74.3735 38.3354 79.4134 39.1025L102.575 38.5021Z" fill="url(#paint0_linear)"/>
<path d="M23.6219 57.0571C23.6219 56.079 24.0538 55.2714 24.9176 54.6342C25.7986 53.997 27.2239 53.5302 29.1933 53.2339L32.2251 52.7893C32.2251 52.4337 32.1129 52.1447 31.8883 51.9224C31.6637 51.6853 31.275 51.5668 30.7222 51.5668C30.3248 51.5668 30.0139 51.6186 29.7893 51.7224C29.582 51.8113 29.4265 51.8928 29.3229 51.9669C29.1674 52.0854 29.0205 52.1595 28.8823 52.1891C28.7441 52.2188 28.58 52.2336 28.39 52.2336H25.099C24.9262 52.2336 24.7794 52.1891 24.6585 52.1002C24.5548 52.0113 24.5116 51.8928 24.5289 51.7446C24.5634 51.4038 24.7362 51.0481 25.0472 50.6776C25.3581 50.3072 25.7814 49.9664 26.3169 49.6552C26.8697 49.344 27.5176 49.0846 28.2604 48.8772C29.0205 48.6697 29.8411 48.566 30.7222 48.566C31.776 48.566 32.6916 48.6771 33.469 48.8994C34.2464 49.1217 34.8856 49.4329 35.3866 49.833C35.9048 50.2183 36.2849 50.6851 36.5268 51.2333C36.7686 51.7668 36.8895 52.3596 36.8895 53.0116L36.8895 59.7466C36.8895 59.9097 36.8204 60.0504 36.6822 60.169C36.544 60.2875 36.3799 60.3468 36.1899 60.3468H32.9248C32.7348 60.3468 32.5707 60.2875 32.4325 60.169C32.2942 60.0504 32.2251 59.9097 32.2251 59.7466L32.2251 59.1243C31.8105 59.5688 31.2923 59.9245 30.6703 60.1912C30.0657 60.4431 29.2624 60.5691 28.2604 60.5691C27.5176 60.5691 26.8524 60.4802 26.2651 60.3023C25.695 60.1245 25.2113 59.88 24.8139 59.5688C24.4339 59.2576 24.1402 58.8872 23.9329 58.4574C23.7256 58.0277 23.6219 57.5609 23.6219 57.0571ZM29.5302 57.5683C29.9102 57.5683 30.2644 57.5164 30.5926 57.4127C30.9208 57.2942 31.2059 57.1386 31.4477 56.9459C31.6896 56.7533 31.8796 56.531 32.0178 56.2791C32.156 56.0124 32.2251 55.7308 32.2251 55.4344L29.8411 55.7456C29.3747 55.8197 28.9946 55.9457 28.7009 56.1235C28.4245 56.3013 28.2863 56.531 28.2863 56.8126C28.2863 57.0941 28.39 57.2942 28.5973 57.4127C28.8219 57.5164 29.1328 57.5683 29.5302 57.5683ZM61.0114 59.7466C61.0114 59.9097 60.9423 60.0504 60.8041 60.169C60.6659 60.2875 60.5018 60.3468 60.3118 60.3468H57.1762C56.9862 60.3468 56.8221 60.2875 56.6839 60.169C56.5457 60.0504 56.4766 59.9097 56.4766 59.7466L56.4766 54.0563C56.4766 53.3154 56.3125 52.7893 55.9842 52.4781C55.6733 52.1669 55.2068 52.0113 54.5849 52.0113C53.9803 52.0113 53.5138 52.1669 53.1856 52.4781C52.8746 52.7893 52.7192 53.3154 52.7192 54.0563L52.7192 59.7466C52.7192 59.9097 52.65 60.0504 52.5118 60.169C52.3736 60.2875 52.2095 60.3468 52.0195 60.3468H48.884C48.6939 60.3468 48.5298 60.2875 48.3916 60.169C48.2534 60.0504 48.1843 59.9097 48.1843 59.7466L48.1843 54.0563C48.1843 53.3154 48.0202 52.7893 47.692 52.4781C47.381 52.1669 46.9146 52.0113 46.2926 52.0113C45.688 52.0113 45.2216 52.1669 44.8933 52.4781C44.5824 52.7745 44.4269 53.2783 44.4269 53.9896L44.4269 59.7466C44.4269 59.9097 44.3578 60.0504 44.2196 60.169C44.0814 60.2875 43.9173 60.3468 43.7272 60.3468H40.4621C40.2721 60.3468 40.108 60.2875 39.9698 60.169C39.8316 60.0504 39.7625 59.9097 39.7625 59.7466L39.7625 49.3884C39.7625 49.2254 39.8316 49.0846 39.9698 48.9661C40.108 48.8475 40.2721 48.7883 40.4621 48.7883H43.5977C43.7877 48.7883 43.9518 48.8475 44.09 48.9661C44.2282 49.0846 44.2973 49.2254 44.2973 49.3884L44.2973 49.8997C44.6774 49.4847 45.1352 49.1587 45.6707 48.9216C46.2235 48.6845 46.8627 48.566 47.5883 48.566C48.4694 48.566 49.264 48.7068 49.9723 48.9883C50.6979 49.2699 51.2853 49.707 51.7344 50.2998C52.2354 49.7367 52.8401 49.3069 53.5484 49.0106C54.274 48.7142 55.0514 48.566 55.8806 48.566C56.6234 48.566 57.3058 48.6697 57.9277 48.8772C58.5669 49.0698 59.1111 49.3736 59.5603 49.7885C60.0267 50.2035 60.3809 50.7295 60.6227 51.3667C60.8819 52.0039 61.0114 52.7597 61.0114 53.634L61.0114 59.7466ZM72.0159 48.566C72.7933 48.566 73.5275 48.6697 74.2185 48.8772C74.9095 49.0846 75.5142 49.4032 76.0324 49.833C76.5507 50.2479 76.9653 50.774 77.2763 51.4112C77.6045 52.0484 77.7859 52.8041 77.8205 53.6784C77.8377 53.9007 77.8464 54.2045 77.8464 54.5898C77.8464 54.9602 77.8377 55.2566 77.8205 55.4789C77.7859 56.3532 77.6045 57.1089 77.2763 57.7461C76.9653 58.3833 76.5507 58.9168 76.0324 59.3465C75.5142 59.7615 74.9095 60.0727 74.2185 60.2801C73.5275 60.4728 72.7933 60.5691 72.0159 60.5691C71.4458 60.5691 70.9621 60.5246 70.5647 60.4357C70.1847 60.3616 69.8564 60.2653 69.58 60.1468C69.3209 60.0134 69.0963 59.8726 68.9063 59.7244C68.7335 59.5614 68.5694 59.3984 68.4139 59.2354L68.4139 59.7466C68.4139 59.9097 68.3448 60.0504 68.2066 60.169C68.0684 60.2875 67.9043 60.3468 67.7143 60.3468H64.5788C64.3887 60.3468 64.2246 60.2875 64.0864 60.169C63.9482 60.0504 63.8791 59.9097 63.8791 59.7466L63.8791 45.1651C63.8791 45.0021 63.9482 44.8613 64.0864 44.7428C64.2246 44.6242 64.3887 44.565 64.5788 44.565H67.8438C68.0339 44.565 68.198 44.6242 68.3362 44.7428C68.4744 44.8613 68.5435 45.0021 68.5435 45.1651L68.5435 49.8997C68.6644 49.7663 68.8199 49.6255 69.0099 49.4773C69.2 49.3143 69.4332 49.1661 69.7096 49.0328C69.986 48.8994 70.3142 48.7883 70.6943 48.6994C71.0744 48.6104 71.5149 48.566 72.0159 48.566ZM73.182 53.9452C73.1302 53.4265 72.9315 52.9745 72.586 52.5893C72.2405 52.204 71.6617 52.0113 70.8498 52.0113C70.4697 52.0113 70.1415 52.0632 69.8651 52.1669C69.5887 52.2707 69.3554 52.4114 69.1654 52.5893C68.9927 52.7523 68.8545 52.9375 68.7508 53.145C68.6471 53.3524 68.578 53.5673 68.5435 53.7896C68.5089 54.0118 68.4917 54.2712 68.4917 54.5675C68.4917 54.8639 68.5089 55.1232 68.5435 55.3455C68.578 55.5678 68.6471 55.7827 68.7508 55.9901C68.8545 56.1976 68.9927 56.3902 69.1654 56.5681C69.3554 56.7311 69.5887 56.8644 69.8651 56.9682C70.1415 57.0719 70.4697 57.1238 70.8498 57.1238C71.6617 57.1238 72.2405 56.9311 72.586 56.5458C72.9315 56.1605 73.1302 55.7086 73.182 55.1899C73.2338 54.775 73.2338 54.3601 73.182 53.9452ZM93.8294 53.7229C93.8467 53.9452 93.8554 54.2341 93.8554 54.5898C93.8554 54.9306 93.8467 55.2121 93.8294 55.4344C93.7949 56.1457 93.6049 56.8126 93.2593 57.4349C92.9138 58.0573 92.4388 58.6056 91.8341 59.0798C91.2295 59.5392 90.4953 59.9022 89.6315 60.169C88.785 60.4357 87.8348 60.5691 86.781 60.5691C85.7272 60.5691 84.7684 60.4357 83.9046 60.169C83.0581 59.9022 82.3326 59.5392 81.7279 59.0798C81.1233 58.6056 80.6482 58.0573 80.3027 57.4349C79.9572 56.8126 79.7671 56.1457 79.7326 55.4344C79.7153 55.2121 79.7067 54.9306 79.7067 54.5898C79.7067 54.2341 79.7153 53.9452 79.7326 53.7229C79.7499 53.0116 79.9313 52.3447 80.2768 51.7224C80.6223 51.1 81.0974 50.5591 81.702 50.0997C82.3239 49.6255 83.0581 49.2551 83.9046 48.9883C84.7684 48.7068 85.7272 48.566 86.781 48.566C87.8348 48.566 88.785 48.7068 89.6315 48.9883C90.4953 49.2551 91.2295 49.6255 91.8341 50.0997C92.456 50.5591 92.9311 51.1 93.2593 51.7224C93.6049 52.3447 93.7949 53.0116 93.8294 53.7229ZM84.397 55.3233C84.4488 55.8864 84.682 56.331 85.0966 56.657C85.5285 56.9682 86.09 57.1238 86.781 57.1238C87.472 57.1238 88.0249 56.9682 88.4395 56.657C88.8714 56.331 89.1132 55.8864 89.165 55.3233C89.1996 55.101 89.2169 54.8491 89.2169 54.5675C89.2169 54.286 89.1996 54.0341 89.165 53.8118C89.1132 53.2487 88.8714 52.8115 88.4395 52.5003C88.0249 52.1743 87.472 52.0113 86.781 52.0113C86.09 52.0113 85.5285 52.1743 85.0966 52.5003C84.682 52.8115 84.4488 53.2487 84.397 53.8118C84.3624 54.0341 84.3452 54.286 84.3452 54.5675C84.3452 54.8491 84.3624 55.101 84.397 55.3233ZM109.798 53.7229C109.815 53.9452 109.823 54.2341 109.823 54.5898C109.823 54.9306 109.815 55.2121 109.798 55.4344C109.763 56.1457 109.573 56.8126 109.227 57.4349C108.882 58.0573 108.407 58.6056 107.802 59.0798C107.198 59.5392 106.463 59.9022 105.6 60.169C104.753 60.4357 103.803 60.5691 102.749 60.5691C101.695 60.5691 100.736 60.4357 99.8727 60.169C99.0262 59.9022 98.3006 59.5392 97.696 59.0798C97.0913 58.6056 96.6163 58.0573 96.2708 57.4349C95.9252 56.8126 95.7352 56.1457 95.7007 55.4344C95.6834 55.2121 95.6747 54.9306 95.6747 54.5898C95.6747 54.2341 95.6834 53.9452 95.7007 53.7229C95.7179 53.0116 95.8993 52.3447 96.2448 51.7224C96.5904 51.1 97.0654 50.5591 97.6701 50.0997C98.292 49.6255 99.0262 49.2551 99.8727 48.9883C100.736 48.7068 101.695 48.566 102.749 48.566C103.803 48.566 104.753 48.7068 105.6 48.9883C106.463 49.2551 107.198 49.6255 107.802 50.0997C108.424 50.5591 108.899 51.1 109.227 51.7224C109.573 52.3447 109.763 53.0116 109.798 53.7229ZM100.365 55.3233C100.417 55.8864 100.65 56.331 101.065 56.657C101.497 56.9682 102.058 57.1238 102.749 57.1238C103.44 57.1238 103.993 56.9682 104.408 56.657C104.839 56.331 105.081 55.8864 105.133 55.3233C105.168 55.101 105.185 54.8491 105.185 54.5675C105.185 54.286 105.168 54.0341 105.133 53.8118C105.081 53.2487 104.839 52.8115 104.408 52.5003C103.993 52.1743 103.44 52.0113 102.749 52.0113C102.058 52.0113 101.497 52.1743 101.065 52.5003C100.65 52.8115 100.417 53.2487 100.365 53.8118C100.331 54.0341 100.313 54.286 100.313 54.5675C100.313 54.8491 100.331 55.101 100.365 55.3233ZM116.903 52.367L120.324 49.1661C120.41 49.0921 120.54 49.0106 120.712 48.9216C120.885 48.8327 121.093 48.7883 121.334 48.7883H125.144C125.316 48.7883 125.463 48.8401 125.584 48.9439C125.705 49.0476 125.766 49.1736 125.766 49.3217C125.766 49.3958 125.748 49.4625 125.714 49.5218C125.696 49.5663 125.619 49.6478 125.481 49.7663L120.868 54.1674L126.31 59.391C126.413 59.4947 126.483 59.5762 126.517 59.6355C126.552 59.68 126.569 59.7392 126.569 59.8133C126.569 59.9615 126.508 60.0875 126.388 60.1912C126.267 60.2949 126.12 60.3468 125.947 60.3468H122.086C121.827 60.3468 121.611 60.3172 121.438 60.2579C121.283 60.1838 121.144 60.0875 121.023 59.9689L116.903 55.9901L116.903 59.7466C116.903 59.9097 116.834 60.0504 116.696 60.169C116.558 60.2875 116.394 60.3468 116.204 60.3468H112.938C112.748 60.3468 112.584 60.2875 112.446 60.169C112.308 60.0504 112.239 59.9097 112.239 59.7466L112.239 45.1651C112.239 45.0021 112.308 44.8613 112.446 44.7428C112.584 44.6242 112.748 44.565 112.938 44.565H116.204C116.394 44.565 116.558 44.6242 116.696 44.7428C116.834 44.8613 116.903 45.0021 116.903 45.1651L116.903 52.367Z" fill="url(#paint1_linear)"/>
<path d="M70.5 46L83 40.1587L119 38.5L109 44H84.5L83 46H70.5Z" fill="url(#paint2_linear)"/>
<path d="M54 70.5L62 64H74L71.5 71.5L54 70.5Z" fill="#E69700"/>
<path d="M4.91 60.9712C4.69 60.9712 4.5 60.8912 4.34 60.7312C4.18 60.5712 4.1 60.3812 4.1 60.1612V40.7812C4.1 40.5612 4.18 40.3712 4.34 40.2112C4.5 40.0512 4.69 39.9712 4.91 39.9712H14.57C15.91 39.9712 17.04 40.1612 17.96 40.5412C18.88 40.9012 19.61 41.3812 20.15 41.9812C20.71 42.5612 21.11 43.2312 21.35 43.9912C21.59 44.7312 21.71 45.4712 21.71 46.2112C21.71 46.7912 21.64 47.3012 21.5 47.7412C21.38 48.1612 21.23 48.5312 21.05 48.8512C20.87 49.1512 20.68 49.4012 20.48 49.6012C20.3 49.7812 20.15 49.9212 20.03 50.0212C20.81 50.5612 21.35 51.1912 21.65 51.9112C21.97 52.6112 22.13 53.4612 22.13 54.4612C22.13 55.2812 22.01 56.0812 21.77 56.8612C21.53 57.6412 21.13 58.3412 20.57 58.9612C20.03 59.5612 19.32 60.0512 18.44 60.4312C17.56 60.7912 16.48 60.9712 15.2 60.9712H4.91ZM16.13 46.3312C16.13 45.8112 15.97 45.4012 15.65 45.1012C15.35 44.7812 14.9 44.6212 14.3 44.6212H9.65V48.0412H14.3C14.9 48.0412 15.35 47.8912 15.65 47.5912C15.97 47.2712 16.13 46.8512 16.13 46.3312ZM9.65 56.3212H14.6C15.2 56.3212 15.68 56.1512 16.04 55.8112C16.4 55.4512 16.58 55.0112 16.58 54.4912C16.58 53.9712 16.4 53.5412 16.04 53.2012C15.68 52.8412 15.2 52.6612 14.6 52.6612H9.65V56.3212Z" fill="#E3A400"/>
<defs>
<linearGradient id="paint0_linear" x1="115.953" y1="26.1129" x2="10.5144" y2="18.9145" gradientUnits="userSpaceOnUse">
<stop stop-color="#F92955" stop-opacity="0.44"/>
<stop offset="1" stop-color="#E69700"/>
</linearGradient>
<linearGradient id="paint1_linear" x1="8.5" y1="54.4712" x2="149" y2="54.297" gradientUnits="userSpaceOnUse">
<stop stop-color="#E3A400"/>
<stop stop-color="#E3A400"/>
<stop offset="1" stop-color="#FB1F61"/>
</linearGradient>
<linearGradient id="paint2_linear" x1="102.485" y1="43.9712" x2="74.4984" y2="43.9712" gradientUnits="userSpaceOnUse">
<stop stop-color="#F92955" stop-opacity="0.46"/>
<stop offset="1" stop-color="#E69700"/>
</linearGradient>
</defs>
</svg>
