<svg width="37" height="37" viewBox="0 0 37 37" fill="#9B9B9B" xmlns="http://www.w3.org/2000/svg">
<path d="M35.1324 1.37305H8.06185C7.03207 1.37305 6.19452 2.21088 6.19452 3.24066V6.07568H1.86761C0.83783 6.07568 0 6.91351 0 7.94329V31.9744C0 33.9716 1.61835 35.5982 3.613 35.6126H3.62034C3.62683 35.6128 3.63276 35.6134 3.63925 35.6134H22.8119C23.1112 35.6134 23.3539 35.3709 23.3539 35.0714C23.3539 34.7722 23.1112 34.5294 22.8119 34.5294H6.22811C6.87709 33.872 7.2785 32.9692 7.2785 31.9744V19.3C7.2785 19.0008 7.03574 18.758 6.73651 18.758C6.437 18.758 6.19452 19.0008 6.19452 19.3V31.9744C6.19452 33.3785 5.05577 34.5215 3.65308 34.5291C3.64857 34.5291 3.64405 34.5286 3.63925 34.5286C2.23035 34.5283 1.08398 33.3825 1.08398 31.9744V7.94329C1.08398 7.51139 1.43543 7.15966 1.86761 7.15966H6.19452V17.2766C6.19452 17.5761 6.437 17.8186 6.73651 17.8186C7.03574 17.8186 7.2785 17.5761 7.2785 17.2766V3.24066C7.2785 2.80848 7.62995 2.45703 8.06185 2.45703H35.1324C35.5646 2.45703 35.916 2.80848 35.916 3.24066V31.9744C35.916 33.3833 34.7696 34.5294 33.3607 34.5294H24.8354C24.5359 34.5294 24.2934 34.7722 24.2934 35.0714C24.2934 35.3709 24.5359 35.6134 24.8354 35.6134H33.3607C35.3675 35.6134 37 33.9809 37 31.9744V3.24066C37 2.21088 36.1622 1.37305 35.1324 1.37305V1.37305Z" fill=""/>
<path d="M11.8747 22.9993H19.3082C20.0153 22.9993 20.5906 22.424 20.5906 21.7169V14.2834C20.5906 13.5763 20.0153 13.001 19.3082 13.001H11.8747C11.1676 13.001 10.5923 13.5763 10.5923 14.2834V21.7169C10.5923 22.424 11.1676 22.9993 11.8747 22.9993ZM11.6763 14.2834C11.6763 14.1739 11.7652 14.085 11.8747 14.085H19.3082C19.4174 14.085 19.5066 14.1739 19.5066 14.2834V21.7169C19.5066 21.8261 19.4174 21.9153 19.3082 21.9153H11.8747C11.7652 21.9153 11.6763 21.8261 11.6763 21.7169V14.2834Z" fill=""/>
<path d="M22.5608 14.085H32.6201C32.9193 14.085 33.1621 13.8425 33.1621 13.543C33.1621 13.2435 32.9193 13.001 32.6201 13.001H22.5608C22.2616 13.001 22.0188 13.2435 22.0188 13.543C22.0188 13.8425 22.2616 14.085 22.5608 14.085Z" fill=""/>
<path d="M22.5608 18.5425H32.6201C32.9193 18.5425 33.1621 18.2997 33.1621 18.0005C33.1621 17.701 32.9193 17.4585 32.6201 17.4585H22.5608C22.2616 17.4585 22.0188 17.701 22.0188 18.0005C22.0188 18.2997 22.2616 18.5425 22.5608 18.5425Z" fill=""/>
<path d="M22.5608 22.9995H32.6201C32.9193 22.9995 33.1621 22.7567 33.1621 22.4575C33.1621 22.158 32.9193 21.9155 32.6201 21.9155H22.5608C22.2616 21.9155 22.0188 22.158 22.0188 22.4575C22.0188 22.7567 22.2616 22.9995 22.5608 22.9995Z" fill=""/>
<path d="M11.1343 27.4565H32.62C32.9193 27.4565 33.162 27.2141 33.162 26.9146C33.162 26.6153 32.9193 26.3726 32.62 26.3726H11.1343C10.8351 26.3726 10.5923 26.6153 10.5923 26.9146C10.5923 27.2141 10.8351 27.4565 11.1343 27.4565Z" fill=""/>
<path d="M11.1343 31.9136H32.62C32.9193 31.9136 33.162 31.6711 33.162 31.3716C33.162 31.0721 32.9193 30.8296 32.62 30.8296H11.1343C10.8351 30.8296 10.5923 31.0721 10.5923 31.3716C10.5923 31.6711 10.8351 31.9136 11.1343 31.9136Z" fill=""/>
<path d="M10.6062 10.2276V4.50056C10.6062 4.38285 10.6621 4.29308 10.7739 4.23154C10.8857 4.16972 11.0212 4.13867 11.1798 4.13867C11.3918 4.13867 11.5533 4.17706 11.6653 4.25356C11.7768 4.33006 11.9005 4.49492 12.036 4.74757L13.739 8.03932V4.49181C13.739 4.3741 13.7949 4.28603 13.9067 4.22703C14.0182 4.16831 14.1537 4.13867 14.3126 4.13867C14.4716 4.13867 14.6068 4.16831 14.7186 4.22703C14.8304 4.28603 14.8862 4.3741 14.8862 4.49181V10.2276C14.8862 10.3397 14.8287 10.4278 14.7141 10.4924C14.5994 10.5573 14.4656 10.5895 14.3126 10.5895C14.0007 10.5895 13.78 10.469 13.6507 10.2276L11.7534 6.68011V10.2276C11.7534 10.3397 11.6961 10.4278 11.5815 10.4924C11.4669 10.5573 11.3328 10.5895 11.1798 10.5895C11.0212 10.5895 10.8857 10.5573 10.7742 10.4924C10.6621 10.4278 10.6062 10.3397 10.6062 10.2276Z" fill=""/>
<path d="M15.9451 10.2276V4.50056C15.9451 4.38878 15.995 4.3007 16.0952 4.23578C16.1952 4.17113 16.3126 4.13867 16.4481 4.13867H19.5897C19.7071 4.13867 19.7972 4.18892 19.8587 4.28885C19.9205 4.38878 19.9516 4.50367 19.9516 4.63296C19.9516 4.7741 19.9191 4.89492 19.8545 4.99485C19.7895 5.09506 19.7012 5.14474 19.5897 5.14474H17.0923V6.90961H18.4337C18.5452 6.90961 18.6336 6.95534 18.6985 7.04652C18.7631 7.1377 18.7956 7.24496 18.7956 7.36861C18.7956 7.48039 18.7646 7.58173 18.7027 7.67319C18.6409 7.76437 18.5514 7.80982 18.4337 7.80982H17.0923V9.58372H19.5897C19.7012 9.58372 19.7895 9.63368 19.8545 9.73361C19.9191 9.83382 19.9516 9.95436 19.9516 10.0955C19.9516 10.2248 19.9205 10.3397 19.8587 10.4396C19.7972 10.5398 19.7071 10.5895 19.5897 10.5895H16.4481C16.3126 10.5895 16.1952 10.5573 16.0952 10.4927C15.995 10.4278 15.9451 10.3397 15.9451 10.2276Z" fill=""/>
<path d="M20.5249 4.59767C20.5249 4.47403 20.6042 4.36676 20.7632 4.27558C20.9218 4.1844 21.0867 4.13867 21.2572 4.13867C21.4692 4.13867 21.5956 4.21517 21.6366 4.36817L23.0311 9.15125L23.7811 6.08025C23.8339 5.86825 24.0222 5.76239 24.3457 5.76239C24.6635 5.76239 24.8487 5.86825 24.9018 6.08025L25.6518 9.15125L27.046 4.36817C27.0872 4.21517 27.2137 4.13867 27.4257 4.13867C27.5962 4.13867 27.7608 4.1844 27.9197 4.27558C28.0786 4.36676 28.158 4.47403 28.158 4.59767C28.158 4.63296 28.152 4.66824 28.1405 4.70353L26.3931 10.2542C26.3047 10.5133 26.0546 10.6426 25.6431 10.6426C25.4666 10.6426 25.3077 10.6087 25.1666 10.541C25.0254 10.4735 24.9399 10.3778 24.9105 10.2542L24.3459 7.87164L23.7723 10.2542C23.7427 10.3778 23.6574 10.4735 23.5163 10.541C23.3752 10.6087 23.2162 10.6426 23.0398 10.6426C22.8574 10.6426 22.6957 10.6087 22.5546 10.541C22.4131 10.4735 22.3251 10.3778 22.2898 10.2542L20.5424 4.70353C20.5305 4.66824 20.5249 4.63296 20.5249 4.59767Z" fill=""/>
<path d="M28.4492 9.57457C28.4492 9.43935 28.5006 9.30244 28.6036 9.16412C28.7064 9.02608 28.8227 8.95692 28.9523 8.95692C29.0285 8.95692 29.1154 8.99362 29.2125 9.06702C29.3096 9.14013 29.4036 9.22143 29.4948 9.30978C29.586 9.39842 29.717 9.47944 29.8878 9.55283C30.0583 9.62623 30.2465 9.66264 30.4523 9.66264C30.7349 9.66264 30.97 9.598 31.1583 9.46843C31.3466 9.33914 31.4406 9.14803 31.4406 8.8951C31.4406 8.71839 31.3892 8.56116 31.2862 8.42284C31.1835 8.2848 31.048 8.16991 30.8803 8.07873C30.7129 7.98755 30.5288 7.89919 30.329 7.81394C30.1288 7.72869 29.9273 7.633 29.7243 7.52714C29.5213 7.42128 29.3362 7.30215 29.1685 7.16976C29.0008 7.03737 28.8653 6.86094 28.7626 6.64019C28.6595 6.41972 28.6081 6.16821 28.6081 5.88592C28.6081 5.56947 28.6714 5.29001 28.7978 5.04837C28.9243 4.80645 29.0934 4.61845 29.3051 4.48408C29.5168 4.34971 29.7432 4.25119 29.9846 4.18852C30.2257 4.12585 30.4817 4.09424 30.7524 4.09424C30.9051 4.09424 31.0669 4.10497 31.2377 4.12614C31.4082 4.14731 31.5891 4.18203 31.7805 4.2303C31.9716 4.27857 32.1274 4.35423 32.248 4.4567C32.3685 4.55945 32.4289 4.68027 32.4289 4.81944C32.4289 4.95042 32.3877 5.08591 32.3055 5.22593C32.2231 5.36594 32.1113 5.43567 31.9702 5.43567C31.9171 5.43567 31.7729 5.37978 31.5377 5.26799C31.3023 5.1562 31.0406 5.10031 30.7524 5.10031C30.4345 5.10031 30.189 5.16072 30.0156 5.28126C29.842 5.40208 29.7551 5.56806 29.7551 5.77978C29.7551 5.95056 29.8257 6.09904 29.9671 6.22551C30.1082 6.35197 30.2832 6.45501 30.4921 6.53433C30.7007 6.61366 30.9274 6.71387 31.1716 6.8344C31.4155 6.95494 31.6422 7.08592 31.8511 7.22707C32.0597 7.36821 32.235 7.57259 32.3761 7.84019C32.5173 8.10809 32.5878 8.42142 32.5878 8.78021C32.5878 9.38346 32.395 9.84924 32.01 10.177C31.6244 10.5047 31.1171 10.6687 30.4876 10.6687C29.9287 10.6687 29.4494 10.5538 29.0494 10.3243C28.6491 10.0954 28.4492 9.84528 28.4492 9.57457Z" fill=""/>
</svg>
