<svg width="35" height="35" viewBox="0 0 35 35" fill="#9B9B9B" xmlns="http://www.w3.org/2000/svg">
<path d="M34.2707 4.375C34.6734 4.375 35 4.04842 35 3.64574V0.729256C35 0.326576 34.6734 0 34.2707 0H0.729256C0.326576 0 0 0.326576 0 0.729256V3.64574C0 4.04842 0.326576 4.375 0.729256 4.375H1.45824V26.25H0V27.7082H16.7707V30.759C15.9243 31.0611 15.3125 31.8632 15.3125 32.8125C15.3125 34.0187 16.2938 35 17.5 35C18.7062 35 19.6875 34.0187 19.6875 32.8125C19.6875 31.8632 19.0757 31.0611 18.2293 30.759V27.7082H35V26.25H33.5418V4.375H34.2707ZM17.5 33.5418C17.0981 33.5418 16.7707 33.2144 16.7707 32.8125C16.7707 32.4106 17.0981 32.0832 17.5 32.0832C17.9019 32.0832 18.2293 32.4106 18.2293 32.8125C18.2293 33.2144 17.9019 33.5418 17.5 33.5418ZM32.0832 26.25H2.91676V4.375H27.7082V2.91676H1.45824V1.45824H33.5418V2.91676H29.1668V4.375H32.0832V26.25Z" fill=""/>
<path d="M26.9793 12.396H25.5208V21.8752H22.6043V9.47949H21.1458V21.8752H18.2293V7.29199H16.7708V21.8752H13.8543V9.47949H12.3958V21.8752H9.47926V12.396H8.02075V21.8752H5.83325V23.3335H29.1668V21.8752H26.9793V12.396Z" fill=""/>
<path d="M26.25 7.29199H29.1668V8.75024H26.25V7.29199Z" fill=""/>
<path d="M5.83325 7.29199H7.29176V8.75024H5.83325V7.29199Z" fill=""/>
</svg>
