<svg width="36" height="36" viewBox="0 0 36 36" fill="#9B9B9B" xmlns="http://www.w3.org/2000/svg">
<g clip-path="url(#clip0)">
<path d="M23.134 4.44845C22.7722 1.91256 20.5649 0 17.9998 0C16.3502 0 14.7836 0.79602 13.8095 2.13011C13.6106 2.40218 13.6701 2.78383 13.9422 2.9828C14.2133 3.18104 14.5959 3.12223 14.7945 2.8498C15.5401 1.82961 16.7381 1.2204 17.9997 1.2204C19.9614 1.2204 21.649 2.6823 21.9258 4.6206C21.9694 4.92503 22.2306 5.14472 22.5293 5.14472C22.5577 5.14472 22.587 5.14258 22.6161 5.13864C22.9497 5.09092 23.1816 4.78184 23.134 4.44845Z" fill=""/>
<path d="M31.9466 11.2792L30.1161 8.22833C30.006 8.04439 29.8074 7.93213 29.5929 7.93213H27.8387C27.5019 7.93213 27.2286 8.20545 27.2286 8.54224C27.2286 8.87902 27.5019 9.15235 27.8387 9.15235H29.2475L30.3458 10.9829H5.6535L6.7518 9.15235H7.39802C7.7348 9.15235 8.00813 8.87902 8.00813 8.54224C8.00813 8.20545 7.7348 7.93213 7.39802 7.93213H6.40644C6.19192 7.93213 5.99332 8.04439 5.8832 8.22833L4.0527 11.2792C3.93954 11.468 3.93686 11.7027 4.04501 11.894C4.15316 12.0853 4.35588 12.2036 4.57593 12.2036H31.4234C31.6435 12.2036 31.846 12.0853 31.9543 11.894C32.0626 11.7027 32.0598 11.4677 31.9466 11.2792Z" fill=""/>
<path d="M28.9053 5.65291C28.8198 5.51508 28.6834 5.4173 28.5258 5.38048L20.2079 3.43503C20.0504 3.39802 19.8845 3.42555 19.7469 3.51064C19.6096 3.59609 19.5116 3.73248 19.4748 3.89015L18.8475 6.57156C18.7706 6.89958 18.9744 7.22778 19.3026 7.30429C19.6307 7.38116 19.9592 7.17737 20.0357 6.84917L20.5241 4.76214L27.6536 6.4298L26.5333 11.2197C26.4564 11.5477 26.6602 11.8759 26.9884 11.9524C27.0354 11.9633 27.0821 11.9685 27.1282 11.9685C27.4053 11.9685 27.6561 11.7787 27.7214 11.4975L28.9807 6.11357C29.0179 5.95608 28.9907 5.79019 28.9053 5.65291Z" fill=""/>
<path d="M18.3224 7.09547L17.7665 2.39318C17.7475 2.23247 17.6655 2.08571 17.5382 1.98561C17.4109 1.8855 17.2502 1.83974 17.0888 1.85869L6.88337 3.06496C6.54891 3.10465 6.30973 3.40782 6.34924 3.74264L7.27611 11.5854C7.31294 11.8959 7.57625 12.1242 7.88139 12.1242C7.90517 12.1242 7.92966 12.1226 7.95397 12.1199C8.28825 12.0802 8.52743 11.777 8.48811 11.4422L7.63274 4.20492L16.6264 3.14201L17.1104 7.2383C17.1501 7.57294 17.4519 7.81069 17.7881 7.77279C18.1226 7.73346 18.3618 7.43011 18.3224 7.09547Z" fill=""/>
<path d="M23.1483 11.3613L21.9372 6.32493C21.8993 6.1678 21.8004 6.03177 21.6626 5.94721C21.5248 5.86337 21.3594 5.83709 21.2012 5.87463L11.3717 8.23856C11.044 8.31722 10.8424 8.64685 10.9211 8.97452L11.5263 11.4918C11.605 11.8198 11.9346 12.0217 12.2621 11.9425C12.5898 11.8638 12.7914 11.5342 12.7128 11.2065L12.25 9.28234L20.893 7.20408L21.9615 11.647C22.0285 11.9267 22.2788 12.1144 22.5542 12.1144C22.6016 12.1144 22.6495 12.1089 22.6976 12.0973C23.0253 12.0184 23.2269 11.689 23.1483 11.3613Z" fill=""/>
<path d="M32.0334 11.5622C32.0166 11.238 31.7488 10.9834 31.4239 10.9834H4.57638C4.25139 10.9834 3.98361 11.2378 3.96681 11.5622L2.74641 35.3588C2.73783 35.5258 2.79825 35.6891 2.91337 35.8103C3.02867 35.9314 3.18848 36.0002 3.3558 36.0002H32.6439C32.811 36.0002 32.971 35.9315 33.0869 35.8103C33.2018 35.6891 33.2622 35.5259 33.2538 35.3588L32.0334 11.5622ZM3.99791 34.7798L5.15574 12.2036H30.8438L32.0016 34.7798H3.99791Z" fill=""/>
<path d="M22.5761 13.4238C21.5667 13.4238 20.7456 14.2449 20.7456 15.2543C20.7456 16.2638 21.5667 17.0848 22.5761 17.0848C23.5856 17.0848 24.4066 16.2638 24.4066 15.2543C24.4066 14.2449 23.5856 13.4238 22.5761 13.4238ZM22.5761 15.8646C22.2395 15.8646 21.966 15.5909 21.966 15.2545C21.966 14.9181 22.2397 14.6444 22.5761 14.6444C22.9125 14.6444 23.1862 14.9181 23.1862 15.2545C23.1862 15.5909 22.9125 15.8646 22.5761 15.8646Z" fill=""/>
<path d="M13.4235 13.4238C12.4141 13.4238 11.593 14.2449 11.593 15.2543C11.593 16.2638 12.4141 17.0848 13.4235 17.0848C14.433 17.0848 15.254 16.2638 15.254 15.2543C15.254 14.2449 14.433 13.4238 13.4235 13.4238ZM13.4235 15.8646C13.0871 15.8646 12.8134 15.5909 12.8134 15.2545C12.8134 14.9181 13.0871 14.6444 13.4235 14.6444C13.76 14.6444 14.0336 14.9181 14.0336 15.2545C14.0336 15.5909 13.76 15.8646 13.4235 15.8646Z" fill=""/>
<path d="M22.5761 15.2544H22.5291C22.1923 15.2544 21.919 15.5277 21.919 15.8645C21.919 15.9478 21.9354 16.0274 21.966 16.0998V19.2204C21.966 21.4071 20.1868 23.1865 17.9998 23.1865C15.8129 23.1865 14.0337 21.4073 14.0337 19.2204V15.8647C14.0337 15.5279 13.7604 15.2546 13.4236 15.2546C13.0868 15.2546 12.8135 15.5279 12.8135 15.8647V19.2205C12.8135 22.0804 15.14 24.4069 17.9998 24.4069C20.8597 24.4069 23.1862 22.0804 23.1862 19.2205V15.8647C23.1862 15.5279 22.9129 15.2544 22.5761 15.2544Z" fill=""/>
</g>
<defs>
<clipPath id="clip0">
<rect width="36" height="36" fill="white"/>
</clipPath>
</defs>
</svg>
