<svg width="45" height="49" viewBox="0 0 45 49" fill="none" xmlns="http://www.w3.org/2000/svg">
<g clip-path="url(#clip0)">
<path class="frame-bg" d="M22.5 1.15194L44 13.446V35.5509L22.5 47.7142L1 35.5509V13.446L22.5 1.15194Z" fill="#ffffff00" fill-opacity="0.54" stroke="#373F65" stroke-width="2"/>
<path d="M44.5383 12.3847L23.0087 0.134726C22.693 -0.0449087 22.3075 -0.0449087 21.9917 0.134726L0.462145 12.3847C0.142277 12.5665 -0.0545654 12.9054 -0.0545654 13.2708V35.7292C-0.0545654 36.0947 0.142277 36.4336 0.462145 36.6153L21.9917 48.8653C22.1497 48.9552 22.3239 49.0001 22.5003 49.0001C22.6767 49.0001 22.8509 48.9552 23.0088 48.8653L44.5384 36.6153C44.8583 36.4336 45.0551 36.0947 45.0551 35.7292V13.2708C45.055 12.9054 44.8582 12.5665 44.5383 12.3847ZM43.0045 35.1371L22.5002 46.8031L1.99584 35.1371V13.8629L22.5002 2.19684L43.0045 13.863V35.1371Z" fill="#373F65"/>
<g clip-path="url(#clip1)">
<path d="M24.7958 35.7957C24.5324 35.6905 24.2331 35.8179 24.1275 36.0803C24.0392 36.2995 23.8154 36.4468 23.5707 36.4468H21.693C21.4482 36.4468 21.2245 36.2995 21.1362 36.0803C21.0306 35.8179 20.7314 35.6908 20.4679 35.7957C20.2044 35.9009 20.0764 36.1988 20.1821 36.4612C20.4289 37.0743 21.022 37.4704 21.693 37.4704H23.5707C24.2417 37.4704 24.8348 37.0743 25.0816 36.4612C25.1872 36.1988 25.0593 35.9009 24.7958 35.7957Z" fill="white"/>
<path d="M30.8319 33.1596C30.6923 32.4429 30.2488 31.8225 29.615 31.456C29.7302 31.3623 29.8384 31.2586 29.9371 31.1444C30.4239 30.5813 30.6394 29.8369 30.5284 29.1022C30.348 27.9086 29.8378 26.7932 29.0529 25.8768C28.4652 25.1906 27.7428 24.6377 26.9344 24.2492C27.9238 23.1983 28.5307 21.7863 28.5307 20.2356C28.5306 17.5522 26.7138 15.2832 24.2407 14.5841C24.5776 14.1837 24.7614 13.6833 24.7614 13.1547C24.7614 12.1141 23.9112 11.2676 22.8662 11.2676C22.8662 11.2676 22.8661 11.2676 22.8661 11.2676C22.4443 11.2676 22.0492 11.4042 21.7537 11.6521C21.4271 11.9261 21.2473 12.3113 21.2472 12.7365C21.2472 13.0191 21.4773 13.2483 21.7612 13.2483C22.045 13.2483 22.2752 13.0192 22.2752 12.7365C22.2752 12.6147 22.3226 12.5133 22.4161 12.4347C22.5265 12.3421 22.6863 12.2911 22.8661 12.2911H22.8662C23.3444 12.2911 23.7335 12.6784 23.7335 13.1546C23.7335 13.4771 23.6073 13.7803 23.3783 14.0083C23.1493 14.2363 22.8449 14.3619 22.5211 14.3619C22.521 14.3619 22.521 14.3619 22.521 14.3619C22.5084 14.3619 22.496 14.3629 22.4837 14.3638C19.2993 14.4424 16.733 17.0462 16.733 20.2356C16.733 21.7862 17.3399 23.1982 18.3292 24.2491C17.5208 24.6377 16.7985 25.1905 16.2108 25.8767C15.4259 26.7932 14.9157 27.9085 14.7353 29.1021C14.6243 29.8369 14.8398 30.5812 15.3266 31.1444C15.4252 31.2585 15.5334 31.3623 15.6487 31.456C15.0148 31.8224 14.5713 32.4429 14.4317 33.1596C14.2918 33.8781 14.4714 34.6209 14.9243 35.1973L16.025 36.5978C16.4697 37.1636 17.1452 37.4679 17.8304 37.4679C18.2194 37.4679 18.6116 37.3698 18.9663 37.1659C19.946 36.6027 20.3658 35.3901 19.9429 34.3455L19.2752 32.6961C19.2306 32.5859 19.1778 32.4803 19.119 32.3787H22.8888C23.1727 32.3787 23.4028 32.1495 23.4028 31.8669C23.4028 31.5843 23.1727 31.3552 22.8888 31.3552H18.1419V30.2763C18.1419 30.1373 18.2554 30.0243 18.3949 30.0243H26.8688C27.0083 30.0243 27.1218 30.1373 27.1218 30.2763V31.4259C26.6118 31.7043 26.2092 32.1508 25.9884 32.6961L25.3207 34.3454C24.8977 35.3901 25.3176 36.6027 26.2973 37.1659C26.6521 37.3698 27.0441 37.4679 27.4332 37.4679C28.1183 37.4679 28.7939 37.1636 29.2386 36.5978L30.3393 35.1973C30.7923 34.6209 30.9719 33.8782 30.8319 33.1596ZM17.7609 20.2356C17.7609 17.5613 19.9461 15.3856 22.6318 15.3855C25.3176 15.3856 27.5027 17.5613 27.5028 20.2356C27.5028 22.9099 25.3177 25.0857 22.6318 25.0857C19.946 25.0857 17.7609 22.9099 17.7609 20.2356ZM18.3219 33.0788L18.9896 34.7283C19.2222 35.3028 18.9912 35.9697 18.4524 36.2795C17.9136 36.5893 17.2181 36.4551 16.8346 35.9671L15.7339 34.5666C15.4644 34.2237 15.3576 33.782 15.4409 33.3545C15.5241 32.9271 15.7891 32.5571 16.1678 32.3394C16.5464 32.1217 17.0008 32.0783 17.4141 32.2201C17.8275 32.362 18.1584 32.6751 18.3219 33.0788ZM26.8722 27.9772C26.5883 27.9772 26.3582 28.2064 26.3582 28.489V29.0008H18.9089V28.489C18.9089 28.2064 18.6787 27.9772 18.3949 27.9772C18.111 27.9772 17.8809 28.2064 17.8809 28.489V29.1083C17.4298 29.3059 17.1139 29.755 17.1139 30.2763V30.999C16.7246 30.9603 16.3635 30.7749 16.1056 30.4766C15.8143 30.1396 15.6854 29.6942 15.7518 29.2545C16.046 27.307 17.3501 25.6979 19.1809 24.9962C20.1519 25.696 21.3442 26.1092 22.6318 26.1092C23.9194 26.1092 25.1118 25.696 26.0828 24.9962C27.9135 25.6979 29.2176 27.307 29.5119 29.2545C29.5783 29.6942 29.4493 30.1396 29.158 30.4766C28.9002 30.7749 28.5389 30.9603 28.1497 30.999V30.2763C28.1497 29.7563 27.8354 29.3082 27.3861 29.1099V28.489C27.3861 28.2064 27.156 27.9772 26.8722 27.9772ZM29.5297 34.5665L28.4291 35.967C28.0456 36.4549 27.3502 36.5892 26.8113 36.2795C26.2724 35.9697 26.0415 35.3028 26.2741 34.7281L26.9418 33.0787C27.1053 32.6749 27.4362 32.3619 27.8496 32.22C28.0097 32.1651 28.1759 32.1379 28.3415 32.1379C28.6035 32.1379 28.8639 32.2059 29.0959 32.3393C29.4746 32.557 29.7395 32.927 29.8229 33.3545C29.906 33.7819 29.7992 34.2237 29.5297 34.5665Z" fill="white"/>
<path d="M25.2934 31.5044C25.1978 31.4093 25.0652 31.3545 24.93 31.3545C24.7948 31.3545 24.6622 31.4092 24.5666 31.5044C24.471 31.5997 24.416 31.7317 24.416 31.8663C24.416 32.0014 24.471 32.1329 24.5666 32.2281C24.6622 32.3238 24.7948 32.3781 24.93 32.3781C25.0652 32.3781 25.1978 32.3238 25.2934 32.2281C25.389 32.1329 25.444 32.0009 25.444 31.8663C25.444 31.7317 25.389 31.5996 25.2934 31.5044Z" fill="white"/>
<path d="M24.0485 21.9833C23.828 21.8053 23.5044 21.8392 23.3256 22.0587C23.1548 22.2685 22.9018 22.3888 22.6315 22.3888C22.3612 22.3888 22.1081 22.2685 21.9373 22.0587C21.7586 21.8391 21.435 21.8054 21.2144 21.9833C20.9939 22.1613 20.96 22.4836 21.1388 22.7032C21.5056 23.1539 22.0497 23.4123 22.6315 23.4123C23.2132 23.4123 23.7573 23.1538 24.1242 22.7032C24.3029 22.4836 24.2691 22.1613 24.0485 21.9833Z" fill="white"/>
<path d="M21.333 19.8736C20.8667 19.4093 20.1081 19.4093 19.6418 19.8736C19.4411 20.0734 19.441 20.3974 19.6418 20.5973C19.8425 20.7972 20.1679 20.7972 20.3686 20.5974C20.4341 20.5322 20.5406 20.5322 20.6061 20.5974C20.7065 20.6973 20.838 20.7473 20.9695 20.7473C21.1011 20.7473 21.2326 20.6973 21.333 20.5974C21.5337 20.3975 21.5337 20.0735 21.333 19.8736Z" fill="white"/>
<path d="M25.6217 19.8735C25.1554 19.4093 24.3967 19.4093 23.9304 19.8735C23.7297 20.0734 23.7297 20.3974 23.9304 20.5973C24.0308 20.6973 24.1623 20.7472 24.2939 20.7472C24.4254 20.7472 24.557 20.6972 24.6573 20.5973C24.7227 20.5322 24.8293 20.5321 24.8948 20.5973C25.0955 20.7972 25.4209 20.7972 25.6217 20.5973C25.8224 20.3974 25.8224 20.0734 25.6217 19.8735Z" fill="white"/>
</g>
</g>
<defs>
<clipPath id="clip0">
<rect width="45" height="49" fill="white"/>
</clipPath>
<clipPath id="clip1">
<rect width="26.3158" height="26.2032" fill="white" transform="translate(9.47375 11.2676)"/>
</clipPath>
</defs>
</svg>
