<svg width="309" height="337" viewBox="0 0 309 337" fill="none" xmlns="http://www.w3.org/2000/svg">
<g clip-path="url(#clip0)">
<path d="M305.378 85.1766L157.94 0.926585C155.778 -0.308862 153.138 -0.308862 150.976 0.926585L3.5385 85.1766C1.348 86.4265 0 88.7572 0 91.2709V245.729C0 248.243 1.348 250.574 3.5385 251.824L150.976 336.074C152.057 336.692 153.251 337.001 154.459 337.001C155.666 337.001 156.86 336.692 157.941 336.074L305.379 251.824C307.569 250.574 308.917 248.243 308.917 245.729V91.2709C308.916 88.7572 307.568 86.4265 305.378 85.1766ZM294.874 241.657L154.458 321.891L14.0414 241.657V95.3425L154.458 15.1089L294.874 95.3432V241.657Z" fill="#373F65"/>
<path d="M169.679 145.376L157.157 170.42C155.645 173.469 151.261 173.368 149.876 170.269L135.539 138.448L127.981 156.513H104.272L150.254 203.502C152.042 205.341 154.94 205.341 156.729 203.502L202.735 156.513H175.247L169.679 145.376ZM208.354 102.569L207.749 101.94C194.774 88.6868 173.534 88.6868 160.533 101.94L153.504 109.145L146.474 101.965C133.499 88.6868 112.234 88.6868 99.2582 101.965L98.6535 102.569C86.3834 115.117 85.8543 135.097 96.8143 148.45H122.614L131.659 126.732C133.02 123.482 137.606 123.406 139.067 126.631L153.731 159.208L166.076 134.542C167.563 131.569 171.796 131.569 173.282 134.542L180.236 148.45H210.193C221.153 135.097 220.624 115.117 208.354 102.569V102.569Z" fill="#373F65"/>
<path d="M62.7404 233.232H60.0524V240H56.1884V223.2H60.0524V229.992H62.8364L67.2524 223.2H71.3564L65.8604 231.312L71.5244 240H67.1084L62.7404 233.232ZM84.3937 236.4H76.5937L75.1057 240H71.1217L78.6097 223.2H82.4497L89.9617 240H85.8817L84.3937 236.4ZM83.1697 233.448L80.5057 227.016L77.8417 233.448H83.1697ZM99.4616 223.2C100.95 223.2 102.238 223.448 103.326 223.944C104.43 224.44 105.278 225.144 105.87 226.056C106.462 226.968 106.758 228.048 106.758 229.296C106.758 230.528 106.462 231.608 105.87 232.536C105.278 233.448 104.43 234.152 103.326 234.648C102.238 235.128 100.95 235.368 99.4616 235.368H96.0776V240H92.1896V223.2H99.4616ZM99.2456 232.2C100.414 232.2 101.302 231.952 101.91 231.456C102.518 230.944 102.822 230.224 102.822 229.296C102.822 228.352 102.518 227.632 101.91 227.136C101.302 226.624 100.414 226.368 99.2456 226.368H96.0776V232.2H99.2456ZM125.854 236.832V243.48H122.254V240H110.398V243.48H106.798L106.822 236.832H107.494C108.502 236.8 109.214 236.064 109.63 234.624C110.046 233.184 110.302 231.128 110.398 228.456L110.59 223.2H123.502V236.832H125.854ZM113.83 228.816C113.75 230.816 113.582 232.496 113.326 233.856C113.07 235.2 112.678 236.192 112.15 236.832H119.661V226.368H113.902L113.83 228.816ZM128.471 223.2H132.335V234.144L140.351 223.2H143.999V240H140.159V229.08L132.143 240H128.471V223.2ZM156.198 240.288C154.454 240.288 152.878 239.912 151.47 239.16C150.078 238.408 148.982 237.376 148.182 236.064C147.398 234.736 147.006 233.248 147.006 231.6C147.006 229.952 147.398 228.472 148.182 227.16C148.982 225.832 150.078 224.792 151.47 224.04C152.878 223.288 154.454 222.912 156.198 222.912C157.942 222.912 159.51 223.288 160.902 224.04C162.294 224.792 163.39 225.832 164.19 227.16C164.99 228.472 165.39 229.952 165.39 231.6C165.39 233.248 164.99 234.736 164.19 236.064C163.39 237.376 162.294 238.408 160.902 239.16C159.51 239.912 157.942 240.288 156.198 240.288ZM156.198 236.976C157.19 236.976 158.086 236.752 158.886 236.304C159.686 235.84 160.31 235.2 160.758 234.384C161.222 233.568 161.454 232.64 161.454 231.6C161.454 230.56 161.222 229.632 160.758 228.816C160.31 228 159.686 227.368 158.886 226.92C158.086 226.456 157.19 226.224 156.198 226.224C155.206 226.224 154.31 226.456 153.51 226.92C152.71 227.368 152.078 228 151.614 228.816C151.166 229.632 150.942 230.56 150.942 231.6C150.942 232.64 151.166 233.568 151.614 234.384C152.078 235.2 152.71 235.84 153.51 236.304C154.31 236.752 155.206 236.976 156.198 236.976ZM182.892 223.2V240H179.052V226.368H173.292L173.172 229.872C173.092 232.256 172.9 234.192 172.596 235.68C172.292 237.152 171.78 238.288 171.06 239.088C170.356 239.872 169.364 240.264 168.084 240.264C167.556 240.264 166.916 240.176 166.164 240L166.404 236.712C166.612 236.776 166.844 236.808 167.1 236.808C168.028 236.808 168.676 236.264 169.044 235.176C169.412 234.072 169.644 232.352 169.74 230.016L169.98 223.2H182.892ZM195.104 240.288C193.36 240.288 191.784 239.912 190.376 239.16C188.984 238.408 187.888 237.376 187.088 236.064C186.304 234.736 185.912 233.248 185.912 231.6C185.912 229.952 186.304 228.472 187.088 227.16C187.888 225.832 188.984 224.792 190.376 224.04C191.784 223.288 193.36 222.912 195.104 222.912C196.848 222.912 198.416 223.288 199.808 224.04C201.2 224.792 202.296 225.832 203.096 227.16C203.896 228.472 204.296 229.952 204.296 231.6C204.296 233.248 203.896 234.736 203.096 236.064C202.296 237.376 201.2 238.408 199.808 239.16C198.416 239.912 196.848 240.288 195.104 240.288ZM195.104 236.976C196.096 236.976 196.992 236.752 197.792 236.304C198.592 235.84 199.216 235.2 199.664 234.384C200.128 233.568 200.36 232.64 200.36 231.6C200.36 230.56 200.128 229.632 199.664 228.816C199.216 228 198.592 227.368 197.792 226.92C196.992 226.456 196.096 226.224 195.104 226.224C194.112 226.224 193.216 226.456 192.416 226.92C191.616 227.368 190.984 228 190.52 228.816C190.072 229.632 189.848 230.56 189.848 231.6C189.848 232.64 190.072 233.568 190.52 234.384C190.984 235.2 191.616 235.84 192.416 236.304C193.216 236.752 194.112 236.976 195.104 236.976ZM219.123 226.368H211.131L211.155 240H207.291V223.2H219.147L219.123 226.368ZM221.518 223.2H225.382V234.144L233.398 223.2H237.046V240H233.206V229.08L225.19 240H221.518V223.2ZM254.645 223.2V240H250.805V235.536H247.253L244.277 240H240.173L243.677 234.936C242.541 234.472 241.669 233.776 241.061 232.848C240.453 231.904 240.149 230.776 240.149 229.464C240.149 228.168 240.445 227.056 241.037 226.128C241.629 225.184 242.469 224.464 243.557 223.968C244.645 223.456 245.925 223.2 247.397 223.2H254.645ZM247.493 226.368C246.389 226.368 245.541 226.624 244.949 227.136C244.373 227.648 244.085 228.408 244.085 229.416C244.085 230.392 244.365 231.144 244.925 231.672C245.485 232.2 246.309 232.464 247.397 232.464H250.805V226.368H247.493Z" fill="#373F65"/>
</g>
<defs>
<clipPath id="clip0">
<rect width="309" height="337" fill="white"/>
</clipPath>
</defs>
</svg>
