<svg width="45" height="49" viewBox="0 0 45 49" fill="none" xmlns="http://www.w3.org/2000/svg">
<g clip-path="url(#clip0)">
	<path class="frame-bg features__active" d="M22.5 1.15194L44 13.446V35.5509L22.5 47.7142L1 35.5509V13.446L22.5 1.15194Z" fill="#ffffff00" fill-opacity="0.54" stroke="#373F65" stroke-width="2"/>
<path d="M44.5384 12.3847L23.0087 0.134726C22.693 -0.0449087 22.3075 -0.0449087 21.9918 0.134726L0.462145 12.3847C0.142277 12.5665 -0.0545654 12.9054 -0.0545654 13.2708V35.7292C-0.0545654 36.0947 0.142277 36.4336 0.462145 36.6153L21.9918 48.8653C22.1497 48.9552 22.3239 49.0001 22.5003 49.0001C22.6767 49.0001 22.8509 48.9552 23.0088 48.8653L44.5385 36.6153C44.8583 36.4336 45.0552 36.0947 45.0552 35.7292V13.2708C45.0551 12.9054 44.8582 12.5665 44.5384 12.3847ZM43.0046 35.1371L22.5002 46.8031L1.99584 35.1371V13.8629L22.5002 2.19684L43.0046 13.863V35.1371Z" fill="#373F65"/>
<path d="M29.8685 23.6376H25.0794L23.9141 20.1548C23.8228 19.8822 23.5579 19.6674 23.2755 19.7071C22.9865 19.7137 22.736 19.9054 22.6575 20.1818L20.7378 26.8707L18.6689 17.5999C18.6058 17.3196 18.3672 17.1126 18.079 17.0894C17.7926 17.0702 17.5224 17.2314 17.4159 17.4987L14.9488 23.6377H10.1315C9.76794 23.6377 9.47363 23.9307 9.47363 24.2927C9.47363 24.6548 9.76794 24.9478 10.1315 24.9478H15.3947C15.6631 24.9482 15.9061 24.7854 16.0052 24.536L17.8465 19.9543L20.0153 29.6758C20.0806 29.9688 20.3377 30.1797 20.6386 30.1889C20.6451 30.1889 20.6513 30.1889 20.6578 30.1889C20.9508 30.1889 21.2091 29.9959 21.2899 29.7142L23.3382 22.5786L23.9807 24.5002C24.0706 24.7675 24.3223 24.9479 24.6052 24.9479H29.8684C30.232 24.9479 30.5263 24.6548 30.5263 24.2928C30.5264 23.9306 30.232 23.6376 29.8685 23.6376Z" fill="white"/>
<path d="M33.4772 14.8238C31.9356 13.2888 29.9149 12.5215 27.8947 12.5215C26.0044 12.5215 24.1294 13.2207 22.6316 14.5645C21.1333 13.2207 19.2588 12.5215 17.3684 12.5215C15.3478 12.5215 13.3276 13.2888 11.7859 14.8239C9.74161 16.8599 9.08325 19.7274 9.7504 22.3285H11.1188C10.4171 20.0781 10.9298 17.5293 12.7162 15.7506C13.9587 14.5133 15.6109 13.8321 17.3684 13.8321C18.9723 13.8321 20.4728 14.4238 21.6702 15.4641L22.6316 16.3589L23.5934 15.4637C24.7908 14.4238 26.2913 13.8317 27.8947 13.8317C29.6522 13.8317 31.304 14.5129 32.5469 15.7502C35.1123 18.3041 35.1119 22.4604 32.5469 25.0144L22.6316 34.8873L13.9662 26.259H12.1052L22.6316 36.7403L33.4772 25.9411C36.5601 22.8709 36.5601 17.894 33.4772 14.8238Z" fill="white"/>
</g>
<defs>
<clipPath id="clip0">
<rect width="45" height="49" fill="white"/>
</clipPath>
</defs>
</svg>
