<svg width="45" height="49" viewBox="0 0 45 49" fill="none" xmlns="http://www.w3.org/2000/svg">
<path class="frame-bg" d="M22.5 1.15194L44 13.446V35.5509L22.5 47.7142L1 35.5509V13.446L22.5 1.15194Z" fill="#ffffff00" fill-opacity="0.54" stroke="#373F65" stroke-width="2"/>
<path d="M26.6248 13.5645C26.2499 12.1729 25.3549 11.0124 24.1047 10.2967C23.2868 9.82855 22.3553 9.58105 21.411 9.58105C19.4726 9.58105 17.6703 10.6083 16.7075 12.262L13.2952 18.1223C13.2949 18.1229 13.2945 18.1234 13.2942 18.1239C13.2938 18.1244 13.2936 18.125 13.2933 18.1255L9.88089 23.986C8.38794 26.5501 9.2772 29.8405 11.8631 31.3209C12.6809 31.789 13.6122 32.0364 14.5565 32.0364C16.3243 32.0364 17.9836 31.1878 18.995 29.7665C19.0043 29.7534 19.013 29.74 19.021 29.7263L26.0866 17.6323C26.8079 16.3976 26.999 14.953 26.6248 13.5645ZM18.1003 29.1689C17.2894 30.2954 15.9665 30.9671 14.5565 30.9671C13.8013 30.9671 13.0564 30.7692 12.4023 30.3948C10.3313 29.2093 9.61922 26.5741 10.8148 24.5206L13.9586 19.1215L15.1257 19.7897C15.1258 19.7898 15.1259 19.7899 15.126 19.7899C15.1261 19.7899 15.1262 19.7899 15.1262 19.79L21.4609 23.4166L18.1003 29.1689ZM25.1534 17.0962L22.0014 22.4914L16.1321 19.1313L17.6406 16.5406C17.7895 16.2848 17.7011 15.9579 17.4432 15.8102C17.1853 15.6626 16.8555 15.7502 16.7067 16.0059L15.1982 18.5966L14.4977 18.1956L17.6413 12.7967C18.4122 11.4728 19.8567 10.6504 21.411 10.6504C22.1663 10.6504 22.9114 10.8483 23.5655 11.2228C24.566 11.7955 25.2825 12.7252 25.583 13.8405C25.8827 14.9528 25.7301 16.1091 25.1534 17.0962Z" fill="white"/>
<path d="M33.7591 27.9095C32.4425 27.5365 30.7062 27.3311 28.87 27.3311C27.0339 27.3311 25.2976 27.5365 23.9809 27.9095C22.4166 28.3527 21.6226 28.9766 21.6208 29.764C21.6208 29.765 21.6206 29.7658 21.6206 29.7667V34.5191C21.6206 35.3092 22.4135 35.9345 23.9771 36.3775C25.2912 36.7498 27.0289 36.9548 28.8699 36.9548C30.7109 36.9548 32.4486 36.7498 33.7628 36.3775C35.3264 35.9345 36.1192 35.3092 36.1192 34.5191V29.77C36.1193 29.769 36.1194 29.7678 36.1194 29.7667C36.1194 28.978 35.3253 28.3531 33.7591 27.9095ZM24.2772 28.9377C25.5003 28.5912 27.1314 28.4004 28.8701 28.4004C30.6088 28.4004 32.2399 28.5912 33.463 28.9377C34.763 29.306 35.0394 29.7016 35.041 29.7661C35.041 29.7663 35.0409 29.7666 35.0409 29.7668V29.7677C35.0387 29.8329 34.7615 30.2279 33.463 30.5958C32.2399 30.9423 30.6088 31.1331 28.8701 31.1331C27.1314 31.1331 25.5003 30.9423 24.2772 30.5958C22.9735 30.2265 22.6991 29.8296 22.6991 29.7668C22.6991 29.7039 22.9735 29.307 24.2772 28.9377ZM35.041 34.5191C35.0409 34.5954 34.7608 34.9827 33.4666 35.3493C32.2461 35.6951 30.6136 35.8855 28.87 35.8855C27.1263 35.8855 25.4939 35.6951 24.2734 35.3493C22.9793 34.9827 22.6991 34.5954 22.6991 34.5191V31.134C23.0444 31.316 23.4716 31.4796 23.981 31.6239C25.2976 31.997 27.0339 32.2024 28.8701 32.2024C30.7062 32.2024 32.4426 31.997 33.7592 31.6239C34.2685 31.4796 34.6956 31.3161 35.0409 31.134V32.4683C34.2673 32.8479 33.3022 33.1553 32.226 33.3628C31.9337 33.4192 31.7428 33.6998 31.7996 33.9897C31.8497 34.2451 32.0754 34.4224 32.3284 34.4224C32.3625 34.4224 32.3971 34.4191 32.4318 34.4125C33.3923 34.2273 34.278 33.9653 35.041 33.6438V34.5191Z" fill="white"/>
</svg>
