<svg width="45" height="49" viewBox="0 0 45 49" fill="none" xmlns="http://www.w3.org/2000/svg">
<g clip-path="url(#clip0)">
<path class="frame-bg" d="M22.5 1.15194L44 13.446V35.5509L22.5 47.7142L1 35.5509V13.446L22.5 1.15194Z" fill="#ffffff00" fill-opacity="0.54" stroke="#373F65" stroke-width="2"/>
<path d="M44.5384 12.3847L23.0087 0.134726C22.693 -0.0449087 22.3075 -0.0449087 21.9918 0.134726L0.462145 12.3847C0.142277 12.5665 -0.0545654 12.9054 -0.0545654 13.2708V35.7292C-0.0545654 36.0947 0.142277 36.4336 0.462145 36.6153L21.9918 48.8653C22.1497 48.9552 22.3239 49.0001 22.5003 49.0001C22.6767 49.0001 22.8509 48.9552 23.0088 48.8653L44.5385 36.6153C44.8583 36.4336 45.0552 36.0947 45.0552 35.7292V13.2708C45.0551 12.9054 44.8582 12.5665 44.5384 12.3847ZM43.0046 35.1371L22.5002 46.8031L1.99584 35.1371V13.8629L22.5002 2.19684L43.0046 13.863V35.1371Z" fill="#373F65"/>
<path d="M31.0898 21.7695C30.0167 19.8537 28.77 18.4861 27.3143 17.6359C27.2204 17.4502 26.7426 16.5518 25.7865 15.5507C25.3977 15.1438 24.8938 14.6805 24.2675 14.224C25.2557 13.6232 26.2574 13.2373 26.2684 13.2331C26.3271 13.2106 26.3741 13.1651 26.3982 13.1071C26.4223 13.0492 26.4215 12.984 26.396 12.9266C25.8822 11.7757 25.1104 11.3176 25.0779 11.2987C25.0212 11.2658 24.9532 11.2586 24.8909 11.2789C23.6716 11.6747 22.6118 12.1941 21.7381 12.8224C21.3857 12.6803 21.0135 12.5499 20.6209 12.4346C20.5748 12.4211 20.5255 12.4222 20.4801 12.4381C20.4245 12.4575 19.1152 12.9301 18.981 14.4003C18.9714 14.5054 19.0352 14.6033 19.1355 14.6374C19.1432 14.6401 19.3897 14.7249 19.7679 14.8836C19.0219 16.0844 18.9815 17.0524 18.9802 17.0948C18.9795 17.1172 18.983 17.1386 18.9884 17.1593C18.6147 17.2537 18.2265 17.3594 17.8222 17.4767C16.8666 17.754 16.1435 18.147 15.4004 18.6466C15.2041 16.4451 15.6957 13.9486 15.7019 13.9174C15.7168 13.8432 15.6939 13.7665 15.6407 13.7125C15.5875 13.6585 15.511 13.6342 15.4362 13.6476L13.0496 14.0741C12.9537 14.0912 12.8792 14.1667 12.8635 14.2624C12.3185 17.5904 12.6006 19.7739 12.9348 21.0229C11.8086 23.0408 11.932 25.541 13.2749 27.8855C14.9414 30.7949 17.6801 33.5913 20.6009 35.3657C22.236 36.3591 23.8729 37.0098 25.4661 37.2997C26.0932 37.4137 26.7086 37.4708 27.3108 37.4707C28.412 37.4707 29.4685 37.2801 30.4672 36.9C31.3311 36.5713 32.0011 35.769 32.4586 34.5153C33.6925 31.1344 33.0656 25.2974 31.0898 21.7695ZM24.9268 11.7487C25.1023 11.8772 25.529 12.236 25.8734 12.8992C25.4828 13.0626 24.6584 13.4315 23.8584 13.9392C23.3796 13.6206 22.8388 13.3121 22.2332 13.0355C22.9972 12.5228 23.901 12.0908 24.9268 11.7487ZM20.5674 12.8959C22.4734 13.4695 23.8743 14.4152 24.8273 15.2623H23.522C23.3952 15.2623 23.2923 15.3647 23.2923 15.491C23.2923 15.6173 23.3952 15.7197 23.522 15.7197H25.3109C25.3553 15.7644 25.3989 15.8087 25.4405 15.8522C25.9593 16.3934 26.3282 16.8932 26.5652 17.2527C26.1148 17.0527 25.646 16.8967 25.1572 16.7853C24.5799 16.6537 23.9805 16.58 23.3395 16.5648C22.0612 15.2981 20.0687 14.4939 19.4619 14.2685C19.6233 13.3753 20.3444 12.9938 20.5674 12.8959ZM22.3639 16.5853C22.3483 16.4975 22.3442 16.4094 22.352 16.3199C22.4592 16.4008 22.5642 16.4841 22.666 16.5701C22.5664 16.5739 22.4658 16.5788 22.3639 16.5853ZM20.1926 15.0695C20.7042 15.303 21.3366 15.6262 21.9384 16.0272C21.8875 16.2277 21.8755 16.4272 21.9042 16.6226C21.1541 16.6963 20.3416 16.8376 19.444 17.0484C19.4655 16.8275 19.5827 16.0278 20.1926 15.0695ZM15.1916 14.156C15.0199 15.1586 14.5868 18.2039 15.2402 20.2846C15.1822 20.5586 14.8627 21.788 13.769 21.9744C13.5418 21.5139 12.8244 19.7593 13.0717 16.3791H14.3145C14.4414 16.3791 14.5442 16.2767 14.5442 16.1505C14.5442 16.0241 14.4414 15.9218 14.3145 15.9218H13.1101C13.1528 15.4731 13.2121 14.998 13.2912 14.4956L15.1916 14.156ZM12.966 26.0657H14.6458C14.7726 26.0657 14.8754 25.9634 14.8754 25.8371C14.8754 25.7108 14.7726 25.6084 14.6458 25.6084H12.8351C12.7488 25.2643 12.69 24.9215 12.6586 24.582H17.0679C17.1948 24.582 17.2976 24.4796 17.2976 24.3533C17.2976 24.227 17.1948 24.1246 17.0679 24.1246H12.6323C12.6152 23.2588 12.7814 22.4221 13.1316 21.6515C13.2923 22.092 13.4286 22.3142 13.4467 22.3427C13.489 22.4094 13.5625 22.4493 13.6408 22.4493C13.6469 22.4493 13.653 22.449 13.6592 22.4485C15.0108 22.3409 15.5873 21.0015 15.7033 20.3084C15.7093 20.2721 15.7066 20.235 15.6952 20.2C15.59 19.8778 15.5138 19.5265 15.4603 19.1602C16.2399 18.6201 16.9684 18.2009 17.9507 17.9158C18.0391 17.8901 18.1271 17.865 18.2147 17.8403C18.461 17.9286 20.4253 18.6766 21.0561 20.2499C21.4318 21.1869 21.2984 22.2647 20.6596 23.4533C19.9596 24.7556 19.1671 25.8158 18.4679 26.7512C17.6602 27.8318 16.9626 28.765 16.6759 29.723C16.4825 30.3693 16.4885 30.9951 16.7003 31.6334C15.51 30.403 14.4673 29.0442 13.6738 27.659C13.3725 27.1329 13.137 26.5991 12.966 26.0657ZM23.683 20.7093C22.3609 19.2313 21.2143 17.8477 20.7266 17.2501C24.8945 16.513 28.1149 17.397 30.6886 21.9922C32.5759 25.3621 33.2013 31.1411 32.027 34.3592C31.6229 35.4667 31.0269 36.1976 30.3034 36.4729C27.074 37.702 23.8476 36.6433 21.5189 35.3673H24.2278C24.3546 35.3673 24.4575 35.2649 24.4575 35.1386C24.4575 35.0123 24.3546 34.91 24.2278 34.91H20.7347C20.2215 34.5932 19.7143 34.2449 19.2183 33.8693H21.1857C21.3125 33.8693 21.4153 33.767 21.4153 33.6406C21.4153 33.5144 21.3125 33.412 21.1857 33.412H18.6365C18.3362 33.1676 18.0408 32.9142 17.7517 32.6522C16.2448 30.5484 17.2666 29.1244 18.8364 27.0242C19.5452 26.076 20.3484 25.0013 21.0646 23.669C21.771 22.3547 21.9113 21.1464 21.4817 20.0775C20.9447 18.7416 19.6629 17.9808 18.9402 17.6439C19.3744 17.5317 19.7991 17.4322 20.2146 17.3475C20.7044 17.9537 23.1267 20.9255 25.2746 23.0964C25.1839 23.5529 24.5959 26.3648 23.4707 28.6429L21.4742 29.1904C21.3519 29.2239 21.2801 29.3499 21.3138 29.4716C21.3419 29.5731 21.4343 29.6396 21.5351 29.6396C21.5553 29.6396 21.5757 29.6369 21.5962 29.6314L23.1793 29.1972C22.6013 30.2297 21.9011 31.0871 21.0739 31.4569C20.9582 31.5086 20.9065 31.6439 20.9585 31.7591C20.9968 31.8439 21.0805 31.8942 21.1681 31.8942C21.1996 31.8942 21.2315 31.8877 21.262 31.8741C22.6797 31.2403 23.73 29.3913 24.4558 27.5537L24.9914 29.0024C25.0256 29.0949 25.1135 29.1521 25.2069 29.1521C25.2333 29.1521 25.2601 29.1476 25.2863 29.138C25.4052 29.0943 25.4663 28.9629 25.4224 28.8444L24.7025 26.8972C25.217 25.456 25.5304 24.1152 25.6643 23.4842C26.4049 24.2089 27.0946 24.8103 27.6378 25.1512L27.9193 26.5315C27.9414 26.64 28.0371 26.7147 28.1441 26.7147C28.1592 26.7147 28.1746 26.7133 28.19 26.7101C28.3143 26.685 28.3947 26.5643 28.3694 26.4405L28.1155 25.1956L30.0175 24.8836C30.1426 24.863 30.2274 24.7454 30.2067 24.6207C30.1861 24.4962 30.0679 24.4117 29.9428 24.4323L27.8905 24.769C26.9413 24.1779 25.4782 22.6985 24.1024 21.1835L28.1925 21.4129C28.197 21.4132 28.2013 21.4133 28.2057 21.4133C28.3266 21.4133 28.4279 21.3192 28.4347 21.1975C28.4418 21.0714 28.345 20.9634 28.2184 20.9564L27.6366 20.9238L28.1242 20.4313C28.2133 20.3413 28.2123 20.1966 28.1219 20.1079C28.0316 20.0192 27.8862 20.0202 27.7972 20.1102L27.0255 20.8895L23.683 20.7127V20.7093H23.683Z" fill="white"/>
</g>
<defs>
<clipPath id="clip0">
<rect width="45" height="49" fill="white"/>
</clipPath>
</defs>
</svg>
