<svg width="45" height="49" viewBox="0 0 45 49" fill="none" xmlns="http://www.w3.org/2000/svg">
<g clip-path="url(#clip0)">
<path class="frame-bg" d="M22.5 1.15194L44 13.446V35.5509L22.5 47.7142L1 35.5509V13.446L22.5 1.15194Z" fill="#ffffff00" fill-opacity="0.54" stroke="#373F65" stroke-width="2"/>
<path d="M44.5384 12.3847L23.0087 0.134726C22.693 -0.0449087 22.3075 -0.0449087 21.9918 0.134726L0.462145 12.3847C0.142277 12.5665 -0.0545654 12.9054 -0.0545654 13.2708V35.7292C-0.0545654 36.0947 0.142277 36.4336 0.462145 36.6153L21.9918 48.8653C22.1497 48.9552 22.3239 49.0001 22.5003 49.0001C22.6767 49.0001 22.8509 48.9552 23.0088 48.8653L44.5385 36.6153C44.8583 36.4336 45.0552 36.0947 45.0552 35.7292V13.2708C45.0551 12.9054 44.8582 12.5665 44.5384 12.3847ZM43.0046 35.1371L22.5002 46.8031L1.99584 35.1371V13.8629L22.5002 2.19684L43.0046 13.863V35.1371Z" fill="#373F65"/>
<g clip-path="url(#clip1)">
<path d="M20.1492 13.5116V17.8282V17.8302V17.8322V22.7903C20.1492 24.2718 21.3597 25.4771 22.8476 25.4771C24.3353 25.4771 25.5458 24.2718 25.5458 22.7903V13.5038C25.7064 13.4474 25.854 13.3567 25.9781 13.2333C26.1965 13.0158 26.3168 12.7268 26.3168 12.4191C26.3168 12.3991 26.3162 12.3817 26.3156 12.3647C26.3013 12.0634 26.1692 11.784 25.9429 11.5786C25.7231 11.3781 25.4374 11.2676 25.1386 11.2676H20.513C20.2042 11.2676 19.9137 11.3873 19.6953 11.6048C19.4768 11.8223 19.3566 12.1114 19.3566 12.4191C19.3566 12.7268 19.4768 13.0158 19.6953 13.2333C19.825 13.3625 19.9802 13.456 20.1492 13.5116V13.5116ZM20.513 12.0353H25.1392C25.243 12.0353 25.3462 12.075 25.4223 12.1448C25.498 12.2144 25.5406 12.3029 25.5452 12.4001L25.5458 12.4027V12.4191C25.5452 12.6304 25.3725 12.8023 25.1603 12.8029H23.6601C23.4477 12.8029 23.2747 12.9754 23.2747 13.1868C23.2747 13.3987 23.4477 13.5706 23.6601 13.5706H24.775V17.4463H22.0766C21.8642 17.4463 21.6912 17.6187 21.6912 17.8302C21.6912 18.0421 21.8642 18.214 22.0766 18.214H24.775V22.7903C24.775 23.8484 23.9103 24.7094 22.8476 24.7094C21.7849 24.7094 20.9202 23.8484 20.9202 22.7903V13.5706H22.1172C22.3294 13.5706 22.5027 13.3987 22.5027 13.1868C22.5027 12.9754 22.33 12.8035 22.1182 12.8029C22.114 12.8019 22.11 12.8029 22.1058 12.8029C21.3842 12.8029 21.3673 12.8029 20.513 12.8029C20.3008 12.8023 20.1281 12.6304 20.1275 12.4191C20.1281 12.2078 20.3008 12.0359 20.513 12.0353Z" fill="white"/>
<path d="M35.4379 33.0528L31.8894 26.954C31.7326 26.6845 31.5951 25.5929 31.5951 25.0762V22.4473C32.1113 22.3319 32.4984 21.8723 32.4984 21.324C32.4984 21.3056 32.498 21.287 32.497 21.2688C32.4689 20.673 31.9629 20.2236 31.3201 20.2236H27.3771C26.7177 20.2236 26.2206 20.6966 26.2206 21.324C26.2206 21.8723 26.6075 22.3319 27.1237 22.4473V25.0762C27.1237 25.5929 26.9862 26.6845 26.8295 26.9538L23.2811 33.0528C22.1395 35.0147 23.5593 37.4707 25.8381 37.4707H32.8807C35.1578 37.4707 36.5803 35.0163 35.4379 33.0528V33.0528ZM32.8807 36.703H25.8381C24.155 36.703 23.1038 34.8888 23.948 33.4376L27.4965 27.3386C27.7993 26.8182 27.8947 25.4242 27.8947 25.0762V22.4755H28.9172C29.13 22.4755 29.3027 22.3037 29.3027 22.0916C29.3027 21.8795 29.1302 21.7078 28.9172 21.7078H27.3771C27.1644 21.7078 26.9916 21.5357 26.9916 21.324C26.9916 21.0955 27.1913 20.9913 27.3771 20.9913H31.3201C31.509 20.9913 31.7168 21.0895 31.727 21.3054C31.7272 21.3116 31.7274 21.3178 31.7274 21.324C31.7274 21.5357 31.5546 21.7078 31.3419 21.7078H30.4571C30.2441 21.7078 30.0716 21.8795 30.0716 22.0916C30.0716 22.3037 30.2441 22.4755 30.4571 22.4755H30.8241V25.0762C30.8241 25.4242 30.9195 26.8182 31.2225 27.3386L34.7707 33.4376C35.6146 34.8878 34.5652 36.703 32.8807 36.703V36.703Z" fill="white"/>
<path d="M32.3151 30.7383C32.2083 30.5548 31.9722 30.4924 31.7883 30.5988C31.604 30.7051 31.5414 30.9398 31.6482 31.1233L33.3905 34.1155C33.6585 34.5761 33.3254 35.153 32.7902 35.153H25.9287C25.3941 35.153 25.0602 34.5765 25.3286 34.1155L26.9595 31.3146H30.6967C30.9095 31.3146 31.0822 31.1427 31.0822 30.9308C31.0822 30.7187 30.9095 30.547 30.6967 30.547H26.7375C26.5999 30.547 26.4728 30.6197 26.404 30.7381L24.6617 33.7304C24.0953 34.7028 24.7992 35.9207 25.9287 35.9207H32.7902C33.9189 35.9207 34.624 34.7036 34.0575 33.7304L32.3151 30.7383Z" fill="white"/>
<path d="M28.7171 32.1739C28.7171 32.3858 28.5445 32.5577 28.3317 32.5577C28.1186 32.5577 27.9462 32.3858 27.9462 32.1739C27.9462 31.9618 28.1186 31.79 28.3317 31.79C28.5445 31.79 28.7171 31.9618 28.7171 32.1739Z" fill="white"/>
<path d="M31.0299 33.4541C31.0299 33.6661 30.8574 33.838 30.6444 33.838C30.4316 33.838 30.2589 33.6661 30.2589 33.4541C30.2589 33.242 30.4316 33.0703 30.6444 33.0703C30.8574 33.0703 31.0299 33.242 31.0299 33.4541Z" fill="white"/>
<path d="M29.2309 34.2217C29.2309 34.4336 29.0585 34.6056 28.8454 34.6056C28.6326 34.6056 28.46 34.4336 28.46 34.2217C28.46 34.0096 28.6326 33.8379 28.8454 33.8379C29.0585 33.8379 29.2309 34.0096 29.2309 34.2217Z" fill="white"/>
<path d="M18.5707 24.2833V22.4727C19.0849 22.3587 19.4738 21.9035 19.4738 21.3498C19.4738 20.7094 18.9391 20.1982 18.2958 20.1982H14.3526C14.0436 20.1982 13.7533 20.318 13.5349 20.5355C13.3164 20.753 13.1962 21.0421 13.1962 21.3498C13.1962 21.6574 13.3164 21.9465 13.5349 22.164C13.6921 22.3205 13.887 22.4255 14.0988 22.4725L14.0968 24.2841C11.3623 25.2313 9.52502 27.8054 9.52502 30.6896C9.52482 34.4296 12.5778 37.4709 16.3349 37.4709H16.3571C20.1 37.4591 23.1449 34.417 23.1449 30.6898C23.1449 27.8058 21.308 25.2317 18.5707 24.2833V24.2833ZM16.3545 36.7032C13.0217 36.713 10.2958 34.0197 10.296 30.6896C10.296 28.1319 11.9253 25.849 14.3502 25.009C14.6612 24.9012 14.8702 24.6098 14.8702 24.2835V22.5013H15.5526C15.5569 22.5013 15.5609 22.5027 15.5651 22.5013C15.7767 22.5007 15.9496 22.3287 15.9496 22.1174C15.9496 21.9061 15.7769 21.7336 15.5641 21.7336H14.3526C14.1404 21.733 13.9677 21.5611 13.9671 21.3498C13.9677 21.1384 14.1404 20.9665 14.3526 20.9659H18.2962C18.5058 20.9659 18.7028 21.1272 18.7028 21.3498C18.7024 21.5611 18.5295 21.733 18.3173 21.7336H17.1064C16.8942 21.7336 16.7209 21.9061 16.7209 22.1174C16.7209 22.3293 16.8942 22.5013 17.1064 22.5013H17.1074H17.7997V24.2833C17.7997 24.6096 18.0091 24.9014 18.3205 25.0094C20.7451 25.8494 22.3739 28.1323 22.3739 30.6898C22.3741 33.9951 19.6737 36.6928 16.3545 36.7032Z" fill="white"/>
<path d="M19.1617 28.3096C18.3024 28.3096 17.6465 28.7996 17.1183 29.279C16.9609 29.4217 16.9496 29.6644 17.093 29.8211C17.2363 29.9781 17.4801 29.9893 17.6375 29.8463C18.2396 29.3001 18.6813 29.0772 19.1617 29.0772C20.058 29.0772 20.8599 29.7967 20.8302 30.8205C20.7882 31.7007 20.056 32.4038 19.1617 32.4038C18.1808 32.4038 17.4196 31.4662 16.6139 30.4736C15.7903 29.4593 14.8567 28.3096 13.5082 28.3096C12.8667 28.3096 12.2609 28.5555 11.8024 29.0019C11.3211 29.4703 11.0362 30.1282 11.07 30.8613C11.1617 33.6795 13.4885 35.9349 16.3364 35.9351H16.3521C19.3248 35.9257 21.6228 33.4628 21.6031 30.7197C21.6092 29.4523 20.5459 28.3096 19.1617 28.3096ZM16.3495 35.1674H16.3352C13.6702 35.1672 11.7911 32.9482 11.8391 30.6987C11.861 29.8047 12.6099 29.0772 13.5082 29.0772C14.4885 29.0772 15.2643 30.0324 16.0144 30.9562C16.8984 32.0454 17.8125 33.1715 19.1617 33.1715C19.544 33.1715 19.906 33.0835 20.2284 32.927C19.4517 34.2606 18.0039 35.1622 16.3495 35.1674Z" fill="white"/>
<path d="M13.6367 30.9454C13.6367 31.1573 13.4642 31.3292 13.2512 31.3292C13.0384 31.3292 12.8657 31.1573 12.8657 30.9454C12.8657 30.7335 13.0384 30.5615 13.2512 30.5615C13.4642 30.5615 13.6367 30.7335 13.6367 30.9454Z" fill="white"/>
<path d="M15.9496 32.2247C15.9496 32.4366 15.7769 32.6085 15.5641 32.6085C15.3513 32.6085 15.1786 32.4366 15.1786 32.2247C15.1786 32.0127 15.3513 31.8408 15.5641 31.8408C15.7769 31.8408 15.9496 32.0127 15.9496 32.2247Z" fill="white"/>
<path d="M14.1506 32.9922C14.1506 33.2041 13.9781 33.3761 13.7651 33.3761C13.5523 33.3761 13.3796 33.2041 13.3796 32.9922C13.3796 32.7803 13.5523 32.6084 13.7651 32.6084C13.9781 32.6084 14.1506 32.7803 14.1506 32.9922Z" fill="white"/>
</g>
</g>
<defs>
<clipPath id="clip0">
<rect width="45" height="49" fill="white"/>
</clipPath>
<clipPath id="clip1">
<rect width="26.3158" height="26.2032" fill="white" transform="translate(9.47363 11.2676)"/>
</clipPath>
</defs>
</svg>
