<svg width="45" height="49" viewBox="0 0 45 49" fill="none" xmlns="http://www.w3.org/2000/svg">
<g clip-path="url(#clip0)">
<path class="frame-bg" d="M22.5 1.15194L44 13.446V35.5509L22.5 47.7142L1 35.5509V13.446L22.5 1.15194Z" fill="#ffffff00" fill-opacity="0.54" stroke="#373F65" stroke-width="2"/>
<path d="M44.5384 12.3847L23.0087 0.134726C22.693 -0.0449087 22.3075 -0.0449087 21.9918 0.134726L0.462145 12.3847C0.142277 12.5665 -0.0545654 12.9054 -0.0545654 13.2708V35.7292C-0.0545654 36.0947 0.142277 36.4336 0.462145 36.6153L21.9918 48.8653C22.1497 48.9552 22.3239 49.0001 22.5003 49.0001C22.6767 49.0001 22.8509 48.9552 23.0088 48.8653L44.5385 36.6153C44.8583 36.4336 45.0552 36.0947 45.0552 35.7292V13.2708C45.0551 12.9054 44.8582 12.5665 44.5384 12.3847ZM43.0046 35.1371L22.5002 46.8031L1.99584 35.1371V13.8629L22.5002 2.19684L43.0046 13.863V35.1371Z" fill="#373F65"/>
<g clip-path="url(#clip1)">
<path d="M34.5489 23.0483C34.4121 21.957 33.9541 21.0879 33.7618 20.762C33.9009 18.4914 33.4488 16.7816 32.4174 15.6786C31.6134 14.8188 30.6742 14.5755 30.1972 14.5069C29.4698 12.9757 28.2331 12.6795 27.4815 12.7515C26.0742 11.4464 24.7725 11.4154 23.9147 11.6285C23.3489 11.7693 22.9061 12.0332 22.6313 12.2321C22.3566 12.0329 21.9135 11.7693 21.3479 11.6285C20.49 11.415 19.1883 11.4462 17.781 12.7515C17.0286 12.6792 15.7925 12.9757 15.0654 14.5069C14.5884 14.5754 13.6491 14.8187 12.8451 15.6786C11.8135 16.7816 11.3617 18.4914 11.5008 20.762C11.3085 21.0876 10.8507 21.957 10.7136 23.0483C10.5587 24.285 10.7953 26.0289 12.7371 27.4439C12.5121 28.7666 12.7251 31.0436 14.8467 32.1633C14.7586 32.6445 14.7002 33.4791 15.1316 34.1925C15.4708 34.7537 16.0312 35.1229 16.7991 35.2916C17.1868 35.8874 18.5233 37.7326 20.191 37.7326C20.2016 37.7326 20.2124 37.7326 20.223 37.7323C21.1171 37.7195 21.925 37.1933 22.6311 36.1659C23.3376 37.1931 24.1455 37.7195 25.0393 37.7323C26.7193 37.7568 28.073 35.8911 28.4633 35.2916C29.2312 35.1229 29.7917 34.7538 30.1308 34.1925C30.5623 33.4791 30.5036 32.6444 30.4157 32.1633C32.5376 31.0436 32.7506 28.7666 32.5256 27.4439C34.4676 26.0289 34.7042 24.2851 34.5489 23.0483ZM31.7647 26.8654C31.6043 26.9719 31.5284 27.1672 31.5752 27.3535C31.6062 27.477 32.3037 30.3868 29.7067 31.4949C29.4885 31.588 29.3785 31.832 29.4536 32.056C29.4568 32.0658 29.7643 33.0381 29.3491 33.7244C29.124 34.0969 28.7056 34.3363 28.1062 34.4357C27.9725 34.4578 27.8557 34.5381 27.7873 34.6544C27.4306 35.2606 26.2512 36.8242 25.071 36.8242C25.0644 36.8242 25.0575 36.8242 25.0507 36.8242C24.3409 36.8133 23.6644 36.23 23.0401 35.0907C22.96 34.9448 22.7892 34.8541 22.6222 34.8541C22.4551 34.8541 22.3017 34.9447 22.2217 35.0907C21.5977 36.23 20.9212 36.8133 20.2111 36.8242C19.0295 36.8431 17.8333 35.2642 17.4744 34.6544C17.406 34.5381 17.2889 34.4578 17.1556 34.4357C16.558 34.3364 16.1405 34.0982 15.9149 33.728C15.4946 33.038 15.8056 32.0644 15.8084 32.0559C15.8833 31.8318 15.7735 31.5879 15.5553 31.4947C12.9719 30.3924 13.6569 27.4761 13.6871 27.3534C13.7339 27.1672 13.6579 26.9719 13.4976 26.8653C10.0944 24.6062 12.2523 21.2686 12.3453 21.1285C12.4014 21.0446 12.4279 20.9446 12.4208 20.8441C12.272 18.7731 12.635 17.2484 13.4994 16.312C14.3306 15.4118 15.3365 15.3886 15.376 15.3881C15.5625 15.3881 15.7301 15.275 15.7995 15.1026C16.31 13.8322 17.1303 13.6507 17.5569 13.6507C17.6942 13.6507 17.7909 13.6696 17.8229 13.677C17.9784 13.7156 18.1427 13.6705 18.256 13.5575C19.1843 12.6336 20.1384 12.2787 21.092 12.5017C21.8217 12.6725 22.2968 13.1301 22.3 13.1333C22.3855 13.2185 22.5016 13.2664 22.6225 13.2664H22.6398C22.7608 13.2664 22.8768 13.2185 22.9623 13.1333C22.9669 13.1288 23.4258 12.6866 24.1359 12.5098C25.1006 12.2698 26.0666 12.6218 27.0063 13.5575C27.1171 13.6681 27.2813 13.7127 27.4351 13.6781C27.5713 13.6469 28.7879 13.4229 29.4628 15.1028C29.5312 15.2731 29.6991 15.386 29.8834 15.3882C29.9258 15.3889 30.9317 15.4118 31.7628 16.3121C32.6271 17.2486 32.99 18.7733 32.8415 20.8442C32.8344 20.9446 32.8609 21.0448 32.917 21.1286C32.9229 21.1372 33.4984 22.0078 33.6432 23.1613C33.8321 24.6662 33.2001 25.9126 31.7647 26.8654Z" fill="white"/>
<path d="M30.3023 14.7901C30.2225 14.5521 29.9636 14.4238 29.7252 14.5028C26.8883 15.4444 26.8556 17.805 26.8556 17.905C26.8556 18.1546 27.0579 18.356 27.3085 18.3576C27.3097 18.3576 27.3108 18.3576 27.3117 18.3576C27.561 18.3576 27.7645 18.1564 27.7679 17.908C27.7691 17.8342 27.8182 16.0932 30.0136 15.3646C30.2527 15.2853 30.3818 15.0282 30.3023 14.7901Z" fill="white"/>
<path d="M32.3633 26.9671C32.2105 26.7678 31.9247 26.7291 31.7239 26.8813C30.9806 27.4453 30.3084 27.6462 29.7273 27.4795C28.6919 27.1826 28.1703 25.8247 28.1654 25.8109C28.0778 25.576 27.8152 25.4558 27.5799 25.5431C27.3436 25.6299 27.2226 25.8912 27.31 26.1265C27.3372 26.1997 27.9916 27.923 29.4693 28.3508C29.6897 28.4147 29.9144 28.4465 30.1429 28.4465C30.823 28.4465 31.5383 28.1647 32.2771 27.6038C32.4774 27.4518 32.5159 27.1665 32.3633 26.9671Z" fill="white"/>
<path d="M24.6504 27.3459C24.4725 27.1685 24.1833 27.1685 24.0054 27.3459C23.8273 27.5233 23.8273 27.8109 24.0054 27.9881C25.4866 29.463 25.1794 30.8879 25.1636 30.9554C25.1043 31.198 25.2527 31.4427 25.4961 31.5034C25.533 31.5125 25.5703 31.517 25.6069 31.517C25.8113 31.517 25.9974 31.3791 26.0491 31.1727C26.0693 31.0933 26.5166 29.2042 24.6504 27.3459Z" fill="white"/>
<path d="M31.7281 23.0891C31.6423 22.8538 31.3808 22.7321 31.1442 22.8169C31.0519 22.8497 28.8768 23.607 27.7216 22.076C27.1215 21.2809 26.8637 20.6 26.6564 20.0529C26.4021 19.3818 26.1622 18.7477 25.3647 18.6823C25.1159 18.6614 24.8932 18.8475 24.8728 19.0976C24.8521 19.3474 25.0388 19.5668 25.2899 19.5874C25.4809 19.6029 25.5526 19.7132 25.8027 20.3732C26.0185 20.9426 26.3139 21.7225 26.9921 22.6214C27.787 23.6748 28.896 23.9393 29.8104 23.9393C30.6957 23.9393 31.3984 23.6911 31.4563 23.6704C31.6926 23.5846 31.8139 23.3245 31.7281 23.0891Z" fill="white"/>
<path d="M22.6229 12.3574C22.3711 12.3574 22.1667 12.5609 22.1667 12.8116V35.3073C22.1667 35.558 22.3711 35.7614 22.6229 35.7614C22.8747 35.7614 23.079 35.5582 23.079 35.3074V12.8116C23.079 12.5609 22.8747 12.3574 22.6229 12.3574Z" fill="white"/>
<path d="M25.9582 16.2711C25.9546 16.0203 25.7549 15.8169 25.4954 15.8234C25.2433 15.827 25.0422 16.0335 25.0458 16.2842C25.0462 16.3126 25.0711 19.1446 23.6488 20.9407C23.4928 21.1378 23.5265 21.4234 23.7246 21.5787C23.8083 21.6446 23.9077 21.6764 24.0067 21.6764C24.1416 21.6764 24.2752 21.6171 24.365 21.5034C25.9857 19.457 25.9599 16.4003 25.9582 16.2711Z" fill="white"/>
<path d="M26.8856 30.1846C24.8747 30.1846 23.9342 32.9251 23.8951 33.0419C23.8155 33.2797 23.9444 33.5363 24.1833 33.616C24.2311 33.6321 24.28 33.6396 24.3279 33.6396C24.5186 33.6396 24.6965 33.5197 24.7606 33.3295C24.9707 32.7074 25.7622 31.0929 26.8857 31.0929C27.1375 31.0929 27.3418 30.8895 27.3418 30.6388C27.3418 30.388 27.1374 30.1846 26.8856 30.1846Z" fill="white"/>
<path d="M27.3994 12.6816C27.1977 12.5319 26.9117 12.5736 26.7613 12.7749L25.6668 14.2391C25.5165 14.4401 25.5585 14.7247 25.7605 14.8745C25.8422 14.9354 25.9375 14.9645 26.0324 14.9645C26.1718 14.9645 26.3093 14.9014 26.3987 14.7813L27.4931 13.3171C27.6435 13.1161 27.6015 12.8316 27.3994 12.6816Z" fill="white"/>
<path d="M18.0605 15.6162C17.0544 15.6162 16.2358 16.4313 16.2358 17.4331C16.2358 18.4348 17.0544 19.2499 18.0605 19.2499C19.0666 19.2499 19.8852 18.4348 19.8852 17.4331C19.8852 16.4313 19.0666 15.6162 18.0605 15.6162ZM18.0605 18.3416C17.5573 18.3416 17.1481 17.9341 17.1481 17.4331C17.1481 16.932 17.5573 16.5246 18.0605 16.5246C18.5637 16.5246 18.9729 16.932 18.9729 17.4331C18.9728 17.9341 18.5635 18.3416 18.0605 18.3416Z" fill="white"/>
<path d="M14.8673 21.5215C13.8612 21.5215 13.0426 22.3366 13.0426 23.3383C13.0426 24.3401 13.8612 25.1552 14.8673 25.1552C15.8733 25.1552 16.6919 24.3401 16.6919 23.3383C16.692 22.3366 15.8733 21.5215 14.8673 21.5215ZM14.8673 24.2468C14.3641 24.2468 13.9549 23.8394 13.9549 23.3383C13.9549 22.8373 14.3641 22.4298 14.8673 22.4298C15.3704 22.4298 15.7797 22.8373 15.7797 23.3383C15.7797 23.8394 15.3704 24.2468 14.8673 24.2468Z" fill="white"/>
<path d="M19.429 25.6094C18.4229 25.6094 17.6044 26.4244 17.6044 27.4262C17.6044 28.428 18.4229 29.2431 19.429 29.2431C20.4351 29.2431 21.2537 28.428 21.2537 27.4262C21.2537 26.4244 20.4351 25.6094 19.429 25.6094ZM19.429 28.3347C18.9259 28.3347 18.5166 27.9272 18.5166 27.4262C18.5166 26.9252 18.9259 26.5177 19.429 26.5177C19.9322 26.5177 20.3414 26.9252 20.3414 27.4262C20.3414 27.9272 19.9321 28.3347 19.429 28.3347Z" fill="white"/>
<path d="M19.429 30.6064C18.4229 30.6064 17.6044 31.4215 17.6044 32.4233C17.6044 33.4251 18.4229 34.2401 19.429 34.2401C20.4351 34.2401 21.2537 33.4251 21.2537 32.4233C21.2537 31.4215 20.4351 30.6064 19.429 30.6064ZM19.429 33.3318C18.9259 33.3318 18.5166 32.9243 18.5166 32.4233C18.5166 31.9223 18.9259 31.5148 19.429 31.5148C19.9322 31.5148 20.3414 31.9223 20.3414 32.4233C20.3413 32.9243 19.9321 33.3318 19.429 33.3318Z" fill="white"/>
<path d="M18.0605 18.3428C17.8087 18.3428 17.6044 18.5462 17.6044 18.797V23.3391C17.6044 23.5899 17.8087 23.7933 18.0605 23.7933C18.3126 23.7933 18.5166 23.5901 18.5166 23.3391V18.797C18.5166 18.5462 18.3123 18.3428 18.0605 18.3428Z" fill="white"/>
<path d="M19.429 22.8838H16.2357C15.9839 22.8838 15.7795 23.0873 15.7795 23.338C15.7795 23.5887 15.9839 23.7921 16.2357 23.7921H19.4289C19.6809 23.7921 19.885 23.5887 19.885 23.338C19.8851 23.0873 19.6808 22.8838 19.429 22.8838Z" fill="white"/>
<path d="M19.4289 22.8838C19.1771 22.8838 18.9728 23.0873 18.9728 23.338V26.0633C18.9728 26.314 19.1771 26.5175 19.4289 26.5175C19.681 26.5175 19.885 26.3143 19.885 26.0633V23.338C19.885 23.0873 19.6807 22.8838 19.4289 22.8838Z" fill="white"/>
<path d="M19.4289 28.335C19.1771 28.335 18.9728 28.5384 18.9728 28.7891V31.0603C18.9728 31.311 19.1771 31.5145 19.4289 31.5145C19.681 31.5145 19.885 31.3113 19.885 31.0603V28.7891C19.885 28.5384 19.6807 28.335 19.4289 28.335Z" fill="white"/>
</g>
</g>
<defs>
<clipPath id="clip0">
<rect width="45" height="49" fill="white"/>
</clipPath>
<clipPath id="clip1">
<rect width="26.3158" height="26.2032" fill="white" transform="translate(9.47363 11.5293)"/>
</clipPath>
</defs>
</svg>
