<svg width="45" height="49" viewBox="0 0 45 49" fill="none" xmlns="http://www.w3.org/2000/svg">
<g clip-path="url(#clip0)">
<path class="frame-bg" d="M22.5 1.15194L44 13.446V35.5509L22.5 47.7142L1 35.5509V13.446L22.5 1.15194Z" fill="#ffffff00" fill-opacity="0.54" stroke="#373F65" stroke-width="2"/>
<path d="M44.5384 12.3847L23.0087 0.134726C22.693 -0.0449087 22.3075 -0.0449087 21.9918 0.134726L0.462145 12.3847C0.142277 12.5665 -0.0545654 12.9054 -0.0545654 13.2708V35.7292C-0.0545654 36.0947 0.142277 36.4336 0.462145 36.6153L21.9918 48.8653C22.1497 48.9552 22.3239 49.0001 22.5003 49.0001C22.6767 49.0001 22.8509 48.9552 23.0088 48.8653L44.5385 36.6153C44.8583 36.4336 45.0552 36.0947 45.0552 35.7292V13.2708C45.0551 12.9054 44.8582 12.5665 44.5384 12.3847ZM43.0046 35.1371L22.5002 46.8031L1.99584 35.1371V13.8629L22.5002 2.19684L43.0046 13.863V35.1371Z" fill="#373F65"/>
<path d="M25.7154 18.2273C25.4452 18.2273 25.1856 18.2737 24.9444 18.3589V12.0859H20.3186V18.3589C20.0775 18.2737 19.8179 18.2273 19.5476 18.2273C13.9928 18.2273 9.47363 22.7042 9.47363 28.2071V34.3484C9.47363 35.6183 10.5112 36.6514 11.7865 36.6514C17.3413 36.6514 21.8606 32.1746 21.8606 26.6717V24.3687H23.4025V26.6717C23.4025 32.1746 27.9217 36.6514 33.4765 36.6514C34.7518 36.6514 35.7894 35.6183 35.7894 34.3484V28.2071C35.7894 22.7042 31.2702 18.2273 25.7154 18.2273ZM34.2475 34.3484C34.2475 34.7716 33.9015 35.1161 33.4765 35.1161C28.772 35.1161 24.9444 31.3279 24.9444 26.6717V25.1915L28.0797 27.6727V31.2777H29.6217V28.8928L31.4549 30.3433L32.4142 29.1415L30.2013 27.3902L32.3972 25.7505L31.472 24.5222L28.9535 26.403L24.4425 22.8333H20.8206L16.3941 26.3361L13.7706 24.5074L12.8864 25.7653L15.1348 27.3324L12.8486 29.1415L13.8081 30.3433L15.6414 28.8928V31.2777H17.1833V27.6727L20.3186 25.1915V26.6717C20.3186 31.3279 16.4911 35.1161 11.7865 35.1161C11.3615 35.1161 11.0156 34.7716 11.0156 34.3484V28.2071C11.0156 23.5508 14.8431 19.7627 19.5476 19.7627C19.9727 19.7627 20.3186 20.1071 20.3186 20.5303H21.8606V13.6213H23.4025V20.5253H24.9444C24.9444 20.1019 25.2904 19.7627 25.7154 19.7627C30.4199 19.7627 34.2475 23.5508 34.2475 28.2071V34.3484Z" fill="white"/>
</g>
<defs>
<clipPath id="clip0">
<rect width="45" height="49" fill="white"/>
</clipPath>
</defs>
</svg>
