<svg id="Слой_1" data-name="Слой 1" xmlns="http://www.w3.org/2000/svg" viewBox="0 0 289.04 333.76"><defs><style>.cls-1{fill:#fff;}.cls-2{fill:#373f65;}</style></defs><title>hexagon-slide</title><polygon class="cls-1" points="7 246.28 7 87.48 144.52 8.08 282.04 87.48 282.04 246.28 144.52 325.67 7 246.28"/><path class="cls-2" d="M168.39,17.91,298.91,93.26V244L168.39,319.33,37.87,244V93.26L168.39,17.91m0-16.17L23.87,85.18V252.06L168.39,335.5l144.52-83.44V85.18L168.39,1.74Z" transform="translate(-23.87 -1.74)"/><path class="cls-2" d="M188.56,175.27,173.8,204.78a4.74,4.74,0,0,1-8.57-.18l-16.9-37.49-8.9,21.28H111.49l54.18,55.37a5.3,5.3,0,0,0,7.63,0l54.21-55.37H195.12Zm45.57-50.44-.72-.74a38.9,38.9,0,0,0-55.63,0l-8.28,8.49-8.28-8.46a38.84,38.84,0,0,0-55.63,0l-.72.71c-14.45,14.79-15.08,38.33-2.16,54.06h30.4l10.65-25.59a4.76,4.76,0,0,1,8.73-.12l17.28,38.39,14.54-29.06a4.74,4.74,0,0,1,8.49,0l8.2,16.38h35.29C249.21,163.16,248.58,139.62,234.13,124.83Z" transform="translate(-23.87 -1.74)"/></svg>