<svg width="51" height="55" viewBox="0 0 51 55" fill="none" xmlns="http://www.w3.org/2000/svg">
<path d="M50.1311 13.9013L26.0686 0.151223C25.7157 -0.0504076 25.2849 -0.0504076 24.932 0.151223L0.869492 13.9013C0.511992 14.1053 0.291992 14.4856 0.291992 14.8959V40.1043C0.291992 40.5145 0.511992 40.8949 0.869492 41.0989L24.932 54.8489C25.1085 54.9497 25.3032 55.0001 25.5004 55.0001C25.6975 55.0001 25.8922 54.9497 26.0687 54.8489L50.1312 41.0989C50.4887 40.8949 50.7087 40.5145 50.7087 40.1043V14.8959C50.7086 14.4856 50.4886 14.1053 50.1311 13.9013ZM48.4169 39.4396L25.5003 52.5342L2.58362 39.4396V15.5604L25.5003 2.46585L48.4169 15.5605V39.4396Z" fill="#373F65"/>
<path class="hexagon-bg" d="M48.4173 39.4395L25.5007 52.5341L2.58398 39.4395V15.5603L25.5007 2.46582L48.4173 15.5604V39.4395Z" fill="white"/>
<path class="hexagon-icon" d="M25 14C17.8318 14 12 19.8318 12 27.0008C12 34.169 17.831 40.0008 25 40.0008C25.4433 40.0008 25.8015 39.6418 25.8015 39.2001C25.8015 38.7575 25.4433 38.3986 25 38.3986C18.7153 38.3986 13.6038 33.2855 13.6038 27.0016C13.6038 20.7169 18.7153 15.6038 25 15.6038C31.2847 15.6038 36.3954 20.7169 36.3954 27.0016C36.3954 29.6274 34.9977 32.2317 32.9976 33.3333C32.2709 33.7328 31.4829 33.931 30.6424 33.939C31.147 33.6381 31.584 33.233 31.9087 32.7204C31.9724 32.6241 32.0568 32.5405 32.0981 32.4346C32.3592 31.8066 32.3823 31.0943 32.5399 30.4321C32.7333 29.5836 28.8324 27.9304 28.4934 28.9874C28.3708 29.3798 28.1829 30.6175 27.937 30.9439C27.7181 31.2344 27.1785 31.0975 26.841 30.8101C25.9519 30.0524 24.9594 28.9381 24.0887 28.0586L24.0902 28.0578C24.068 28.0347 24.0409 28.0084 24.017 27.9854C23.9923 27.9615 23.9677 27.936 23.943 27.9121C23.0627 27.0422 21.9484 26.0512 21.1915 25.1598C20.9049 24.8223 20.7664 24.2843 21.0577 24.0646C21.3841 23.8179 22.6225 23.6324 23.0141 23.509C24.0696 23.1708 22.4172 19.2675 21.5687 19.4625C20.9065 19.6177 20.1941 19.6416 19.5662 19.9019C19.4595 19.9464 19.3767 20.0292 19.2804 20.0929C17.0526 21.5057 16.7653 24.9346 18.9398 27.4887C19.7683 28.4661 20.6327 29.4117 21.5226 30.335L21.5178 30.3382C21.5425 30.3628 21.5679 30.3859 21.5934 30.4098C21.6173 30.4345 21.6404 30.4591 21.6634 30.4854L21.6682 30.4806C22.5915 31.3705 23.6859 32.6806 25.464 33.8673C29.2073 36.3674 32.0798 35.6693 33.772 34.7413C36.6931 33.1327 38 29.6966 38 27.0056C38.0008 19.8318 32.1682 14 25 14Z" fill="#373F65"/>
</svg>
