<svg width="55" height="55" viewBox="0 0 55 55" fill="#373F65" xmlns="http://www.w3.org/2000/svg">
<g clip-path="url(#clip0)">
<path d="M52.1311 13.9015L28.0686 0.151467C27.7157 -0.0501636 27.2849 -0.0501636 26.932 0.151467L2.86949 13.9015C2.51199 14.1055 2.29199 14.4858 2.29199 14.8961V40.1045C2.29199 40.5147 2.51199 40.8951 2.86949 41.0991L26.932 54.8491C27.1085 54.9499 27.3032 55.0003 27.5004 55.0003C27.6975 55.0003 27.8922 54.9499 28.0687 54.8491L52.1312 41.0991C52.4887 40.8951 52.7087 40.5147 52.7087 40.1045V14.8961C52.7086 14.4858 52.4886 14.1055 52.1311 13.9015ZM50.4169 39.4398L27.5003 52.5344L4.58362 39.4398V15.5606L27.5003 2.46609L50.4169 15.5607V39.4398Z" fill="#373F65"/>
<path class="hexagon-search-icon" d="M50.4169 39.4398L27.5003 52.5344L4.58362 39.4398V15.5606L27.5003 2.46609L50.4169 15.5607V39.4398Z" fill="white"/>
<path class="hexagon-search-bg" d="M31.375 22.875C31.03 22.875 30.75 23.155 30.75 23.5C30.75 23.845 31.03 24.125 31.375 24.125C31.72 24.125 32 23.845 32 23.5C32 23.155 31.72 22.875 31.375 22.875Z" fill="#373F65"/>
<path class="hexagon-search-bg" d="M43.2676 38.7324L34.9251 30.3899C36.2841 28.3428 37 25.9722 37 23.5C37 16.6075 31.3925 11 24.5 11C17.6075 11 12 16.6075 12 23.5C12 30.3925 17.6075 36 24.5 36C26.9722 36 29.3429 35.2841 31.3899 33.9251L33.6959 36.2311C33.6962 36.2314 33.6965 36.2317 33.6969 36.2321L39.7324 42.2676C40.2048 42.7399 40.8324 43 41.5 43C42.1676 43 42.7953 42.7399 43.2674 42.2677C43.7398 41.7957 44 41.1679 44 40.5C44 39.8321 43.7398 39.2043 43.2676 38.7324ZM31.096 32.6079C31.096 32.608 31.0959 32.608 31.0959 32.6081C29.1667 34.0093 26.8859 34.75 24.5 34.75C18.2968 34.75 13.25 29.7033 13.25 23.5C13.25 17.2968 18.2968 12.25 24.5 12.25C30.7033 12.25 35.75 17.2968 35.75 23.5C35.75 25.8859 35.0093 28.1667 33.608 30.0959C32.9069 31.0618 32.0618 31.9069 31.096 32.6079ZM32.4072 33.1746C33.0541 32.6454 33.6454 32.0541 34.1746 31.4072L35.9478 33.1804C35.4085 33.8169 34.8169 34.4086 34.1804 34.9478L32.4072 33.1746ZM42.3837 41.3837C42.1474 41.6199 41.8336 41.75 41.5 41.75C41.1664 41.75 40.8526 41.6199 40.6163 41.3837L35.0666 35.834C35.6996 35.2908 36.2908 34.6996 36.8339 34.0667L42.3838 39.6166C42.6199 39.8524 42.75 40.1661 42.75 40.5C42.75 40.8339 42.6199 41.1476 42.3837 41.3837Z" fill="#373F65"/>
<path class="hexagon-search-bg" d="M24.5 13.5C18.9859 13.5 14.5 17.9859 14.5 23.5C14.5 29.0141 18.9859 33.5 24.5 33.5C30.0141 33.5 34.5 29.0141 34.5 23.5C34.5 17.9859 30.0141 13.5 24.5 13.5ZM24.5 32.25C19.6753 32.25 15.75 28.3247 15.75 23.5C15.75 18.6753 19.6753 14.75 24.5 14.75C29.3247 14.75 33.25 18.6753 33.25 23.5C33.25 28.3247 29.3247 32.25 24.5 32.25Z" fill="#373F65"/>
<path class="hexagon-search-bg" d="M31.5041 20.8171C30.9659 19.4163 30.0288 18.2187 28.7941 17.3538C27.5299 16.4681 26.0451 16 24.5 16C24.1549 16 23.875 16.2799 23.875 16.625C23.875 16.9701 24.1549 17.25 24.5 17.25C27.0687 17.25 29.4144 18.8636 30.3373 21.2654C30.4328 21.5139 30.6696 21.6664 30.9208 21.6664C30.9953 21.6664 31.0711 21.653 31.1448 21.6247C31.467 21.5009 31.6279 21.1393 31.5041 20.8171Z" fill="#373F65"/>
</g>
<defs>
<clipPath id="clip0">
<rect class="hexagon-search-bg" width="55" height="55" fill="#373F65"/>
</clipPath>
</defs>
</svg>
