<svg id="Слой_1" data-name="Слой 1" xmlns="http://www.w3.org/2000/svg" xmlns:xlink="http://www.w3.org/1999/xlink" viewBox="0 0 57.75 63"><defs><style>.cls-1{fill:none;}.cls-2{clip-path:url(#clip-path);}.cls-3{fill:#fff;}.cls-4{clip-path:url(#clip-path-2);}</style><clipPath id="clip-path" transform="translate(-2.63 0)"><rect class="cls-1" width="63" height="63"/></clipPath><clipPath id="clip-path-2" transform="translate(-2.63 0)"><rect class="cls-1" x="14" y="14" width="35" height="35"/></clipPath></defs><title>sale-sidebar-5</title><g class="cls-2"><path class="cls-3" d="M59.71,15.92,32.15.17a1.31,1.31,0,0,0-1.3,0L3.29,15.92a1.32,1.32,0,0,0-.66,1.14V45.94a1.32,1.32,0,0,0,.66,1.14L30.85,62.83a1.33,1.33,0,0,0,1.3,0L59.71,47.08a1.33,1.33,0,0,0,.67-1.14V17.06A1.33,1.33,0,0,0,59.71,15.92Zm-2,29.26-26.25,15-26.25-15V17.82l26.25-15,26.25,15Z" transform="translate(-2.63 0)"/><g class="cls-4"><path class="cls-3" d="M43.35,40A5.65,5.65,0,1,1,49,34.32,5.65,5.65,0,0,1,43.35,40Zm0-10.16a4.52,4.52,0,1,0,4.52,4.51A4.51,4.51,0,0,0,43.35,29.81Z" transform="translate(-2.63 0)"/><path class="cls-3" d="M43.35,36.58a2.26,2.26,0,1,1,2.26-2.26A2.26,2.26,0,0,1,43.35,36.58Zm0-3.39a1.13,1.13,0,1,0,1.13,1.13A1.13,1.13,0,0,0,43.35,33.19Z" transform="translate(-2.63 0)"/><path class="cls-3" d="M45.05,42.23H41.66V39.11h1.13v2h1.13v-2h1.13Z" transform="translate(-2.63 0)"/><path class="cls-3" d="M23.6,19.65h-4V14h4a2.83,2.83,0,0,1,0,5.65Zm-2.83-1.13H23.6a1.7,1.7,0,0,0,0-3.39H20.77Z" transform="translate(-2.63 0)"/><path class="cls-3" d="M34.32,19.65H30.37a2.83,2.83,0,0,1,0-5.65h3.95Zm-3.95-4.52a1.7,1.7,0,0,0,0,3.39h2.82V15.13Z" transform="translate(-2.63 0)"/><path class="cls-3" d="M31.63,32.63h-.69V31.5h.43L36,29.17a5.07,5.07,0,0,0,2.81-4.55V21.34a5.09,5.09,0,0,0-5.08-5.08V15.13A6.22,6.22,0,0,1,40,21.34v3.28a6.18,6.18,0,0,1-3.44,5.56Z" transform="translate(-2.63 0)"/><path class="cls-3" d="M31.63,29.81h-.69V28.68h.43L35,26.85a2.81,2.81,0,0,0,1.56-2.52v-3a2.82,2.82,0,0,0-2.82-2.82V17.39a4,4,0,0,1,4,3.95v3a3.93,3.93,0,0,1-2.19,3.53Z" transform="translate(-2.63 0)"/><path class="cls-3" d="M23,32.63h-.7l-4.9-2.45A6.19,6.19,0,0,1,14,24.62V21.34a6.22,6.22,0,0,1,6.21-6.21v1.13a5.09,5.09,0,0,0-5.08,5.08v3.28a5,5,0,0,0,2.81,4.55L22.6,31.5H23Z" transform="translate(-2.63 0)"/><path class="cls-3" d="M23,29.81h-.7l-3.89-1.95a3.94,3.94,0,0,1-2.18-3.53v-3a4,4,0,0,1,3.95-3.95v1.13a2.82,2.82,0,0,0-2.82,2.82v3A2.81,2.81,0,0,0,19,26.85l3.65,1.83H23Z" transform="translate(-2.63 0)"/><path class="cls-3" d="M28.68,37.71H25.29V34.48a1.69,1.69,0,0,0-1.36-1.66l-1.46-.29V28.68h9v3.85L30,32.82a1.7,1.7,0,0,0-1.36,1.66Zm-2.26-1.13h1.13v-2.1a2.83,2.83,0,0,1,2.27-2.77l.55-.11V29.81H23.6V31.6l.55.11a2.83,2.83,0,0,1,2.27,2.77Z" transform="translate(-2.63 0)"/><path class="cls-3" d="M40,49h-9.6a4,4,0,0,1-3.95-4v-7.9h1.13v7.9a2.82,2.82,0,0,0,2.82,2.82H40a2.83,2.83,0,0,0,2.82-2.82V41.66h1.13v3.39A4,4,0,0,1,40,49Z" transform="translate(-2.63 0)"/></g></g></svg>