<svg id="Слой_1" data-name="Слой 1" xmlns="http://www.w3.org/2000/svg" xmlns:xlink="http://www.w3.org/1999/xlink" viewBox="0 0 57.75 63"><defs><style>.cls-1{fill:none;}.cls-2{clip-path:url(#clip-path);}.cls-3{fill:#fff;}.cls-4{clip-path:url(#clip-path-2);}</style><clipPath id="clip-path" transform="translate(-2.63 0)"><rect class="cls-1" width="63" height="63"/></clipPath><clipPath id="clip-path-2" transform="translate(-2.63 0)"><rect class="cls-1" x="16" y="16" width="32" height="32"/></clipPath></defs><title>sale-sidebar-2</title><g class="cls-2"><path class="cls-3" d="M59.71,15.92,32.15.17a1.31,1.31,0,0,0-1.3,0L3.29,15.92a1.32,1.32,0,0,0-.66,1.14V45.94a1.32,1.32,0,0,0,.66,1.14L30.85,62.83a1.33,1.33,0,0,0,1.3,0L59.71,47.08a1.33,1.33,0,0,0,.67-1.14V17.06A1.33,1.33,0,0,0,59.71,15.92Zm-2,29.26-26.25,15-26.25-15V17.82l26.25-15,26.25,15Z" transform="translate(-2.63 0)"/><g class="cls-4"><path class="cls-3" d="M48,19.35a2.46,2.46,0,0,0-.74-1.77,2.51,2.51,0,0,0-3.55,0l-17.95,18a1.23,1.23,0,0,0-.34,1l-9.26,9.27a.53.53,0,0,0-.15.49.55.55,0,0,0,.33.39,7.72,7.72,0,0,0,2.66.45,6.86,6.86,0,0,0,4.9-2l3.83-3.84a.55.55,0,0,0,.15-.49l-.29-1.46,1.24-1.24.19,0a1.79,1.79,0,0,0,1.63-.47L45.19,23.21h0l2.07-2.08A2.46,2.46,0,0,0,48,19.35ZM42.87,24,41.6,21.22l1.28-1.28,1.27,2.79Zm-2.1,2.09-1.26-2.79L40.78,22l1.27,2.79ZM27.59,37.89l-1,1a.53.53,0,0,0-.15.48l.3,1.46-3.63,3.63a6.12,6.12,0,0,1-5.57,1.51L26,37.48h0a1.43,1.43,0,0,0,.31.12Zm2.3-.9a.7.7,0,0,1-.63.18l-2.66-.62-.06,0,0,0s0,0,0,0a.13.13,0,0,1,0-.15L38.69,24.12,40,26.91ZM46.5,20.37,45,21.91l-1.27-2.79.78-.78a1.44,1.44,0,0,1,1-.42,1.44,1.44,0,0,1,1,2.45Z" transform="translate(-2.63 0)"/><path class="cls-3" d="M22.87,41.78,21.8,42.85a.54.54,0,0,0,.38.92.57.57,0,0,0,.38-.15l1.07-1.08a.54.54,0,1,0-.76-.76Z" transform="translate(-2.63 0)"/><path class="cls-3" d="M20.71,43.93a.54.54,0,0,0,.39.92.54.54,0,0,0,.38-.92A.57.57,0,0,0,20.71,43.93Z" transform="translate(-2.63 0)"/></g></g></svg>