<svg id="Слой_1" data-name="Слой 1" xmlns="http://www.w3.org/2000/svg" xmlns:xlink="http://www.w3.org/1999/xlink" viewBox="0 0 57.75 63"><defs><style>.cls-1{fill:none;}.cls-2{clip-path:url(#clip-path);}.cls-3{fill:#fff;}.cls-4{clip-path:url(#clip-path-2);}</style><clipPath id="clip-path" transform="translate(-2.63 0)"><rect class="cls-1" width="63" height="63"/></clipPath><clipPath id="clip-path-2" transform="translate(-2.63 0)"><rect class="cls-1" x="14" y="14" width="35" height="35"/></clipPath></defs><title>sale-sidebar-4</title><g class="cls-2"><path class="cls-3" d="M59.71,15.92,32.15.17a1.31,1.31,0,0,0-1.3,0L3.29,15.92a1.32,1.32,0,0,0-.66,1.14V45.94a1.32,1.32,0,0,0,.66,1.14L30.85,62.83a1.33,1.33,0,0,0,1.3,0L59.71,47.08a1.33,1.33,0,0,0,.67-1.14V17.06A1.33,1.33,0,0,0,59.71,15.92Zm-2,29.26-26.25,15-26.25-15V17.82l26.25-15,26.25,15Z" transform="translate(-2.63 0)"/><g class="cls-4"><path class="cls-3" d="M46.12,30.92c.91-5-.58-11.75-6-15a15.07,15.07,0,0,0-11.25-1.42A14,14,0,0,0,18.54,24.59a10.2,10.2,0,0,0-.34,3.06,11,11,0,0,0,.35,1.89A8,8,0,0,1,18.9,32a6.09,6.09,0,0,1-1.29,2.89c-.65,1-1.21,1.82-.88,2.6a1.9,1.9,0,0,0,1.45.93h.11a.55.55,0,0,1,.61.59c0,1.21,0,1.83.53,2.12a1.4,1.4,0,0,0-.09.29,1,1,0,0,0,.33.92,1.8,1.8,0,0,0,.93.47h.07a1.22,1.22,0,0,1,0,.27c0,.21,0,.43,0,.64-.1.94-.23,2.22,1.63,2.83a4.14,4.14,0,0,0,1.16.14,18.36,18.36,0,0,0,5.18-1,6.65,6.65,0,0,1,.85,2.75.58.58,0,0,0,.17.41.59.59,0,0,0,.42.17H44.62a.59.59,0,0,0,.55-.4.6.6,0,0,0-.21-.66c-.6-.46-2.6-5.29-2.66-7,.17-.4.41-.85.69-1.37A27.43,27.43,0,0,0,46.12,30.92Zm-5,9.94a21.06,21.06,0,0,0,2.35,7H30.58a8.54,8.54,0,0,0-.86-2.55,9.51,9.51,0,0,0,3.89-2.45.58.58,0,1,0-.92-.71c-1.65,2.16-8.52,3.8-10,3.3-1-.32-.94-.69-.84-1.59a6.78,6.78,0,0,0,.05-.77c0-1-.4-1.28-1-1.42a.78.78,0,0,1-.32-.12,1.7,1.7,0,0,1,.39-.27.59.59,0,0,0-.26-1.11h-.56a8.9,8.9,0,0,1,0-1.15,1.74,1.74,0,0,0-.49-1.24,1.69,1.69,0,0,0-1.22-.51c-.42-.09-.55-.21-.56-.23-.08-.2.48-1,.78-1.5A7.11,7.11,0,0,0,20.07,32a8.78,8.78,0,0,0-.24-2.16A5.72,5.72,0,0,1,22,28.62a1.79,1.79,0,0,1,.86.06.6.6,0,0,0,.72-.41.57.57,0,0,0-.41-.71,2.85,2.85,0,0,0-1.42-.08,6.07,6.07,0,0,0-2.26,1.12,9.17,9.17,0,0,1-.16-1,8.8,8.8,0,0,1,.31-2.7,12.72,12.72,0,0,1,9.5-9.23,13.79,13.79,0,0,1,10.35,1.29c4.95,2.95,6.29,9.21,5.45,13.78A25.89,25.89,0,0,1,42,39c-.32.6-.6,1.12-.8,1.59A.63.63,0,0,0,41.13,40.86Z" transform="translate(-2.63 0)"/><path class="cls-3" d="M42.28,32.25a1.74,1.74,0,0,0-1.42-1.88l-1.11-1.55a1.38,1.38,0,0,0,.15-.4L41,28a1.74,1.74,0,1,0,1.68-2.85l-.87-1.75a1.74,1.74,0,0,0-2.14-2.71l-1-.82a1.75,1.75,0,0,0-2.9-1.81l-1.73-.43a1.73,1.73,0,0,0-3.34,0l-2.31.46a1.75,1.75,0,0,0-2.79,2.06l-1.13,1.5a1.75,1.75,0,0,0-.1,3.42l.94,2.31a1.72,1.72,0,0,0-.38,1.93,1.74,1.74,0,0,0,3.25-.11h3.13a1.69,1.69,0,0,0,1.91,1.14l1.93,2.95a1.75,1.75,0,1,0,3,1.47l1.44-1.16a1.79,1.79,0,0,0,.92.27A1.74,1.74,0,0,0,42.28,32.25Zm0-6a.58.58,0,0,1,.16,1.14.57.57,0,0,1-.69-.33h0a.52.52,0,0,1,0-.21A.58.58,0,0,1,42.29,26.26ZM40,22.06a.6.6,0,0,1,.57-.47.59.59,0,1,1,0,1.17.78.78,0,0,1-.21,0h0A.59.59,0,0,1,40,22.06Zm-.58,1.42-1.08,2.7-1.89-1.51a1.7,1.7,0,0,0,.54-.83l2.31-.47Zm-.62,4.68a.58.58,0,0,1-.64.42.57.57,0,0,1-.5-.57.58.58,0,0,1,.58-.59.54.54,0,0,1,.21,0h0A.58.58,0,0,1,38.77,28.16ZM37,18.68a.58.58,0,1,1-.58.58A.58.58,0,0,1,37,18.68ZM34,18.8l1.34.33a.69.69,0,0,0,0,.13A1.76,1.76,0,0,0,37,21a1.73,1.73,0,0,0,.89-.25l1,.81a1.57,1.57,0,0,0-.12.6s0,.07,0,.11l-1.9.38a1.72,1.72,0,0,0-1.34-1l-2.13-2.14A1.72,1.72,0,0,0,34,18.8Zm1.91,4.54a.59.59,0,1,1-.59-.58A.58.58,0,0,1,35.88,23.34Zm-3.5-5.83a.58.58,0,0,1,.58.58.58.58,0,1,1-1.16,0A.58.58,0,0,1,32.38,17.51Zm.11,2.69L34.24,22a1.83,1.83,0,0,0-.59.81H32.27a1.77,1.77,0,0,0-.76-.92Zm-3.62-1,1.9-.38a1.76,1.76,0,0,0,.73.82l-1.06,1.76-1.83-1.17a1.8,1.8,0,0,0,.27-.93S28.87,19.19,28.87,19.16Zm2.34,4.18a.58.58,0,1,1-.58-.58A.58.58,0,0,1,31.21,23.34Zm-4.08-4.66a.58.58,0,1,1-.58.58A.58.58,0,0,1,27.13,18.68Zm-.63,2.21a1.63,1.63,0,0,0,1.11,0l1.8,1.16a1.73,1.73,0,0,0-.42.67H26.44a1.77,1.77,0,0,0-.69-.88Zm-1.7,3a.58.58,0,1,1,0-1.16.58.58,0,0,1,0,1.16Zm1.75,5.25a.58.58,0,1,1,.58-.58A.58.58,0,0,1,26.55,29.17Zm.33-2.3a1.84,1.84,0,0,0-.33,0l-.17,0-.8-2a1.76,1.76,0,0,0,.86-1H29a1.68,1.68,0,0,0,.52.76ZM31.32,28H28.19a1.57,1.57,0,0,0-.27-.49l2.87-2.38,1,2.18A1.74,1.74,0,0,0,31.32,28Zm1-4.09h1.38a1.73,1.73,0,0,0,.76.92l-1.21,2-.24,0h-.13l-1-2.24A1.74,1.74,0,0,0,32.27,23.92ZM33,29.17a.58.58,0,1,1,.58-.58A.58.58,0,0,1,33,29.17Zm2.49-3.79,1.63,1.3a1.77,1.77,0,0,0-.54.83l-2,.4a1.72,1.72,0,0,0-.33-.51Zm1,9.62a.58.58,0,1,1,.58-.58A.58.58,0,0,1,36.46,35Zm2.33-2.91a1.86,1.86,0,0,0,.11.57l-1,.79a1.68,1.68,0,0,0-1.72-.75l-1.93-3a1.7,1.7,0,0,0,.37-.67l2-.39a1.75,1.75,0,0,0,2.28.93l.72,1A1.75,1.75,0,0,0,38.79,32.09Zm.57-5.39,1.11-2.78h.07l.21,0,.71,1.41a1.74,1.74,0,0,0-.92,1.53s0,.05,0,.07l-.78.31A1.72,1.72,0,0,0,39.36,26.7Zm1.18,6a.58.58,0,0,1,0-1.16.58.58,0,1,1,0,1.16Z" transform="translate(-2.63 0)"/></g></g></svg>