<svg id="Слой_1" data-name="Слой 1" xmlns="http://www.w3.org/2000/svg" xmlns:xlink="http://www.w3.org/1999/xlink" viewBox="0 0 57.75 63"><defs><style>.cls-1{fill:none;}.cls-2{clip-path:url(#clip-path);}.cls-3{fill:#fff;}</style><clipPath id="clip-path" transform="translate(-2.63 0)"><rect class="cls-1" width="63" height="63"/></clipPath></defs><title>sale-sidebar-6</title><g class="cls-2"><path class="cls-3" d="M59.71,15.92,32.15.17a1.31,1.31,0,0,0-1.3,0L3.29,15.92a1.32,1.32,0,0,0-.66,1.14V45.94a1.32,1.32,0,0,0,.66,1.14L30.85,62.83a1.33,1.33,0,0,0,1.3,0L59.71,47.08a1.33,1.33,0,0,0,.67-1.14V17.06A1.33,1.33,0,0,0,59.71,15.92Zm-2,29.26-26.25,15-26.25-15V17.82l26.25-15,26.25,15Z" transform="translate(-2.63 0)"/><path class="cls-3" d="M33.85,43.53,26.4,32V22.75a.73.73,0,0,0-.73-.73H22a.73.73,0,0,0-.73.73V32L14.5,43.58a3.54,3.54,0,0,0-.5,1.83A3.6,3.6,0,0,0,17.6,49H30.87a3.55,3.55,0,0,0,3-5.47Zm-3,4H17.6a2.17,2.17,0,0,1-1.09-.29,2.14,2.14,0,0,1-.76-2.93l6.9-11.72a.69.69,0,0,0,.1-.37V23.48h2.19v8.75a.8.8,0,0,0,.11.4l7.57,11.69a2.08,2.08,0,0,1-1.75,3.22Z" transform="translate(-2.63 0)"/><path class="cls-3" d="M24.5,35.2l-1.25-.74L17.06,45a.72.72,0,0,0,.62,1.1h5.07V44.63H19Z" transform="translate(-2.63 0)"/><path class="cls-3" d="M47.24,30.77H35.88A2.92,2.92,0,0,0,33,33.69V45.35A3.64,3.64,0,0,0,36.6,49h6.57a3.64,3.64,0,0,0,3.64-3.65v-9.9l1.68-1.67A1.81,1.81,0,0,0,49,32.53,1.76,1.76,0,0,0,47.24,30.77Zm.21,2-1.88,1.89a.73.73,0,0,0-.22.52v10.2a2.18,2.18,0,0,1-2.18,2.19H36.6a2.19,2.19,0,0,1-2.18-2.19V33.69a1.46,1.46,0,0,1,1.46-1.46H47.24a.27.27,0,0,1,.21.09A.29.29,0,0,1,47.45,32.74Z" transform="translate(-2.63 0)"/><path class="cls-3" d="M42.44,35.15v9.47H40.25v1.46h2.92a.73.73,0,0,0,.73-.73V35.15Z" transform="translate(-2.63 0)"/><path class="cls-3" d="M34.42,24.56V14.73a.73.73,0,0,0-.73-.73H28.58a.73.73,0,0,0-.73.73v10a12.55,12.55,0,0,0-2.55,1.11L26,27.14A10.87,10.87,0,0,1,28.77,26a.74.74,0,0,0,.54-.71V15.46H33v9.69a.74.74,0,0,0,.59.72A10.91,10.91,0,0,1,40,29.77l1.13-.91A12.41,12.41,0,0,0,34.42,24.56Z" transform="translate(-2.63 0)"/><path class="cls-3" d="M45,24.21a2.55,2.55,0,1,0,2.55,2.55A2.55,2.55,0,0,0,45,24.21Zm0,3.64a1.09,1.09,0,1,1,1.09-1.09A1.09,1.09,0,0,1,45,27.85Z" transform="translate(-2.63 0)"/><path class="cls-3" d="M42.44,19.1a2.19,2.19,0,1,0,2.19,2.19A2.19,2.19,0,0,0,42.44,19.1Zm0,2.92a.73.73,0,1,1,.73-.73A.73.73,0,0,1,42.44,22Z" transform="translate(-2.63 0)"/><path class="cls-3" d="M16.55,19.83a2.56,2.56,0,1,0,2.55,2.56A2.56,2.56,0,0,0,16.55,19.83Zm0,3.65a1.1,1.1,0,1,1,1.1-1.09A1.09,1.09,0,0,1,16.55,23.48Z" transform="translate(-2.63 0)"/><path class="cls-3" d="M19.83,14.73A2.19,2.19,0,1,0,22,16.92,2.19,2.19,0,0,0,19.83,14.73Zm0,2.92a.73.73,0,0,1,0-1.46.73.73,0,0,1,0,1.46Z" transform="translate(-2.63 0)"/><path class="cls-3" d="M38.06,35.15H35.88V36.6h2.18Z" transform="translate(-2.63 0)"/><path class="cls-3" d="M37.33,38.06H35.88v1.46h1.45Z" transform="translate(-2.63 0)"/><path class="cls-3" d="M38.06,41H35.88v1.46h2.18Z" transform="translate(-2.63 0)"/><path class="cls-3" d="M37.33,43.9H35.88v1.45h1.45Z" transform="translate(-2.63 0)"/><path class="cls-3" d="M16.92,27.13H15.46v1.45h1.46Z" transform="translate(-2.63 0)"/><path class="cls-3" d="M19.1,30.77H17.65v1.46H19.1Z" transform="translate(-2.63 0)"/><path class="cls-3" d="M31.5,33.69H30v1.46H31.5Z" transform="translate(-2.63 0)"/><path class="cls-3" d="M30,30.77H28.58v1.46H30Z" transform="translate(-2.63 0)"/><path class="cls-3" d="M29.31,27.85H27.85v1.46h1.46Z" transform="translate(-2.63 0)"/><path class="cls-3" d="M30,43.9H28.58v1.45H30Z" transform="translate(-2.63 0)"/><path class="cls-3" d="M27.85,41H26.4v1.46h1.45Z" transform="translate(-2.63 0)"/></g></svg>