<svg id="Слой_1" data-name="Слой 1" xmlns="http://www.w3.org/2000/svg" xmlns:xlink="http://www.w3.org/1999/xlink" viewBox="0 0 57.75 63"><defs><style>.cls-1{fill:none;}.cls-2{clip-path:url(#clip-path);}.cls-3{fill:#fff;}</style><clipPath id="clip-path" transform="translate(-2.63 0)"><rect class="cls-1" width="63" height="63"/></clipPath></defs><title>sale-sidebar-3</title><g class="cls-2"><path class="cls-3" d="M59.71,15.92,32.15.17a1.31,1.31,0,0,0-1.3,0L3.29,15.92a1.32,1.32,0,0,0-.66,1.14V45.94a1.32,1.32,0,0,0,.66,1.14L30.85,62.83a1.33,1.33,0,0,0,1.3,0L59.71,47.08a1.33,1.33,0,0,0,.67-1.14V17.06A1.33,1.33,0,0,0,59.71,15.92Zm-2,29.26-26.25,15-26.25-15V17.82l26.25-15,26.25,15Z" transform="translate(-2.63 0)"/><path class="cls-3" d="M48.94,24.93c-.51-5.62-4.49-9.7-9.47-9.7a9.43,9.43,0,0,0-8.07,4.65,9.06,9.06,0,0,0-7.87-4.65c-5,0-9,4.08-9.47,9.7a9.9,9.9,0,0,0,.3,3.69,15.85,15.85,0,0,0,4.84,8.09L31.4,47.77,43.8,36.71a15.85,15.85,0,0,0,4.84-8.09A9.9,9.9,0,0,0,48.94,24.93Zm-1.61,3.38a14.45,14.45,0,0,1-4.43,7.4L31.4,46,20.11,35.71a14.4,14.4,0,0,1-4.44-7.4,8.64,8.64,0,0,1-.28-3.16v-.07c.43-4.93,3.85-8.5,8.13-8.5a7.89,7.89,0,0,1,7.25,5.05l.62,1.47L32,21.63a8.13,8.13,0,0,1,7.45-5.05c4.28,0,7.7,3.57,8.14,8.56A8.69,8.69,0,0,1,47.33,28.31Z" transform="translate(-2.63 0)"/></g></svg>