<svg id="Слой_1" data-name="Слой 1" xmlns="http://www.w3.org/2000/svg" xmlns:xlink="http://www.w3.org/1999/xlink" viewBox="0 0 57.75 63"><defs><style>.cls-1{fill:none;}.cls-2{clip-path:url(#clip-path);}.cls-3{fill:#fff;}.cls-4{clip-path:url(#clip-path-2);}</style><clipPath id="clip-path" transform="translate(-2.63 0)"><rect class="cls-1" width="63" height="63"/></clipPath><clipPath id="clip-path-2" transform="translate(-2.63 0)"><rect class="cls-1" x="14" y="14" width="35" height="35"/></clipPath></defs><title>sale-sidebar</title><g class="cls-2"><path class="cls-3" d="M59.71,15.92,32.15.17a1.31,1.31,0,0,0-1.3,0L3.29,15.92a1.32,1.32,0,0,0-.66,1.14V45.94a1.32,1.32,0,0,0,.66,1.14L30.85,62.83a1.33,1.33,0,0,0,1.3,0L59.71,47.08a1.33,1.33,0,0,0,.67-1.14V17.06A1.33,1.33,0,0,0,59.71,15.92Zm-2,29.26-26.25,15-26.25-15V17.82l26.25-15,26.25,15Z" transform="translate(-2.63 0)"/><g class="cls-4"><path class="cls-3" d="M34.38,46.76a.69.69,0,0,0-.89.38.8.8,0,0,1-.74.49h-2.5a.8.8,0,0,1-.74-.49.68.68,0,0,0-1.27.51,2.15,2.15,0,0,0,2,1.35h2.5a2.15,2.15,0,0,0,2-1.35A.69.69,0,0,0,34.38,46.76Z" transform="translate(-2.63 0)"/><path class="cls-3" d="M42.41,43.24A3.38,3.38,0,0,0,40.79,41a5.66,5.66,0,0,0,.43-.42A3.42,3.42,0,0,0,42,37.82a8.58,8.58,0,0,0-4.78-6.48,7.83,7.83,0,0,0-3.58-12.91,2.93,2.93,0,0,0,.69-1.91A2.52,2.52,0,0,0,31.81,14h0a2.31,2.31,0,0,0-1.48.51A1.88,1.88,0,0,0,29.66,16a.68.68,0,0,0,.68.69A.69.69,0,0,0,31,16a.5.5,0,0,1,.18-.4,1,1,0,0,1,.6-.19h0A1.15,1.15,0,0,1,33,16.52a1.62,1.62,0,0,1-1.62,1.61H31.3a7.83,7.83,0,0,0-5.52,13.2A8.58,8.58,0,0,0,21,37.82a3.42,3.42,0,0,0,.78,2.73,5.66,5.66,0,0,0,.43.42,3.36,3.36,0,0,0-1,5l1.46,1.87A3,3,0,0,0,25.11,49a3,3,0,0,0,1.52-.41,3,3,0,0,0,1.29-3.76L27,42.62a3.29,3.29,0,0,0-.21-.42h5a.69.69,0,1,0,0-1.37H25.53V39.39a.34.34,0,0,1,.34-.34H37.14a.34.34,0,0,1,.33.34v1.54A3.37,3.37,0,0,0,36,42.62l-.88,2.21a3,3,0,0,0,1.3,3.76,2.93,2.93,0,0,0,1.51.41,3,3,0,0,0,2.4-1.17L41.75,46A3.4,3.4,0,0,0,42.41,43.24ZM25,26a6.48,6.48,0,1,1,6.48,6.48A6.49,6.49,0,0,1,25,26Zm.75,17.15.89,2.21A1.67,1.67,0,0,1,23.79,47l-1.46-1.87a2,2,0,1,1,3.44-2Zm11.37-6.81a.68.68,0,0,0-.68.68v.69H26.55V37a.69.69,0,0,0-1.37,0v.83a1.7,1.7,0,0,0-1,1.56v1a2.05,2.05,0,0,1-1.34-.7A2,2,0,0,1,22.35,38a7.2,7.2,0,0,1,4.56-5.69,7.86,7.86,0,0,0,9.18,0A7.2,7.2,0,0,1,40.65,38a2,2,0,0,1-.47,1.63,2.05,2.05,0,0,1-1.34.7v-1a1.72,1.72,0,0,0-1-1.56V37A.68.68,0,0,0,37.14,36.32Zm3.53,8.8L39.21,47a1.67,1.67,0,0,1-2.87-1.65l.89-2.21A2,2,0,0,1,38.44,42a1.81,1.81,0,0,1,.65-.11,2,2,0,0,1,1.58,3.24Z" transform="translate(-2.63 0)"/><path class="cls-3" d="M35,41a.67.67,0,0,0-.48-.2.7.7,0,0,0-.49.2.69.69,0,0,0,0,1,.7.7,0,0,0,.49.2A.67.67,0,0,0,35,42a.7.7,0,0,0,.2-.49A.67.67,0,0,0,35,41Z" transform="translate(-2.63 0)"/><path class="cls-3" d="M33.38,28.31a.69.69,0,0,0-1,.1,1.18,1.18,0,0,1-1.84,0,.7.7,0,0,0-1-.1.69.69,0,0,0-.1,1,2.56,2.56,0,0,0,4,0A.68.68,0,0,0,33.38,28.31Z" transform="translate(-2.63 0)"/><path class="cls-3" d="M29.77,25.5a1.59,1.59,0,0,0-2.25,0,.68.68,0,0,0,1,1,.24.24,0,0,1,.32,0,.63.63,0,0,0,.48.2.65.65,0,0,0,.48-.2A.67.67,0,0,0,29.77,25.5Z" transform="translate(-2.63 0)"/><path class="cls-3" d="M35.48,25.5a1.59,1.59,0,0,0-2.25,0,.67.67,0,0,0,0,1,.65.65,0,0,0,.48.2.63.63,0,0,0,.48-.2.23.23,0,0,1,.32,0,.68.68,0,0,0,1-1Z" transform="translate(-2.63 0)"/></g></g></svg>