<?xml version="1.0" encoding="utf-8"?>
<!-- Generator: Adobe Illustrator 17.0.0, SVG Export Plug-In . SVG Version: 6.00 Build 0)  -->
<!DOCTYPE svg PUBLIC "-//W3C//DTD SVG 1.1//EN" "http://www.w3.org/Graphics/SVG/1.1/DTD/svg11.dtd">
<svg version="1.1" id="Layer_1" xmlns="http://www.w3.org/2000/svg" xmlns:xlink="http://www.w3.org/1999/xlink" x="0px" y="0px"
	 width="28.328px" height="23.488px" viewBox="0 0 28.328 23.488" enable-background="new 0 0 28.328 23.488" xml:space="preserve">
<title>Artboard 1</title>
<path fill="#FFFFFF" d="M10.168,0L8.15,3.363h12.108L18.24,0H10.168z M3.105,4.036C1.437,4.032,0.082,5.381,0.078,7.049
	c0,0.004,0,0.009,0,0.013v13.454c-0.004,1.668,1.346,3.024,3.014,3.027c0.005,0,0.009,0,0.014,0h22.197
	c1.668,0.002,3.022-1.348,3.025-3.016c0-0.004,0-0.008,0-0.011V7.062c0.004-1.668-1.346-3.023-3.014-3.027c-0.005,0-0.009,0-0.014,0
	L3.105,4.036L3.105,4.036z M14.203,6.054c4.265,0,7.735,3.471,7.735,7.735s-3.47,7.737-7.735,7.737s-7.735-3.472-7.735-7.737
	S9.94,6.054,14.203,6.054z M23.958,7.062c0.557,0,1.009,0.452,1.009,1.009S24.515,9.08,23.958,9.08s-1.009-0.452-1.009-1.009
	S23.4,7.062,23.958,7.062L23.958,7.062z M14.203,7.401c-3.529,0-6.39,2.861-6.39,6.39s2.861,6.39,6.39,6.39s6.39-2.861,6.39-6.39
	c0.006-3.524-2.846-6.384-6.37-6.39C14.217,7.401,14.21,7.401,14.203,7.401z M14.203,10.092c2.043,0,3.7,1.656,3.7,3.7
	s-1.656,3.7-3.7,3.7s-3.7-1.656-3.7-3.7c-0.001-2.043,1.654-3.701,3.697-3.702c0.001,0,0.002,0,0.002,0L14.203,10.092L14.203,10.092
	z"/>
</svg>
