<?xml version="1.0" encoding="utf-8"?>
<!-- Generator: Adobe Illustrator 17.0.0, SVG Export Plug-In . SVG Version: 6.00 Build 0)  -->
<!DOCTYPE svg PUBLIC "-//W3C//DTD SVG 1.1//EN" "http://www.w3.org/Graphics/SVG/1.1/DTD/svg11.dtd">
<svg version="1.1" id="Layer_1" xmlns="http://www.w3.org/2000/svg" xmlns:xlink="http://www.w3.org/1999/xlink" x="0px" y="0px"
	 width="22.25px" height="20.767px" viewBox="0 0 22.25 20.767" enable-background="new 0 0 22.25 20.767" xml:space="preserve">
<title>Artboard 1</title>
<path fill="#485E88" d="M21.064,0H5.935C5.28,0,4.748,0.531,4.748,1.186l0,0v7.713h-3.56c-0.655,0-1.187,0.531-1.187,1.187l0,0v7.12
	c0,1.966,1.593,3.56,3.559,3.56l0,0h14.537c2.294,0,4.153-1.86,4.153-4.153V1.186C22.251,0.531,21.72,0,21.064,0z M4.747,17.206
	c0,0.655-0.531,1.187-1.187,1.187c-0.655,0-1.187-0.531-1.187-1.187l0,0v-5.933h2.373v5.933H4.747z M19.877,16.613
	c0,0.983-0.797,1.78-1.78,1.78l0,0H6.916c0.135-0.381,0.204-0.782,0.205-1.187V2.373h12.758L19.877,16.613z"/>
<path fill="#485E88" d="M9.91,13.877h7.417c0.655,0,1.187-0.531,1.187-1.187V7.257c0-0.655-0.531-1.187-1.187-1.187H9.91
	c-0.655,0-1.187,0.531-1.187,1.187v5.435C8.724,13.347,9.255,13.877,9.91,13.877z M11.097,8.445h5.043v3.061h-5.043
	C11.097,11.506,11.097,8.445,11.097,8.445z"/>
<rect x="8.723" y="15.362" fill="#485E88" width="9.79" height="2.373"/>
</svg>
