<?xml version="1.0" encoding="utf-8"?>
<!-- Generator: Adobe Illustrator 17.0.0, SVG Export Plug-In . SVG Version: 6.00 Build 0)  -->
<!DOCTYPE svg PUBLIC "-//W3C//DTD SVG 1.1//EN" "http://www.w3.org/Graphics/SVG/1.1/DTD/svg11.dtd">
<svg version="1.1" id="Layer_1" xmlns="http://www.w3.org/2000/svg" xmlns:xlink="http://www.w3.org/1999/xlink" x="0px" y="0px"
	 width="25.078px" height="25.695px" viewBox="0 0 25.078 25.695" enable-background="new 0 0 25.078 25.695" xml:space="preserve">
<title>Artboard 1</title>
<path d="M9.997,5.907c-0.315-0.315-0.825-0.315-1.139,0L5.981,8.783c-0.315,0.315-0.315,0.825,0,1.139l9.174,9.173
	c0.315,0.315,0.825,0.315,1.139,0l2.876-2.876c0.315-0.315,0.315-0.825,0-1.139L9.997,5.907z"/>
<path d="M23.129,1.947c-2.358-2.358-5.928-2.665-8.616-0.419l9.034,9.038C25.791,7.875,25.487,4.305,23.129,1.947z"/>
<path d="M12.372,6.56l6.144,6.144c1.189,0.293,2.817-0.321,4.099-1.282l-8.96-8.96C12.692,3.742,12.08,5.371,12.372,6.56z"/>
<path d="M0.197,21.602c-0.277,0.319-0.261,0.799,0.039,1.098l2.139,2.139c0.299,0.299,0.779,0.316,1.098,0.039l8.418-7.383
	l-4.268-4.268L0.197,21.602z"/>
</svg>
