<?xml version="1.0" encoding="utf-8"?>
<!-- Generator: Adobe Illustrator 17.0.0, SVG Export Plug-In . SVG Version: 6.00 Build 0)  -->
<!DOCTYPE svg PUBLIC "-//W3C//DTD SVG 1.1//EN" "http://www.w3.org/Graphics/SVG/1.1/DTD/svg11.dtd">
<svg version="1.1" id="Layer_1" xmlns="http://www.w3.org/2000/svg" xmlns:xlink="http://www.w3.org/1999/xlink" x="0px" y="0px"
	 width="11.125px" height="16.047px" viewBox="0 0 11.125 16.047" enable-background="new 0 0 11.125 16.047" xml:space="preserve">
<title>Artboard 1</title>
<path fill="#485E88" d="M5.55,1.229C2.442,1.229,0,3.671,0,6.779c0,0.777,0.111,1.554,0.444,2.22
	c1.443,2.997,4.107,6.216,4.884,7.104c0.111,0.111,0.333,0.111,0.444,0l0,0c0.777-0.777,3.441-3.996,4.884-7.104
	c0.333-0.666,0.444-1.443,0.444-2.22C11.1,3.67,8.658,1.229,5.55,1.229z M5.55,9.664c-1.554,0-2.886-1.332-2.886-2.886
	S3.996,3.892,5.55,3.892s2.886,1.332,2.886,2.886S7.104,9.664,5.55,9.664z"/>
</svg>
