<svg id="Layer_1" data-name="Layer 1" xmlns="http://www.w3.org/2000/svg" viewBox="0 0 453.35 453.35"><defs><style>.cls-1{fill:#fff;}</style></defs><title>Artboard 1</title><path class="cls-1" d="M180.74,106.78a14.57,14.57,0,0,0-20.6,0l-52,52a14.57,14.57,0,0,0,0,20.6L274,345.23a14.57,14.57,0,0,0,20.6,0l52-52a14.57,14.57,0,0,0,0-20.6Z"/><path class="cls-1" d="M418.17,35.18C375.54-7.45,311-13,262.4,27.6L425.74,191C466.31,142.36,460.81,77.82,418.17,35.18Z"/><path class="cls-1" d="M223.68,118.59,334.76,229.67c21.5,5.29,50.94-5.8,74.11-23.17l-162-162C229.48,67.64,218.4,97.09,223.68,118.59Z"/><path class="cls-1" d="M3.57,390.55a14.56,14.56,0,0,0,.7,19.85l38.68,38.68a14.56,14.56,0,0,0,19.85.7L215,316.3l-77.17-77.17Z"/></svg>