<?xml version="1.0" encoding="utf-8"?>
<!-- Generator: Adobe Illustrator 21.1.0, SVG Export Plug-In . SVG Version: 6.00 Build 0)  -->
<svg version="1.1" id="Layer_1" xmlns="http://www.w3.org/2000/svg" xmlns:xlink="http://www.w3.org/1999/xlink" x="0px" y="0px"
	 viewBox="0 0 12 12" style="enable-background:new 0 0 12 12;" xml:space="preserve">
<style type="text/css">
	.st0{fill:#FFFFFF;}
</style>
<path class="st0" d="M0.7,0C0.5,0,0.3,0,0.2,0.2S0,0.5,0,0.6v0.9c0,0.3,0.3,0.6,0.6,0.6c5,0.3,9,4.3,9.3,9.3c0,0.3,0.3,0.6,0.6,0.6
	h0.9c0.2,0,0.3-0.1,0.5-0.2c0.1-0.1,0.2-0.3,0.2-0.5C11.7,5.2,6.8,0.3,0.7,0L0.7,0z M0.7,3.8c-0.2,0-0.4,0-0.5,0.2
	C0.1,4.1,0,4.2,0,4.4v0.9c0,0.3,0.2,0.6,0.6,0.6c2.9,0.3,5.2,2.6,5.5,5.5c0,0.3,0.3,0.6,0.6,0.6h0.9c0.2,0,0.3-0.1,0.5-0.2
	c0.1-0.1,0.2-0.3,0.2-0.5C7.9,7.3,4.7,4.1,0.7,3.8L0.7,3.8z M1.8,8.5c-1,0-1.8,0.8-1.8,1.8c0,1,0.8,1.8,1.8,1.8c1,0,1.8-0.8,1.8-1.8
	c0,0,0,0,0,0C3.5,9.3,2.7,8.5,1.8,8.5C1.8,8.5,1.8,8.5,1.8,8.5L1.8,8.5z"/>
</svg>
