<?xml version="1.0" encoding="utf-8"?>
<!-- Generator: Adobe Illustrator 17.0.0, SVG Export Plug-In . SVG Version: 6.00 Build 0)  -->
<!DOCTYPE svg PUBLIC "-//W3C//DTD SVG 1.1//EN" "http://www.w3.org/Graphics/SVG/1.1/DTD/svg11.dtd">
<svg version="1.1" id="Layer_1" xmlns="http://www.w3.org/2000/svg" xmlns:xlink="http://www.w3.org/1999/xlink" x="0px" y="0px"
	 width="19.14px" height="18.5px" viewBox="0 0 19.14 18.5" enable-background="new 0 0 19.14 18.5" xml:space="preserve">
<title>Artboard 1</title>
<path d="M18.513,6.051c-0.269-0.236-0.6-0.389-0.955-0.439l-4.359-0.633l-1.951-3.95c-0.451-0.914-1.559-1.29-2.473-0.838
	c-0.364,0.18-0.659,0.474-0.838,0.838l-1.948,3.95L1.63,5.611C0.621,5.758-0.078,6.695,0.069,7.704
	c0.058,0.402,0.248,0.773,0.539,1.057l3.153,3.075l-0.745,4.341c-0.173,1.004,0.5,1.959,1.504,2.132
	c0.401,0.069,0.815,0.004,1.175-0.186l3.899-2.05l3.899,2.05c0.903,0.475,2.019,0.127,2.494-0.775
	c0.189-0.359,0.254-0.771,0.185-1.171l-0.744-4.341l3.154-3.075c0.731-0.713,0.745-1.883,0.032-2.614
	C18.581,6.113,18.548,6.081,18.513,6.051z M17.633,7.787l-3.484,3.395c-0.115,0.112-0.167,0.272-0.14,0.43l0.822,4.794
	c0.045,0.264-0.132,0.516-0.397,0.561c-0.105,0.018-0.213,0.001-0.308-0.049L9.82,14.654c-0.142-0.074-0.311-0.074-0.452,0
	l-4.306,2.264c-0.236,0.126-0.53,0.036-0.655-0.201c-0.051-0.095-0.068-0.205-0.049-0.312L5.18,11.61
	c0.027-0.158-0.025-0.318-0.14-0.43L1.556,7.787C1.364,7.6,1.36,7.292,1.547,7.1C1.622,7.023,1.72,6.973,1.826,6.958L6.64,6.259
	c0.158-0.023,0.295-0.122,0.366-0.266L9.16,1.631C9.279,1.39,9.57,1.292,9.811,1.41c0.095,0.047,0.172,0.125,0.22,0.22l2.152,4.362
	c0.071,0.143,0.208,0.243,0.366,0.266l4.814,0.699c0.266,0.038,0.45,0.285,0.411,0.551C17.759,7.614,17.709,7.712,17.633,7.787
	L17.633,7.787z"/>
</svg>
