<?xml version="1.0" encoding="utf-8"?>
<!-- Generator: Adobe Illustrator 17.0.0, SVG Export Plug-In . SVG Version: 6.00 Build 0)  -->
<!DOCTYPE svg PUBLIC "-//W3C//DTD SVG 1.1//EN" "http://www.w3.org/Graphics/SVG/1.1/DTD/svg11.dtd">
<svg version="1.1" id="Layer_1" xmlns="http://www.w3.org/2000/svg" xmlns:xlink="http://www.w3.org/1999/xlink" x="0px" y="0px"
	 width="28.015px" height="16.899px" viewBox="0 0 28.015 16.899" enable-background="new 0 0 28.015 16.899" xml:space="preserve">
<title>Artboard 1</title>
<path fill="#FFFFFF" d="M16.535,16.431c1.86,0,3.368-1.508,3.368-3.368l0,0V11.48l5.302,3.062c0.879,0.507,2.003,0.206,2.51-0.673
	c0.162-0.28,0.247-0.598,0.246-0.922V3.481c0.002-1.015-0.819-1.839-1.834-1.841c-0.324-0.001-0.642,0.084-0.922,0.246l-5.298,3.062
	v-1.58c0-1.86-1.508-3.368-3.368-3.368c-0.001,0-0.002,0-0.004,0H3.367C1.507,0.001,0,1.509,0,3.368v9.695
	c0,1.86,1.508,3.368,3.368,3.368H16.535z"/>
</svg>
