<svg width="48" height="49" viewBox="0 0 48 49" fill="none" xmlns="http://www.w3.org/2000/svg">
<path d="M46.8528 9.19661C45.9542 8.17008 44.6733 7.60468 43.2463 7.60468H8.74732L8.40009 5.00137C8.02586 2.19691 6.07339 0 3.95488 0H1.41998C0.635664 0 0 0.635664 0 1.41998C0 2.2043 0.635664 2.83997 1.41998 2.83997H3.95488C4.41045 2.83997 5.37523 3.80326 5.5849 5.37671L9.6496 35.8627C9.82858 37.2065 10.519 38.4645 11.5936 39.4053C12.3905 40.1031 13.3323 40.5672 14.3189 40.7613C13.9169 41.5005 13.6884 42.3473 13.6884 43.2463C13.6884 46.1262 16.0314 48.4688 18.9109 48.4688C21.7905 48.4688 24.1334 46.1262 24.1334 43.2463C24.1334 42.3884 23.9241 41.5789 23.5558 40.8641H30.9967C30.6284 41.5789 30.4191 42.3884 30.4191 43.2463C30.4191 46.1262 32.762 48.4688 35.6416 48.4688C38.5211 48.4688 40.8641 46.1262 40.8641 43.2463C40.8641 42.3884 40.6548 41.5789 40.2865 40.8641H44.0069C44.7909 40.8641 45.4269 40.2281 45.4269 39.4441C45.4269 38.6598 44.7909 38.0241 44.0069 38.0241H15.3621C13.9746 38.0241 12.6478 36.8623 12.4644 35.487L12.1675 33.259H23.2193C23.2197 33.259 23.2201 33.2594 23.2204 33.2594C23.2208 33.2594 23.2212 33.259 23.2219 33.259H32.3446C32.3449 33.259 32.3453 33.2594 32.346 33.2594C32.3464 33.2594 32.3464 33.259 32.3468 33.259H40.2044C41.56 33.259 42.8983 32.741 43.9729 31.8006C45.0475 30.8599 45.7379 29.6015 45.9169 28.2577L47.9537 12.9818C48.1422 11.5673 47.7514 10.2231 46.8528 9.19661ZM21.2935 43.2463C21.2935 44.5601 20.2248 45.6288 18.9109 45.6288C17.5974 45.6288 16.5284 44.5601 16.5284 43.2463C16.5284 41.9328 17.5974 40.8641 18.9109 40.8641C20.2248 40.8641 21.2935 41.9328 21.2935 43.2463ZM38.0241 43.2463C38.0241 44.5601 36.9554 45.6288 35.6416 45.6288C34.3277 45.6288 33.259 44.5601 33.259 43.2463C33.259 41.9328 34.3277 40.8641 35.6416 40.8641C36.9554 40.8641 38.0241 41.9328 38.0241 43.2463ZM44.7158 11.0674C45.0675 11.469 45.2176 12.0151 45.1385 12.6061L44.2846 19.0119H34.6228L35.1938 10.4446H43.2463C43.8427 10.4446 44.3645 10.6658 44.7158 11.0674ZM24.5502 30.4191L23.9789 21.8518H31.5872L31.0159 30.4191H24.5502ZM23.7895 19.0119L23.2186 10.4446H32.3475L31.7766 19.0119H23.7895ZM20.3723 10.4446L20.9433 19.0119H10.2679L9.12561 10.4446H20.3723ZM10.6465 21.8518H21.1326L21.7039 30.4191H11.7888L10.6465 21.8518ZM40.2044 30.4191H33.8622L34.4335 21.8518H43.906L43.102 27.8823C42.9186 29.2576 41.5915 30.4191 40.2044 30.4191Z" fill="#009028"/>
</svg>
