<svg width="48" height="48" viewBox="0 0 48 48" fill="none" xmlns="http://www.w3.org/2000/svg">
<g clip-path="url(#clip0)">
<path d="M14.7804 9.61991C14.3653 9.61991 14.0288 9.95638 14.0288 10.3715C14.0288 11.2832 13.287 12.025 12.3753 12.025C11.4636 12.025 10.7218 11.2832 10.7218 10.3715C10.7218 9.45978 11.4636 8.71803 12.3753 8.71803C12.7903 8.71803 13.1269 8.38156 13.1269 7.96644C13.1269 7.55131 12.7904 7.21484 12.3753 7.21484C10.6347 7.21484 9.21875 8.63094 9.21875 10.3714C9.21875 12.1119 10.6348 13.528 12.3753 13.528C14.1158 13.528 15.5319 12.1119 15.5319 10.3714C15.532 9.95638 15.1954 9.61991 14.7804 9.61991Z" fill="#009028"/>
<path d="M14.7804 18.4383C14.3653 18.4383 14.0288 18.7747 14.0288 19.1899C14.0288 20.1016 13.287 20.8433 12.3753 20.8433C11.4636 20.8433 10.7218 20.1016 10.7218 19.1899C10.7218 18.2781 11.4636 17.5364 12.3753 17.5364C12.7903 17.5364 13.1269 17.1999 13.1269 16.7848C13.1269 16.3697 12.7904 16.0332 12.3753 16.0332C10.6347 16.0332 9.21875 17.4493 9.21875 19.1898C9.21875 20.9302 10.6348 22.3463 12.3753 22.3463C14.1158 22.3463 15.5319 20.9302 15.5319 19.1898C15.532 18.7748 15.1954 18.4383 14.7804 18.4383Z" fill="#009028"/>
<path d="M23.5977 20.042H17.986C17.5709 20.042 17.2344 20.3785 17.2344 20.7936C17.2344 21.2087 17.5708 21.5452 17.986 21.5452H23.5977C24.0127 21.5452 24.3493 21.2087 24.3493 20.7936C24.3493 20.3785 24.0128 20.042 23.5977 20.042Z" fill="#009028"/>
<path d="M23.5977 16.835H17.986C17.5709 16.835 17.2344 17.1714 17.2344 17.5866C17.2344 18.0017 17.5708 18.3381 17.986 18.3381H23.5977C24.0127 18.3381 24.3493 18.0017 24.3493 17.5866C24.3493 17.1714 24.0128 16.835 23.5977 16.835Z" fill="#009028"/>
<path d="M21.9943 28.8604H17.986C17.5709 28.8604 17.2344 29.1968 17.2344 29.6119C17.2344 30.0271 17.5708 30.3635 17.986 30.3635H21.9943C22.4094 30.3635 22.7459 30.0271 22.7459 29.6119C22.7459 29.1968 22.4094 28.8604 21.9943 28.8604Z" fill="#009028"/>
<path d="M23.5977 25.6533H17.986C17.5709 25.6533 17.2344 25.9898 17.2344 26.4049C17.2344 26.82 17.5708 27.1565 17.986 27.1565H23.5977C24.0127 27.1565 24.3493 26.82 24.3493 26.4049C24.3493 25.9898 24.0128 25.6533 23.5977 25.6533Z" fill="#009028"/>
<path d="M30.8127 11.2236H17.986C17.5709 11.2236 17.2344 11.5601 17.2344 11.9752C17.2344 12.3904 17.5708 12.7268 17.986 12.7268H30.8127C31.2277 12.7268 31.5642 12.3904 31.5642 11.9752C31.5642 11.5601 31.2278 11.2236 30.8127 11.2236Z" fill="#009028"/>
<path d="M27.606 8.0166H17.986C17.5709 8.0166 17.2344 8.35307 17.2344 8.7682C17.2344 9.18332 17.5708 9.51979 17.986 9.51979H27.606C28.0211 9.51979 28.3576 9.18332 28.3576 8.7682C28.3576 8.35307 28.0212 8.0166 27.606 8.0166Z" fill="#009028"/>
<path d="M14.7804 27.2566C14.3653 27.2566 14.0288 27.5931 14.0288 28.0082C14.0288 28.9199 13.287 29.6617 12.3753 29.6617C11.4636 29.6617 10.7218 28.9199 10.7218 28.0082C10.7218 27.0965 11.4636 26.3547 12.3753 26.3547C12.7903 26.3547 13.1269 26.0183 13.1269 25.6032C13.1269 25.188 12.7904 24.8516 12.3753 24.8516C10.6347 24.8516 9.21875 26.2677 9.21875 28.0081C9.21875 29.7486 10.6348 31.1647 12.3753 31.1647C14.1158 31.1647 15.5319 29.7486 15.5319 28.0081C15.532 27.5931 15.1954 27.2566 14.7804 27.2566Z" fill="#009028"/>
<path d="M34.0199 0H6.76311C5.46467 0 4.4082 1.05638 4.4082 2.35491V36.025C4.4082 37.3236 5.46458 38.3799 6.76311 38.3799H20.3915C20.8066 38.3799 21.1431 38.0435 21.1431 37.6283C21.1431 37.2133 20.8067 36.8767 20.3915 36.8767H6.76311C6.29342 36.8767 5.9113 36.4946 5.9113 36.0249V2.35491C5.9113 1.88522 6.29342 1.50309 6.76311 1.50309H34.0199C34.4896 1.50309 34.8717 1.88522 34.8717 2.35491V27.2068C34.8717 27.6218 35.2082 27.9584 35.6233 27.9584C36.0383 27.9584 36.3749 27.6219 36.3749 27.2068V2.35491C36.3748 1.05638 35.3184 0 34.0199 0Z" fill="#009028"/>
<path d="M41.1173 30.4776C40.4188 30.4079 39.7206 30.6059 39.1681 31.0254C38.7279 30.2869 37.9774 29.7629 37.1089 29.6759C36.4102 29.6063 35.7122 29.8043 35.1597 30.2238C34.7195 29.4852 33.969 28.9613 33.1006 28.8743C32.5671 28.821 32.0344 28.9238 31.5664 29.162V19.5908C31.5664 18.8138 31.2358 18.0688 30.6591 17.5471C30.083 17.0258 29.3067 16.7714 28.529 16.8492C27.1416 16.9882 26.0549 18.2426 26.0549 19.7052V29.3005L23.8456 31.5098C22.6715 32.6839 22.1976 34.3496 22.578 35.9659L24.2553 43.0943C24.9349 45.9829 27.4819 48.0002 30.4493 48.0002H37.2281C40.7368 48.0002 43.5914 45.1457 43.5914 41.6369V33.3338C43.5915 31.871 42.5047 30.6165 41.1173 30.4776ZM42.0883 41.6367C42.0883 44.3166 39.908 46.4968 37.2282 46.4968H30.4494C28.183 46.4968 26.2375 44.956 25.7184 42.7498L24.0411 35.6213C23.7809 34.5156 24.1052 33.3758 24.9084 32.5725L26.0549 31.426V34.0208C26.0549 34.4359 26.3914 34.7724 26.8065 34.7724C27.2216 34.7724 27.5581 34.436 27.5581 34.0208V19.7051C27.5581 19.0053 28.0504 18.4077 28.6789 18.3449C29.04 18.3086 29.3853 18.4213 29.6508 18.6617C29.913 18.899 30.0634 19.2377 30.0634 19.5909V32.8185C30.0634 33.2335 30.3998 33.5701 30.8149 33.5701C31.2301 33.5701 31.5665 33.2336 31.5665 32.8185V31.616C31.5665 31.2627 31.7168 30.924 31.9791 30.6867C32.2448 30.4463 32.5899 30.3336 32.9509 30.3699C33.5794 30.4328 34.0718 31.0304 34.0718 31.7303V33.62C34.0718 34.035 34.4083 34.3716 34.8234 34.3716C35.2384 34.3716 35.575 34.0351 35.575 33.62V32.4174C35.575 32.0642 35.7253 31.7255 35.9876 31.4882C36.2533 31.2478 36.5985 31.1351 36.9594 31.1714C37.5879 31.2343 38.0803 31.8319 38.0803 32.5317V34.4215C38.0803 34.8366 38.4168 35.1731 38.8319 35.1731C39.2469 35.1731 39.5835 34.8367 39.5835 34.4215V33.219C39.5835 32.8658 39.7338 32.527 39.9961 32.2898C40.2618 32.0495 40.6067 31.9366 40.9679 31.9731C41.5964 32.0359 42.0888 32.6334 42.0888 33.3333V41.6367H42.0883Z" fill="#009028"/>
</g>
<defs>
<clipPath id="clip0">
<rect width="48" height="48" fill="white"/>
</clipPath>
</defs>
</svg>
