<svg width="48" height="48" viewBox="0 0 48 48" fill="none" xmlns="http://www.w3.org/2000/svg">
<path d="M45.5992 20.7998H29.5992C28.2737 20.7998 27.1992 21.8743 27.1992 23.1998V45.5998C27.1992 46.9253 28.2737 47.9998 29.5992 47.9998H45.5992C46.9247 47.9998 47.9992 46.9253 47.9992 45.5998V23.1998C47.9992 21.8743 46.9247 20.7998 45.5992 20.7998ZM36.7992 46.3998H29.5992C29.1574 46.3998 28.7992 46.0416 28.7992 45.5998V39.9998H36.7992V46.3998ZM36.7992 38.3998H28.7992V31.9998H36.7992V38.3998ZM46.3992 45.5998C46.3992 46.0416 46.041 46.3998 45.5992 46.3998H38.3992V39.9998H46.3992V45.5998ZM46.3992 38.3998H38.3992V31.9998H46.3992V38.3998ZM46.3992 30.3998H28.7992V23.1998C28.7992 22.758 29.1574 22.3998 29.5992 22.3998H45.5992C46.041 22.3998 46.3992 22.758 46.3992 23.1998V30.3998Z" fill="#009028"/>
<path d="M44.0004 24H31.2004C30.7586 24 30.4004 24.3582 30.4004 24.8V28C30.4004 28.4418 30.7586 28.8 31.2004 28.8H44.0004C44.4422 28.8 44.8004 28.4418 44.8004 28V24.8C44.8004 24.3582 44.4422 24 44.0004 24ZM43.2004 27.2H32.0004V25.6H43.2004V27.2Z" fill="#009028"/>
<path d="M33.6004 34.3998V32.7998H32.0004V34.3998H30.4004V35.9998H32.0004V37.5998H33.6004V35.9998H35.2004V34.3998H33.6004Z" fill="#009028"/>
<path d="M44.8 34.3999H40V35.9999H44.8V34.3999Z" fill="#009028"/>
<path d="M35.0619 42.1659L33.9307 41.0347L32.7995 42.1659L31.6683 41.0347L30.5371 42.1659L31.6683 43.2971L30.5371 44.4283L31.6683 45.5595L32.7995 44.4283L33.9307 45.5595L35.0619 44.4283L33.9307 43.2971L35.0619 42.1659Z" fill="#009028"/>
<path d="M44.8 42.3999H40V43.9999H44.8V42.3999Z" fill="#009028"/>
<path d="M43.1996 44.3999H41.5996V45.1999H43.1996V44.3999Z" fill="#009028"/>
<path d="M43.1996 41.2002H41.5996V42.0002H43.1996V41.2002Z" fill="#009028"/>
<path d="M32 0H8.8V0.0072C8.5888 0.0047 8.3852 0.0865 8.2344 0.2344L0.2344 8.2344C0.0863 8.3851 0.0045 8.5887 0.0072 8.8H0V46.4C0 47.2837 0.7163 48 1.6 48H25.6V46.4H20.8V44H22.4C22.8418 44 23.2 43.6418 23.2 43.2V39.2C23.2 38.7582 22.8418 38.4 22.4 38.4H20.8V36H22.4C22.8418 36 23.2 35.6418 23.2 35.2V31.2C23.2 30.7582 22.8418 30.4 22.4 30.4H22.3792C24.4035 28.8952 25.5976 26.5223 25.6 24C25.6086 19.5817 22.0338 15.9931 17.6156 15.9845C13.1974 15.9759 9.6086 19.5507 9.6 23.9689C9.5951 26.5016 10.7897 28.887 12.8208 30.4H6.4C5.9582 30.4 5.6 30.7582 5.6 31.2V34.4H4C3.5582 34.4 3.2 34.7582 3.2 35.2V39.2C3.2 39.6418 3.5582 40 4 40H5.6V42.4H4C3.5582 42.4 3.2 42.7582 3.2 43.2V46.4H1.6V9.6H8C8.8837 9.6 9.6 8.8837 9.6 8V1.6H32V19.2H33.6V1.6C33.6 0.7163 32.8837 0 32 0ZM21.6 40V42.4H7.2V40H21.6ZM11.2 24C11.2 20.4654 14.0654 17.6 17.6 17.6C21.1346 17.6 24 20.4654 24 24C24 27.5346 21.1346 30.4 17.6 30.4C14.067 30.396 11.204 27.533 11.2 24ZM7.2 32H21.6V34.4H7.2V32ZM4.8 38.4V36H19.2V38.4H6.4H4.8ZM4.8 44H19.2V46.4H4.8V44ZM8 8H2.7312L8 2.7312V8Z" fill="#009028"/>
<path d="M17.5992 21.6002H19.9992V20.0002H18.3992V19.2002H16.7992V20.1474C15.5519 20.5867 14.8969 21.954 15.3363 23.2013C15.6743 24.1609 16.5818 24.8022 17.5992 24.8002C18.041 24.8002 18.3992 25.1584 18.3992 25.6002C18.3992 26.042 18.041 26.4002 17.5992 26.4002H15.1992V28.0002H16.7992V28.8002H18.3992V27.853C19.6465 27.4137 20.3015 26.0464 19.8621 24.7991C19.5241 23.8395 18.6166 23.1982 17.5992 23.2002C17.1574 23.2002 16.7992 22.842 16.7992 22.4002C16.7992 21.9584 17.1574 21.6002 17.5992 21.6002Z" fill="#009028"/>
<path d="M44.7992 4H43.1992C43.1992 3.5582 42.841 3.2 42.3992 3.2H41.5992V0.8C41.5992 0.3582 41.241 0 40.7992 0H37.5992C37.1574 0 36.7992 0.3582 36.7992 0.8V3.2H35.9992C35.5574 3.2 35.1992 3.5582 35.1992 4V19.2H36.7992V4.8H41.5992V19.2H43.1992V5.6H44.7992V16H46.3992V5.6C46.3992 4.7163 45.6829 4 44.7992 4ZM39.9992 3.2H38.3992V1.6H39.9992V3.2Z" fill="#009028"/>
<path d="M25.6 6.3999H12V7.9999H25.6V6.3999Z" fill="#009028"/>
<path d="M30.3992 11.2002H3.19922V12.8002H30.3992V11.2002Z" fill="#009028"/>
<path d="M12.7992 14.3999H3.19922V15.9999H12.7992V14.3999Z" fill="#009028"/>
<path d="M30.3992 14.3999H23.1992V15.9999H30.3992V14.3999Z" fill="#009028"/>
</svg>
