<svg width="19" height="19" viewBox="0 0 19 19" fill="none" xmlns="http://www.w3.org/2000/svg">
<circle cx="9.5" cy="9.5" r="9.5" fill="#252525"/>
<path d="M8.586 10.971C8.586 10.5463 8.65533 10.165 8.794 9.827C8.93267 9.489 9.21867 9.19433 9.652 8.943C9.782 8.865 9.94233 8.77833 10.133 8.683C10.3237 8.579 10.51 8.45767 10.692 8.319C10.874 8.18033 11.0257 8.02 11.147 7.838C11.277 7.64733 11.342 7.43067 11.342 7.188C11.342 7.006 11.3073 6.84567 11.238 6.707C11.1687 6.56833 11.0777 6.45133 10.965 6.356C10.8523 6.26067 10.718 6.19133 10.562 6.148C10.4147 6.096 10.263 6.07 10.107 6.07C9.91633 6.07 9.743 6.10467 9.587 6.174C9.431 6.23467 9.288 6.317 9.158 6.421C9.03667 6.51633 8.924 6.629 8.82 6.759C8.72467 6.88033 8.64233 6.99733 8.573 7.11L7.442 6.33C7.55467 6.06133 7.702 5.823 7.884 5.615C8.07467 5.407 8.287 5.23367 8.521 5.095C8.76367 4.94767 9.02367 4.83933 9.301 4.77C9.57833 4.692 9.86433 4.653 10.159 4.653C10.4883 4.653 10.8133 4.70067 11.134 4.796C11.4547 4.89133 11.7407 5.043 11.992 5.251C12.252 5.459 12.46 5.72767 12.616 6.057C12.7807 6.37767 12.863 6.76333 12.863 7.214C12.863 7.49133 12.8283 7.73833 12.759 7.955C12.6983 8.163 12.6073 8.35367 12.486 8.527C12.3647 8.70033 12.2217 8.85633 12.057 8.995C11.8923 9.13367 11.706 9.268 11.498 9.398C11.3247 9.502 11.1513 9.60167 10.978 9.697C10.8047 9.79233 10.6443 9.90067 10.497 10.022C10.3583 10.1347 10.2413 10.269 10.146 10.425C10.0593 10.5723 10.016 10.7543 10.016 10.971H8.586ZM8.612 14V12.206H10.055V14H8.612Z" fill="white"/>
</svg>
