<svg width="18" height="18" viewBox="0 0 18 18" fill="none" xmlns="http://www.w3.org/2000/svg">
<path d="M17.5999 15.6428L13.8896 11.9326C14.7837 10.6418 15.231 9.20288 15.231 7.61651C15.231 6.58527 15.0308 5.59901 14.6304 4.65795C14.2303 3.71673 13.6894 2.90547 13.0079 2.22398C12.3264 1.54249 11.5152 1.00156 10.5742 0.601388C9.63288 0.201101 8.64669 0.000976562 7.61546 0.000976562C6.5843 0.000976562 5.59803 0.201101 4.65697 0.601388C3.71576 1.00156 2.9045 1.54249 2.223 2.22398C1.54144 2.90547 1.00059 3.71688 0.600374 4.65795C0.200125 5.59912 0 6.58527 0 7.61651C0 8.64767 0.200125 9.63359 0.600374 10.5749C1.00055 11.516 1.54144 12.3271 2.223 13.0086C2.9045 13.6903 3.71591 14.231 4.65697 14.6314C5.59815 15.0317 6.5843 15.2317 7.61546 15.2317C9.20217 15.2317 10.6409 14.7844 11.9317 13.8903L15.6421 17.5897C15.9017 17.8637 16.2258 18.0008 16.6155 18.0008C16.9905 18.0008 17.3152 17.8637 17.589 17.5897C17.863 17.3158 18 16.9913 18 16.6163C18.0002 16.2343 17.8667 15.9096 17.5999 15.6428ZM11.0392 11.0398C10.0909 11.9883 8.94972 12.4625 7.61546 12.4625C6.28142 12.4625 5.14027 11.9882 4.19189 11.0398C3.24352 10.0915 2.76935 8.95055 2.76935 7.61628C2.76935 6.28224 3.24363 5.1409 4.19189 4.19272C5.14008 3.24431 6.28142 2.77017 7.61546 2.77017C8.94957 2.77017 10.0907 3.2445 11.0392 4.19272C11.9876 5.1409 12.4618 6.28224 12.4618 7.61628C12.4618 8.95055 11.9875 10.0915 11.0392 11.0398Z" fill="#009A2B"/>
</svg>
