<svg width="13" height="13" viewBox="0 0 13 13" fill="none" xmlns="http://www.w3.org/2000/svg">
<path d="M6.5 0C2.9159 0 0 2.9159 0 6.5C0 10.0841 2.9159 13 6.5 13C10.0841 13 13 10.0841 13 6.5C13 2.9159 10.0841 0 6.5 0ZM6.5 11.6169C3.67856 11.6169 1.38296 9.32157 1.38296 6.5C1.38296 3.67843 3.67856 1.38309 6.5 1.38309C9.32144 1.38309 11.617 3.67843 11.617 6.5C11.617 9.32157 9.32144 11.6169 6.5 11.6169Z" fill="white"/>
<path d="M9.888 6.29891H6.96688V2.78666C6.96688 2.4911 6.72725 2.25146 6.43168 2.25146C6.13612 2.25146 5.89648 2.4911 5.89648 2.78666V6.83411C5.89648 7.12968 6.13612 7.36931 6.43168 7.36931H9.888C10.1836 7.36931 10.4232 7.12968 10.4232 6.83411C10.4232 6.53855 10.1836 6.29891 9.888 6.29891Z" fill="white"/>
</svg>
