<svg width="26" height="33" viewBox="0 0 26 33" fill="none" xmlns="http://www.w3.org/2000/svg">
<path d="M13.0014 16.1392C16.7816 16.1392 19.8464 12.5263 19.8464 8.06963C19.8464 3.61284 18.8402 0 13.0014 0C7.16265 0 6.15625 3.61284 6.15625 8.06963C6.15625 12.5263 9.22101 16.1392 13.0014 16.1392Z" fill="#E5E5E5"/>
<path d="M0.0716591 28.4605C0.0704929 28.1887 0.0693267 28.3839 0.0716591 28.4605V28.4605Z" fill="#E5E5E5"/>
<path d="M25.9297 28.6726C25.9334 28.5982 25.9309 28.1565 25.9297 28.6726V28.6726Z" fill="#E5E5E5"/>
<path d="M25.9149 28.1345C25.7881 20.3709 24.7434 18.1586 16.7493 16.7583C16.7493 16.7583 15.624 18.1501 13.0011 18.1501C10.3782 18.1501 9.25275 16.7583 9.25275 16.7583C1.34581 18.1434 0.237603 20.3228 0.0918885 27.8823C0.0799399 28.4996 0.0744028 28.532 0.0722656 28.4604C0.0727513 28.5947 0.073334 28.843 0.073334 29.2761C0.073334 29.2761 1.97656 33 13.0011 33C24.0255 33 25.9289 29.2761 25.9289 29.2761C25.9289 28.9978 25.9291 28.8043 25.9294 28.6727C25.9272 28.717 25.923 28.6311 25.9149 28.1345Z" fill="#E5E5E5"/>
</svg>
