<svg width="22" height="20" viewBox="0 0 22 20" fill="none" xmlns="http://www.w3.org/2000/svg">
<path d="M20.1775 2.46928C17.785 0.192619 13.8909 0.192619 11.4977 2.46876L11 2.94142L10.5029 2.46897C8.10945 0.192533 4.21584 0.192791 1.82235 2.46897C0.647152 3.58676 0 5.0694 0 6.64334C0 8.21781 0.647152 9.70018 1.82252 10.8184L10.4686 19.0269C10.6174 19.1684 10.8088 19.2389 11 19.2389C11.1912 19.2389 11.3824 19.1681 11.5314 19.0266L20.1775 10.8184C21.3526 9.70044 22 8.21785 22 6.6436C22 5.0694 21.3526 3.58702 20.1775 2.46928ZM19.1137 9.69915L11 17.4025L2.88651 9.69941C2.02065 8.87604 1.54387 7.7907 1.54387 6.6436C1.54387 5.49651 2.02065 4.41116 2.88651 3.58779C3.78967 2.72838 4.97587 2.29895 6.16232 2.29895C7.34903 2.29895 8.53574 2.72889 9.4389 3.58831L10.4681 4.56585C10.7661 4.84914 11.2336 4.84914 11.5316 4.56585L12.5611 3.58779C14.3677 1.86922 17.3069 1.86922 19.1135 3.58779C19.9791 4.4112 20.4561 5.49651 20.4561 6.6436C20.4561 7.7907 19.9791 8.87579 19.1137 9.69915Z" fill="#FFCF90"/>
</svg>
