<svg width="152" height="152" viewBox="0 0 152 152" fill="none" xmlns="http://www.w3.org/2000/svg">
<g clip-path="url(#clip0)">
<path d="M90.8521 152.001V129.721H70.0581L76.0004 152.001H90.8521Z" fill="#04303E"/>
<path d="M61.1479 129.721H76.0003V152.001H61.1479V129.721Z" fill="#07485E"/>
<path d="M70.4986 107.738L61.1479 113.681V129.721H70.4986V107.738Z" fill="#EBEBF0"/>
<path d="M90.8521 113.681L81.5015 107.738V129.721H90.8521V113.681Z" fill="#CDE1E6"/>
<path d="M124.556 32.0524C116.106 12.2817 97.5006 0 76 0C98.5138 0.000296875 81.5011 113.68 81.5011 113.68H90.8518L114.165 89.2976C129.024 73.758 133.006 51.8228 124.556 32.0524Z" fill="#FFDDAF"/>
<path d="M75.9999 0C54.4993 0 35.8935 12.2817 27.4439 32.0521C18.9942 51.8225 22.9753 73.7577 37.8345 89.2976L61.1481 113.68H70.4988C70.4985 113.68 53.4858 0 75.9999 0V0Z" fill="#FFCF90"/>
<path d="M94.4885 86.5156C110.048 53.971 98.5142 0.000296875 76.0004 0L70.0581 59.6719L76.0004 113.68H81.5017L94.4885 86.5156Z" fill="#FFECD2"/>
<path d="M75.9998 0C53.486 0 41.9524 53.971 57.5116 86.5156L70.4984 113.68H76.0001L75.9998 0Z" fill="#FFF2F2"/>
<path d="M99.7691 125.268H76.0004L73.0293 129.721L76.0004 134.174H99.7691V125.268Z" fill="#07485E"/>
<path d="M52.231 125.268H76.0003V134.174H52.231V125.268Z" fill="#09607D"/>
</g>
<defs>
<clipPath id="clip0">
<rect width="152" height="152" fill="white"/>
</clipPath>
</defs>
</svg>
