<svg width="129" height="44" viewBox="0 0 129 44" fill="none" xmlns="http://www.w3.org/2000/svg">
<circle cx="113.5" cy="26.5" r="15.5" fill="#FFCF90"/>
<path d="M113.505 11.958C107.683 11.9572 102.421 15.426 100.13 20.7758L99.9482 20.8359L100.018 21.0468C97.0012 28.485 100.588 36.9597 108.03 39.9755C109.768 40.6799 111.626 41.0415 113.501 41.0405C121.536 41.0417 128.05 34.5323 128.051 26.5014C128.052 18.4705 121.54 11.9592 113.505 11.958ZM124.917 33.8307L124.17 33.0845V31.3463C124.17 31.2713 124.154 31.1972 124.121 31.1297L122.23 27.3543V25.5298C122.23 25.3678 122.149 25.2165 122.014 25.1266L120.559 24.1571C120.445 24.081 120.304 24.0567 120.171 24.0902L118.39 24.5352L115.397 23.2517L114.985 20.3687L116.127 19.2286H118.576L119.4 20.4671C119.475 20.5784 119.592 20.6541 119.724 20.676L122.634 21.1607C122.712 21.1738 122.792 21.1674 122.867 21.1423L125.546 20.2494C127.794 24.5606 127.554 29.7458 124.917 33.8307ZM122.917 16.7343L122.128 17.2597L119.93 16.8201L118.504 16.3456C118.416 16.316 118.322 16.3122 118.233 16.3349L116.43 16.7852L115.64 16.522L116.225 15.351H117.865C117.941 15.351 118.015 15.3336 118.082 15.3001L119.76 14.4615C120.916 15.0644 121.979 15.8297 122.917 16.7343ZM108.19 14.0098L109.353 14.7853C109.411 14.8234 109.475 14.8488 109.543 14.86L111.893 15.2516L111.664 15.9375L110.439 16.3461C110.33 16.3825 110.237 16.4569 110.177 16.5559L108.784 18.8758L106.547 20.2174L103.25 20.6881C103.011 20.7218 102.833 20.9262 102.833 21.1675V22.6216C102.833 22.7501 102.884 22.8734 102.975 22.9643L103.802 23.7917V24.6244L101.785 23.2798L101.053 21.0855C102.446 17.9059 104.997 15.3757 108.19 14.0098ZM106.809 29.9019L104.617 29.4632L103.802 27.839V26.6999L105.609 24.8939L106.278 26.2312C106.36 26.3955 106.528 26.4993 106.712 26.4992H109.832L111.146 28.6877C111.233 28.8335 111.391 28.9227 111.561 28.9228H112.909L112.57 30.6227L110.734 32.4578C110.643 32.5486 110.592 32.6718 110.591 32.8004V34.0122L108.846 35.3209C108.724 35.4125 108.652 35.5561 108.652 35.7087V37.4595L108.049 37.2598L107.197 35.1309V30.3769C107.197 30.1465 107.035 29.9479 106.809 29.9019ZM105.351 37.3531C100.779 33.9245 98.8454 28.0004 100.515 22.5363L100.918 23.7442C100.952 23.8464 101.019 23.9344 101.109 23.9943L103.526 25.605L102.975 26.1566C102.884 26.2474 102.833 26.3707 102.833 26.4992V27.9534C102.833 28.0286 102.85 28.1027 102.883 28.17L103.853 30.1089C103.921 30.2428 104.046 30.3381 104.193 30.3672L106.23 30.7739V35.224C106.229 35.2855 106.241 35.3466 106.264 35.4038L107.234 37.8274C107.287 37.9597 107.396 38.0621 107.531 38.107L108.986 38.5917C109.034 38.6082 109.085 38.6167 109.137 38.6169C109.404 38.6169 109.622 38.3999 109.622 38.1322V35.951L111.367 34.6423C111.489 34.5508 111.561 34.4071 111.561 34.2546V33.0011L113.359 31.2043C113.427 31.1366 113.473 31.0504 113.491 30.9566L113.976 28.5331C114.029 28.2705 113.858 28.0152 113.596 27.9628C113.565 27.9565 113.533 27.9534 113.501 27.9534H111.836L110.522 25.7649C110.434 25.6191 110.277 25.5299 110.107 25.5298H107.012L106.179 23.859C106.109 23.7196 105.976 23.6221 105.822 23.5973C105.668 23.5707 105.511 23.6215 105.402 23.733L104.772 24.3597V23.591C104.772 23.4624 104.721 23.3392 104.63 23.2483L103.802 22.4209V21.5877L106.781 21.1626C106.845 21.1533 106.906 21.1314 106.962 21.0981L109.386 19.644C109.454 19.6032 109.511 19.5462 109.552 19.4783L110.915 17.2084L112.2 16.7799C112.345 16.7323 112.458 16.6186 112.506 16.4735L112.991 15.0194C113.075 14.7653 112.937 14.4911 112.683 14.4071C112.659 14.3994 112.635 14.3934 112.611 14.3893L109.804 13.9216L109.311 13.5929C112.362 12.6001 115.668 12.723 118.637 13.9395L117.751 14.3815H115.926C115.741 14.3805 115.572 14.4845 115.489 14.6496L114.519 16.5884C114.4 16.828 114.497 17.1191 114.737 17.2385C114.757 17.2487 114.779 17.2574 114.8 17.2646L116.255 17.7493C116.342 17.7789 116.436 17.7827 116.526 17.76L118.329 17.3097L119.65 17.7493C119.668 17.7561 119.688 17.7613 119.708 17.7648L122.132 18.2495C122.258 18.2752 122.39 18.2494 122.497 18.1778L123.6 17.442C124.143 18.0467 124.632 18.6987 125.059 19.39L122.673 20.185L120.09 19.7545L119.236 18.4749C119.147 18.3408 118.997 18.26 118.835 18.2592H115.926C115.797 18.2592 115.674 18.3103 115.583 18.4012L114.128 19.8554C114.02 19.9633 113.969 20.1158 113.991 20.2669L114.476 23.6598C114.5 23.8276 114.611 23.9704 114.767 24.0364L118.161 25.4906C118.259 25.5327 118.367 25.5413 118.47 25.5153L120.201 25.0824L121.26 25.7891V27.4687C121.259 27.5437 121.276 27.6178 121.309 27.6853L123.2 31.4607V33.2852C123.2 33.4137 123.251 33.537 123.342 33.6278L124.356 34.6423C119.857 40.6365 111.348 41.8502 105.351 37.3531Z" fill="#FFF1DE"/>
<path d="M23.48 10.9274C24.0667 10.9541 24.36 11.1408 24.36 11.4874C24.36 11.8874 24.04 12.3408 23.4 12.8474C22.7867 13.3274 22.24 13.5674 21.76 13.5674C19.4667 13.5674 16.92 13.6341 14.12 13.7674C11.8533 22.8608 10.28 31.2874 9.4 39.0474C9.77333 39.0741 10.08 39.1674 10.32 39.3274C10.5867 39.4608 10.72 39.6474 10.72 39.8874C10.72 40.2074 10.48 40.5541 10 40.9274L8.44 42.1274C8.25333 42.3141 7.89333 42.4874 7.36 42.6474C6.85333 42.8074 6.37333 42.8874 5.92 42.8874C5.09333 42.8874 4.72 42.5541 4.8 41.8874C5.73333 33.1141 7.44 23.8874 9.92 14.2074L9.88 14.0474C6.84 14.3141 4 14.6074 1.36 14.9274C0.96 14.9808 0.64 14.9274 0.4 14.7674C0.16 14.5808 0.0533333 14.3008 0.08 13.9274C0.106667 13.5541 0.333333 13.2474 0.76 13.0074C1.21333 12.7674 1.69333 12.5808 2.2 12.4474C4.76 11.7008 7.61333 11.1941 10.76 10.9274L11 10.2474C11.1067 9.87409 11.48 9.55409 12.12 9.28742C12.76 8.99409 13.3867 8.84742 14 8.84742C14.4 8.84742 14.7067 8.92742 14.92 9.08742C15.16 9.24742 15.24 9.47409 15.16 9.76742L14.92 10.6874L16.8 10.6474C18.7467 10.6474 20.9733 10.7408 23.48 10.9274ZM29.5409 17.2074C30.3143 16.8874 31.0209 16.7274 31.6609 16.7274C32.3543 16.7274 32.9143 16.9141 33.3409 17.2874C33.7676 17.6341 33.9809 18.2074 33.9809 19.0074C33.9809 19.7808 33.8609 20.6208 33.6209 21.5274C33.3809 22.4341 33.0476 23.5008 32.6209 24.7274L32.0609 26.4074C31.9009 26.9141 31.4876 27.3408 30.8209 27.6874C30.1543 28.0341 29.5143 28.2074 28.9009 28.2074C28.5009 28.2074 28.1943 28.1274 27.9809 27.9674C27.7943 27.7808 27.7543 27.5141 27.8609 27.1674C28.3409 25.6741 28.8209 24.0208 29.3009 22.2074C29.4076 21.3808 29.4876 20.8341 29.5409 20.5674L29.3809 20.7274C27.3276 22.4874 25.4476 24.7008 23.7409 27.3674C22.9676 31.6074 22.4876 35.8608 22.3009 40.1274C22.2743 40.6341 21.9276 41.0874 21.2609 41.4874C20.6209 41.8608 19.9543 42.0474 19.2609 42.0474C18.8609 42.0474 18.5276 41.9541 18.2609 41.7674C17.9943 41.5808 17.8743 41.3008 17.9009 40.9274C18.1143 37.0874 18.5276 33.3541 19.1409 29.7274C18.8743 29.5408 18.7409 29.3274 18.7409 29.0874C18.7409 28.9274 18.7943 28.7541 18.9009 28.5674L19.5009 27.5674C20.0876 24.5008 20.8076 21.4208 21.6609 18.3274C21.7943 17.8474 22.2076 17.4341 22.9009 17.0874C23.6209 16.7141 24.3009 16.5274 24.9409 16.5274C25.3409 16.5274 25.6476 16.6074 25.8609 16.7674C26.0743 16.9274 26.1276 17.1674 26.0209 17.4874C25.5943 18.9808 25.3276 19.9674 25.2209 20.4474C26.8209 18.8474 28.2609 17.7674 29.5409 17.2074ZM34.4028 36.1674C34.3495 36.4874 34.3228 36.7141 34.3228 36.8474C34.3228 37.9141 34.8428 38.4474 35.8828 38.4474C36.4961 38.4474 37.2428 38.2741 38.1228 37.9274C38.9228 37.6074 40.4028 36.9274 42.5628 35.8874C42.6161 35.2208 42.6695 34.5808 42.7228 33.9674C42.8028 33.3274 42.8695 32.7541 42.9228 32.2474L43.2028 29.4874C41.3628 30.3674 39.9895 31.0608 39.0828 31.5674C37.7495 32.3408 36.6828 33.0741 35.8828 33.7674C35.0828 34.4341 34.5895 35.2341 34.4028 36.1674ZM44.8028 17.3274C46.0028 17.3274 46.8028 17.6341 47.2028 18.2474C47.6295 18.8341 47.8428 19.7008 47.8428 20.8474L47.8028 21.9674C47.6961 23.9141 47.4561 26.7674 47.0828 30.5274C47.0028 31.0608 46.9095 31.9541 46.8028 33.2074C46.6961 33.9808 46.6028 34.6074 46.5228 35.0874C46.8161 35.2474 46.9628 35.4608 46.9628 35.7274C46.9628 35.9141 46.8695 36.1941 46.6828 36.5674L46.5228 36.7674L46.2828 37.0074C46.0961 38.3674 46.0028 39.5274 46.0028 40.4874C46.3761 40.7008 46.5628 40.9541 46.5628 41.2474C46.5628 41.7008 46.2295 42.1808 45.5628 42.6874C45.3761 42.8208 45.1628 42.9541 44.9228 43.0874C44.7361 43.1941 44.4695 43.2874 44.1228 43.3674C43.8028 43.4474 43.4828 43.4874 43.1628 43.4874C42.1761 43.4874 41.7228 43.1274 41.8028 42.4074L42.1228 39.0474C38.5495 40.7541 35.8028 41.6074 33.8828 41.6074C31.4561 41.6074 30.2428 40.3008 30.2428 37.6874C30.2428 35.1808 31.5361 33.0474 34.1228 31.2874C36.7361 29.5274 39.8561 27.9408 43.4828 26.5274C43.5895 25.4874 43.6695 24.4341 43.7228 23.3674C43.7228 23.1541 43.7361 22.8874 43.7628 22.5674C43.7895 22.2474 43.8028 21.8874 43.8028 21.4874C43.8028 20.9808 43.7628 20.6474 43.6828 20.4874L43.5628 20.3274H43.5228C43.1228 20.3274 42.3761 20.8741 41.2828 21.9674C40.2961 22.9274 39.0695 24.3674 37.6028 26.2874C37.3895 26.5808 37.0295 26.8208 36.5228 27.0074C36.0428 27.1941 35.5495 27.2874 35.0428 27.2874C34.6695 27.2874 34.3495 27.2208 34.0828 27.0874C33.8428 26.9541 33.7228 26.7541 33.7228 26.4874C33.7228 26.2741 33.8295 25.9941 34.0428 25.6474C37.7228 20.1008 41.3095 17.3274 44.8028 17.3274ZM62.98 17.8074C63.1667 17.5408 63.54 17.3141 64.1 17.1274C64.6867 16.9141 65.2333 16.8074 65.74 16.8074C66.1133 16.8074 66.4067 16.8608 66.62 16.9674C66.86 17.0741 66.98 17.2474 66.98 17.4874C66.98 17.6741 66.9133 17.8741 66.78 18.0874C64.5933 21.7408 62.7533 25.3674 61.26 28.9674C59.7933 32.5408 58.66 36.2474 57.86 40.0874C57.7533 40.5941 57.3667 41.0608 56.7 41.4874C56.06 41.8874 55.42 42.0874 54.78 42.0874C54.06 42.0874 53.6067 41.8074 53.42 41.2474C52.4067 38.2608 51.6867 35.2208 51.26 32.1274C50.86 29.0074 50.4867 24.9808 50.14 20.0474L50.1 19.2074C50.0733 18.6208 50.42 18.1008 51.14 17.6474C51.8867 17.1941 52.62 16.9674 53.34 16.9674C54.0333 16.9674 54.3933 17.2074 54.42 17.6874C54.4733 18.3274 54.5 18.8341 54.5 19.2074V19.3274C54.7933 24.4208 55.22 28.5541 55.78 31.7274C57.62 26.4474 60.02 21.8074 62.98 17.8074ZM74.3725 20.6074C73.0125 21.6474 71.9058 23.3274 71.0525 25.6474C73.6658 24.6608 76.0258 23.8341 78.1325 23.1674C77.2525 21.9408 76.3592 21.1141 75.4525 20.6874C75.2658 20.6074 75.0792 20.5541 74.8925 20.5274C74.7325 20.5008 74.6392 20.4874 74.6125 20.4874C74.6392 20.5141 74.6125 20.5408 74.5325 20.5674C74.4792 20.5941 74.4258 20.6074 74.3725 20.6074ZM74.5325 17.7674C74.9592 17.6608 75.4125 17.6074 75.8925 17.6074C78.4525 17.6074 80.7725 19.3274 82.8525 22.7674C82.9325 22.8741 82.9725 23.0074 82.9725 23.1674C82.9725 23.4608 82.7858 23.7674 82.4125 24.0874C82.1192 24.4074 81.7458 24.6608 81.2925 24.8474C78.6258 26.0208 74.9192 27.4208 70.1725 29.0474C69.9058 30.4074 69.7725 31.8074 69.7725 33.2474C69.7725 33.9141 69.7858 34.3941 69.8125 34.6874C69.8658 35.8874 70.1058 36.9274 70.5325 37.8074C70.6658 38.1008 70.8525 38.3808 71.0925 38.6474C71.3592 38.9141 71.5592 39.0874 71.6925 39.1674C71.7725 39.2208 71.9058 39.2474 72.0925 39.2474C72.2792 39.2474 72.4925 39.1941 72.7325 39.0874C72.9992 38.9808 73.2925 38.8341 73.6125 38.6474C74.3858 38.1941 75.1058 37.6741 75.7725 37.0874C76.4392 36.5008 77.2392 35.7408 78.1725 34.8074C78.5458 34.4341 79.1725 34.2474 80.0525 34.2474C80.5325 34.2474 80.9325 34.3274 81.2525 34.4874C81.5992 34.6208 81.7725 34.8208 81.7725 35.0874C81.7725 35.3274 81.6392 35.5941 81.3725 35.8874C79.7192 37.6741 78.0258 39.1941 76.2925 40.4474C74.5592 41.7008 72.8258 42.3274 71.0925 42.3274C70.2658 42.3274 69.4925 42.1541 68.7725 41.8074C67.5725 41.2474 66.7058 40.3541 66.1725 39.1274C65.6392 37.9008 65.3725 36.4608 65.3725 34.8074C65.3725 33.5808 65.5325 32.1408 65.8525 30.4874L65.5325 30.5674L65.2125 30.6874C64.8125 30.8208 64.4925 30.8874 64.2525 30.8874C63.8792 30.8874 63.5858 30.7941 63.3725 30.6074C63.1592 30.4208 63.0525 30.1808 63.0525 29.8874C63.0525 29.5408 63.1858 29.2074 63.4525 28.8874C63.7458 28.5408 64.1725 28.2608 64.7325 28.0474L66.6925 27.2874C66.9325 26.5408 67.2925 25.5674 67.7725 24.3674C68.5192 22.7141 69.4525 21.2874 70.5725 20.0874C71.6925 18.8874 73.0125 18.1141 74.5325 17.7674ZM86.7819 10.0874C86.8352 9.58075 87.1819 9.15409 87.8219 8.80742C88.4885 8.43409 89.1419 8.24742 89.7819 8.24742C90.1819 8.24742 90.4885 8.32742 90.7019 8.48742C90.9152 8.64742 91.0085 8.90075 90.9819 9.24742C90.2085 16.2074 89.4085 23.1674 88.5819 30.1274L87.3819 40.5674C87.3285 41.0741 86.9685 41.5141 86.3019 41.8874C85.6352 42.2608 84.9685 42.4474 84.3019 42.4474C83.3952 42.4474 82.9819 42.1008 83.0619 41.4074L84.9419 25.7274C85.7952 18.3674 86.4085 13.1541 86.7819 10.0874Z"/>
<path d="M41.322 7.694C41.91 8.20733 42.204 8.73467 42.204 9.276C42.204 9.63067 42.0827 9.98533 41.84 10.34C40.9813 11.572 39.9733 12.3327 38.816 12.622C38.5173 12.6967 38.1813 12.734 37.808 12.734C36.9307 12.734 36.0907 12.5147 35.288 12.076C34.9053 11.8707 34.6393 11.6047 34.49 11.278C34.3407 10.9513 34.266 10.564 34.266 10.116C34.266 9.79867 34.3033 9.34133 34.378 8.744C34.406 8.58533 34.5367 8.506 34.77 8.506C35.0313 8.506 35.2973 8.59 35.568 8.758C35.8387 8.926 35.96 9.11267 35.932 9.318C35.9227 9.39267 35.8993 9.56067 35.862 9.822C35.8247 10.074 35.806 10.3073 35.806 10.522C35.806 11.0073 35.9227 11.334 36.156 11.502C36.3893 11.67 36.6927 11.754 37.066 11.754C37.4393 11.754 37.8267 11.6747 38.228 11.516C38.536 11.3947 38.8767 11.194 39.25 10.914C39.6327 10.634 39.9547 10.3167 40.216 9.962C40.4867 9.60733 40.622 9.262 40.622 8.926C40.622 8.65533 40.5287 8.408 40.342 8.184C40.1553 7.96933 39.8893 7.764 39.544 7.568C39.208 7.372 38.76 7.14333 38.2 6.882C37.5093 6.55533 36.954 6.27067 36.534 6.028C36.1233 5.776 35.7687 5.482 35.47 5.146C35.1713 4.80067 35.022 4.41333 35.022 3.984C35.022 3.788 35.0453 3.61533 35.092 3.466C35.316 2.626 35.8667 2.024 36.744 1.66C37.6307 1.28667 38.5873 1.1 39.614 1.1C40.062 1.1 40.454 1.128 40.79 1.184C41.126 1.24 41.406 1.36133 41.63 1.548C41.882 1.75333 42.008 2.04267 42.008 2.416C42.008 2.64 41.9707 2.864 41.896 3.088C41.8307 3.30267 41.728 3.59667 41.588 3.97C41.4853 4.222 41.4247 4.376 41.406 4.432C41.35 4.59067 41.196 4.67 40.944 4.67C40.692 4.67 40.4447 4.6 40.202 4.46C39.9593 4.32 39.838 4.16133 39.838 3.984C39.838 3.93733 39.8427 3.9 39.852 3.872L40.062 3.27C40.1553 3.00867 40.2207 2.81267 40.258 2.682L40.356 2.094C39.18 2.07533 38.242 2.31333 37.542 2.808C37.262 2.99467 37.0427 3.214 36.884 3.466C36.7347 3.70867 36.66 3.956 36.66 4.208C36.66 4.64667 36.8793 5.02467 37.318 5.342C37.6353 5.566 37.9853 5.776 38.368 5.972C38.76 6.168 38.998 6.28933 39.082 6.336C39.6233 6.60667 40.0573 6.83533 40.384 7.022C40.72 7.20867 41.0327 7.43267 41.322 7.694ZM46.4269 4.95C45.9509 5.314 45.5635 5.902 45.2649 6.714C46.1795 6.36867 47.0055 6.07933 47.7429 5.846C47.4349 5.41667 47.1222 5.12733 46.8049 4.978C46.7395 4.95 46.6742 4.93133 46.6089 4.922C46.5529 4.91267 46.5202 4.908 46.5109 4.908C46.5202 4.91733 46.5109 4.92667 46.4829 4.936C46.4642 4.94533 46.4455 4.95 46.4269 4.95ZM46.4829 3.956C46.6322 3.91867 46.7909 3.9 46.9589 3.9C47.8549 3.9 48.6669 4.502 49.3949 5.706C49.4229 5.74333 49.4369 5.79 49.4369 5.846C49.4369 5.94867 49.3715 6.056 49.2409 6.168C49.1382 6.28 49.0075 6.36867 48.8489 6.434C47.9155 6.84467 46.6182 7.33467 44.9569 7.904C44.8635 8.38 44.8169 8.87 44.8169 9.374C44.8169 9.60733 44.8215 9.77533 44.8309 9.878C44.8495 10.298 44.9335 10.662 45.0829 10.97C45.1295 11.0727 45.1949 11.1707 45.2789 11.264C45.3722 11.3573 45.4422 11.418 45.4889 11.446C45.5169 11.4647 45.5635 11.474 45.6289 11.474C45.6942 11.474 45.7689 11.4553 45.8529 11.418C45.9462 11.3807 46.0489 11.3293 46.1609 11.264C46.4315 11.1053 46.6835 10.9233 46.9169 10.718C47.1502 10.5127 47.4302 10.2467 47.7569 9.92C47.8875 9.78933 48.1069 9.724 48.4149 9.724C48.5829 9.724 48.7229 9.752 48.8349 9.808C48.9562 9.85467 49.0169 9.92467 49.0169 10.018C49.0169 10.102 48.9702 10.1953 48.8769 10.298C48.2982 10.9233 47.7055 11.4553 47.0989 11.894C46.4922 12.3327 45.8855 12.552 45.2789 12.552C44.9895 12.552 44.7189 12.4913 44.4669 12.37C44.0469 12.174 43.7435 11.8613 43.5569 11.432C43.3702 11.0027 43.2769 10.4987 43.2769 9.92C43.2769 9.49067 43.3329 8.98667 43.4449 8.408L43.3329 8.436L43.2209 8.478C43.0809 8.52467 42.9689 8.548 42.8849 8.548C42.7542 8.548 42.6515 8.51533 42.5769 8.45C42.5022 8.38467 42.4649 8.30067 42.4649 8.198C42.4649 8.07667 42.5115 7.96 42.6049 7.848C42.7075 7.72667 42.8569 7.62867 43.0529 7.554L43.7389 7.288C43.8229 7.02667 43.9489 6.686 44.1169 6.266C44.3782 5.68733 44.7049 5.188 45.0969 4.768C45.4889 4.348 45.9509 4.07733 46.4829 3.956ZM54.6621 3.97C54.7275 3.87667 54.8581 3.79733 55.0541 3.732C55.2595 3.65733 55.4508 3.62 55.6281 3.62C55.7588 3.62 55.8615 3.63867 55.9361 3.676C56.0201 3.71333 56.0621 3.774 56.0621 3.858C56.0621 3.92333 56.0388 3.99333 55.9921 4.068C55.2268 5.34667 54.5828 6.616 54.0601 7.876C53.5468 9.12667 53.1501 10.424 52.8701 11.768C52.8328 11.9453 52.6975 12.1087 52.4641 12.258C52.2401 12.398 52.0161 12.468 51.7921 12.468C51.5401 12.468 51.3815 12.37 51.3161 12.174C50.9615 11.1287 50.7095 10.0647 50.5601 8.982C50.4201 7.89 50.2895 6.48067 50.1681 4.754L50.1541 4.46C50.1448 4.25467 50.2661 4.07267 50.5181 3.914C50.7795 3.75533 51.0361 3.676 51.2881 3.676C51.5308 3.676 51.6568 3.76 51.6661 3.928C51.6848 4.152 51.6941 4.32933 51.6941 4.46V4.502C51.7968 6.28467 51.9461 7.73133 52.1421 8.842C52.7861 6.994 53.6261 5.37 54.6621 3.97ZM58.6495 4.95C58.1735 5.314 57.7862 5.902 57.4875 6.714C58.4022 6.36867 59.2282 6.07933 59.9655 5.846C59.6575 5.41667 59.3448 5.12733 59.0275 4.978C58.9622 4.95 58.8968 4.93133 58.8315 4.922C58.7755 4.91267 58.7428 4.908 58.7335 4.908C58.7428 4.91733 58.7335 4.92667 58.7055 4.936C58.6868 4.94533 58.6682 4.95 58.6495 4.95ZM58.7055 3.956C58.8548 3.91867 59.0135 3.9 59.1815 3.9C60.0775 3.9 60.8895 4.502 61.6175 5.706C61.6455 5.74333 61.6595 5.79 61.6595 5.846C61.6595 5.94867 61.5942 6.056 61.4635 6.168C61.3608 6.28 61.2302 6.36867 61.0715 6.434C60.1382 6.84467 58.8408 7.33467 57.1795 7.904C57.0862 8.38 57.0395 8.87 57.0395 9.374C57.0395 9.60733 57.0442 9.77533 57.0535 9.878C57.0722 10.298 57.1562 10.662 57.3055 10.97C57.3522 11.0727 57.4175 11.1707 57.5015 11.264C57.5948 11.3573 57.6648 11.418 57.7115 11.446C57.7395 11.4647 57.7862 11.474 57.8515 11.474C57.9168 11.474 57.9915 11.4553 58.0755 11.418C58.1688 11.3807 58.2715 11.3293 58.3835 11.264C58.6542 11.1053 58.9062 10.9233 59.1395 10.718C59.3728 10.5127 59.6528 10.2467 59.9795 9.92C60.1102 9.78933 60.3295 9.724 60.6375 9.724C60.8055 9.724 60.9455 9.752 61.0575 9.808C61.1788 9.85467 61.2395 9.92467 61.2395 10.018C61.2395 10.102 61.1928 10.1953 61.0995 10.298C60.5208 10.9233 59.9282 11.4553 59.3215 11.894C58.7148 12.3327 58.1082 12.552 57.5015 12.552C57.2122 12.552 56.9415 12.4913 56.6895 12.37C56.2695 12.174 55.9662 11.8613 55.7795 11.432C55.5928 11.0027 55.4995 10.4987 55.4995 9.92C55.4995 9.49067 55.5555 8.98667 55.6675 8.408L55.5555 8.436L55.4435 8.478C55.3035 8.52467 55.1915 8.548 55.1075 8.548C54.9768 8.548 54.8742 8.51533 54.7995 8.45C54.7248 8.38467 54.6875 8.30067 54.6875 8.198C54.6875 8.07667 54.7342 7.96 54.8275 7.848C54.9302 7.72667 55.0795 7.62867 55.2755 7.554L55.9615 7.288C56.0455 7.02667 56.1715 6.686 56.3395 6.266C56.6008 5.68733 56.9275 5.188 57.3195 4.768C57.7115 4.348 58.1735 4.07733 58.7055 3.956ZM67.4728 3.942C67.8461 4.14733 68.0328 4.58133 68.0328 5.244C68.0328 5.48667 68.0095 5.75733 67.9628 6.056C67.9161 6.34533 67.8648 6.62067 67.8088 6.882L67.7108 7.442L67.1228 11.796C67.3095 11.8427 67.3888 11.9593 67.3608 12.146C67.2581 12.6593 66.8941 12.986 66.2688 13.126L66.1288 13.14C65.9701 13.14 65.8301 13.1073 65.7088 13.042C65.5875 12.9767 65.5361 12.874 65.5548 12.734C65.9468 9.89667 66.2361 7.76867 66.4228 6.35C66.4321 6.31267 66.4508 6.20533 66.4788 6.028C66.5161 5.85067 66.5348 5.68267 66.5348 5.524C66.5348 5.22533 66.4555 5.07133 66.2968 5.062C66.1755 5.04333 65.9748 5.21133 65.6948 5.566C65.4241 5.91133 65.2748 6.10267 65.2468 6.14C64.6868 6.77467 64.1641 7.484 63.6788 8.268C63.4548 9.63067 63.2775 10.732 63.1468 11.572L63.0768 12.02C63.0488 12.1973 62.9181 12.3513 62.6848 12.482C62.4515 12.6127 62.2228 12.678 61.9988 12.678C61.8588 12.678 61.7468 12.65 61.6628 12.594C61.5881 12.5287 61.5601 12.4353 61.5788 12.314C61.8215 10.886 62.0128 9.71933 62.1528 8.814C62.0968 8.758 62.0688 8.69267 62.0688 8.618C62.0688 8.57133 62.0828 8.52 62.1108 8.464C62.1388 8.41733 62.1621 8.37533 62.1808 8.338C62.2088 8.30067 62.2321 8.268 62.2508 8.24L62.8108 4.852C62.8388 4.684 62.9648 4.53933 63.1888 4.418C63.4128 4.29667 63.6368 4.236 63.8608 4.236C64.0008 4.236 64.1081 4.264 64.1828 4.32C64.2575 4.376 64.2855 4.46 64.2668 4.572C64.2201 4.88 64.1548 5.27667 64.0708 5.762L64.6588 5.132C65.0508 4.74 65.4241 4.418 65.7788 4.166C66.1335 3.914 66.4928 3.788 66.8568 3.788C67.0901 3.788 67.2955 3.83933 67.4728 3.942ZM72.5538 4.95C72.0778 5.314 71.6905 5.902 71.3918 6.714C72.3065 6.36867 73.1325 6.07933 73.8698 5.846C73.5618 5.41667 73.2491 5.12733 72.9318 4.978C72.8665 4.95 72.8011 4.93133 72.7358 4.922C72.6798 4.91267 72.6471 4.908 72.6378 4.908C72.6471 4.91733 72.6378 4.92667 72.6098 4.936C72.5911 4.94533 72.5725 4.95 72.5538 4.95ZM72.6098 3.956C72.7591 3.91867 72.9178 3.9 73.0858 3.9C73.9818 3.9 74.7938 4.502 75.5218 5.706C75.5498 5.74333 75.5638 5.79 75.5638 5.846C75.5638 5.94867 75.4985 6.056 75.3678 6.168C75.2651 6.28 75.1345 6.36867 74.9758 6.434C74.0425 6.84467 72.7451 7.33467 71.0838 7.904C70.9905 8.38 70.9438 8.87 70.9438 9.374C70.9438 9.60733 70.9485 9.77533 70.9578 9.878C70.9765 10.298 71.0605 10.662 71.2098 10.97C71.2565 11.0727 71.3218 11.1707 71.4058 11.264C71.4991 11.3573 71.5691 11.418 71.6158 11.446C71.6438 11.4647 71.6905 11.474 71.7558 11.474C71.8211 11.474 71.8958 11.4553 71.9798 11.418C72.0731 11.3807 72.1758 11.3293 72.2878 11.264C72.5585 11.1053 72.8105 10.9233 73.0438 10.718C73.2771 10.5127 73.5571 10.2467 73.8838 9.92C74.0145 9.78933 74.2338 9.724 74.5418 9.724C74.7098 9.724 74.8498 9.752 74.9618 9.808C75.0831 9.85467 75.1438 9.92467 75.1438 10.018C75.1438 10.102 75.0971 10.1953 75.0038 10.298C74.4251 10.9233 73.8325 11.4553 73.2258 11.894C72.6191 12.3327 72.0125 12.552 71.4058 12.552C71.1165 12.552 70.8458 12.4913 70.5938 12.37C70.1738 12.174 69.8705 11.8613 69.6838 11.432C69.4971 11.0027 69.4038 10.4987 69.4038 9.92C69.4038 9.49067 69.4598 8.98667 69.5718 8.408L69.4598 8.436L69.3478 8.478C69.2078 8.52467 69.0958 8.548 69.0118 8.548C68.8811 8.548 68.7785 8.51533 68.7038 8.45C68.6291 8.38467 68.5918 8.30067 68.5918 8.198C68.5918 8.07667 68.6385 7.96 68.7318 7.848C68.8345 7.72667 68.9838 7.62867 69.1798 7.554L69.8658 7.288C69.9498 7.02667 70.0758 6.686 70.2438 6.266C70.5051 5.68733 70.8318 5.188 71.2238 4.768C71.6158 4.348 72.0778 4.07733 72.6098 3.956ZM79.4171 4.95C78.9411 5.314 78.5538 5.902 78.2551 6.714C79.1698 6.36867 79.9958 6.07933 80.7331 5.846C80.4251 5.41667 80.1124 5.12733 79.7951 4.978C79.7298 4.95 79.6644 4.93133 79.5991 4.922C79.5431 4.91267 79.5104 4.908 79.5011 4.908C79.5104 4.91733 79.5011 4.92667 79.4731 4.936C79.4544 4.94533 79.4358 4.95 79.4171 4.95ZM79.4731 3.956C79.6224 3.91867 79.7811 3.9 79.9491 3.9C80.8451 3.9 81.6571 4.502 82.3851 5.706C82.4131 5.74333 82.4271 5.79 82.4271 5.846C82.4271 5.94867 82.3618 6.056 82.2311 6.168C82.1284 6.28 81.9978 6.36867 81.8391 6.434C80.9058 6.84467 79.6084 7.33467 77.9471 7.904C77.8538 8.38 77.8071 8.87 77.8071 9.374C77.8071 9.60733 77.8118 9.77533 77.8211 9.878C77.8398 10.298 77.9238 10.662 78.0731 10.97C78.1198 11.0727 78.1851 11.1707 78.2691 11.264C78.3624 11.3573 78.4324 11.418 78.4791 11.446C78.5071 11.4647 78.5538 11.474 78.6191 11.474C78.6844 11.474 78.7591 11.4553 78.8431 11.418C78.9364 11.3807 79.0391 11.3293 79.1511 11.264C79.4218 11.1053 79.6738 10.9233 79.9071 10.718C80.1404 10.5127 80.4204 10.2467 80.7471 9.92C80.8778 9.78933 81.0971 9.724 81.4051 9.724C81.5731 9.724 81.7131 9.752 81.8251 9.808C81.9464 9.85467 82.0071 9.92467 82.0071 10.018C82.0071 10.102 81.9604 10.1953 81.8671 10.298C81.2884 10.9233 80.6958 11.4553 80.0891 11.894C79.4824 12.3327 78.8758 12.552 78.2691 12.552C77.9798 12.552 77.7091 12.4913 77.4571 12.37C77.0371 12.174 76.7338 11.8613 76.5471 11.432C76.3604 11.0027 76.2671 10.4987 76.2671 9.92C76.2671 9.49067 76.3231 8.98667 76.4351 8.408L76.3231 8.436L76.2111 8.478C76.0711 8.52467 75.9591 8.548 75.8751 8.548C75.7444 8.548 75.6418 8.51533 75.5671 8.45C75.4924 8.38467 75.4551 8.30067 75.4551 8.198C75.4551 8.07667 75.5018 7.96 75.5951 7.848C75.6978 7.72667 75.8471 7.62867 76.0431 7.554L76.7291 7.288C76.8131 7.02667 76.9391 6.686 77.1071 6.266C77.3684 5.68733 77.6951 5.188 78.0871 4.768C78.4791 4.348 78.9411 4.07733 79.4731 3.956Z" fill="#D7D7D7"/>
</svg>
