<svg width="152" height="152" viewBox="0 0 152 152" fill="none" xmlns="http://www.w3.org/2000/svg">
<path d="M121.998 21.7811V14.25C121.974 6.38875 115.609 0.02375 107.748 0H44.25C36.3887 0.02375 30.0237 6.38875 30 14.25V21.7811H121.998Z" fill="#415E72"/>
<path d="M30 130.219V137.75C30.0237 145.611 36.3887 151.976 44.25 152H107.748C115.609 151.976 121.974 145.611 121.998 137.75V130.219H30Z" fill="#415E72"/>
<path d="M122 21.7812H30V130.219H122V21.7812Z" fill="#D2C7AB"/>
<g opacity="0.25">
<path opacity="0.25" d="M30 65.5382V21.7812H73.757L30 65.5382Z" fill="white"/>
</g>
<path d="M75.9988 145.066C78.5696 145.066 80.6538 142.982 80.6538 140.411C80.6538 137.84 78.5696 135.756 75.9988 135.756C73.4279 135.756 71.3438 137.84 71.3438 140.411C71.3438 142.982 73.4279 145.066 75.9988 145.066Z" fill="white"/>
</svg>
