<svg width="16" height="19" viewBox="0 0 16 19" fill="none" xmlns="http://www.w3.org/2000/svg">
<path d="M7.60519 9.29225C9.82884 9.29225 11.6316 7.21213 11.6316 4.64615C11.6316 2.08012 11.0398 0 7.60519 0C4.17061 0 3.57861 2.08012 3.57861 4.64615C3.57861 7.21213 5.38141 9.29225 7.60519 9.29225Z" fill="white"/>
<path d="M15.2015 16.1984C15.127 11.7284 14.5125 10.4547 9.81 9.64844C9.81 9.64844 9.14806 10.4497 7.6052 10.4497C6.06234 10.4497 5.40028 9.64844 5.40028 9.64844C0.749142 10.4459 0.0972571 11.7007 0.0115428 16.0532C0.00451427 16.4086 0.00125714 16.4273 0 16.386C0.000285714 16.4633 0.000628444 16.6063 0.000628444 16.8556C0.000628444 16.8556 1.12017 18.9997 7.6052 18.9997C14.0901 18.9997 15.2098 16.8556 15.2098 16.8556C15.2098 16.6954 15.2099 16.584 15.2101 16.5083C15.2088 16.5338 15.2063 16.4843 15.2015 16.1984Z" fill="white"/>
</svg>
