<?xml version="1.0" encoding="UTF-8"?><!DOCTYPE svg PUBLIC "-//W3C//DTD SVG 1.1//EN" "http://www.w3.org/Graphics/SVG/1.1/DTD/svg11.dtd"><svg xmlns="http://www.w3.org/2000/svg" xmlns:xlink="http://www.w3.org/1999/xlink"><defs><path id="a" d="M140 4380v-20h20v20z"/><path id="c" d="M156 4370v-10h4v10z"/><path id="d" d="M148 4373l-4-4 2-2 4 4 10-10 2 2-10 10-2 2z"/><clipPath id="b"><use fill="#fff" xlink:href="#a"/></clipPath><path id="a" d="M140 4440v-20h20v20z"/><clipPath id="b"><use fill="#fff" xlink:href="#a"/></clipPath><path id="a" d="M486 3415l2 2-6 6-2 2-8-8 2-2 6 6z"/><style>.cls-1{fill:#262626}</style><style>.cls-1{fill:#e4042b}</style><style>.cls-2{fill:#e4002b}</style><style>.cls-2{fill:#999}</style><style>.cls-1{fill:#999;fill-rule:evenodd}</style><style>.cls-2{fill:#000}</style><style>.cls-1{fill:#999;fill-rule:evenodd}</style><style>.cls-2{fill:#fff}</style><style>.gridicon1{fill:#fff;fill-rule:evenodd}</style><style>.cls-1{fill:#999;fill-rule:evenodd}</style><style>.list-icon1{fill:#b7b7b7;stroke:#b7b7b7;stroke-width:1px;fill-rule:evenodd}</style><style>.cls-2{fill:#ccc}</style><style>.cls-1{fill:#c9cbcb}.cls-2{fill:#fff;fill-rule:evenodd}</style><style>.cls-1{fill:#000;stroke:#000;stroke-width:6px;fill-rule:evenodd}</style><style>.cls-1{fill:#a1a1a1;fill-rule:evenodd}</style><style>.cls-1{fill:#fff;fill-rule:evenodd}</style><style>.cls-2{fill:#fff}</style><style>.cls-1{fill-rule:evenodd}</style><style>.cls-1{fill:#231f20}</style><style>.cls-1{fill:#fff;fill-rule:evenodd}</style><style>.cls-1{fill:#fff;fill-rule:evenodd}</style><style>.cls-1{fill:#e4002b;fill-rule:evenodd}</style><style>.cls-1{fill:#fff;fill-rule:evenodd}</style><style>.cls-1{fill:#fff;fill-rule:evenodd}</style><path id="a" d="M160 4211a20 20 0 1 1 0 40 20 20 0 0 1 0-40z"/><path id="c" d="M160 4221a10 10 0 1 1 0 20 10 10 0 0 1 0-20z"/><clipPath id="b"><use fill="#fff" xlink:href="#a"/></clipPath><path id="a" d="M160 4211a20 20 0 1 1 0 40 20 20 0 0 1 0-40z"/><clipPath id="b"><use fill="#fff" xlink:href="#a"/></clipPath><style>.cls-1{fill:#b7b7b7;fill-rule:evenodd}</style><style>.cls-1{fill:#000006;fill-rule:evenodd}</style><style>.cls-1{fill:#fff;stroke:#ccc;stroke-linejoin:round;stroke-width:1px}</style><style>.cls-1{fill:#fff;stroke:#ccc;stroke-linejoin:round;stroke-width:1px}.cls-2{fill:#1a1a1a;fill-rule:evenodd}</style><style>.cls-1{fill:#fff;stroke:#ccc;stroke-linejoin:round;stroke-width:1px}</style><style>.cls-1{fill:#fff;stroke:#ccc;stroke-linejoin:round;stroke-width:1px}.cls-2{fill:#1a1a1a}</style></defs><symbol id="cc-zero" viewBox="0 0 64 64"><path d="M32 13.6c-10.6 0-13.2 10-13.2 18.4 0 8.5 2.7 18.4 13.2 18.4 10.6 0 13.2-10 13.2-18.4S42.6 13.6 32 13.6zm0 6.9c.4 0 .8.1 1.2.1.8.7 1.1 1.6.4 2.8l-7 12.9c-.2-1.6-.2-3.2-.2-4.4-.1-3.6.2-11.4 5.6-11.4zm5.3 6c.4 2 .4 4.1.4 5.5 0 3.7-.3 11.5-5.7 11.5-.4 0-.8 0-1.2-.1-.1 0-.1 0-.2-.1-.1 0-.2-.1-.3-.1-1.2-.5-2-1.4-.9-3.1l7.9-13.6z"/><path d="M31.9 0C23.1 0 15.6 3.1 9.5 9.3 6.4 12.4 4 15.9 2.4 19.8.8 23.7 0 27.8 0 32c0 4.3.8 8.3 2.4 12.2s3.9 7.3 7 10.4c3.1 3 6.5 5.4 10.4 7C23.7 63.2 27.7 64 32 64s8.3-.8 12.3-2.5c4-1.6 7.5-4 10.6-7.1 3-2.9 5.3-6.3 6.8-10.1 1.6-3.8 2.3-8 2.3-12.4 0-4.3-.8-8.4-2.3-12.3-1.6-3.9-3.8-7.3-6.9-10.3C48.5 3.1 40.9 0 31.9 0zm.2 5.8c7.2 0 13.4 2.6 18.6 7.7 2.5 2.5 4.4 5.3 5.7 8.5 1.3 3.2 1.9 6.5 1.9 10.1 0 7.3-2.5 13.5-7.5 18.3-2.6 2.5-5.5 4.4-8.7 5.8-3.2 1.3-6.5 2-9.9 2-3.1 0-6.8-.7-9.9-1.9-3.2-1.3-6-3.2-8.5-5.7S9.4 45.3 8 42.1c-1.3-3.2-2-6.5-2-9.9 0-3.5.7-6.8 2-10 1.4-3.2 3.3-6.1 5.8-8.6 4.8-5.2 11-7.8 18.3-7.8z"/></symbol><symbol id="CheckboxIcon-Checked" viewBox="0 0 24 23"><g fill="#fff" transform="translate(-139 -4359)"><use xlink:href="#a"/><use fill-opacity="0" stroke="#b7b7b7" stroke-miterlimit="50" stroke-width="2" clip-path="url(&quot;#b&quot;)" xlink:href="#a"/></g><use fill="#fff" xlink:href="#c" transform="translate(-139 -4359)"/><use fill="#000006" xlink:href="#d" transform="translate(-139 -4359)"/></symbol><symbol id="CheckboxIcon" viewBox="0 0 23 23"><g transform="translate(-139 -4418)" fill="#fff"><use xlink:href="#a"/><use fill-opacity="0" stroke="#b7b7b7" stroke-miterlimit="50" stroke-width="2" clip-path="url(&quot;#b&quot;)" xlink:href="#a"/></g></symbol><symbol id="chevron-down" viewBox="0 0 19 13"><use fill="#fff" xlink:href="#a" transform="translate(-470 -3414)"/></symbol><symbol id="circle_X" viewBox="0 0 24 24"><path class="cls-1" d="M12 24a12 12 0 1 1 12-12 12 12 0 0 1-12 12zm0-21.429A9.429 9.429 0 1 0 21.429 12 9.43 9.43 0 0 0 12 2.571zM15 17l-3-3-3 3-2-2 3-3-3-3 2-2 3 3 3-3 2 2-3 3 3 3z"/></symbol><symbol id="downward_arrow_icon" viewBox="0 0 12 7.33"><title>downward_arrow_icon</title><path class="cls-1" d="M10.5 0L6 4.4 1.5 0 0 1.47l6 5.86 6-5.86L10.5 0z"/></symbol><symbol id="downward_arrow_icon_active" viewBox="0 0 12 7.33"><title>downward_arrow_icon_active</title><path class="cls-1" d="M10.5 0L6 4.4 1.5 0 0 1.47l6 5.86 6-5.86L10.5 0z"/></symbol><symbol id="ico-audio" viewBox="0 0 18 18"><path d="M14.559 16.069l-1.427-1.428A6.983 6.983 0 0 0 16 9a6.99 6.99 0 0 0-3.154-5.846l1.433-1.433a8.981 8.981 0 0 1 .28 14.348zm-2.866-2.867l-1.469-1.468A2.998 2.998 0 0 0 12 9a2.99 2.99 0 0 0-2.14-2.86l1.514-1.515C12.931 5.473 14 7.103 14 9a4.987 4.987 0 0 1-2.307 4.202zM1 12a1 1 0 0 1-1-1V7a1 1 0 0 1 1-1h2.992L8 1.992v14.016L3.991 12H1z"/></symbol><symbol id="ico-circle-chevron" viewBox="0 0 18 18"><path d="M9 18a9 9 0 0 1-9-9 9 9 0 0 1 9-9 9 9 0 0 1 9 9 9 9 0 0 1-9 9zM9 2a7 7 0 1 0 0 14A7 7 0 0 0 9 2zM7 12l3-3-3-3 1-1 4 4-4 4-1-1z" id="path-1" class="cls-2" fill-rule="evenodd"/></symbol><symbol id="ico-clock" viewBox="0 0 20 20"><path d="M10 20C4.477 20 0 15.523 0 10S4.477-.001 10-.001 20 4.477 20 10s-4.477 10-10 10zm0-18a8 8 0 1 0 0 16 8 8 0 0 0 0-16zm3.664 12.995L9.669 11H9V4h2v5.669l3.995 3.995-1.331 1.331z" id="path-1" class="cls-2" fill-rule="evenodd"/></symbol><symbol id="ico-close" viewBox="0 0 16 16"><path d="M15.997 14.543l-1.454 1.454L8 9.454l-6.543 6.543-1.454-1.454L6.546 8 .003 1.457 1.457.003 8 6.546 14.543.003l1.454 1.454L9.454 8l6.543 6.543z"/></symbol><symbol id="ico-diamond-white" viewBox="0 0 5 5"><path fill-rule="evenodd" clip-rule="evenodd" fill="#FFF" d="M2.487 5.013L.012 2.538 2.487.063l2.475 2.475z"/></symbol><symbol id="ico-diamond" viewBox="0 0 5 5"><path fill-rule="evenodd" clip-rule="evenodd" fill="#E8E7E5" d="M2.487 5.013L.012 2.538 2.487.063l2.475 2.475z"/></symbol><symbol id="ico-download" viewBox="0 0 22.094 16"><path d="M20.094 16H2a2 2 0 0 1-2-2V2a2 2 0 0 1 2-2h5.031v2H2v12h18.062V2h-4.999V0h5.031a2 2 0 0 1 2 2v12a2 2 0 0 1-2 2zm-9.051-3.757L6.023 7h3.008V0h4.031v7h3l-5.019 5.243z" class="cls-1"/></symbol><symbol id="ico-email" viewBox="0 0 24 16"><path d="M22 16H2a2 2 0 0 1-2-2V4.001L12 10l12-5.999V14a2 2 0 0 1-2 2zM0 2.001V2a2 2 0 0 1 2-2h20a2 2 0 0 1 2 2v.001L12 8 0 2.001z" id="path-1" class="cls-2" fill-rule="evenodd"/></symbol><symbol id="ico-enlarge" viewBox="0 0 22.094 15.688"><path d="M20.094 15.687h-6.031v-1.968h6.031V9.813h2v3.875a2 2 0 0 1-2 1.999zm0-13.718h-6.031V0h6.031a2 2 0 0 1 2 2v3.875h-2V1.969zM2 1.969v3.906H0V2a2 2 0 0 1 2-2h6.031v1.969H2zm0 11.75h6.031v1.968H2a2 2 0 0 1-2-1.999V9.813h2v3.906z" class="cls-1"/></symbol><symbol id="ico-facebook" viewBox="0 0 16 16"><path d="M14 16h-4V9h2l1-1.999h-3V6c0-.618.066-1 1-1h2l-.001-2.001H9.988C8.091 2.999 8 4.722 8 6v1.001H6V9h2v7H2a2 2 0 0 1-2-2V2.001a2 2 0 0 1 2-2h12a2 2 0 0 1 2 2V14a2 2 0 0 1-2 2z" class="cls-2" fill-rule="evenodd"/></symbol><symbol id="ico-filter" viewBox="0 0 20 16"><path d="M9.859 13A3.991 3.991 0 0 1 6 16c-1.862 0-3.412-1.278-3.859-3H0v-2h2.141C2.588 9.278 4.138 8 6 8c1.862 0 3.412 1.278 3.859 3H20v2H9.859zM6 10a2 2 0 1 0-.001 3.999A2 2 0 0 0 6 10zm7-2c-1.862 0-3.412-1.278-3.859-3H0V3h9.141C9.588 1.278 11.138 0 13 0c1.862 0 3.412 1.278 3.859 3H20v2h-3.141A3.991 3.991 0 0 1 13 8zm0-6a2 2 0 1 0-.001 3.999A2 2 0 0 0 13 2z" class="cls-2" fill="currentColor"/></symbol><symbol id="ico-finger-time" viewBox="0 0 11 19"><path d="M10.995 10.61L11 8H9v1-2H7V6H5v2-8H3v11H2V8H0v6c0 .017-.001-.017 0 0-.001.017 0-.017 0 0 0 1.473 3.313 3.751 3.313 5h4.653c0-1.394 3.034-3.57 3.034-5.666v-2.698l-.005-.026z"/></symbol><symbol id="ico-folder" viewBox="0 0 21.031 18"><path class="cls-1" d="M19.018 18h-17a2 2 0 0 1-2-2V2a2 2 0 0 1 2-2h6a2 2 0 0 1 2 2v2h9a2 2 0 0 1 2 2v10a2 2 0 0 1-2 2zm-1-12h-10V3a1 1 0 0 0-1-1h-4a1 1 0 0 0-1 1v5h16a1 1 0 1 0 0-2zm1 5V9h-17v6a1 1 0 0 0 1 1h15a1 1 0 0 0 1-1v-4z"/></symbol><symbol id="ico-go-arrow" viewBox="0 0 14 14"><path d="M13.992 7.505l-6.487 6.487-1.497-1.498L10.502 8H0V6h10.503L6.008 1.505 7.505.008l6.487 6.487-.505.505.505.505z" id="path-1" class="cls-2" fill-rule="evenodd"/></symbol><symbol id="ico-grid-view" viewBox="0 0 20 20"><path id="Grid_icon.svg" data-name="Grid icon.svg" class="gridicon1" d="M1243 768h8v8h-8v-8zm-12 0h8v8h-8v-8zm12 12h8v8h-8v-8zm-12 0h8v8h-8v-8z" transform="translate(-1231 -768)"/></symbol><symbol id="ico-instagram" viewBox="0 0 16 16"><path d="M14 16H2a2 2 0 0 1-2-2V2.001a2 2 0 0 1 2-2h12a2 2 0 0 1 2 2V14a2 2 0 0 1-2 2zM8 6a2 2 0 1 0 .002 4.002A2 2 0 0 0 8 6zm6-3a1 1 0 0 0-1-.999h-1A1 1 0 0 0 11 3v1a1 1 0 0 0 1 1.001h1A1 1 0 0 0 14 4V3zm0 4.001h-2.141c.083.321.141.652.141 1a4 4 0 0 1-8 0c0-.348.058-.679.142-1H2V13a1 1 0 0 0 1 1h10a1 1 0 0 0 1-1V7.001z" class="cls-2" fill-rule="evenodd"/></symbol><symbol id="ico-link" viewBox="0 0 18.594 18.594"><path d="M17.413 6.806l-4.243 4.243a4 4 0 0 1-5.657 0l1.414-1.414a2 2 0 0 0 2.829 0l4.242-4.243a1.999 1.999 0 1 0-2.828-2.829l-2.828 2.829-1.415-1.414 2.829-2.829a4 4 0 0 1 5.657 5.657zM9.634 8.927a2.001 2.001 0 0 0-2.828 0L2.563 13.17a2 2 0 0 0 2.829 2.829L8.22 13.17l1.414 1.414-2.828 2.829a4 4 0 0 1-5.657-5.657l4.243-4.243a4 4 0 0 1 5.657 0L9.634 8.927z" class="cls-1"/></symbol><symbol id="ico-list-view" viewBox="0 0 21 21"><path id="List_icon.svg" data-name="List icon.svg" class="list-icon1" d="M1278 788v-4h12v4h-12zm0-12h12v4h-12v-4zm0-8h12v4h-12v-4zm-8 16h4v4h-4v-4zm0-8h4v4h-4v-4zm0-8h4v4h-4v-4z" transform="translate(-1269.5 -767.5)"/></symbol><symbol id="ico-marker" viewBox="0 0 12 18"><path d="M11.267 9.184h.027L6.353 18h-.706L.706 9.184h.027A6.383 6.383 0 0 1 0 6.25C0 2.798 2.686 0 6 0s6 2.798 6 6.25a6.383 6.383 0 0 1-.733 2.934zM6 2.994a3.006 3.006 0 0 0-3.012 3.001A3.006 3.006 0 0 0 6 8.996a3.006 3.006 0 0 0 3.012-3.001A3.006 3.006 0 0 0 6 2.994z" class="cls-1"/></symbol><symbol id="ico-minus" viewBox="0 0 12 2"><path d="M0 0h12v2H0V0z" fill="#1A1A1A" fill-rule="evenodd"/></symbol><symbol id="ico-more-button" viewBox="0 0 18 18"><path d="M9 0a9 9 0 1 1-9 9 9 9 0 0 1 9-9zm0 2a7 7 0 1 1-7 7 7 7 0 0 1 7-7zM8 5.17L11.828 9 8 12.83"/></symbol><symbol id="ico-mymet" viewBox="0 0 16 16"><path d="M16 10h-6v6H6v-6H0V6h6V0h4v6h6v4z" id="path-1" class="cls-2" fill-rule="evenodd"/></symbol><symbol id="ico-no-image" viewBox="0 0 220 140"><path id="Small_Medium_Search_Image_Container" data-name="Small/Medium Search Image Container" class="cls-1" d="M0 0h220v140H0z"/><g id="Art"><path id="Painting" class="cls-2" d="M270 3143v60h40v-60h-40zm4 4v52h32v-52h-32zm4 48v-8s.111-10.73 6.778-10.98c2.524-5.48 5.448-10.02 8.222-10.02 6.9 0 9 11 9 11v18h-24zm8-42a6 6 0 1 1-6 6 6 6 0 0 1 6-6z" transform="translate(-180 -3103)"/></g></symbol><symbol id="ico-not-onview" viewBox="0 0 30 26.56"><path d="M22.562 17.514l-2.813-2.813c.15-.45.251-.922.251-1.421a4.5 4.5 0 0 0-4.5-4.5c-.5 0-.972.1-1.421.251l-2.49-2.491c1.12-.464 2.272-.76 3.411-.76 5.799 0 12 7.5 12 7.5s-1.837 2.212-4.438 4.234zm1.802 6.044L5.222 4.416l1.414-1.414 19.142 19.142-1.414 1.414zM11.251 11.86c-.15.449-.251.92-.251 1.42a4.5 4.5 0 0 0 4.5 4.5c.5 0 .972-.1 1.421-.251l2.179 2.179c-1.332.643-2.726 1.072-4.1 1.072-5.799 0-12-7.5-12-7.5s2.108-2.539 5.008-4.663l3.243 3.243z" class="cls-1"/></symbol><symbol id="ico-oasc" viewBox="0 0 50 20"><path class="cls-1" d="M36.128 6.9c-1.4 0-2.345 1.257-2.345 3.109s.933 3.108 2.345 3.108a1.937 1.937 0 0 0 1.927-1.51h.933a2.8 2.8 0 0 1-2.86 2.411c-1.854 0-3.29-1.586-3.29-4.009S34.274 6 36.128 6a2.791 2.791 0 0 1 2.86 2.4h-.933a1.94 1.94 0 0 0-1.927-1.5zm-6.213 2.766a2.1 2.1 0 0 1 1.83 2.094 2.278 2.278 0 0 1-2.536 2.258 2.656 2.656 0 0 1-2.824-2.144h.957a1.816 1.816 0 0 0 1.867 1.294 1.409 1.409 0 0 0 1.627-1.358 1.246 1.246 0 0 0-1.173-1.23l-1.316-.368a2 2 0 0 1-1.759-2A2.227 2.227 0 0 1 29.005 6a2.527 2.527 0 0 1 2.693 2.055h-.946a1.688 1.688 0 0 0-1.747-1.205 1.339 1.339 0 0 0-1.519 1.281 1.24 1.24 0 0 0 1.172 1.193zM23.9 11.557h-3.027l-.838 2.347h-.957l2.871-7.79h.886l2.872 7.79h-.958zm-1.52-4.2l-1.2 3.324h2.393zm-7.079 6.661c-1.927 0-3.315-1.662-3.315-4.009S13.374 6 15.3 6s3.326 1.649 3.326 4.009-1.387 4.006-3.326 4.006zm0-7.118c-1.412 0-2.37 1.282-2.37 3.109s.958 3.108 2.37 3.108 2.381-1.281 2.381-3.108S16.724 6.9 15.3 6.9zM0 0h50v20H0V0zm1 1v18h48V1H1z"/></symbol><symbol id="ico-pinterest" viewBox="0 0 16 16"><path d="M8 0a8 8 0 0 0-3.211 15.328c-.023-.559-.004-1.23.139-1.837l1.029-4.36s-.255-.51-.255-1.265c0-1.186.687-2.071 1.543-2.071.727 0 1.079.546 1.079 1.201 0 .731-.467 1.825-.707 2.839-.2.848.426 1.541 1.263 1.541 1.516 0 2.537-1.947 2.537-4.254 0-1.753-1.181-3.066-3.329-3.066-2.427 0-3.939 1.81-3.939 3.832 0 .696.206 1.188.527 1.569.149.175.169.245.116.446-.039.147-.127.501-.163.642-.054.202-.218.275-.401.2C3.11 10.289 2.59 9.064 2.59 7.689c0-2.273 1.916-4.998 5.717-4.998 3.055 0 5.065 2.21 5.065 4.583 0 3.138-1.745 5.483-4.316 5.483-.864 0-1.677-.467-1.955-.998 0 0-.465 1.844-.563 2.199-.169.618-.502 1.234-.805 1.715A8.001 8.001 0 1 0 8 0z" class="cls-2" fill-rule="evenodd"/></symbol><symbol id="ico-plus" viewBox="0 0 12 12"><path d="M7 12H5V7H0V5h5V0h2v5h5v2H7v5z"/></symbol><symbol id="ico-print" viewBox="0 0 20 18"><path d="M18 13h-2v5H4v-5H2 0v-2-1-3.001a2 2 0 0 1 2-2h16a2 2 0 0 1 2 2V13h-2zM6 16h8v-4H6v4zm12-9H2v4h16V7zM4 0h12v4H4V0z"/></symbol><symbol id="ico-right-arrow" viewBox="0 0 14 14"><path d="M13.992 7.505l-6.487 6.487-1.497-1.498L10.503 8H0V6h10.503L6.008 1.505 7.505.008l6.487 6.487-.505.505.505.505z" class="cls-1"/></symbol><symbol id="ico-share-email" viewBox="0 0 24 16"><path d="M22 16H2a2 2 0 0 1-2-2V4.001L12 10l12-5.999V14a2 2 0 0 1-2 2zM0 2.001V2a2 2 0 0 1 2-2h20a2 2 0 0 1 2 2v.001L12 8 0 2.001z"/></symbol><symbol id="ico-share" viewBox="0 0 24 19"><path d="M23.657 6.656L16 13.313V8.656c-8.687 0-10 3-10 3 0-6.774 10-7 10-7V0l7.657 6.656zM2 4.656v12h16v-1.778l2-.222v2a2 2 0 0 1-2 2H2a2 2 0 0 1-2-2v-12a2 2 0 0 1 2-2h7l-1 2H2z"/></symbol><symbol id="ico-time" viewBox="0 0 18 18"><path d="M9.006 18.002c-4.972 0-9.003-4.032-9.003-9.006S4.307-.01 9.017-.01c4.712 0 8.994 4.032 8.994 9.006a9.006 9.006 0 0 1-9.005 9.006zM9 1.656c-4.075 0-7.381 3.296-7.381 7.364S4.925 16.386 9 16.386c4.078 0 7.383-3.298 7.383-7.366S13.078 1.656 9 1.656zm4.448 8.343H8.324a.335.335 0 0 1-.313-.31V5.585a.607.607 0 0 1 .617-.574c.34 0 .616.266.616.594v2.876l-.001.017.001.015v.005a.33.33 0 0 0 .304.303l3.875.003c.32.021.572.277.572.592a.596.596 0 0 1-.547.583z"/></symbol><symbol id="ico-tumblr" viewBox="0 0 512 512"><path d="M464 0H48C21.6 0 0 21.6 0 48v416c0 26.4 21.6 48 48 48h416c26.4 0 48-21.6 48-48V48c0-26.4-21.6-48-48-48zm-98.1 412.3c-15.1 7.1-28.8 12.1-41 15-12.2 2.8-25.5 4.3-39.7 4.3-16.2 0-25.7-2-38.1-6.1s-23-9.9-31.8-17.4c-8.8-7.6-14.8-15.6-18.2-24.1s-5.1-20.8-5.1-37V223.1h-48v-50c13.9-4.5 30-11 39.8-19.4 9.9-8.4 17.9-18.5 23.8-30.3 6-11.8 10.1-26.8 12.4-45h50.2V160H352v63.1h-81.7v90.6c0 20.5-.3 32.3 1.9 38.1s7.6 11.8 13.5 15.2c7.8 4.7 16.8 7 26.8 7 17.9 0 35.7-5.8 53.4-17.4v55.7z"/></symbol><symbol id="ico-twitter" viewBox="0 0 18 14"><path d="M17.999 1.658a7.674 7.674 0 0 1-2.121.557A3.576 3.576 0 0 0 17.501.259a7.603 7.603 0 0 1-2.344.858A3.769 3.769 0 0 0 12.461.001c-2.039 0-3.692 1.582-3.692 3.534 0 .277.032.546.095.805-3.069-.147-5.79-1.554-7.611-3.692a3.4 3.4 0 0 0-.5 1.776c0 1.226.652 2.308 1.643 2.942a3.826 3.826 0 0 1-1.673-.442v.044c0 1.713 1.273 3.141 2.962 3.466a3.887 3.887 0 0 1-1.667.06c.47 1.404 1.833 2.426 3.449 2.455a7.628 7.628 0 0 1-4.586 1.512c-.298 0-.592-.016-.881-.049A10.801 10.801 0 0 0 5.661 14c6.792 0 10.506-5.385 10.506-10.056 0-.152-.004-.306-.011-.457a7.348 7.348 0 0 0 1.843-1.829z" class="cls-2" fill-rule="evenodd"/></symbol><symbol id="ico-video" viewBox="0 0 20 12"><path d="M20 12.009l-5-4.287V10a1 1 0 0 1-1 1H1a1 1 0 0 1-1-1V2a1 1 0 0 1 1-1h13a1 1 0 0 1 1 1v2.278l5-4.287v12.018z"/></symbol><symbol id="ico-x" viewBox="0 0 9 9"><path d="M8.992 7.495L7.495 8.992 4.5 5.997 1.505 8.992.008 7.495 3.002 4.5.008 1.505 1.505.008 4.5 3.003 7.495.008l1.497 1.497L5.997 4.5l2.995 2.995z" id="path-1" class="cls-2" fill-rule="evenodd"/></symbol><symbol id="ico-youtube" viewBox="0 0 42 16"><path d="M40.931 14.546c-.192.274-.783.933-1.455 1.088-1.531.294-6.013.366-10.145.366-3.028 0-7.621-.069-9.386-.217-3.442-.293-3.138-4.363-3.29-7.748 0-1.563.152-3.6.459-5.199C17.803 0 19.717.364 22.476.216c.293 0 2.448-.072 6.738-.072 6.352.072 8.345 0 10.104.291C42.001.799 41.773 4.871 41.925 8c-.081 3.685-.097 5.404-.994 6.546zM20.71 12.875h1.614v-.007H20.71v.007zm3.406-9.319a33.458 33.458 0 0 0-.033-1.057h-5.056v.039h5.056s.016.331.026.684c-.01-.351-.026-.677-.026-.677h-5.056v1.481h1.683v.039h-1.683v.007h1.683v8.757h1.614V4.072h1.759c.009 0 .015-.03.02-.07-.005.038-.011.063-.02.063h-1.759v-.039h1.759c.026 0 .033-.188.033-.428v-.02-.022zm1.726 1.636h-1.456v.038h1.456v-.038zm2.758 0h-1.455v.038H28.6v-.038zm0 .045h-1.455v5.772c0 .144-.538.655-.918.655-.385 0-.385-.289-.385-.289V5.237h-1.456v6.283c0 .943.31 1.454 1.152 1.454.841 0 1.607-.949 1.607-.949v.038s-.766.95-1.607.95c-.842 0-1.152-.511-1.152-1.455v.008c0 .942.31 1.453 1.152 1.453.841 0 1.607-.949 1.607-.949v.832H28.6V5.237zm0 7.704h-1.455v.006H28.6v-.006zm1.303.006h1.456v-.006h-1.456v.006zm1.456-10.375h-1.456v.038h1.456v-.038zm2.834 8.986s-.158 1.455-1.075 1.455c-.918 0-1.456-.511-1.759-.871v-.04c.303.361.841.872 1.759.872.917 0 1.075-1.454 1.075-1.454V6.472c0-.946-.689-1.382-1.379-1.382-.69 0-1.455.874-1.455.874v-.006s.765-.875 1.455-.875c.69 0 1.379.436 1.379 1.382v-.038c0-.947-.689-1.383-1.379-1.383-.69 0-1.455.875-1.455.875V2.617h-1.456v10.285h1.456v-.754c.303.36.841.871 1.759.871.917 0 1.075-1.453 1.075-1.453v-.008zm3.518-6.442c-1.835 0-1.987.874-2.145 1.311 0 0-.152.435-.152.727V7.2c0-.292.152-.728.152-.728.158-.436.31-1.31 2.145-1.31 1.976 0 2.067 1.725 2.069 1.998v-.006s.076-2.038-2.069-2.038zm2.069 5.094h-1.455v.045h1.455s.006.055.012.138c-.006-.07-.012-.107-.012-.107h-1.455v.507s0 .871-.614.871-.841-.438-.841-.871V9.342h2.91v-.03h-2.91v-.046h2.91V7.23s.076-2.037-2.069-2.037c-1.835 0-1.987.874-2.145 1.31 0 0-.152.435-.152.727v3.597c.003.269.099 2.147 2.373 2.147 0 0 1.689-.145 1.917-1.454.072-.452.092-.766.094-.976v.004c.001.209-.017.534-.094 1.018-.228 1.309-1.917 1.453-1.917 1.453-2.276 0-2.371-1.882-2.373-2.148v-.002-.031.033c-.001.03-.059 2.179 2.373 2.179 0 0 1.689-.144 1.917-1.454a6.2 6.2 0 0 0 .094-1.048v-.017c.002-.223-.018-.321-.018-.321zm.017.293l.001.028v.013l-.001-.041zm-2.086 1.237c-.614 0-.841-.438-.841-.871v-.031c0 .433.227.872.841.872s.614-.872.614-.872v.031s0 .871-.614.871zM36.87 8.1h.009v-.907c0-.144.152-.8.765-.8.614 0 .69.8.69.8v.946h-.009v.007H36.87V8.1zm-4.746-1.707c.38 0 .614.292.614.8V11.054s0 .656-.614.656c0 0-.462 0-.689-.29v-.006-.039-4.69s.303-.292.689-.292zm-5.897 5.317c-.385 0-.385-.29-.385-.29v-.006s0 .289.385.289c.38 0 .918-.511.918-.655v.006c0 .144-.538.656-.918.656zm-2.111-8.148V3.562zm-.001-.035l.001.029v.006l-.001-.035zm-10.29 8.397s-.835.938-1.595.938-1.14-.434-1.14-1.155V5.142h1.444v6.133s-.077.36.456.36c0 0 .606-.145.835-.649V5.142h1.443v7.648h-1.443v-.866zm-5.762.912c-.122.016-.457.02-.559.01-.758-.081-1.23-.44-1.503-.849-.36-.541-.38-1.156-.38-1.156V7.234c0-.217.077-.721.077-.721.322-1.019 1.212-1.319 1.708-1.407.204-.037.472-.037.669-.002.492.084 1.398.378 1.725 1.409 0 0 .074.504.074.721v3.607s-.019.615-.38 1.156c-.262.396-.715.746-1.431.839zm-.314-6.54s-.76-.072-.76.938v3.607c0 .866.76.794.76.794s.683.072.683-.794V7.234s.076-.938-.683-.938zM3.57 12.718H2.051V8.605L0 2.545h1.672l1.139 3.968L3.95 2.545h1.595L3.57 8.605v4.113z" class="cls-2" fill-rule="evenodd"/></symbol><symbol id="ico-zoom-close" viewBox="0 0 35 34.905"><path fill="#252525" d="M35 33.877c0 .568-.472 1.028-1.055 1.028H1.055c-.583 0-1.055-.46-1.055-1.028V1.028C0 .46.472 0 1.055 0h32.891C34.528 0 35 .46 35 1.028v32.849z"/><g fill="none" stroke="#FFF" stroke-width="2" stroke-miterlimit="10"><path d="M24.251 10.935L10.746 24.12M10.94 10.776l13.143 13.462"/></g></symbol><symbol id="ico-zoom-in" viewBox="0 0 35 34.905"><path fill="#252525" d="M35 33.877c0 .568-.472 1.028-1.055 1.028H1.055c-.583 0-1.055-.46-1.055-1.028V1.028C0 .46.472 0 1.055 0h32.891C34.528 0 35 .46 35 1.028v32.849z"/><g fill="none" stroke="#FFF" stroke-width="2" stroke-miterlimit="10"><path d="M17.5 8.086v18.875M8.088 17.5h18.813"/></g></symbol><symbol id="ico-zoom-out" viewBox="0 0 35 34.905"><path fill="#252525" d="M35 33.877c0 .568-.472 1.028-1.055 1.028H1.055c-.583 0-1.055-.46-1.055-1.028V1.028C0 .46.472 0 1.055 0h32.891C34.528 0 35 .46 35 1.028v32.849z"/><path fill="none" stroke="#FFF" stroke-width="2" stroke-miterlimit="10" d="M8.088 17.5h18.813"/></symbol><symbol id="icon-awards" viewBox="0 0 71 106"><path class="cls-1" d="M35.5 70.667A35.334 35.334 0 1 1 71 35.333a35.418 35.418 0 0 1-35.5 35.334zm0-61.832a26.5 26.5 0 1 0 26.624 26.5A26.561 26.561 0 0 0 35.5 8.835zm-2.878 70.521L17.75 106l-4.438-13.249L0 97.166l13.218-23.68a44.193 44.193 0 0 0 19.404 5.87zM71 97.166l-13.312-4.415L53.25 106 38.378 79.356a44.193 44.193 0 0 0 19.4-5.87z"/></symbol><symbol id="icon-hamburger" viewBox="0 0 26 17"><path d="M0 17v-3h26v3H0zM0 7h26v3H0V7zm0-7h26v3H0V0z" class="cls-2" fill-rule="evenodd"/></symbol><symbol id="icon-headphones" viewBox="0 0 46.08 45.32"><title>icon-headphones</title><g id="_Group_" data-name="&lt;Group&gt;"><path id="_Path_" data-name="&lt;Path&gt;" class="cls-1" d="M167 147.84c0-16.59-8.61-26.5-23-26.5s-23 9.91-23 26.5a24.49 24.49 0 0 0 2.56 11.76c2.66 4.39 4.76 6.93 10.25 7a.55.55 0 0 0 .66-.66v-13.09a.55.55 0 0 0-.65-.66c-3.8.08-5.46 1.79-6.95 4.37a21.87 21.87 0 0 1-1.57-8.72c0-8.3 2.44-22.23 18.78-22.23s18.77 13.93 18.77 22.23a21.85 21.85 0 0 1-1.56 8.72c-1.49-2.57-3.15-4.28-6.95-4.37a.55.55 0 0 0-.65.66V166a.55.55 0 0 0 .66.66c5.49-.09 7.58-2.63 10.25-7a24.46 24.46 0 0 0 2.4-11.82z" transform="translate(-120.94 -121.34)"/><path id="_Path_2" data-name="&lt;Path&gt;" class="cls-1" d="M154.24 152.19z" transform="translate(-120.94 -121.34)"/><path id="_Path_3" data-name="&lt;Path&gt;" class="cls-1" d="M12.78 30.85h.01-.01z"/></g></symbol><symbol id="icon-info" viewBox="0 0 4 16"><path d="M0 16V6h4v10H0zM2 4A2 2 0 1 1 1.999.001 2 2 0 0 1 2 4z" class="cls-1"/></symbol><symbol id="icon-left-arrow" viewBox="0 0 18 32"><path d="M18.015 29.92l-2.095 2.096L-.015 16.08l.08-.08-.08-.08L15.92-.015l2.095 2.095L4.095 16l13.92 13.92z" class="cls-1"/></symbol><symbol id="icon-metlogo-print" viewBox="0 0 94 94"><path id="_-------" data-name="-------" class="cls-1" d="M120 170.011l1.989 1.989-1.989 1.989-1.989-1.989zm5 0l2 1.989-2 1.989-2-1.989zm4.986 0l2 1.989-2 1.989-2-1.989zm5.011 0l1.992 1.989-1.989 1.989-1.989-1.989zm5 0l2.011 1.989-2.008 1.989-2-1.989zm4.986 0l2 1.989-2 1.989-2-1.989zm5.011 0l1.995 1.989-1.989 1.989-1.989-1.989zm5 0l2.014 1.989-2.008 1.989-2-1.989zm4.986 0l2 1.989-2 1.989-2-1.989zm5.011 0l1.998 1.989-1.989 1.989-1.989-1.989zm5 0l2.017 1.989-2.008 1.989-2-1.989zm4.986 0l2 1.989-2 1.989-2-1.989zm5.011 0l2.001 1.989-1.989 1.989-1.989-1.989zm5 0l2.02 1.989-2.008 1.989-2-1.989zm4.986 0l2 1.989-2 1.989-2-1.989zm5.011 0l2.004 1.989-1.989 1.989-1.989-1.989zm5 0l2.023 1.989-2.008 1.989-2-1.989zm4.986 0l2 1.989-2 1.989-2-1.989zm5.011 0l2.007 1.989-1.989 1.989-1.989-1.989z" transform="translate(-118 -80)"/><path id="MET_Logo" data-name="MET Logo" class="cls-1" d="M198.6 122.008h-43.67c-2.543 0-5.089 1.3-6.024 3.476l-8.794 20.375-9.167-20.19c-1.085-2.366-3.406-3.661-6.773-3.661H118v1.147c2.844 0 4.977 1.072 5.987 3.438v25.737c0 3.477-2.62 5.511-5.987 5.511v1.146h13.472v-1.146c-3.369 0-5.988-2.034-5.988-5.511v-22.814l11.716 25.772h.6l11.788-27.327.039 24.369c0 3.477-2.7 5.511-6.062 5.511v1.146h30.422l1.572-11.685h-.862c-2.019 5.437-6.436 10.17-12.834 10.17h-5.8v-16.346c5.914 0 8.644 2.442 9.842 8.025h.936l-2.178-17.751h-.934c0 5.695-1.872 8.026-7.673 8.026v-15.9h3.368c7 0 9.879 3.957 10.7 10.169h1.01c.711-5.991 3.218-10.058 9.805-10.058v35.351H193.4v-1.146c-3.4 0-6.062-2-6.062-5.511v-28.843c5.875 0 10.1 5.695 11.789 10.206h.86zm-1.449-16.694c-2.023 5.441-6.445 10.178-12.852 10.178h-5.808V99.133c5.92 0 8.656 2.443 9.854 8.032h.937L187.113 89.4h-.937c0 5.7-1.874 8.032-7.682 8.032V81.517h4.306c6.407 0 10.828 4.736 12.852 10.178h.861L194.943 80h-27.914v1.147c3.3 0 5.057 1.814 5.057 5.107v11.177H157.81V86.253c0-3.293 1.724-5.107 5.06-5.107V80h-41.292L120 91.695h.712c1.688-4.516 7.088-10.178 12.518-10.215v28.867c0 3.517-2.661 5.515-6.07 5.515v1.147h12.478V81.48c6.932 0 11.766 1.776 11.766 9.437v19.43c0 3.48-2.7 5.515-6.071 5.515v1.147h17.537v-1.147c-3.411 0-5.06-1.666-5.06-5.107V99.208h14.276v11.547c0 3.441-1.611 5.107-5.057 5.107v1.147h29.414l1.573-11.7h-.862z" transform="translate(-118 -80)"/></symbol><symbol id="icon-metlogo" viewBox="0 0 40 40"><path d="M39.738 27.458c-.209-.562-.5-1.162-.874-1.798a9.536 9.536 0 0 0-1.335-1.76 7.406 7.406 0 0 0-1.72-1.338 4.092 4.092 0 0 0-2.034-.532v14.871c0 .44.076.828.23 1.165.153.336.365.62.635.852.269.232.586.41.948.532.362.122.751.183 1.168.183V40h-6.129V22.213c-.81 0-1.503.129-2.08.386a4.14 4.14 0 0 0-1.463 1.072 5.163 5.163 0 0 0-.948 1.65 11.43 11.43 0 0 0-.534 2.137h-.258a11.07 11.07 0 0 0-.543-2.118 5.233 5.233 0 0 0-.975-1.66 4.163 4.163 0 0 0-1.537-1.081c-.614-.257-1.35-.386-2.209-.386h-1.362v8.252c.711 0 1.316-.082 1.813-.248.497-.165.902-.418 1.215-.761.313-.342.54-.773.681-1.292.141-.52.212-1.134.212-1.843h.294l1.068 8.801h-.295c-.294-1.393-.835-2.432-1.62-3.117-.785-.685-1.908-1.027-3.368-1.027v8.472h2.19c.785 0 1.509-.147 2.172-.44a6.602 6.602 0 0 0 1.795-1.174 8.028 8.028 0 0 0 1.39-1.677c.392-.63.711-1.281.957-1.953h.258L26.706 40H12.57v-.367c.417 0 .807-.061 1.169-.183s.678-.3.948-.532c.269-.232.481-.519.635-.862.153-.342.23-.727.23-1.155l-.019-12.285-5.798 13.55h-.221L3.643 25.312v11.589c0 .428.076.813.23 1.155.153.343.365.63.635.862.269.232.585.41.948.532.361.122.751.183 1.168.183V40H-.002v-.367c.417 0 .807-.061 1.169-.183s.678-.3.948-.532c.27-.232.481-.519.635-.862.153-.342.23-.727.23-1.155V23.937a3.032 3.032 0 0 0-1.15-1.394c-.522-.342-1.132-.513-1.832-.513v-.367h3.074c.761 0 1.408.12 1.942.358s.96.712 1.279 1.421l4.713 10.323 4.509-10.543c.233-.55.62-.947 1.16-1.192a4.067 4.067 0 0 1 1.693-.367h20.947l.681 5.795h-.258zm-15.931-9.121v-.367c.847 0 1.473-.193 1.878-.577.405-.386.607-1.006.607-1.862v-6.18h-6.81v6.18c0 .856.202 1.476.607 1.862.405.384 1.031.577 1.878.577v.367h-8.615v-.367c.417 0 .807-.061 1.169-.183s.678-.3.948-.532c.27-.232.482-.52.635-.862.153-.342.23-.727.23-1.155V5.501c0-.953-.135-1.757-.405-2.411-.27-.654-.653-1.183-1.15-1.586-.497-.404-1.095-.694-1.795-.872-.699-.177-1.479-.265-2.338-.265v17.97H4.517v-.367c.417 0 .807-.061 1.169-.183s.678-.3.948-.532c.27-.232.481-.517.635-.853.153-.336.23-.724.23-1.164V.367c-.663 0-1.323.18-1.979.541-.656.36-1.261.81-1.813 1.348a10.97 10.97 0 0 0-1.463 1.751c-.424.629-.74 1.225-.948 1.787h-.258L1.811 0h20.156v.367c-1.657 0-2.485.813-2.485 2.439v5.996h6.81V2.806c0-.819-.211-1.431-.635-1.834-.423-.404-1.04-.605-1.85-.605V0h13.64l.773 5.794h-.258a10.466 10.466 0 0 0-.957-1.952 8.008 8.008 0 0 0-1.39-1.678A6.574 6.574 0 0 0 33.821.99a5.314 5.314 0 0 0-2.173-.439H29.44v8.251c1.497 0 2.595-.315 3.294-.945.7-.629 1.043-1.696 1.031-3.199h.295l1.178 8.801h-.295c-.147-.696-.386-1.305-.717-1.824a4.698 4.698 0 0 0-1.206-1.293 5.077 5.077 0 0 0-1.62-.77 7.205 7.205 0 0 0-1.96-.257v8.472h2.945c.785 0 1.509-.147 2.172-.441a6.591 6.591 0 0 0 1.795-1.173 8.035 8.035 0 0 0 1.389-1.678c.393-.629.712-1.281.957-1.952h.258l-.773 5.794H23.807z" class="cls-2" fill-rule="evenodd"/></symbol><symbol id="icon-redirect" viewBox="0 0 11 11"><path d="M6 11V6h5v5H6zM6 0h5v5H6V0zM0 6h5v5H0V6zm0-6h5v5H0V0z" class="cls-1"/></symbol><symbol id="icon-right-arrow" viewBox="0 0 18 32"><path d="M18.015 16.08L2.08 32.016-.015 29.92 13.905 16-.015 2.08 2.08-.015 18.015 15.92l-.08.08.08.08z" class="cls-1"/></symbol><symbol id="icon-search" viewBox="0 0 21 21"><path d="M20.657 19.243l-1.414 1.414-6.343-6.343A7.957 7.957 0 0 1 8 16a8 8 0 1 1 8-8 7.957 7.957 0 0 1-1.686 4.9l6.343 6.343zM8 2a6 6 0 1 0 0 12A6 6 0 0 0 8 2z" class="cls-2" fill-rule="evenodd"/></symbol><symbol id="open-access" viewBox="0 0 108 108"><path d="M37.7 70.3c-9.2 0-15.6-7-15.6-16.5 0-9.6 6.4-16.5 15.6-16.5 9.3 0 15.7 6.9 15.7 16.5 0 9.5-6.4 16.5-15.7 16.5zm0-25.7c-4.3 0-7.2 3.7-7.2 9.2 0 5.5 2.9 9.2 7.2 9.2 4.3 0 7.3-3.7 7.3-9.2 0-5.6-2.9-9.2-7.3-9.2z"/><path class="st0" d="M73.9 37.8l12.2 32h-8.5l-2.3-6.2H63.7l-2.2 6.2h-8.3l12.2-32h8.5zm-7.7 18.9h6.6l-3.3-9-3.3 9z"/><g><path d="M98 10v88H10V10h88m10-10H0v108h108V0z"/></g></symbol><symbol id="RadioIcon-Checked" viewBox="0 0 43 42"><g fill="#fff" transform="translate(-138 -4210)"><use xlink:href="#a"/><use fill-opacity="0" stroke="#b7b7b7" stroke-miterlimit="50" stroke-width="2" clip-path="url(&quot;#b&quot;)" xlink:href="#a"/></g><use fill="#000006" xlink:href="#c" transform="translate(-138 -4210)"/></symbol><symbol id="RadioIcon" viewBox="0 0 43 42"><g transform="translate(-138 -4210)" fill="#fff"><use xlink:href="#a"/><use fill-opacity="0" stroke="#b7b7b7" stroke-miterlimit="50" stroke-width="2" clip-path="url(&quot;#b&quot;)" xlink:href="#a"/></g></symbol><symbol id="Searchbar_X" viewBox="0 0 17 17"><path id="Searchbar_X.svg" class="cls-1" d="M1072.62 268.5l6.38 6.375-2.12 2.125-6.38-6.375-6.38 6.375-2.12-2.125 6.38-6.375-6.38-6.375 2.12-2.125 6.38 6.375 6.38-6.375 2.12 2.125-6.38 6.375z" transform="translate(-1062 -260)"/></symbol><symbol id="Search_Arrow" viewBox="0 0 17 17"><style>.st2{fill:#fff}</style><path id="Search_Arrow.svg" class="st0" d="M8.2 17L6 14.9l5.1-4.9H0V7h11.1L6 2.1 8.2 0l6.6 6.4L17 8.5 8.2 17z"/></symbol><symbol id="Tag_smallX" viewBox="0 0 11 11"><path id="Small_closeX.svg" class="cls-1" d="M711.625 736.5l3.375 3.375-2.125 2.125-3.375-3.375-3.375 3.375-2.125-2.125 3.375-3.375-3.375-3.375 2.125-2.125 3.375 3.375 3.375-3.375 2.125 2.125-3.375 3.375z" transform="translate(-704 -731)"/></symbol><symbol id="ui-checkbox-off" viewBox="0 0 31 31"><path class="cls-1" d="M.5.5h30v30H.5z"/></symbol><symbol id="ui-checkbox-on" viewBox="0 0 31 31"><path class="cls-1" d="M.5.5h30v30H.5z"/><path d="M23.997 9.957L13.954 20l.043.043-1.454 1.454-.043-.043-.043.043-1.454-1.454.043-.043-5.043-5.043 1.454-1.454 5.043 5.043L22.543 8.503l1.454 1.454z" class="cls-2"/></symbol><symbol id="ui-down-arrow" viewBox="0 0 10 5"><path d="M0 0h10L5 4.999 0 0z" class="cls-2"/></symbol><symbol id="ui-left-arrow" viewBox="0 0 5 10"><path d="M5 10V0L0 4.999 5 10z" class="cls-1"/></symbol><symbol id="ui-radio-off" viewBox="0 0 31 31"><circle cx="15.5" cy="15.5" r="15" class="cls-1"/></symbol><symbol id="ui-radio-on" viewBox="0 0 31 31"><circle cx="15.5" cy="15.5" r="15" class="cls-1"/><circle cx="15.5" cy="15.5" r="7" class="cls-2"/></symbol><symbol id="ui-right-arrow" viewBox="0 0 5 10"><path d="M0 10V0l5 4.999L0 10z" class="cls-1"/></symbol></svg>