<svg id="Layer_5" data-name="Layer 5" xmlns="http://www.w3.org/2000/svg" viewBox="0 0 88 88"><title>feat-company-bg5</title><path d="M87.28,36.61H81A36.81,36.81,0,0,0,77,27l4.48-4.48a1.73,1.73,0,0,0,0-2.44L70.77,9.43a1.74,1.74,0,0,0-2.44,0l-4.48,4.48a36.81,36.81,0,0,0-9.57-4V3.61a1.72,1.72,0,0,0-1.72-1.72H37.44a1.72,1.72,0,0,0-1.72,1.72V9.93a36.74,36.74,0,0,0-9.59,4L21.67,9.43a1.74,1.74,0,0,0-2.44,0L8.54,20.12a1.73,1.73,0,0,0,0,2.44L13,27a37,37,0,0,0-4,9.6H2.72A1.72,1.72,0,0,0,1,38.33V88.17a1.72,1.72,0,0,0,1.72,1.72H52.56a1.72,1.72,0,0,0,1.72-1.72V81.88a37,37,0,0,0,9.6-4l4.45,4.45a1.74,1.74,0,0,0,2.44,0L81.46,71.66a1.73,1.73,0,0,0,0-2.44L77,64.76a36.74,36.74,0,0,0,4-9.59h6.32A1.72,1.72,0,0,0,89,53.45V38.33a1.72,1.72,0,0,0-1.72-1.72ZM37.44,86.45h-33V52h8.17v16.7a1.72,1.72,0,0,0,2.94,1.21l8.18-8.22,8.18,8.22a1.68,1.68,0,0,0,1.88.37,1.71,1.71,0,0,0,1.06-1.58V52H43V86.45ZM31.41,52V64.55L25,58.05a1.74,1.74,0,0,0-1.22-.5,1.72,1.72,0,0,0-1.22.5l-6.46,6.5V52Zm5-6.12a8.59,8.59,0,1,1,10.05,8.47V50.29a1.72,1.72,0,0,0-1.72-1.72H36.83a8.63,8.63,0,0,1-.42-2.68Zm49.15,5.84h-6a1.72,1.72,0,0,0-1.68,1.36,33.39,33.39,0,0,1-4.55,11,1.72,1.72,0,0,0,.23,2.14l4.21,4.21L69.55,78.7l-4.2-4.2a1.74,1.74,0,0,0-2.15-.23,33.22,33.22,0,0,1-11,4.57,1.74,1.74,0,0,0-1.36,1.68v5.93H46.46V71.23A25.41,25.41,0,0,0,70.38,45.89a25.14,25.14,0,0,0-5.25-15.47,25.67,25.67,0,0,0-13.27-9,1.72,1.72,0,0,0-.93,3.31,22,22,0,0,1-4.47,43v-10a12,12,0,1,0-13.19-9.26H23.22A21.89,21.89,0,0,1,38.41,25a1.72,1.72,0,0,0-1-3.28,25.6,25.6,0,0,0-12.74,9.06,25.16,25.16,0,0,0-5,15.16,26.73,26.73,0,0,0,.14,2.68H4.44V40.05h5.93a1.74,1.74,0,0,0,1.68-1.36,33.22,33.22,0,0,1,4.57-11,1.74,1.74,0,0,0-.23-2.15l-4.2-4.2,8.26-8.26,4.21,4.21a1.72,1.72,0,0,0,2.14.23A33.39,33.39,0,0,1,37.8,13a1.72,1.72,0,0,0,1.36-1.68v-6H50.84v6A1.72,1.72,0,0,0,52.2,13a33.5,33.5,0,0,1,11,4.55,1.71,1.71,0,0,0,2.14-.23l4.23-4.22,8.26,8.26-4.22,4.23a1.71,1.71,0,0,0-.23,2.14,33.5,33.5,0,0,1,4.55,11,1.72,1.72,0,0,0,1.68,1.36h6Zm0,0" transform="translate(-1 -1.89)"/><path d="M45.06,20.51H45a1.72,1.72,0,1,0,0,3.43h.06a1.72,1.72,0,1,0,0-3.43Zm0,0" transform="translate(-1 -1.89)"/><path d="M37.28,72.47H28.34a1.72,1.72,0,0,0,0,3.44h8.94a1.72,1.72,0,0,0,0-3.44Zm0,0" transform="translate(-1 -1.89)"/><path d="M37.28,79.12H23.73a1.72,1.72,0,0,0,0,3.44H37.28a1.72,1.72,0,0,0,0-3.44Zm0,0" transform="translate(-1 -1.89)"/><path d="M15.85,79.12a1.72,1.72,0,0,0-1.21.5,1.74,1.74,0,0,0-.5,1.22,1.72,1.72,0,0,0,3.43,0,1.74,1.74,0,0,0-.5-1.22,1.72,1.72,0,0,0-1.22-.5Zm0,0" transform="translate(-1 -1.89)"/></svg>