<svg id="Layer_1" data-name="Layer 1" xmlns="http://www.w3.org/2000/svg" xmlns:xlink="http://www.w3.org/1999/xlink" viewBox="0 0 396.8 396.88"><defs><style>.cls-1{fill:none;}.cls-2{fill:#ff8005;}.cls-3{clip-path:url(#clip-path);}</style><clipPath id="clip-path" transform="translate(0 -0.01)"><rect class="cls-1" y="-0.16" width="396.96" height="397.92"/></clipPath></defs><title>feat-company-bg</title><path class="cls-2" d="M198.4,249.6a44.8,44.8,0,1,0,44.8,44.8,44.8,44.8,0,0,0-44.8-44.8Zm0,76.8a32,32,0,1,1,32-32A32,32,0,0,1,198.4,326.4Z" transform="translate(0 -0.01)"/><rect class="cls-2" x="25.6" y="204.79" width="38.4" height="12.8"/><rect class="cls-2" x="25.6" y="230.4" width="38.4" height="12.8"/><rect class="cls-2" x="332.8" y="204.79" width="38.4" height="12.8"/><g class="cls-3"><rect class="cls-2" x="332.8" y="230.4" width="38.4" height="12.8"/><path class="cls-2" d="M358.4,115.2H275.05a82.78,82.78,0,0,0,6.14-25.6H364.8a32,32,0,1,0,0-64H258.3c-.74-.77-1.42-1.59-2.2-2.35a82.46,82.46,0,0,0-116.6,1.83l-.5.52H56.44L10.15,43a15.64,15.64,0,0,0,0,29.28l46.3,17.36h59.14a82.57,82.57,0,0,0,6.19,25.6H38.4v64H0v89.6H89.6v-89.6H51.2V128H128v-.86a83.13,83.13,0,0,0,25.6,26.09V160H140.8v12.8h12.8v12.8H140.8v12.8h13.31a44.6,44.6,0,0,0,7,18.36l-17.78-12.08-34.64,34.64,14,20.65c-.8,1.74-1.54,3.51-2.2,5.27L96,270v49l24.51,4.67c.66,1.76,1.4,3.53,2.2,5.27l-14,20.65,34.64,34.64,20.65-14q2.63,1.21,5.27,2.21l4.67,24.5h49l4.68-24.5c1.75-.67,3.51-1.4,5.27-2.21l20.65,14,34.64-34.64-14-20.65c.8-1.74,1.54-3.51,2.21-5.27l24.5-4.67V270l-24.5-4.67c-.67-1.76-1.41-3.53-2.21-5.27l14-20.65-34.64-34.64-17.84,12a44.56,44.56,0,0,0,7-18.35H256V185.6H243.2V172.81H256V160H243.2v-6.78a83.08,83.08,0,0,0,25.6-26.14V128h76.8v51.2H307.2v89.6h89.6V179.2H358.4ZM51.2,74,14.64,60.25a2.84,2.84,0,0,1,0-5.32L51.2,41.22ZM76.8,192v64h-64V192ZM307.2,76.75H281.28a81.53,81.53,0,0,0-2-12.8h27.9Zm38.4-38.4h19.2a19.2,19.2,0,0,1,0,38.4H345.6Zm-25.6,0h12.8v38.4H320Zm-12.8,0v12.8h-32a82.44,82.44,0,0,0-6.78-12.8ZM115.55,76.75H64V64h53.58a78,78,0,0,0-2,12.8Zm6-25v-.63H64V38.32h64.76a83.56,83.56,0,0,0-7.16,13.43ZM251.93,221.22l19.66,19.66L259.29,259l1.74,3.37a70.71,70.71,0,0,1,4.36,10.45l1.16,3.61L288,280.49v27.82l-21.45,4.09L265.39,316A70.41,70.41,0,0,1,261,326.46l-1.74,3.37L271.59,348l-19.67,19.67-18.09-12.3-3.38,1.73A71.7,71.7,0,0,1,220,361.39l-3.61,1.17L212.31,384H184.5l-4.09-21.45-3.61-1.17A69.22,69.22,0,0,1,166.35,357L163,355.28l-18.09,12.3L125.21,348l12.3-18.1-1.73-3.37A71.85,71.85,0,0,1,131.41,316l-1.16-3.61-21.45-4.08V280.49l21.45-4.09,1.17-3.61a70.71,70.71,0,0,1,4.36-10.45l1.74-3.37-12.3-18.09,19.67-19.66L163,233.51l3.38-1.73a69.69,69.69,0,0,1,6.61-2.95,44.58,44.58,0,0,0,50.88,0c2.19.86,4.4,1.82,6.61,2.95l3.37,1.73ZM230.4,172.8v12.8h-64V172.8ZM204.8,160H192m37.76,38.4a32,32,0,0,1-62.71,0ZM179.2,160H166.4V146l-3.19-1.85A70.47,70.47,0,0,1,128,81.55c.84-36.49,31.17-67.31,67.62-68.69.93,0,1.85-.06,2.78-.06a70.38,70.38,0,0,1,70.38,70.4h0a70.65,70.65,0,0,1-35.2,60.9h0L230.4,146V160H217.6M384,192v64H320V192Z" transform="translate(0 -0.01)"/></g></svg>