<svg id="Layer_3" data-name="Layer 3" xmlns="http://www.w3.org/2000/svg" viewBox="0 0 80 80"><title>feat-company-bg3</title><path d="M84.24,48.32l-11.11-6.6V34.14a1.56,1.56,0,0,0-1.57-1.56H66.88A28.68,28.68,0,0,0,64,25.5l3.31-3.31a1.56,1.56,0,0,0,0-2.21L59,11.76a1.56,1.56,0,0,0-2.21,0l-3.32,3.31a28.8,28.8,0,0,0-7.07-2.94V7.45a1.56,1.56,0,0,0-1.56-1.56H33.25a1.56,1.56,0,0,0-1.56,1.56v4.68a28,28,0,0,0-7.09,2.93l-3.3-3.3a1.56,1.56,0,0,0-2.21,0L10.87,20a1.56,1.56,0,0,0,0,2.21l3.29,3.29a28.65,28.65,0,0,0-2.95,7.1H6.56A1.56,1.56,0,0,0,5,34.14V45.77a1.56,1.56,0,0,0,1.56,1.56H11.2a28.72,28.72,0,0,0,3,7.11l-3.28,3.28a1.56,1.56,0,0,0,0,2.21l8.22,8.22a1.56,1.56,0,0,0,2.21,0l3.28-3.28a28.17,28.17,0,0,0,7.11,2.94v4.64A1.56,1.56,0,0,0,33.25,74H44.88a1.56,1.56,0,0,0,1.56-1.57V70.71a29.48,29.48,0,0,0,17.3,15.1,1.62,1.62,0,0,0,.49.08,1.67,1.67,0,0,0,.49-.08A29.49,29.49,0,0,0,85,57.76V49.67a1.57,1.57,0,0,0-.76-1.35ZM43.31,66.57v4.32h-8.5V66.58a1.57,1.57,0,0,0-1.23-1.53,25.12,25.12,0,0,1-8.39-3.47,1.56,1.56,0,0,0-2,.21l-3,3-6-6,3.05-3a1.57,1.57,0,0,0,.21-2A25.4,25.4,0,0,1,14,45.43a1.56,1.56,0,0,0-1.53-1.23H8.13V35.7h4.31A1.56,1.56,0,0,0,14,34.47a25.47,25.47,0,0,1,3.48-8.38,1.56,1.56,0,0,0-.21-1.95l-3.06-3.06,6-6,3.07,3.07a1.57,1.57,0,0,0,1.95.21,25.52,25.52,0,0,1,8.37-3.47,1.55,1.55,0,0,0,1.23-1.52V9h8.5v4.35a1.56,1.56,0,0,0,1.23,1.53,25.52,25.52,0,0,1,8.37,3.47,1.55,1.55,0,0,0,1.94-.21l3.08-3.08,6,6-3.07,3.08a1.56,1.56,0,0,0-.21,1.95,25.45,25.45,0,0,1,3.46,8.36,1.57,1.57,0,0,0,1.53,1.23H70v4.16l-5-3a1.58,1.58,0,0,0-1.6,0l-5.65,3.35c0-.1,0-.2,0-.31A18.73,18.73,0,1,0,39.06,58.68a18.53,18.53,0,0,0,4.4-.53,29.54,29.54,0,0,0,.92,6.94,1.58,1.58,0,0,0-1.07,1.48Zm.91-18.25a1.57,1.57,0,0,0-.76,1.35v5.25a15.6,15.6,0,1,1,11.2-15,17.2,17.2,0,0,1-.16,2.27Zm37.66,9.44A26.37,26.37,0,0,1,64.23,82.68,26.37,26.37,0,0,1,46.58,57.76V50.55L64.23,40.07,81.88,50.55Zm0,0" transform="translate(-5 -5.89)"/><path d="M63.43,44.18l-13,7.7a1.56,1.56,0,0,0-.76,1.34v4.54A23.28,23.28,0,0,0,63.6,79.07a1.51,1.51,0,0,0,.63.13,1.55,1.55,0,0,0,.63-.13A23.28,23.28,0,0,0,78.75,57.76V53.22A1.56,1.56,0,0,0,78,51.88l-13-7.7a1.58,1.58,0,0,0-1.6,0Zm12.2,9.93v3.65a20.17,20.17,0,0,1-11.4,18.16,20.15,20.15,0,0,1-11.4-18.16V54.11l11.4-6.77Zm0,0" transform="translate(-5 -5.89)"/><path d="M62.3,60.48a1.56,1.56,0,1,0-2.21,2.21l2.55,2.54a1.52,1.52,0,0,0,1.1.46,1.56,1.56,0,0,0,1.11-.46L71,59a1.56,1.56,0,0,0-2.21-2.21l-5.09,5.09Zm0,0" transform="translate(-5 -5.89)"/></svg>