<svg id="Layer_4" data-name="Layer 4" xmlns="http://www.w3.org/2000/svg" xmlns:xlink="http://www.w3.org/1999/xlink" viewBox="0 0 88 87.99"><defs><style>.cls-1{fill:none;}.cls-2{clip-path:url(#clip-path);}</style><clipPath id="clip-path" transform="translate(-1 -3.89)"><rect class="cls-1" x="1" y="3.89" width="88" height="88"/></clipPath></defs><title>feat-company-bg4</title><g class="cls-2"><path d="M81.11,31.18a7.6,7.6,0,0,0,1.36-4.33V24.61A1.71,1.71,0,0,0,83.6,23v-.54a8.7,8.7,0,0,0-17.39,0V23a1.73,1.73,0,0,0,1.13,1.61v2.24a7.53,7.53,0,0,0,1.37,4.33,9.9,9.9,0,0,0-7.88,9.07h-10A1.71,1.71,0,0,0,49.13,42V52.62h-7V42a1.72,1.72,0,0,0-1.72-1.72H28.06A1.72,1.72,0,0,0,26.34,42V52.62H20.15V29.69l12-12,8,8A5.21,5.21,0,0,0,42.34,27v2.9l-3.6,3.6a1.72,1.72,0,0,0-.5,1.21v3.18a1.72,1.72,0,0,0,3.44,0V35.45l2.37-2.37,2.38,2.37v2.21a1.72,1.72,0,0,0,3.44,0V34.74a1.72,1.72,0,0,0-.5-1.21l-3.6-3.6v-3a5.4,5.4,0,0,0,1.86-1.2,5.31,5.31,0,0,0,0-7.5L35.16,5.73h0a6.34,6.34,0,0,0-8.94,0L11,21A7.68,7.68,0,0,0,4.79,28.5v8.9a1.72,1.72,0,1,0,3.43,0V34.9a7.7,7.7,0,0,0,8.5,0V53.24l-.25.11a11.34,11.34,0,0,0-4-.73,11.57,11.57,0,0,0-4.25.82V50.12a1.72,1.72,0,1,0-3.43,0v5.47A11.41,11.41,0,0,0,1,64.09V90.17a1.72,1.72,0,0,0,1.72,1.71H81.09a1.72,1.72,0,0,0,1.72-1.71V61.49A6.64,6.64,0,0,0,89,54.87v-14a9.89,9.89,0,0,0-7.89-9.67ZM74.81,31a4.12,4.12,0,0,1-4-4.12V24.72H79v2.13A4.12,4.12,0,0,1,75,31ZM80,21.28h-3.4V17.5A5.28,5.28,0,0,1,80,21.28ZM73.19,17.5v3.78h-3.4a5.28,5.28,0,0,1,3.4-3.78ZM72,56.06a4.3,4.3,0,0,1,0,8.6H19.73a4.3,4.3,0,0,1,0-8.6Zm-1.54,12H72A8,8,0,0,0,73.19,68V88.45H70.44ZM12.09,61.55a7.7,7.7,0,0,0,2,4.12,2.41,2.41,0,0,1-4.06-1.75,2.4,2.4,0,0,1,2-2.37ZM52.56,43.69H61.5v8.93H52.56Zm-22.78,0h8.94v8.93H29.78Zm-3.54-29a6.24,6.24,0,0,0,2.54,1.54l-9.26,9.26a7.74,7.74,0,0,0-4.11-4.06l9.29-9.28a6.17,6.17,0,0,0,1.54,2.54ZM45.75,22a1.87,1.87,0,0,1-3.19,1.32l-8-8,.6-.6a6.22,6.22,0,0,0,1.55-2.53l8.49,8.49A1.86,1.86,0,0,1,45.75,22Zm-13-13.79a2.86,2.86,0,0,1,.85,2,2.89,2.89,0,0,1-.71,1.89l-.14.12a2.87,2.87,0,1,1-4.06-4.06.27.27,0,0,0,.07-.08,2.9,2.9,0,0,1,4,.09ZM12.47,32.74a4.25,4.25,0,1,1,4.25-4.24,4.25,4.25,0,0,1-4.25,4.24Zm-8,31.35a8,8,0,0,1,8-8c.27,0,.54,0,.81,0a7.83,7.83,0,0,0-.94,2A5.84,5.84,0,1,0,17,67.6a7.72,7.72,0,0,0,2.72.49h.77V88.45H4.44ZM67,88.45H23.94V76.34H44.05a1.72,1.72,0,1,0,0-3.43H23.94V68.09H67Zm9.63,0V66.54a7.76,7.76,0,0,0,2.74-3.9V88.45Zm8.93-33.58A3.21,3.21,0,0,1,82.81,58V43.43a1.72,1.72,0,0,0-3.44,0V58.08A7.74,7.74,0,0,0,72,52.62H70.44V43.43a1.72,1.72,0,0,0-3.44,0v9.19H64.94V42a1.72,1.72,0,0,0-.68-1.37,6.44,6.44,0,0,1,6.43-6.19h8.43a6.45,6.45,0,0,1,6.44,6.44Zm0,0" transform="translate(-1 -3.89)"/></g><path d="M6.5,46a1.72,1.72,0,1,0-1.21-.5A1.72,1.72,0,0,0,6.5,46Zm0,0" transform="translate(-1 -3.89)"/><path d="M12.47,26.78a1.71,1.71,0,0,0-1.72,1.72,1.72,1.72,0,0,0,.5,1.21,1.75,1.75,0,0,0,1.22.51,1.74,1.74,0,0,0,1.72-1.72,1.75,1.75,0,0,0-.51-1.22,1.72,1.72,0,0,0-1.21-.5Zm0,0" transform="translate(-1 -3.89)"/><path d="M29.48,11.41a1.76,1.76,0,0,0,1.22.5,1.74,1.74,0,0,0,1.22-.5,1.73,1.73,0,0,0,0-2.43,1.75,1.75,0,0,0-1.22-.51,1.73,1.73,0,0,0-1.22,2.94Zm0,0" transform="translate(-1 -3.89)"/><path d="M35.72,58.64A1.71,1.71,0,0,0,34,60.36a1.72,1.72,0,0,0,.5,1.21,1.75,1.75,0,0,0,1.22.51,1.74,1.74,0,0,0,1.72-1.72,1.75,1.75,0,0,0-.51-1.22,1.72,1.72,0,0,0-1.21-.5Zm0,0" transform="translate(-1 -3.89)"/><path d="M24.72,58.64A1.71,1.71,0,0,0,23,60.36a1.72,1.72,0,0,0,3.44,0,1.75,1.75,0,0,0-.51-1.22,1.72,1.72,0,0,0-1.21-.5Zm0,0" transform="translate(-1 -3.89)"/><path d="M68.72,62.08a1.74,1.74,0,0,0,1.72-1.72,1.75,1.75,0,0,0-.51-1.22,1.72,1.72,0,0,0-1.21-.5A1.71,1.71,0,0,0,67,60.36a1.72,1.72,0,0,0,1.72,1.72Zm0,0" transform="translate(-1 -3.89)"/><path d="M46.72,58.64A1.71,1.71,0,0,0,45,60.36a1.72,1.72,0,0,0,.5,1.21,1.75,1.75,0,0,0,1.22.51,1.74,1.74,0,0,0,1.72-1.72,1.75,1.75,0,0,0-.51-1.22,1.72,1.72,0,0,0-1.21-.5Zm0,0" transform="translate(-1 -3.89)"/><path d="M57.72,58.64A1.71,1.71,0,0,0,56,60.36a1.72,1.72,0,0,0,.5,1.21,1.75,1.75,0,0,0,1.22.51,1.74,1.74,0,0,0,1.72-1.72,1.75,1.75,0,0,0-.51-1.22,1.72,1.72,0,0,0-1.21-.5Zm0,0" transform="translate(-1 -3.89)"/><path d="M50.65,76.34a1.71,1.71,0,1,0-1.21-.5,1.72,1.72,0,0,0,1.21.5Zm0,0" transform="translate(-1 -3.89)"/></svg>