<svg id="Layer_2" data-name="Layer 2" xmlns="http://www.w3.org/2000/svg" viewBox="0 0 80 80"><title>feat-company-bg2</title><path d="M54.58,29.64A1.56,1.56,0,1,0,53.48,27,1.59,1.59,0,0,0,53,28.08a1.57,1.57,0,0,0,1.56,1.56Zm0,0" transform="translate(-5 -5.89)"/><path d="M67.19,17.76a1.57,1.57,0,0,0,1.53-1.24H83.44A1.56,1.56,0,0,0,85,15V7.45a1.56,1.56,0,0,0-1.56-1.56H6.56A1.56,1.56,0,0,0,5,7.45V15a1.56,1.56,0,0,0,1.56,1.57H54.41a1.55,1.55,0,0,0,1.53,1.24H60V33.05l-5.17,5.17a1.58,1.58,0,0,0-.45,1.11v4.19a1.57,1.57,0,0,0,.45,1.11l1,1a1.6,1.6,0,0,0,1.11.46A1.57,1.57,0,0,0,58,43.42l-.54-.54V40l4.06-4.07L65.63,40v2.9l-.48.48a1.56,1.56,0,1,0,2.2,2.21l.94-.94a1.53,1.53,0,0,0,.46-1.11V39.33a1.55,1.55,0,0,0-.46-1.11l-5.16-5.17V29.64H75a4.7,4.7,0,0,1,4.69,4.69V74H76.56V62.3a1.56,1.56,0,1,0-3.12,0V74H64.56v-6.9A1.56,1.56,0,0,0,63,65.56H59.91A22,22,0,0,0,58,60.9l2.18-2.18a1.56,1.56,0,0,0,0-2.21l-6-6a1.56,1.56,0,0,0-2.21,0l-2.18,2.19a21.15,21.15,0,0,0-4.66-1.94V47.69a1.56,1.56,0,0,0-1.56-1.57H35.09a1.56,1.56,0,0,0-1.56,1.57v3.08a20.72,20.72,0,0,0-4.67,1.93l-2.18-2.18a1.56,1.56,0,0,0-2.21,0l-6,6a1.56,1.56,0,0,0,0,2.21l2.16,2.17a21.43,21.43,0,0,0-1.94,4.67H15.65a1.56,1.56,0,0,0-1.56,1.56V74H10.31V34.33A4.69,4.69,0,0,1,15,29.64H48.7a1.56,1.56,0,0,0,0-3.12H15a7.81,7.81,0,0,0-7.81,7.81V74H6.56A1.56,1.56,0,0,0,5,75.58v2.65a7.66,7.66,0,0,0,7.66,7.66H77.34A7.66,7.66,0,0,0,85,78.23V75.58A1.56,1.56,0,0,0,83.44,74h-.63V34.33A7.81,7.81,0,0,0,75,26.52H63.13V17.76Zm-50,50.93h2.72a1.56,1.56,0,0,0,1.53-1.23,18,18,0,0,1,2.48-6,1.57,1.57,0,0,0-.21-2L21.8,57.61l3.78-3.77,1.93,1.93a1.56,1.56,0,0,0,1.95.21,18.23,18.23,0,0,1,6-2.47A1.55,1.55,0,0,0,36.65,52V49.25H42V52a1.57,1.57,0,0,0,1.23,1.53,17.93,17.93,0,0,1,6,2.47,1.56,1.56,0,0,0,2-.21l1.94-1.94,3.78,3.77-2,2a1.57,1.57,0,0,0-.21,1.95,17.88,17.88,0,0,1,2.47,5.95,1.56,1.56,0,0,0,1.53,1.23h2.74V74h-8.3a14.07,14.07,0,1,0-27.61,0H17.21Zm19.46,2.67A2.66,2.66,0,1,1,39.32,74a2.66,2.66,0,0,1-2.65-2.66Zm2.65-5.78A5.78,5.78,0,0,0,34.19,74H28.71a10.82,10.82,0,0,1-.32-2.66,10.94,10.94,0,1,1,21.87,0A10.83,10.83,0,0,1,49.93,74H44.46a5.79,5.79,0,0,0-5.14-8.44ZM81.88,78.23a4.54,4.54,0,0,1-4.54,4.53H12.66a4.53,4.53,0,0,1-4.53-4.53V77.14H81.88Zm0-64.84H68.75V9H81.88ZM8.13,9H54.38v4.38H8.13ZM57.5,9h8.13v5.63H57.5Zm0,0" transform="translate(-5 -5.89)"/><path d="M62.67,12.93a1.57,1.57,0,0,0,.46-1.1,1.57,1.57,0,0,0-1.57-1.57,1.57,1.57,0,0,0-1.1.46A1.59,1.59,0,0,0,60,11.83a1.57,1.57,0,0,0,1.56,1.56,1.59,1.59,0,0,0,1.11-.46Zm0,0" transform="translate(-5 -5.89)"/><path d="M75,58.27a1.57,1.57,0,1,0-1.1-.46,1.53,1.53,0,0,0,1.1.46Zm0,0" transform="translate(-5 -5.89)"/></svg>