<svg id="Layer_6" data-name="Layer 6" xmlns="http://www.w3.org/2000/svg" viewBox="0 0 88 88"><defs><style>.cls-1{fill:#000806;}</style></defs><title>feat-company-bg6</title><path class="cls-2" d="M45,14.92a1.73,1.73,0,0,0,1.72-1.65V13.2a1.72,1.72,0,0,0-3.44,0v.07A1.73,1.73,0,0,0,45,14.92Z" transform="translate(-1 -1)"/><path class="cls-2" d="M50.16,46.72a10.32,10.32,0,0,0,0-20.63H34.69A1.72,1.72,0,0,0,33,27.81V43.28H31.25a1.72,1.72,0,0,0,0,3.44H33v6.87H31.25a1.72,1.72,0,0,0,0,3.44H33v8.6a1.72,1.72,0,0,0,3.44,0V57h12a1.72,1.72,0,0,0,0-3.44h-12V46.72ZM36.41,29.53H50.16a6.88,6.88,0,0,1,0,13.75H36.41Z" transform="translate(-1 -1)"/><path class="cls-2" d="M45,89c23.69,0,44-20.3,44-44S68.74,1,45,1,1,21.3,1,45,21.3,89,45,89ZM45,4.44c21.61,0,40.56,19,40.56,40.56S66.61,85.56,45,85.56,4.44,66.61,4.44,45,23.39,4.44,45,4.44Z" transform="translate(-1 -1)"/><path class="cls-2" d="M45,78.69C62.91,78.69,78.69,63,78.69,45c0-15.3-11.49-29.28-26.45-32.83a1.72,1.72,0,1,0-.79,3.34C65,18.73,75.25,31.41,75.25,45c0,16.11-14.14,30.25-30.25,30.25S14.75,61.11,14.75,45c0-13.59,10.23-26.27,23.8-29.49a1.72,1.72,0,1,0-.79-3.34C22.81,15.71,11.31,29.68,11.31,45,11.31,62.91,27,78.69,45,78.69Z" transform="translate(-1 -1)"/></svg>