<svg width="33" height="33" viewBox="0 0 4 4" fill="none" xmlns="http://www.w3.org/2000/svg">
<path class="footer__soc-icon" fill-rule="evenodd" clip-rule="evenodd" d="M0.430664 0.333252H3.98816V3.97425H0.430664V0.333252Z" fill="#5B5B5B"/>
<path fill-rule="evenodd" clip-rule="evenodd" d="M1.61616 0.875488H2.82706C3.19706 0.875488 3.49986 1.17818 3.49986 1.54828V2.75908C3.49986 3.12918 3.19706 3.43187 2.82706 3.43187H1.61616C1.24616 3.43187 0.943359 3.12918 0.943359 2.75908V1.54828C0.943359 1.17818 1.24616 0.875488 1.61616 0.875488Z" fill="#434242"/>
<path class="footer__soc-icon" fill-rule="evenodd" clip-rule="evenodd" d="M1.80308 1.1377H2.68038C3.00938 1.1377 3.27847 1.4068 3.27847 1.7357V2.61299C3.27847 2.94189 3.00938 3.21099 2.68038 3.21099H1.80308C1.47418 3.21099 1.20508 2.94189 1.20508 2.61299V1.7357C1.20508 1.4068 1.47418 1.1377 1.80308 1.1377Z" fill="#5B5B5B"/>
<path fill-rule="evenodd" clip-rule="evenodd" d="M1.80495 1.28833H2.67965C2.92635 1.28833 3.12824 1.49013 3.12824 1.73683V2.61153C3.12824 2.85823 2.92635 3.06003 2.67965 3.06003H1.80495C1.55825 3.06003 1.35645 2.85823 1.35645 2.61153V1.73683C1.35645 1.49013 1.55825 1.28833 1.80495 1.28833Z" fill="#434242"/>
<path class="footer__soc-icon" fill-rule="evenodd" clip-rule="evenodd" d="M2.25217 1.68799C2.54937 1.68799 2.79037 1.92887 2.79037 2.22617C2.79037 2.52337 2.54937 2.76437 2.25217 2.76437C1.95487 2.76437 1.71387 2.52337 1.71387 2.22617C1.71387 1.92887 1.95487 1.68799 2.25217 1.68799Z" fill="#5B5B5B"/>
<path class="footer__soc-icon" fill-rule="evenodd" clip-rule="evenodd" d="M2.25229 1.83228C2.46979 1.83228 2.64619 2.00856 2.64619 2.22616C2.64619 2.44366 2.46979 2.62007 2.25229 2.62007C2.03469 2.62007 1.8584 2.44366 1.8584 2.22616C1.8584 2.00856 2.03469 1.83228 2.25229 1.83228Z" fill="#434242"/>
<path class="footer__soc-icon" fill-rule="evenodd" clip-rule="evenodd" d="M2.8182 1.50415C2.8721 1.50415 2.9157 1.54785 2.9157 1.60165C2.9157 1.65555 2.8721 1.69925 2.8182 1.69925C2.7644 1.69925 2.7207 1.65555 2.7207 1.60165C2.7207 1.54785 2.7644 1.50415 2.8182 1.50415Z" fill="#5B5B5B"/>
</svg>
