<svg width="33" height="33" viewBox="0 0 4 4" fill="none" xmlns="http://www.w3.org/2000/svg">
<path class="footer__soc-icon" fill-rule="evenodd" clip-rule="evenodd" d="M0.429688 0.333496H3.98718V3.97449H0.429688V0.333496Z" fill="#5B5B5B"/>
<path fill-rule="evenodd" clip-rule="evenodd" d="M1.22811 0.973877H3.18871C3.31201 0.973877 3.41291 1.07478 3.41291 1.19808V3.10968C3.41291 3.23298 3.31201 3.33397 3.18871 3.33397H1.22811C1.10481 3.33397 1.00391 3.23298 1.00391 3.10968V1.19808C1.00391 1.07478 1.10481 0.973877 1.22811 0.973877Z" fill="#434242"/>
<path class="footer__soc-icon" fill-rule="evenodd" clip-rule="evenodd" d="M1.91309 1.7235C1.93159 1.7299 1.94519 1.7292 1.96409 1.7392C2.01449 1.7661 2.01869 1.82241 2.02059 1.88331C2.02269 1.95051 2.02859 2.0752 1.99769 2.1261C1.95699 2.1933 1.87448 2.06571 1.85638 2.03901C1.82148 1.98761 1.78699 1.9284 1.75739 1.8695C1.74199 1.8389 1.72909 1.8103 1.71489 1.7785C1.69819 1.7411 1.69589 1.7169 1.65749 1.7027C1.63009 1.6925 1.56238 1.6975 1.52878 1.6977C1.48378 1.698 1.43869 1.6983 1.39369 1.6987C1.28329 1.6994 1.34018 1.7735 1.37628 1.8537C1.44628 2.0093 1.58048 2.24131 1.67378 2.35991C1.75338 2.46111 1.84039 2.55101 1.96579 2.60311C2.03039 2.63001 2.10369 2.65271 2.18449 2.65221C2.21569 2.65201 2.28948 2.6559 2.31418 2.6477C2.36038 2.6323 2.35498 2.6065 2.35838 2.5569C2.36338 2.4849 2.39569 2.3796 2.47519 2.4387C2.49989 2.4571 2.52208 2.482 2.54218 2.5051C2.58228 2.5512 2.62578 2.60561 2.68088 2.63481C2.72238 2.65671 2.74018 2.6555 2.79128 2.6551C2.83528 2.6548 2.87939 2.6539 2.92309 2.6534C2.96219 2.6529 3.01579 2.65611 3.04819 2.64311C3.08479 2.62841 3.09999 2.60161 3.07809 2.55811C3.05009 2.50241 3.00268 2.45101 2.96138 2.40801C2.94998 2.39621 2.93978 2.38611 2.92798 2.37481L2.84218 2.29289C2.83708 2.28759 2.83059 2.28139 2.82559 2.27539C2.80149 2.24649 2.79029 2.2229 2.81159 2.1802C2.82919 2.145 2.89739 2.0608 2.92479 2.025C2.97119 1.9644 3.05359 1.8546 3.08019 1.7785C3.11269 1.6857 3.03359 1.69871 2.97519 1.69881L2.77508 1.7C2.72258 1.7004 2.69539 1.6909 2.67309 1.731L2.63279 1.82561C2.59469 1.91101 2.47808 2.1188 2.41258 2.1408C2.37548 2.1533 2.35948 2.09931 2.35598 2.06641C2.35178 2.02581 2.35539 1.97551 2.35579 1.93381C2.35619 1.89091 2.35889 1.8482 2.35989 1.8053C2.36089 1.7638 2.36299 1.7175 2.34109 1.6893C2.30829 1.6471 2.17559 1.6522 2.10959 1.6529C2.05999 1.6534 1.98139 1.65531 1.94119 1.68401C1.93259 1.69001 1.91039 1.7084 1.91309 1.7235V1.7235Z" fill="#5B5B5B"/>
</svg>
