<svg width="33" height="33" viewBox="0 0 4 4" fill="none" xmlns="http://www.w3.org/2000/svg">
<path class="footer__soc-icon" fill-rule="evenodd" clip-rule="evenodd" d="M0.430664 0.333252H3.98816V3.97425H0.430664V0.333252Z" fill="#5B5B5B"/>
<path fill-rule="evenodd" clip-rule="evenodd" d="M1.22908 0.973633H3.18958C3.31298 0.973633 3.41388 1.07465 3.41388 1.19795V3.10955C3.41388 3.23285 3.31298 3.33385 3.18958 3.33385H1.22908C1.10578 3.33385 1.00488 3.23285 1.00488 3.10955V1.19795C1.00488 1.07465 1.10578 0.973633 1.22908 0.973633Z" fill="#434242"/>
<path class="footer__soc-icon" fill-rule="evenodd" clip-rule="evenodd" d="M2.07031 2.32793H2.34001V3.33395L2.72432 3.33385V2.32793L3.08642 2.32784L3.10762 1.97155L2.72472 1.97123C2.71802 1.89063 2.70772 1.64634 2.74102 1.59604C2.78892 1.52364 2.99172 1.55424 3.09472 1.55034L3.10661 1.21604C2.85771 1.19394 2.63781 1.18234 2.47451 1.32874C2.41241 1.38434 2.35662 1.48295 2.34312 1.58645C2.32682 1.71025 2.33921 1.84584 2.33571 1.97174L2.07312 1.97164L2.07031 2.32793V2.32793Z" fill="#5B5B5B"/>
</svg>
