<svg width="60" height="33" viewBox="0 0 7 4" fill="none" xmlns="http://www.w3.org/2000/svg">
<path class="footer__soc-icon" fill-rule="evenodd" clip-rule="evenodd" d="M0.431641 0.333252H6.37874V3.97425H0.431641V0.333252Z" fill="#5B5B5B"/>
<path fill-rule="evenodd" clip-rule="evenodd" d="M4.01662 1.09994L3.39753 1.12354C3.29313 1.13114 3.21572 1.14124 3.14162 1.18864C3.07332 1.23244 3.02522 1.28745 2.99652 1.36815C2.98932 1.38835 2.98153 1.40444 2.97553 1.42354C2.94613 1.51724 2.95012 1.56485 2.93662 1.62565C2.92742 1.66705 2.92932 1.73054 2.92532 1.77764C2.92252 1.81024 2.91933 1.78394 2.91893 1.84934C2.91873 1.87784 2.91483 1.89694 2.91503 1.92574C2.91593 2.04104 2.90782 2.30555 2.91532 2.40645C2.91772 2.43825 2.91733 2.49145 2.92303 2.51735C2.92583 2.53015 2.92573 2.54165 2.92643 2.55565C2.93113 2.65245 2.94322 2.74904 2.96162 2.83914C2.97672 2.91324 3.01743 3.00314 3.06753 3.05654C3.18953 3.18664 3.36353 3.18015 3.57263 3.19465C3.67203 3.20155 3.77983 3.19785 3.88333 3.20385C3.98403 3.20975 4.09273 3.21113 4.19833 3.21123C4.41273 3.21123 4.62732 3.20984 4.84152 3.21014C4.88562 3.21014 4.94933 3.20994 4.99302 3.20594C5.04172 3.20154 5.09962 3.20384 5.15192 3.20174C5.20452 3.19954 5.25493 3.19474 5.30463 3.19414C5.36043 3.19354 5.40502 3.18744 5.45762 3.18524C5.56352 3.18074 5.63893 3.16745 5.71383 3.12145C5.77743 3.08225 5.83012 3.02814 5.86272 2.94694C5.89862 2.85764 5.91763 2.79403 5.92423 2.69043C5.92993 2.60043 5.94202 2.47765 5.94392 2.38465C5.94832 2.17345 5.94572 1.95393 5.93452 1.75033C5.92232 1.52683 5.89332 1.28193 5.70392 1.18043C5.67182 1.16313 5.62693 1.14045 5.58833 1.13565C5.22663 1.09065 4.71522 1.09674 4.33772 1.09674C4.28402 1.09674 4.22933 1.09575 4.17583 1.09735C4.12373 1.09885 4.06572 1.09334 4.01662 1.09994V1.09994Z" fill="#434242"/>
<path class="footer__soc-icon" fill-rule="evenodd" clip-rule="evenodd" d="M4.64297 2.80706C4.65837 2.78416 4.63648 2.73575 4.65238 2.71245C4.66118 2.71765 4.67418 2.73684 4.68038 2.74334C4.76388 2.83194 4.90558 2.86094 4.96998 2.75104C5.02798 2.65204 5.01177 2.44055 5.01177 2.29905C5.01177 2.13845 5.05018 1.72485 4.79788 1.78465C4.75738 1.79425 4.69627 1.84115 4.66677 1.87235C4.64887 1.89145 4.66878 1.88115 4.64568 1.88795L4.64597 1.45514C4.62437 1.45014 4.48888 1.45065 4.46398 1.45385C4.45938 1.48845 4.46388 2.80184 4.46398 2.80194C4.47078 2.81864 4.56238 2.81054 4.59838 2.81094C4.61948 2.81114 4.63087 2.81416 4.64297 2.80706V2.80706Z" fill="#5B5B5B"/>
<path fill-rule="evenodd" clip-rule="evenodd" d="M1.53126 2.10567V2.42957C1.53126 2.53217 1.52906 2.64536 1.58136 2.71176C1.63286 2.77716 1.69536 2.82676 1.80936 2.82676C1.89406 2.82676 1.96726 2.78736 2.01146 2.73506C2.06116 2.67636 2.07876 2.61107 2.07896 2.51047V2.10116C2.07846 1.72186 1.74956 1.75887 1.68056 1.80127C1.65006 1.82007 1.61836 1.83876 1.59616 1.87016C1.54836 1.93786 1.53176 2.00267 1.53126 2.10567V2.10567Z" fill="#434242"/>
<path class="footer__soc-icon" fill-rule="evenodd" clip-rule="evenodd" d="M5.13281 2.16423V2.45214C5.13281 2.55874 5.14112 2.64183 5.19262 2.71183C5.29562 2.85193 5.52402 2.85923 5.63262 2.72253C5.69382 2.64553 5.68471 2.56812 5.68951 2.47612C5.68961 2.47462 5.68972 2.47043 5.68972 2.46903L5.68811 2.45923C5.66961 2.45113 5.53551 2.45544 5.50111 2.45564C5.50041 2.54964 5.51761 2.65654 5.41201 2.65634C5.30121 2.65604 5.32562 2.50504 5.32552 2.38464L5.32541 2.33433C5.38161 2.32923 5.55651 2.33294 5.63241 2.33314C5.70691 2.33324 5.69311 2.37052 5.69311 2.14622C5.69311 2.00082 5.66451 1.88064 5.54321 1.81234C5.50121 1.78874 5.47011 1.78433 5.40741 1.78443C5.30721 1.78473 5.23412 1.83113 5.19142 1.89413C5.17232 1.92233 5.14901 1.97062 5.14401 2.00702C5.13641 2.06312 5.13281 2.10123 5.13281 2.16423V2.16423Z" fill="#5B5B5B"/>
<path fill-rule="evenodd" clip-rule="evenodd" d="M2.56719 2.71065C2.56029 2.83845 2.56438 2.81075 2.63708 2.81085C2.67528 2.81085 2.71948 2.81284 2.75688 2.81014C2.76458 2.77514 2.75918 2.03414 2.75918 1.91684C2.75918 1.88094 2.76889 1.81724 2.75549 1.78934C2.73129 1.77894 2.60538 1.78375 2.56938 1.78645C2.56218 1.82985 2.56748 2.36095 2.56748 2.47004C2.56748 2.52574 2.57788 2.55385 2.54858 2.58825C2.52348 2.61775 2.51318 2.63495 2.47488 2.65065C2.42228 2.67215 2.41318 2.62864 2.41318 2.58254L2.41259 1.78684C2.37969 1.78314 2.30168 1.78665 2.25908 1.78565C2.23028 1.78505 2.22438 1.77884 2.22168 1.80364L2.22229 2.64114C2.22349 2.70874 2.23959 2.76455 2.27849 2.79735C2.32069 2.83285 2.39529 2.82994 2.44519 2.80424C2.47079 2.79104 2.48798 2.77764 2.50618 2.76194C2.55188 2.72274 2.53759 2.71515 2.56719 2.71065V2.71065Z" fill="#434242"/>
<path fill-rule="evenodd" clip-rule="evenodd" d="M1.22014 1.95286C1.20404 1.94676 1.20993 1.93957 1.19733 1.89427C1.19103 1.87177 1.18453 1.85336 1.17863 1.83376C1.17233 1.81296 1.16823 1.78977 1.16333 1.76657C1.16083 1.75477 1.15863 1.74266 1.15583 1.73306L1.11184 1.57536C1.10764 1.55356 1.08544 1.46207 1.07804 1.44917C1.06974 1.44377 1.08384 1.44837 1.06674 1.44437L0.865234 1.44247C0.866134 1.47177 0.944135 1.69826 0.958935 1.75206C0.966135 1.77846 0.974239 1.79917 0.982139 1.82747C0.999439 1.88947 1.02754 1.95817 1.04264 2.01667C1.04794 2.03747 1.05153 2.03786 1.05583 2.05696C1.07613 2.14736 1.11383 2.20936 1.11373 2.30376C1.11353 2.38366 1.10994 2.77687 1.11514 2.80927L1.31613 2.81077C1.32153 2.77767 1.31793 2.38847 1.31773 2.30827C1.31763 2.24677 1.33403 2.19907 1.35413 2.13997C1.38193 2.05847 1.57123 1.45517 1.56943 1.44187L1.36403 1.44116C1.33943 1.47106 1.23744 1.92806 1.22014 1.95286V1.95286Z" fill="#434242"/>
<path class="footer__soc-icon" fill-rule="evenodd" clip-rule="evenodd" d="M3.77392 1.8314V2.56458C3.77392 2.65348 3.77752 2.79448 3.87682 2.82108C3.95462 2.84198 4.04412 2.78179 4.08982 2.72669C4.10212 2.71199 4.09811 2.71049 4.11901 2.70589L4.11922 2.80909L4.27872 2.81099C4.31862 2.81099 4.31272 2.80989 4.31272 2.77149L4.31252 1.7981C4.29402 1.7923 4.13811 1.79228 4.11941 1.79778C4.11371 1.87818 4.11882 2.17708 4.11882 2.28118C4.11882 2.36208 4.11832 2.44319 4.11882 2.52409C4.11922 2.58229 4.11621 2.57718 4.08441 2.61298C4.06381 2.63618 4.04192 2.65638 4.00432 2.65628C3.96022 2.65628 3.96492 2.61969 3.96492 2.58259V1.83589C3.96492 1.78209 3.98662 1.79509 3.80642 1.79509C3.76692 1.79499 3.77392 1.792 3.77392 1.8314V1.8314Z" fill="#5B5B5B"/>
<path class="footer__soc-icon" fill-rule="evenodd" clip-rule="evenodd" d="M3.16406 1.64422L3.37666 1.64531C3.38226 1.73491 3.37696 1.84352 3.37696 1.93492V2.66361C3.37696 2.69131 3.36955 2.79102 3.38105 2.80572C3.38955 2.81472 3.39796 2.81141 3.42436 2.81111L3.58016 2.81021L3.58226 1.64682C3.62356 1.64092 3.78036 1.65561 3.80076 1.64131C3.81136 1.63131 3.80566 1.56692 3.80566 1.55252C3.80566 1.52462 3.80826 1.48162 3.80446 1.45562L3.16526 1.45361L3.16406 1.64422V1.64422Z" fill="#5B5B5B"/>
<path fill-rule="evenodd" clip-rule="evenodd" d="M4.6458 2.61411C4.6714 2.63301 4.6813 2.64411 4.7127 2.65321C4.7494 2.66381 4.7854 2.6521 4.7994 2.6304C4.8269 2.5878 4.8181 2.49102 4.8181 2.42972C4.8181 2.35792 4.8257 2.03562 4.8117 1.99482C4.7885 1.92692 4.7122 1.94232 4.6659 1.97572C4.6341 1.99852 4.6441 2.01331 4.6441 2.06081C4.644 2.15101 4.6398 2.57551 4.6458 2.61411V2.61411Z" fill="#434242"/>
<path class="footer__soc-icon" fill-rule="evenodd" clip-rule="evenodd" d="M1.78118 1.95726C1.71438 1.98976 1.72418 2.02545 1.72408 2.11015V2.54195C1.72378 2.58125 1.72658 2.60155 1.74548 2.62775C1.75898 2.64645 1.79099 2.66396 1.82509 2.65316C1.89459 2.63116 1.88378 2.56905 1.88378 2.49695L1.88389 2.06515C1.88419 2.03055 1.88218 1.99706 1.86168 1.97636C1.84428 1.95886 1.81188 1.94226 1.78118 1.95726V1.95726Z" fill="#5B5B5B"/>
<path fill-rule="evenodd" clip-rule="evenodd" d="M5.32497 2.0742V2.1417C5.32507 2.1925 5.30976 2.1842 5.41276 2.1842C5.52086 2.1842 5.50097 2.21039 5.50087 2.05619C5.50077 1.97899 5.47676 1.9467 5.40346 1.9483C5.33296 1.9499 5.32517 2.0065 5.32497 2.0742Z" fill="#434242"/>
</svg>
