<?xml version="1.0" encoding="utf-8"?>
<!-- Generator: Adobe Illustrator 17.0.0, SVG Export Plug-In . SVG Version: 6.00 Build 0)  -->
<!DOCTYPE svg PUBLIC "-//W3C//DTD SVG 1.1//EN" "http://www.w3.org/Graphics/SVG/1.1/DTD/svg11.dtd">
<svg version="1.1" id="Layer_1" xmlns="http://www.w3.org/2000/svg" xmlns:xlink="http://www.w3.org/1999/xlink" x="0px" y="0px"
	 width="12.833px" height="18px" viewBox="-0.11 -1.055 12.833 18" enable-background="new -0.11 -1.055 12.833 18"
	 xml:space="preserve">
<title>Artboard 1</title>
<path fill="#FDD493" d="M0.111,2.901c0.293-1.09,0.993-2.027,1.954-2.618C2.739-0.061,3.531-0.09,4.228,0.204
	c0.117,0.03,0.213,0.234,0.255,0.377c0.223,0.774,0.384,1.548,0.63,2.327c0.085,0.31,0.202,0.613,0.296,0.917
	c0.115,0.268,0.005,0.579-0.253,0.715C4.778,4.77,4.389,4.98,3.989,5.169C2.888,5.667,2.871,5.733,3.168,6.892
	c0.572,2.195,1.79,4.167,3.496,5.661c0.443,0.401,0.668,0.435,1.159,0.101c0.491-0.335,0.827-0.615,1.262-0.886
	c0.435-0.271,0.76-0.289,1.224,0.18c0.649,0.664,1.319,1.303,1.99,1.942c0.499,0.486,0.499,0.642,0.232,1.29
	c-0.612,1.48-1.891,1.699-3.256,1.764c-1.04-0.054-2.034-0.445-2.833-1.113c-3.078-1.986-4.849-4.939-5.949-8.321
	C0.106,6.195-0.055,4.823,0.017,3.454C0.034,3.268,0.066,3.083,0.111,2.901z"/>
</svg>
