<?xml version="1.0" encoding="UTF-8"?>
<!DOCTYPE svg PUBLIC "-//W3C//DTD SVG 1.0//EN" "http://www.w3.org/TR/2001/REC-SVG-20010904/DTD/svg10.dtd">
<!-- Creator: CorelDRAW X6 -->
<svg xmlns="http://www.w3.org/2000/svg" xml:space="preserve" width="52.8109mm" height="33.8667mm" version="1.0" style="shape-rendering:geometricPrecision; text-rendering:geometricPrecision; image-rendering:optimizeQuality; fill-rule:evenodd; clip-rule:evenodd"
viewBox="0 0 2319 1487"
 xmlns:xlink="http://www.w3.org/1999/xlink">
 <defs>
  <style type="text/css">
   <![CDATA[
    .fil5 {fill:#B62C2C}
    .fil0 {fill:#009A44}
    .fil1 {fill:#FCF7DA}
    .fil6 {fill:#009846;fill-rule:nonzero}
    .fil2 {fill:#E31E24;fill-rule:nonzero}
    .fil4 {fill:#FCF7DA;fill-rule:nonzero}
    .fil3 {fill:url(#id0)}
   ]]>
  </style>
  <radialGradient id="id0" gradientUnits="userSpaceOnUse" cx="1159.26" cy="559.97" r="7995.79" fx="1159.26" fy="559.97">
   <stop offset="0" style="stop-color:white"/>
   <stop offset="0.101961" style="stop-color:#FFF7E4"/>
   <stop offset="1" style="stop-color:#FFEFCA"/>
  </radialGradient>
 </defs>
 <g id="Layer_x0020_1">
  <metadata id="CorelCorpID_0Corel-Layer"/>
  <g id="_944722480">
   <polygon class="fil0" points="0,0 1159,0 2319,0 2319,1487 1159,1375 0,1487 "/>
   <g>
    <g>
     <path class="fil1" d="M592 287c168,-121 367,-188 575,-188 201,1 406,58 562,188 181,11 321,181 321,360 0,185 -150,356 -339,356l-1102 0c-190,0 -339,-171 -339,-356 0,-179 141,-350 323,-360z"/>
    </g>
    <path class="fil2" d="M608 335c183,-135 381,-188 559,-187 190,1 392,54 543,187 161,0 291,151 291,312 0,161 -130,307 -291,307l-1102 0c-161,0 -291,-147 -291,-307 0,-161 130,-312 291,-312z"/>
    <path class="fil3" d="M1694 359c-178,-120 -354,-164 -531,-164 -178,0 -356,45 -539,165l-7 5 -9 0c-147,0 -262,141 -262,283 0,142 115,278 262,278l1102 0c147,0 262,-136 262,-278 0,-142 -115,-283 -262,-283l-9 0 -7 -5z"/>
    <g>
     <path class="fil4" d="M384 1157c0,-5 2,-10 6,-13 4,-4 8,-6 13,-6 5,0 10,2 13,6 4,4 6,8 6,13 0,5 -2,10 -6,14 -4,4 -8,6 -13,6 -5,0 -10,-2 -13,-6 -4,-4 -6,-8 -6,-14zm1480 0c0,-5 2,-10 6,-13 4,-4 8,-6 13,-6 5,0 10,2 13,6 4,4 6,8 6,13 0,5 -2,10 -6,14 -4,4 -8,6 -13,6 -5,0 -10,-2 -13,-6 -4,-4 -6,-8 -6,-14zm-1355 19c0,-1 0,-2 0,-2 0,-1 0,-1 0,-2 0,0 0,-1 1,-1 0,0 1,-1 1,-1 2,0 4,0 6,0 2,0 4,0 6,0 0,0 1,0 1,1 0,0 1,1 1,1 0,2 1,5 1,7 0,2 0,5 0,7 0,2 0,5 -1,8 -1,3 -2,7 -4,10 -2,3 -4,6 -8,8 -3,2 -7,4 -12,4 -3,0 -6,-1 -10,-2 -3,-1 -6,-3 -8,-5 -2,-2 -4,-5 -6,-9 -1,-4 -2,-8 -2,-14l0 -48c0,-2 0,-4 1,-7 0,-3 2,-6 3,-9 2,-3 4,-6 7,-8 3,-2 8,-3 13,-3 5,0 8,1 11,2 3,1 5,3 7,5 2,2 3,4 4,7 1,2 1,5 2,7 0,2 0,4 0,5 0,1 0,2 0,3 0,1 0,1 0,2 0,1 -1,1 -4,1 -1,0 -2,0 -3,0 -2,0 -3,0 -3,0 -2,0 -3,0 -3,-1 0,0 -1,-1 -1,-2 0,0 0,-1 0,-3 0,-2 0,-3 -1,-5 0,-2 -1,-3 -2,-5 -1,-1 -2,-2 -4,-2 -2,0 -4,1 -6,2 -1,1 -2,2 -3,4 -1,2 -1,3 -1,5 0,2 0,3 0,4 0,1 0,3 0,5 0,2 0,5 0,8 0,3 0,6 0,10 0,3 0,7 0,10 0,3 0,6 0,8 0,2 0,4 0,4 0,6 1,10 2,12 2,2 4,3 7,3 2,0 4,-1 6,-3 1,-2 2,-4 3,-6 1,-2 1,-5 1,-7 0,-3 0,-4 0,-6zm56 33c0,0 -1,0 -2,0 -1,0 -2,0 -3,0 -1,0 -2,0 -4,0 -1,0 -2,0 -3,0 -2,0 -2,-1 -2,-1 0,-1 0,-2 0,-3 0,-1 0,-2 0,-5 0,-3 0,-6 0,-10 0,-4 0,-9 0,-14 0,-5 0,-10 0,-15 0,-5 0,-10 0,-15 0,-5 0,-10 0,-14 0,-4 0,-8 0,-10 0,-3 0,-5 0,-5 0,0 0,-1 0,-1 0,0 0,-1 0,-1 0,0 1,0 2,0 1,0 3,0 5,0 2,0 3,0 5,0 1,0 2,0 3,0 0,0 0,0 1,0 0,0 1,0 1,1 0,1 0,4 0,7 0,3 0,6 0,10 0,3 0,7 0,10 0,3 0,5 0,7 0,1 0,2 2,2 3,0 6,0 8,0 3,0 5,0 8,0 0,0 0,0 1,0 0,-1 0,-2 0,-5 0,-3 0,-6 0,-9 0,-3 0,-7 0,-10 0,-3 0,-6 0,-8 0,-1 1,-2 2,-2 2,0 4,0 7,0 2,0 5,0 7,0 1,0 1,0 2,0 0,0 1,1 0,2 0,1 0,4 0,7 0,3 0,7 0,12 0,4 0,9 0,14 0,5 0,10 0,16 0,5 0,10 0,15 0,5 0,10 0,13 0,4 0,7 0,10 0,3 0,4 0,4 0,1 -1,2 -1,3 0,1 -1,1 -3,1 -2,0 -3,0 -5,0 -2,0 -4,0 -5,0 -1,0 -2,0 -3,-1 -1,-1 -1,-2 -1,-3 0,-1 0,-4 0,-7 0,-4 0,-7 0,-12 0,-4 0,-8 0,-12 0,-4 0,-7 0,-9 0,-1 0,-1 0,-1 0,0 -1,-1 -2,-1 -3,0 -5,0 -8,0 -3,0 -5,0 -8,0 -1,0 -2,1 -2,2 0,6 0,11 0,17 0,5 0,11 0,17 0,1 0,2 0,3 0,1 0,2 0,3 0,1 0,2 0,3 0,1 -1,1 -1,1zm83 -80c0,0 0,0 -1,1 0,0 -1,1 -1,1 0,2 0,4 0,6 0,2 0,4 0,6 0,0 0,0 1,1 0,0 1,0 1,0 2,0 3,0 5,0 2,0 3,0 5,0 2,0 3,0 4,0 1,0 3,0 3,0 2,0 3,0 4,1 1,1 1,2 1,3 0,1 0,2 0,3 0,1 0,2 0,3 0,2 -2,3 -5,3 -3,0 -5,0 -8,0 -3,0 -5,0 -8,0 -1,0 -2,0 -2,1 0,0 0,1 0,2 0,2 0,5 0,8 0,3 0,7 0,10 0,3 0,6 0,8 0,2 0,4 0,4 0,0 0,1 1,1 0,0 1,0 1,0 2,0 5,0 8,0 3,0 6,0 9,0l10 0c1,0 2,0 2,0 1,0 1,1 2,2 0,0 0,1 0,2 0,1 0,2 0,3 0,1 0,2 0,4 0,1 0,2 0,2 0,1 0,2 -1,2 -1,1 -1,1 -2,1 -1,0 -2,0 -4,0 -2,0 -5,0 -8,0 -3,0 -6,0 -10,0 -3,0 -7,0 -10,0 -3,0 -5,0 -7,0 -2,0 -3,0 -3,0 -1,0 -2,0 -3,-1 -1,-1 -1,-2 -1,-3 0,-1 0,-4 0,-9 0,-5 0,-10 0,-17 0,-6 0,-13 0,-20 0,-7 0,-14 0,-20 0,-6 0,-12 0,-16 0,-4 0,-7 0,-8 0,-2 1,-3 2,-3 1,0 4,0 7,0 4,0 7,0 12,0 4,0 8,0 12,0 4,0 7,0 9,0 4,0 6,2 5,6 0,1 0,2 0,3 0,1 0,2 0,3 0,1 0,2 -1,3 -1,1 -2,1 -3,1 0,0 -1,0 -2,0 -1,0 -3,0 -5,0 -2,0 -4,0 -6,0 -2,0 -4,0 -6,0 -2,0 -4,0 -5,0 -1,0 -2,0 -3,0zm76 15c0,1 1,1 2,1 2,0 3,0 5,-1 2,-1 4,-2 5,-4 2,-2 2,-5 2,-8 0,-1 0,-2 0,-4 0,-2 0,-4 0,-6 0,-2 0,-4 0,-5 0,-1 0,-2 0,-2 0,0 1,0 1,0 1,0 2,0 3,0 1,0 2,0 4,0 1,0 2,0 3,0 2,0 3,0 4,1 0,0 1,2 1,3 0,1 0,3 0,4 0,2 0,4 0,6 0,2 0,4 0,5 0,2 0,3 0,4 0,1 0,2 -1,3 0,1 -1,3 -1,4 -1,1 -1,3 -2,4 -1,1 -2,2 -4,3 -1,0 -1,1 -1,1 0,0 0,1 1,1 2,1 3,2 4,4 1,1 2,3 3,4 1,2 2,4 2,6 0,2 0,4 0,6 0,1 0,2 0,4 0,2 0,4 0,7 0,3 0,5 0,8 0,3 0,5 0,8 0,2 0,4 0,6 0,2 0,3 0,3 0,0 0,1 0,1 0,0 0,1 -1,1 -1,0 -1,0 -3,0 -1,0 -2,0 -3,0 -1,0 -2,0 -3,0 -1,0 -1,0 -2,0 -1,0 -2,0 -2,0 -1,0 -1,0 -1,-1 0,0 0,-1 0,-2 0,-1 0,-2 0,-3 0,-2 0,-4 0,-7 0,-3 0,-7 0,-10 0,-4 0,-7 0,-10 0,-3 0,-6 0,-8 0,-3 -1,-5 -3,-6 -2,-2 -4,-3 -6,-3 -1,0 -1,0 -2,0 -1,0 -2,0 -2,0 -1,0 -1,1 -2,1 0,1 -1,2 -1,3 0,1 0,3 0,6 0,3 0,5 0,9 0,3 0,6 0,10 0,3 0,6 0,9 0,3 0,5 0,7 0,2 0,4 0,4 0,1 0,1 -1,2 0,0 -1,1 -2,1 -1,0 -2,0 -3,0 -1,0 -3,0 -4,0 -1,0 -3,0 -4,0 -1,0 -2,0 -2,0 0,0 0,0 0,-1 0,0 0,-1 0,-1l0 -93c0,-1 0,-2 0,-2 0,0 1,-1 2,-1 2,0 4,0 6,0 2,0 4,0 6,0 2,0 2,1 2,2 0,2 0,4 0,7 0,3 0,6 0,9 0,3 0,6 0,8 0,3 0,4 0,5zm57 -9c0,-2 1,-4 2,-7 1,-3 2,-6 4,-9 2,-3 5,-5 8,-7 4,-2 8,-3 15,-3 5,0 9,1 12,3 3,2 6,5 7,7 2,3 3,6 3,8 1,3 1,5 1,6 0,1 0,3 0,6 0,3 0,6 0,9 0,4 0,7 0,11 0,4 0,8 0,11 0,4 0,7 0,9 0,3 0,5 0,6 0,2 0,4 -1,7 -1,3 -3,6 -5,9 -2,3 -5,6 -8,8 -3,2 -7,3 -12,3 -5,0 -8,-1 -11,-2 -3,-1 -6,-3 -7,-5 -2,-2 -3,-4 -4,-7 -1,-2 -2,-5 -2,-7 0,-2 -1,-4 -1,-6 0,-2 0,-3 0,-4 0,-1 0,-2 0,-5 0,-3 0,-6 0,-9 0,-3 0,-7 0,-11 0,-4 0,-7 0,-11 0,-3 0,-6 0,-9 0,-2 0,-4 0,-5zm36 4c0,-2 -1,-3 -1,-5 0,-2 -1,-3 -2,-5 -1,-1 -2,-2 -3,-3 -1,-1 -3,-1 -4,-1 -1,0 -2,1 -4,1 -1,1 -2,2 -3,3 -1,3 -2,5 -3,8 0,1 0,2 0,4 0,2 0,5 0,7 0,3 0,6 0,9 0,3 0,7 0,10 0,3 0,6 0,9 0,3 0,5 0,7 0,3 1,5 2,7 1,2 3,3 6,3 1,0 2,0 4,0 1,0 2,-1 3,-1 1,-1 2,-2 3,-3 1,-1 1,-2 1,-3 0,-1 0,-3 0,-6 0,-3 0,-6 0,-10 0,-4 0,-7 0,-11 0,-4 0,-7 0,-11 0,-3 0,-6 0,-8 0,-2 0,-4 0,-4zm44 -26c0,0 0,0 1,-1 0,0 1,-1 1,-1 4,0 8,0 11,0 4,0 7,0 11,0 3,0 6,0 8,1 2,1 5,2 7,4 2,2 3,4 4,6 1,2 1,4 2,7 0,2 0,4 0,6 0,2 0,3 0,5 0,1 0,2 -1,3 0,1 -1,2 -1,2 0,0 0,1 -1,1 0,0 0,0 -1,1 0,0 0,0 0,1 0,0 1,1 2,1 1,1 2,2 3,3 1,1 2,3 2,4 1,2 1,3 2,5 1,2 1,3 1,5 0,4 1,8 1,12 0,4 0,8 0,12 0,7 -3,13 -8,18 -2,1 -3,3 -5,3 -2,1 -4,1 -6,1 -1,0 -3,0 -6,0 -3,0 -6,0 -10,0 -3,0 -6,0 -9,0 -3,0 -5,0 -5,0 -1,0 -1,-1 -1,-1 0,-1 -1,-1 -1,-2 0,0 0,-2 0,-4 0,-3 0,-6 0,-11 0,-4 0,-10 0,-15 0,-6 0,-11 0,-17 0,-6 0,-12 0,-18 0,-6 0,-11 0,-16 0,-5 0,-8 0,-11 0,-3 0,-5 0,-5zm33 51c-1,-1 -2,-3 -3,-4 -1,-1 -3,-2 -5,-2 -1,0 -3,0 -4,0 -1,0 -3,0 -4,0 -1,0 -2,1 -2,2 0,2 0,3 0,5 0,2 0,3 0,5 0,4 0,8 0,12 0,4 0,8 0,12 0,2 1,2 2,2 2,0 3,0 5,0 2,0 3,0 5,0 2,0 4,-1 5,-2 1,-1 2,-3 3,-5 0,-1 0,-2 1,-4 0,-2 1,-4 1,-7 0,-3 0,-5 -1,-8 0,-3 -1,-5 -3,-7zm-13 -38c-1,0 -2,0 -2,0 -1,0 -1,0 -2,0 0,0 -1,0 -1,1 0,0 0,1 0,1 0,2 0,4 0,6 0,2 0,4 0,6 0,1 1,2 2,2 1,0 2,0 3,0 1,0 2,0 3,0 2,-1 4,-1 5,-2 1,-1 2,-2 2,-4 0,-1 0,-3 0,-4 0,-1 -1,-3 -2,-4 -1,-1 -2,-2 -3,-2 -1,0 -3,0 -4,0zm76 -10c1,0 2,0 3,0 2,0 3,0 5,0 2,0 3,0 5,0 1,0 2,0 2,1 0,1 1,3 1,5 1,3 1,6 2,10 1,4 2,9 3,13 1,5 2,10 3,15 1,5 2,10 3,15 1,5 2,9 3,13 1,4 2,7 2,10 1,3 1,4 1,5 1,2 1,4 0,4 0,1 -2,2 -4,2 -2,1 -4,1 -6,2 -1,0 -2,0 -3,0 -1,0 -1,-1 -1,-3 -1,-3 -1,-5 -2,-8 -1,-3 -1,-5 -2,-8 0,-1 -1,-2 -2,-2 -3,0 -5,0 -8,0 -3,0 -6,0 -9,0 0,0 -1,0 -1,1 0,0 -1,1 -1,1 0,1 0,1 -1,3 0,1 -1,3 -1,4 0,1 -1,3 -1,4 0,1 0,2 -1,2 -1,2 -2,3 -3,4 -1,1 -3,1 -5,0 -1,0 -2,0 -3,0 -1,0 -2,0 -3,0 -2,0 -3,-2 -3,-4 0,0 0,-2 1,-5 1,-3 2,-6 3,-10 1,-4 2,-9 4,-14 1,-5 3,-10 4,-16 1,-5 3,-11 4,-16 1,-5 3,-10 4,-14 1,-4 2,-8 3,-11 1,-3 1,-5 1,-6zm7 32c-1,2 -1,4 -2,6 -1,2 -1,5 -2,8 -1,3 -1,5 -2,8 -1,3 -1,5 -2,7 0,1 0,2 1,2 1,0 3,0 5,0 2,0 3,0 5,0 1,0 2,0 2,-1 0,0 0,-1 0,-3 0,-1 -1,-3 -1,-5 0,-2 -1,-4 -1,-6 0,-2 -1,-4 -1,-6 0,-2 -1,-3 -1,-5 -1,-3 -1,-4 -1,-6 0,-1 -1,-2 -1,-2 0,0 0,0 -1,0 0,0 0,1 0,1z"/>
     <path class="fil4" d="M1054 1169c-1,0 -1,0 -1,1 0,1 -1,1 -1,2 -1,1 -1,2 -3,5 -1,2 -3,5 -4,7 -2,3 -3,6 -5,9 -2,3 -3,6 -5,8 -1,2 -3,5 -4,6 -1,2 -1,3 -1,3 -2,3 -4,4 -7,2 -1,-1 -2,-1 -3,-2 -1,-1 -2,-1 -3,-1 -1,0 -2,-1 -2,-1 0,-1 0,-1 0,-2 0,-1 1,-3 3,-5 2,-3 3,-6 5,-10 2,-3 4,-7 6,-10 2,-3 4,-6 5,-8 1,-1 1,-2 -1,-3 -2,-1 -4,-2 -6,-3 -2,-1 -4,-2 -6,-4 -2,-2 -3,-4 -4,-7 -1,-3 -2,-7 -2,-12 0,-6 1,-10 4,-14 2,-4 5,-6 8,-8 3,-2 6,-3 9,-4 3,-1 4,-1 5,-2 1,0 3,0 5,-1 3,0 5,0 8,0 3,0 5,0 8,0 2,0 4,0 4,0 1,0 2,0 2,0 0,0 0,1 0,2 0,1 0,3 0,6 0,3 0,7 0,11 0,4 0,9 0,15 0,5 0,11 0,16 0,5 0,11 0,16 0,5 0,10 0,14 0,4 0,7 0,10 0,3 0,4 0,4 0,2 -1,4 -3,4 -1,0 -2,0 -3,0 -1,0 -2,0 -3,0 -1,0 -2,0 -3,0 -1,0 -2,0 -2,0 -1,0 -2,-1 -2,-2 0,-1 0,-2 0,-3 0,-2 0,-5 0,-9 0,-4 0,-7 0,-11 0,-4 0,-7 0,-10 0,-3 0,-5 0,-5 0,0 0,-1 0,-1 0,-1 0,-1 0,-1zm0 -40c0,-1 0,-1 -1,-1 -1,0 -2,0 -4,0 -1,0 -2,0 -4,0 -2,0 -3,1 -5,2 -2,1 -3,2 -5,4 -1,2 -2,4 -2,7 0,3 0,5 1,7 1,2 2,3 3,4 1,1 3,2 4,2 1,0 2,1 3,1l6 0c2,0 3,-1 3,-3 0,-1 0,-3 0,-5 0,-2 0,-4 0,-7 0,-2 0,-5 0,-7 0,-2 0,-4 0,-5zm128 16c0,1 1,1 2,1 2,0 3,0 5,-1 2,-1 4,-2 5,-4 2,-2 2,-5 2,-8 0,-1 0,-2 0,-4 0,-2 0,-4 0,-6 0,-2 0,-4 0,-5 0,-1 0,-2 0,-2 0,0 1,0 1,0 1,0 2,0 3,0 1,0 2,0 4,0 1,0 2,0 3,0 2,0 3,0 4,1 0,0 1,2 1,3 0,1 0,3 0,4 0,2 0,4 0,6 0,2 0,4 0,5 0,2 0,3 0,4 0,1 0,2 -1,3 0,1 -1,3 -1,4 -1,1 -1,3 -2,4 -1,1 -2,2 -4,3 -1,0 -1,1 -1,1 0,0 0,1 1,1 2,1 3,2 4,4 1,1 2,3 3,4 1,2 2,4 2,6 0,2 0,4 0,6 0,1 0,2 0,4 0,2 0,4 0,7 0,3 0,5 0,8 0,3 0,5 0,8 0,2 0,4 0,6 0,2 0,3 0,3 0,0 0,1 0,1 0,0 0,1 -1,1 -1,0 -1,0 -3,0 -1,0 -2,0 -3,0 -1,0 -2,0 -3,0 -1,0 -1,0 -2,0 -1,0 -2,0 -2,0 -1,0 -1,0 -1,-1 0,0 0,-1 0,-2 0,-1 0,-2 0,-3 0,-2 0,-4 0,-7 0,-3 0,-7 0,-10 0,-4 0,-7 0,-10 0,-3 0,-6 0,-8 0,-3 -1,-5 -3,-6 -2,-2 -4,-3 -6,-3 -1,0 -1,0 -2,0 -1,0 -2,0 -2,0 -1,0 -1,1 -2,1 0,1 -1,2 -1,3 0,1 0,3 0,6 0,3 0,5 0,9 0,3 0,6 0,10 0,3 0,6 0,9 0,3 0,5 0,7 0,2 0,4 0,4 0,1 0,1 -1,2 0,0 -1,1 -2,1 -1,0 -2,0 -3,0 -1,0 -3,0 -4,0 -1,0 -3,0 -4,0 -1,0 -2,0 -2,0 0,0 0,0 0,-1 0,0 0,-1 0,-1l0 -93c0,-1 0,-2 0,-2 0,0 1,-1 2,-1 2,0 4,0 6,0 2,0 4,0 6,0 2,0 2,1 2,2 0,2 0,4 0,7 0,3 0,6 0,9 0,3 0,6 0,8 0,3 0,4 0,5zm57 -9c0,-2 1,-4 2,-7 1,-3 2,-6 4,-9 2,-3 5,-5 8,-7 4,-2 8,-3 15,-3 5,0 9,1 12,3 3,2 6,5 7,7 2,3 3,6 3,8 1,3 1,5 1,6 0,1 0,3 0,6 0,3 0,6 0,9 0,4 0,7 0,11 0,4 0,8 0,11 0,4 0,7 0,9 0,3 0,5 0,6 0,2 0,4 -1,7 -1,3 -3,6 -5,9 -2,3 -5,6 -8,8 -3,2 -7,3 -12,3 -5,0 -8,-1 -11,-2 -3,-1 -6,-3 -7,-5 -2,-2 -3,-4 -4,-7 -1,-2 -2,-5 -2,-7 0,-2 -1,-4 -1,-6 0,-2 0,-3 0,-4 0,-1 0,-2 0,-5 0,-3 0,-6 0,-9 0,-3 0,-7 0,-11 0,-4 0,-7 0,-11 0,-3 0,-6 0,-9 0,-2 0,-4 0,-5zm36 4c0,-2 -1,-3 -1,-5 0,-2 -1,-3 -2,-5 -1,-1 -2,-2 -3,-3 -1,-1 -3,-1 -4,-1 -1,0 -2,1 -4,1 -1,1 -2,2 -3,3 -1,3 -2,5 -3,8 0,1 0,2 0,4 0,2 0,5 0,7 0,3 0,6 0,9 0,3 0,7 0,10 0,3 0,6 0,9 0,3 0,5 0,7 0,3 1,5 2,7 1,2 3,3 6,3 1,0 2,0 4,0 1,0 2,-1 3,-1 1,-1 2,-2 3,-3 1,-1 1,-2 1,-3 0,-1 0,-3 0,-6 0,-3 0,-6 0,-10 0,-4 0,-7 0,-11 0,-4 0,-7 0,-11 0,-3 0,-6 0,-8 0,-2 0,-4 0,-4zm64 -25c0,0 1,1 1,3 1,2 2,5 3,8 1,3 2,6 4,10 1,4 2,7 3,10 1,3 2,6 3,8 1,2 1,4 1,4 0,1 1,2 1,2 0,0 1,0 1,-1 0,-1 1,-3 2,-6 1,-3 2,-7 4,-11 1,-4 3,-9 4,-14 1,-5 3,-9 4,-12 0,0 1,-1 1,-1 0,0 1,0 1,0l13 0 1 0c0,0 0,0 1,1 0,0 0,0 0,1 0,2 0,4 1,8 0,4 1,8 1,12 0,5 1,10 2,15 1,6 1,11 2,17 1,6 1,11 2,16 1,5 1,10 1,14 0,4 1,7 1,10 0,3 0,4 0,4 0,0 0,1 -1,1 -1,0 -2,0 -3,1 -1,0 -2,0 -3,1 -1,0 -2,0 -3,0 -2,0 -3,0 -4,-1 -1,-1 -1,-2 -1,-4 0,-1 0,-3 -1,-6 0,-3 -1,-6 -1,-9 0,-3 -1,-7 -1,-11 -1,-4 -1,-7 -1,-11 0,-4 -1,-7 -1,-10 0,-3 -1,-5 -1,-7 0,-1 0,-1 -1,-1 0,0 0,1 -1,1 -1,2 -1,5 -3,9 -1,4 -2,7 -3,11 -1,4 -2,7 -3,10 -1,3 -1,5 -1,5 0,0 0,1 -1,1 0,0 0,1 -1,1 -2,1 -3,1 -5,1 -1,0 -3,0 -5,0 -1,0 -2,-1 -2,-1 -1,-1 -1,-2 -1,-3 -2,-5 -4,-11 -6,-16 -2,-5 -4,-11 -6,-16 0,0 0,0 0,0 0,0 0,-1 0,-1 0,0 0,0 0,0 0,0 0,1 0,2 0,1 0,3 0,5 0,3 0,6 -1,9 0,3 -1,7 -1,11 0,4 -1,7 -1,11 0,3 -1,7 -1,9 0,3 0,5 -1,6 0,1 -1,2 -2,2 -1,0 -3,0 -4,0 -2,0 -3,0 -4,0 -1,0 -3,-1 -4,-2 -1,-1 -1,-2 -1,-5 0,-1 0,-3 1,-8 0,-4 1,-10 1,-16 1,-6 1,-13 2,-20 1,-7 1,-14 2,-20 1,-6 1,-12 1,-16 0,-5 1,-8 1,-9 0,-1 1,-2 2,-2 1,0 2,0 4,0 1,0 3,0 4,0 1,0 2,0 3,0 1,0 1,0 2,0zm114 19c0,-2 -1,-2 -2,-2 -2,0 -4,0 -7,0 -3,0 -5,0 -7,0 0,0 0,0 -1,1 0,0 0,1 0,1 0,1 0,3 0,7 0,4 0,9 0,14 0,5 0,11 0,17 0,6 0,12 0,17 0,5 0,10 0,14 0,4 0,6 0,6 0,0 0,1 0,1 0,0 0,1 -1,1 -4,1 -7,2 -11,1 -2,0 -3,-2 -3,-4 0,-1 0,-3 0,-7 0,-4 0,-9 0,-15 0,-6 0,-12 0,-19 0,-7 0,-13 0,-19 0,-6 0,-12 0,-16 0,-5 0,-8 0,-10 0,0 0,-1 0,-2 0,-1 0,-1 0,-2 0,-1 0,-1 1,-2 0,-1 1,-1 2,-1 0,0 2,0 4,0 2,0 5,0 8,0 3,0 7,0 10,0 4,0 7,0 10,0 3,0 6,0 8,0 2,0 4,0 4,0 1,0 1,1 1,2 0,1 0,2 0,2 0,1 0,2 0,5 0,3 0,6 0,10 0,4 0,8 0,13 0,5 0,10 0,15 0,5 0,10 0,15 0,5 0,10 0,14 0,4 0,8 0,11 0,3 0,5 0,6 0,2 0,3 -1,4 -1,1 -2,1 -4,1 -1,0 -3,0 -4,0 -1,0 -3,0 -4,0 -1,0 -2,-1 -3,-1 -1,-1 -1,-2 -1,-3 0,-1 0,-3 0,-6 0,-4 0,-8 0,-13 0,-5 0,-11 0,-16 0,-6 0,-11 0,-17 0,-5 0,-10 0,-14 0,-4 0,-7 0,-9zm63 -17c1,0 2,0 3,0 2,0 3,0 5,0 2,0 3,0 5,0 1,0 2,0 2,1 0,1 1,3 1,5 1,3 1,6 2,10 1,4 2,9 3,13 1,5 2,10 3,15 1,5 2,10 3,15 1,5 2,9 3,13 1,4 2,7 2,10 1,3 1,4 1,5 1,2 1,4 0,4 0,1 -2,2 -4,2 -2,1 -4,1 -6,2 -1,0 -2,0 -3,0 -1,0 -1,-1 -1,-3 -1,-3 -1,-5 -2,-8 -1,-3 -1,-5 -2,-8 0,-1 -1,-2 -2,-2 -3,0 -5,0 -8,0 -3,0 -6,0 -9,0 0,0 -1,0 -1,1 0,0 -1,1 -1,1 0,1 0,1 -1,3 0,1 -1,3 -1,4 0,1 -1,3 -1,4 0,1 0,2 -1,2 -1,2 -2,3 -3,4 -1,1 -3,1 -5,0 -1,0 -2,0 -3,0 -1,0 -2,0 -3,0 -2,0 -3,-2 -3,-4 0,0 0,-2 1,-5 1,-3 2,-6 3,-10 1,-4 2,-9 4,-14 1,-5 3,-10 4,-16 1,-5 3,-11 4,-16 1,-5 3,-10 4,-14 1,-4 2,-8 3,-11 1,-3 1,-5 1,-6zm7 32c-1,2 -1,4 -2,6 -1,2 -1,5 -2,8 -1,3 -1,5 -2,8 -1,3 -1,5 -2,7 0,1 0,2 1,2 1,0 3,0 5,0 2,0 3,0 5,0 1,0 2,0 2,-1 0,0 0,-1 0,-3 0,-1 -1,-3 -1,-5 0,-2 -1,-4 -1,-6 0,-2 -1,-4 -1,-6 0,-2 -1,-3 -1,-5 -1,-3 -1,-4 -1,-6 0,-1 -1,-2 -1,-2 0,0 0,0 -1,0 0,0 0,1 0,1zm67 62c0,0 -1,0 -2,0 -1,0 -2,0 -3,0 -1,0 -2,0 -4,0 -1,0 -2,0 -3,0 -2,0 -2,-1 -2,-1 0,-1 0,-2 0,-3 0,-1 0,-2 0,-5 0,-3 0,-6 0,-10 0,-4 0,-9 0,-14 0,-5 0,-10 0,-15 0,-5 0,-10 0,-15 0,-5 0,-10 0,-14 0,-4 0,-8 0,-10 0,-3 0,-5 0,-5 0,0 0,-1 0,-1 0,0 0,-1 0,-1 0,0 1,0 2,0 1,0 3,0 5,0 2,0 3,0 5,0 1,0 2,0 3,0 0,0 0,0 1,0 0,0 1,0 1,1 0,1 0,4 0,7 0,3 0,6 0,10 0,3 0,7 0,10 0,3 0,5 0,7 0,1 0,2 2,2 3,0 6,0 8,0 3,0 5,0 8,0 0,0 0,0 1,0 0,-1 0,-2 0,-5 0,-3 0,-6 0,-9 0,-3 0,-7 0,-10 0,-3 0,-6 0,-8 0,-1 1,-2 2,-2 2,0 4,0 7,0 2,0 5,0 7,0 1,0 1,0 2,0 0,0 1,1 0,2 0,1 0,4 0,7 0,3 0,7 0,12 0,4 0,9 0,14 0,5 0,10 0,16 0,5 0,10 0,15 0,5 0,10 0,13 0,4 0,7 0,10 0,3 0,4 0,4 0,1 -1,2 -1,3 0,1 -1,1 -3,1 -2,0 -3,0 -5,0 -2,0 -4,0 -5,0 -1,0 -2,0 -3,-1 -1,-1 -1,-2 -1,-3 0,-1 0,-4 0,-7 0,-4 0,-7 0,-12 0,-4 0,-8 0,-12 0,-4 0,-7 0,-9 0,-1 0,-1 0,-1 0,0 -1,-1 -2,-1 -3,0 -5,0 -8,0 -3,0 -5,0 -8,0 -1,0 -2,1 -2,2 0,6 0,11 0,17 0,5 0,11 0,17 0,1 0,2 0,3 0,1 0,2 0,3 0,1 0,2 0,3 0,1 -1,1 -1,1z"/>
     <path class="fil4" d="M1676 1167c0,-1 1,-3 2,-6 1,-3 3,-6 4,-10 1,-4 3,-8 5,-12 2,-4 3,-8 5,-12 1,-4 3,-7 3,-9 1,-2 1,-4 2,-4 0,0 1,-1 2,-1 1,0 2,0 4,0 1,0 3,0 4,0 1,0 2,0 3,0 1,0 1,0 2,0 0,0 1,1 1,2 0,0 0,2 0,5 0,3 0,7 0,11 0,4 0,9 0,15 0,6 0,11 0,17 0,6 0,11 0,17 0,5 0,10 0,15 0,4 0,8 0,11 0,3 0,4 0,4 0,0 -1,1 -2,1 -1,0 -2,0 -4,0 -1,0 -3,0 -4,0 -1,0 -2,0 -3,0 -2,0 -3,-1 -3,-1 0,-1 0,-2 0,-5 0,-3 0,-7 0,-11 0,-4 0,-9 0,-13 0,-4 0,-9 0,-13 0,-4 0,-8 0,-11 0,0 0,0 0,-1 0,0 0,-1 0,-1 0,0 0,0 -1,1 0,1 -1,2 -1,2 0,1 -1,3 -2,6 -1,3 -3,6 -4,10 -2,4 -3,8 -5,12 -2,4 -4,8 -5,12 -2,4 -3,7 -4,9 -1,2 -2,4 -2,4 0,0 -1,0 -2,0 -1,0 -2,0 -4,0 -1,0 -2,0 -3,0 -1,0 -2,0 -2,0 -2,0 -2,-1 -2,-3 0,-1 0,-3 0,-5 0,-3 0,-6 0,-11 0,-4 0,-9 0,-14 0,-5 0,-10 0,-16 0,-5 0,-11 0,-16 0,-5 0,-10 0,-14 0,-4 0,-7 0,-10 0,-3 0,-4 0,-5 0,-1 1,-2 1,-3 1,-1 2,-1 3,-1 1,0 3,0 5,0 2,0 3,0 5,0 0,0 1,0 1,1 0,1 0,1 0,2 0,1 0,2 0,5 0,3 0,6 0,9 0,4 0,8 0,12 0,4 0,8 0,12 0,4 0,7 0,10 0,3 0,5 0,6 0,0 0,1 0,2 0,1 0,2 0,2 0,0 1,-1 2,-2 1,-2 1,-3 2,-4zm102 2c-1,0 -1,0 -1,1 0,1 -1,1 -1,2 -1,1 -1,2 -3,5 -1,2 -3,5 -4,7 -2,3 -3,6 -5,9 -2,3 -3,6 -5,8 -1,2 -3,5 -4,6 -1,2 -1,3 -1,3 -2,3 -4,4 -7,2 -1,-1 -2,-1 -3,-2 -1,-1 -2,-1 -3,-1 -1,0 -2,-1 -2,-1 0,-1 0,-1 0,-2 0,-1 1,-3 3,-5 2,-3 3,-6 5,-10 2,-3 4,-7 6,-10 2,-3 4,-6 5,-8 1,-1 1,-2 -1,-3 -2,-1 -4,-2 -6,-3 -2,-1 -4,-2 -6,-4 -2,-2 -3,-4 -4,-7 -1,-3 -2,-7 -2,-12 0,-6 1,-10 4,-14 2,-4 5,-6 8,-8 3,-2 6,-3 9,-4 3,-1 4,-1 5,-2 1,0 3,0 5,-1 3,0 5,0 8,0 3,0 5,0 8,0 2,0 4,0 4,0 1,0 2,0 2,0 0,0 0,1 0,2 0,1 0,3 0,6 0,3 0,7 0,11 0,4 0,9 0,15 0,5 0,11 0,16 0,5 0,11 0,16 0,5 0,10 0,14 0,4 0,7 0,10 0,3 0,4 0,4 0,2 -1,4 -3,4 -1,0 -2,0 -3,0 -1,0 -2,0 -3,0 -1,0 -2,0 -3,0 -1,0 -2,0 -2,0 -1,0 -2,-1 -2,-2 0,-1 0,-2 0,-3 0,-2 0,-5 0,-9 0,-4 0,-7 0,-11 0,-4 0,-7 0,-10 0,-3 0,-5 0,-5 0,0 0,-1 0,-1 0,-1 0,-1 0,-1zm0 -40c0,-1 0,-1 -1,-1 -1,0 -2,0 -4,0 -1,0 -2,0 -4,0 -2,0 -3,1 -5,2 -2,1 -3,2 -5,4 -1,2 -2,4 -2,7 0,3 0,5 1,7 1,2 2,3 3,4 1,1 3,2 4,2 1,0 2,1 3,1l6 0c2,0 3,-1 3,-3 0,-1 0,-3 0,-5 0,-2 0,-4 0,-7 0,-2 0,-5 0,-7 0,-2 0,-4 0,-5z"/>
    </g>
    <g>
     <path class="fil2" d="M1203 516c2,1 3,3 4,4 1,1 2,3 2,4 1,2 2,4 2,6 0,2 0,4 0,6 0,4 0,8 -1,12 -1,4 -2,9 -3,15 -5,25 -9,49 -15,72 -5,23 -11,45 -16,66 -4,17 -8,33 -13,49 -4,16 -8,30 -12,44 0,1 0,1 0,2 0,1 0,2 0,2 0,2 -1,4 -1,5 0,2 -1,3 -2,4 -1,3 -3,6 -6,7 -3,2 -7,2 -13,2 -2,0 -3,0 -6,0 -2,0 -4,-1 -7,-1 -4,-1 -8,-4 -12,-9 -4,-5 -5,-13 -5,-24 0,-2 0,-3 0,-5 0,-2 0,-4 0,-6 2,-6 3,-12 5,-19 2,-6 3,-12 5,-19 2,-7 4,-14 6,-21 2,-7 4,-14 7,-21 4,-13 8,-25 12,-36 4,-11 7,-21 11,-30 2,-4 3,-7 3,-10 1,-3 1,-5 1,-7 0,-2 0,-3 -1,-3 0,-1 -1,-1 -2,-1 -1,0 -2,0 -3,1 -2,1 -3,2 -5,4 -6,7 -15,18 -26,32 -11,14 -22,30 -33,47 -4,6 -8,13 -13,20 -4,7 -8,13 -12,20 -6,11 -13,21 -18,32 -6,11 -10,21 -14,30 0,0 0,1 0,1 0,0 0,1 -1,1 0,1 -1,2 -1,3 0,1 -1,2 -1,2l-3 7c-1,4 -3,6 -5,8 -2,2 -4,2 -6,2 -1,0 -3,0 -5,-1 -2,-1 -4,-2 -6,-3 -2,-2 -4,-4 -6,-7 -2,-2 -4,-4 -5,-6 -3,-4 -5,-7 -6,-11 -2,-4 -2,-7 -2,-11 0,-1 0,-1 0,-2 0,-1 0,-2 0,-2 0,-1 0,-3 1,-4 0,-1 1,-3 2,-5 0,-1 1,-1 1,-2 0,-1 1,-1 1,-2 0,0 0,-1 0,-1 0,0 0,-1 0,-1 3,-5 6,-10 9,-15 3,-5 6,-10 8,-15 29,-48 57,-89 85,-124 28,-35 55,-65 79,-89 3,-3 5,-5 7,-7 2,-2 4,-3 6,-4 1,0 1,0 2,0 0,0 1,0 2,0 2,0 5,1 8,3 3,2 8,5 13,9z"/>
     <path class="fil2" d="M1239 776c-5,3 -9,6 -14,8 -5,2 -9,3 -13,3 -8,0 -15,-3 -20,-9 -5,-6 -7,-14 -7,-25 0,-6 1,-11 2,-17 1,-6 3,-12 6,-18 1,-2 2,-4 3,-6 1,-2 2,-4 3,-6 6,-10 13,-19 23,-28 10,-9 22,-18 37,-26 0,0 1,0 1,-1 0,0 1,0 1,-1 3,-1 6,-3 9,-4 3,-1 5,-2 7,-2 0,0 0,0 1,0 0,0 0,0 1,0 0,0 1,0 1,0 0,0 1,0 1,0 3,3 5,5 7,6 2,1 3,2 4,2 1,0 2,-1 3,-2 1,-1 2,-3 3,-5 0,0 0,0 0,0 0,0 0,0 0,0 0,0 0,0 0,-1 0,0 0,0 0,0 1,-2 2,-3 3,-4 1,-1 2,-2 4,-2 0,0 1,0 1,0 0,0 1,0 1,0 1,0 1,0 2,0 1,0 1,0 2,0 1,0 3,1 4,2 1,1 3,2 4,3 2,1 3,3 5,4 1,1 2,2 2,3 0,0 1,1 1,1 0,1 0,1 0,2 0,1 0,1 0,2 0,1 0,1 -1,2 0,1 -1,3 -2,4 -1,2 -2,4 -4,6 -1,2 -3,4 -4,6 -1,2 -3,4 -4,7 -2,4 -4,7 -6,12 -2,4 -4,8 -6,12 -1,3 -3,6 -4,9 -1,3 -2,6 -3,9 -3,9 -5,17 -7,26 -2,9 -3,16 -4,23 0,1 0,2 0,3 0,1 0,2 0,3 0,2 0,3 0,5 0,1 -1,3 -1,4 -1,1 -2,3 -3,4 -1,1 -3,1 -4,1 0,0 -2,0 -4,0 -3,0 -5,0 -8,-1 -3,-1 -6,-2 -9,-3 -3,-1 -4,-3 -4,-6 0,-1 0,-2 0,-2 0,-1 0,-1 0,-2 0,-2 0,-3 0,-4 0,-1 -1,-1 -1,-1 -1,0 -1,0 -3,1 -1,1 -2,1 -4,3zm38 -92l1 -2c0,0 0,-1 0,-1 0,0 0,-1 0,-1 0,0 0,0 0,-1 0,0 0,-1 0,-1 0,-1 0,-2 -1,-3 -1,-1 -2,-1 -3,-1 -1,0 -2,0 -3,0 -1,0 -2,1 -4,1 -8,4 -16,10 -22,16 -6,7 -12,14 -16,21 -1,2 -3,4 -4,7 -1,2 -2,4 -3,7 -1,4 -3,8 -4,12 -1,4 -2,7 -2,9 0,0 0,0 0,0 0,0 0,0 0,0 0,0 0,0 0,0 0,0 0,0 0,0 0,1 1,3 2,3 1,1 3,1 4,1 1,0 1,0 2,0 1,0 1,0 2,0 1,0 1,0 2,0 0,0 1,0 1,0 0,0 1,0 1,0 0,0 1,0 1,0 2,-1 3,-1 5,-3 2,-1 4,-2 6,-4 2,-2 5,-4 7,-6 2,-2 4,-5 6,-8 1,-4 3,-7 4,-11 1,-4 3,-8 4,-12 1,-2 2,-5 3,-7 1,-2 2,-4 3,-6 1,-2 2,-4 3,-6 1,-2 2,-4 3,-6z"/>
     <path class="fil2" d="M1363 707c-2,7 -4,14 -7,20 -2,6 -4,12 -6,17 -1,4 -2,8 -3,12 -1,3 -1,6 -2,8 0,2 -1,4 -1,5 0,2 -1,3 -1,4 -1,3 -2,6 -4,7 -1,2 -3,2 -5,3 -1,0 -3,0 -5,-1 -2,-1 -4,-1 -7,-2 -2,-1 -4,-3 -5,-4 -2,-1 -3,-2 -3,-3 0,-1 -1,-1 -1,-2 0,-1 0,-1 0,-2 0,-1 0,-2 0,-3 0,-1 1,-3 1,-4 0,-1 1,-2 1,-3 0,-1 1,-2 1,-3 3,-8 5,-15 8,-22 2,-7 5,-14 7,-21 -2,-2 -3,-3 -5,-5 -1,-1 -2,-3 -2,-4 0,0 0,-1 0,-1 0,0 0,-1 0,-1 1,-2 2,-4 5,-5 2,-2 6,-4 10,-6 1,-2 1,-4 2,-6 1,-2 1,-4 2,-6 1,-2 1,-4 2,-6 1,-2 1,-4 2,-6l7 -23c0,0 0,0 0,0 0,0 0,0 0,0 0,0 0,-1 0,-1 0,-1 0,-1 0,-1 0,0 0,0 0,0 0,0 0,0 0,0 0,0 0,0 0,-1 0,0 0,0 0,-1 1,-1 2,-3 3,-4 1,-1 3,-2 5,-2 1,0 2,0 4,0 1,0 3,0 4,1 2,1 3,1 4,2 1,0 2,1 3,1 2,1 3,2 4,3 1,1 1,2 2,4 0,0 0,1 0,1 0,1 0,1 0,2 0,2 -1,4 -2,7 -1,3 -2,7 -3,12 -1,3 -1,6 -3,9 -1,3 -3,7 -4,11 4,-1 7,-2 11,-2 4,-1 8,-1 13,-2 1,0 2,-1 3,-1 1,0 2,0 4,0 0,0 0,0 0,0 0,0 0,0 0,0 0,0 0,0 0,0 0,0 0,0 0,0 0,0 0,0 0,0 0,0 0,0 0,0 0,0 0,0 0,0 0,0 0,0 0,0 1,-2 1,-4 2,-7 1,-2 2,-5 2,-7 0,0 0,-1 1,-1 0,0 0,-1 1,-1 1,-3 2,-6 3,-9 1,-3 2,-6 3,-8 0,0 0,-1 0,-1 0,0 0,-1 0,-1 0,0 0,0 0,0 0,0 0,0 0,0 0,-1 0,-2 0,-3 0,-1 0,-2 1,-2 0,0 0,0 0,0 0,0 0,-1 0,-1 0,0 0,0 0,0 0,0 0,0 0,0 0,0 0,0 0,0 0,0 0,0 0,0 1,-2 2,-3 3,-4 1,-1 3,-2 5,-2 1,0 2,0 3,0 1,0 2,0 4,1 1,0 2,1 3,1 1,0 2,1 4,2 2,1 4,2 5,4 2,1 3,3 3,5 0,0 0,0 0,1 0,0 0,1 0,1l0 1c-3,7 -6,16 -9,26 -3,10 -7,21 -10,31 0,1 -1,2 -1,3 0,1 -1,2 -1,3 -1,3 -2,6 -3,9 -1,3 -2,6 -3,9 -3,10 -5,19 -7,27 -1,8 -2,13 -3,17 0,0 0,0 0,1 0,0 0,1 0,1 0,0 0,1 0,1 0,0 0,1 0,1 0,0 0,1 0,1 0,0 0,1 0,1 -1,3 -2,5 -4,6 -2,1 -4,2 -6,3 -1,0 -3,0 -5,0 -2,0 -4,-1 -5,-1 -1,0 -1,-1 -2,-1 -1,0 -1,0 -2,0 -2,-1 -4,-2 -5,-3 -1,-1 -2,-3 -2,-5 0,-2 0,-4 1,-7 1,-3 1,-6 3,-11 1,-2 2,-5 2,-7 1,-3 2,-5 3,-8 1,-2 1,-3 2,-6 1,-2 1,-4 2,-6l7 -24c-1,0 -2,0 -3,0 -1,0 -2,0 -3,0 0,0 0,0 -1,0 0,0 -1,0 -1,0 -1,0 -1,0 -2,0 -1,0 -1,0 -2,0 -3,1 -6,1 -9,2 -3,1 -7,2 -11,3z"/>
     <path class="fil2" d="M1509 626c1,-1 2,-1 3,-1 1,0 1,0 2,-1 1,0 1,0 1,-1 0,0 1,-1 1,-1 0,0 1,-1 1,-1l0 -1c0,0 0,-1 0,-1 0,0 0,-1 0,-1 0,0 0,0 0,0 0,0 0,0 0,0 0,0 0,0 0,-1 0,0 0,0 0,-1 0,-1 0,-1 0,-2 0,-1 0,-1 0,-2 0,0 0,0 0,0 0,0 0,0 0,-1 0,0 0,0 0,0 0,0 0,0 0,0 1,-1 2,-3 3,-3 1,-1 2,-1 3,-2 0,0 1,0 1,0 0,0 1,0 1,0 1,0 3,0 5,1 2,1 4,1 7,3 1,0 1,1 2,1 1,0 1,1 2,1 1,1 2,2 3,3 1,1 1,3 1,5 0,2 0,5 0,9 -1,17 -21,90 -21,103 51,-2 110,-18 163,-21 -1,2 -2,4 -3,7 2,0 4,0 6,1 1,1 2,1 2,2 0,0 0,1 0,1 0,1 0,1 -1,2l-2 3c-6,9 -15,12 -20,14 -6,3 -8,3 -14,3 0,0 0,0 0,0 -71,-7 -144,25 -212,32l-5 1c-4,0 -8,-1 -10,-2 -1,-1 -2,-2 -3,-3 -1,0 -2,-1 -3,-1 -1,-1 -1,-3 -1,-5 0,-1 0,-2 0,-4 0,-2 0,-3 1,-5 0,-1 0,-1 0,-2 0,-1 0,-1 0,-2 0,-1 0,-2 1,-3 0,-1 0,-2 1,-3 0,-2 1,-3 2,-5 7,-10 14,-3 15,-3 10,-20 47,-103 66,-113zm-2 37c-19,28 -30,46 -42,76 13,-1 24,-2 38,-4 3,-27 10,-53 13,-79 0,-2 0,-4 0,-4 0,0 0,-1 0,-1 0,0 0,0 0,0 0,0 -1,1 -3,3 -2,2 -4,5 -6,9z"/>
     <path class="fil2" d="M1592 659c2,-3 5,-6 7,-9 2,-3 5,-6 7,-10 1,-1 2,-2 2,-3 1,-1 2,-2 2,-3 7,-9 13,-17 20,-24 6,-8 11,-14 15,-19 1,-1 1,-2 2,-3 1,-1 1,-2 2,-3 1,-1 1,-1 2,-2 1,-1 1,-1 2,-1 0,0 0,0 0,0 0,0 0,0 1,0 0,0 0,0 1,0 0,0 0,0 1,0 3,1 4,3 6,4 1,2 2,3 2,5 0,1 0,2 0,3 0,1 0,2 0,3 -1,4 -3,9 -4,14 -1,5 -3,10 -4,16l-3 14c0,1 0,2 -1,3 0,1 -1,2 -1,3 0,1 -1,2 -1,3 0,1 -1,2 -1,3 -2,9 -3,16 -4,23 -1,7 -1,11 -1,14 0,0 0,0 0,1 0,0 0,0 0,1 0,1 0,1 -1,2 0,1 0,1 0,2 0,2 -1,4 -2,5 -1,1 -3,2 -5,2 -1,0 -2,0 -3,0 -1,0 -2,0 -3,0 0,0 -1,0 -1,0 0,0 -1,0 -1,0 -1,0 -1,0 -2,0 -1,0 -1,0 -1,0 -2,-1 -3,-2 -4,-2 -1,-1 -2,-2 -2,-4 0,-1 0,-3 0,-5 0,-2 1,-5 2,-8 1,-2 1,-4 1,-6 0,-2 1,-4 2,-7 1,-2 2,-5 3,-10 1,-5 3,-9 5,-15 1,-5 3,-9 4,-13 1,-4 2,-8 3,-10 -5,6 -10,13 -17,22 -7,9 -14,18 -21,28 0,0 -1,1 -1,1 0,1 -1,1 -1,1 -2,3 -5,6 -7,9 -2,3 -4,6 -7,9l-1 4c-1,4 -2,6 -3,8 -1,2 -3,3 -4,3 -1,0 -2,0 -4,0 -1,0 -3,-1 -5,-1 -2,-1 -3,-2 -4,-2 -1,-1 -2,-1 -3,-2 -1,-1 -1,-1 -1,-2 0,-1 0,-1 -1,-2 0,-1 0,-2 0,-3 0,-1 0,-2 1,-3 0,0 0,-1 0,-1 0,0 0,-1 0,-1 0,0 0,-1 0,-1 0,0 0,-1 0,-1 2,-6 4,-12 5,-17 2,-6 3,-11 5,-16 1,-3 2,-7 3,-12 1,-5 3,-10 4,-15 0,0 0,-1 0,-1 0,0 0,-1 0,-1 1,-3 2,-7 3,-10 1,-3 1,-6 2,-9l2 -8c0,0 0,0 0,0 0,0 0,0 0,0 0,0 0,-1 0,-1 0,0 0,-1 0,-1 0,0 0,0 0,0 0,0 0,0 0,0 0,0 0,0 0,0 0,0 0,0 0,0 0,-1 1,-2 2,-3 1,-1 2,-2 4,-2 0,0 1,0 2,0 1,0 1,0 2,0 0,0 1,0 1,0 0,0 1,0 1,0 1,0 2,1 3,1 1,0 2,1 3,1 1,0 2,1 3,2 1,1 1,2 1,3 0,0 0,1 0,1 0,0 0,1 0,2l0 2c0,2 -1,5 -3,9 -2,4 -3,11 -5,19 0,2 -1,3 -2,6 -1,2 -1,4 -2,7 0,0 0,0 0,0 0,0 0,0 0,0 -1,3 -2,6 -2,8 -1,3 -1,5 -2,6 0,0 0,1 0,1 0,0 0,0 0,1z"/>
     <path class="fil2" d="M1719 620c0,0 -1,0 -1,0 0,0 -1,0 -1,0 0,0 0,0 0,0 0,0 0,0 0,0 0,0 -1,1 -1,1 0,0 -1,0 -1,0 -7,2 -12,2 -15,0 -3,-1 -6,-3 -8,-6 0,0 0,0 -1,0 0,0 0,0 0,0 -1,-1 -2,-2 -2,-3 0,-1 -1,-2 -1,-4 0,-1 0,-2 0,-3 0,-1 0,-2 0,-3 0,-1 0,-1 0,-2 0,-1 0,-2 0,-3 1,-2 1,-5 2,-7 1,-2 1,-4 2,-6 6,-11 13,-21 23,-30 10,-9 22,-16 38,-20l4 -1c1,0 1,0 2,0 1,0 1,0 2,0 5,-1 9,-2 14,-2 4,-1 8,-1 10,0 2,0 4,1 5,2 1,1 2,2 2,3 0,0 0,1 0,2 0,1 0,1 0,2 0,1 0,1 0,2 0,1 -1,1 -1,2 -1,1 -1,3 -2,4 -1,1 -1,2 -2,3 -1,1 -1,1 -2,2 -1,0 -1,1 -2,1 -1,4 -2,8 -3,12 -1,4 -1,7 -2,10l-2 14c-1,4 -1,8 -2,12 -1,4 -1,8 -1,13 -2,13 -3,25 -3,36 -1,11 -1,18 -1,22 0,0 0,1 0,1 0,0 0,1 0,1 0,1 0,2 0,3 0,1 0,2 0,2 0,3 -1,5 -3,7 -1,2 -3,3 -6,3 -1,0 -2,0 -4,1 -1,0 -3,0 -4,0 0,0 -1,0 -1,0 0,0 -1,0 -1,0 0,0 -1,0 -1,0 0,0 -1,0 -1,0 -3,-1 -5,-2 -6,-3 -1,-1 -3,-3 -3,-6 0,-2 -1,-5 -1,-8 0,-3 1,-7 1,-11 0,-2 1,-4 1,-7 1,-3 1,-5 2,-8 0,0 0,-1 0,-1 0,0 0,-1 0,-2 0,0 0,-1 0,-1 0,0 0,-1 0,-1l3 -17c0,-1 0,-2 1,-3 0,-1 0,-2 1,-3 0,-1 0,-1 0,-2 0,-1 0,-1 0,-2 -11,15 -20,28 -28,39 -7,11 -14,21 -20,31 -1,2 -2,4 -4,6 -1,2 -2,4 -3,6 0,0 0,1 -1,1 0,0 -1,1 -1,2 -1,1 -2,1 -2,2 -1,1 -2,1 -3,2 -1,0 -3,0 -5,-1 -2,-1 -4,-2 -7,-4 -2,-2 -4,-4 -5,-5 -1,-2 -2,-3 -2,-5 0,0 0,-1 0,-1 0,0 0,-1 0,-1 0,0 0,-1 0,-1 0,0 0,-1 0,-1 0,-2 1,-4 2,-6 1,-2 2,-4 4,-7 2,-3 4,-6 7,-9 2,-3 5,-6 7,-9 4,-5 9,-10 14,-15 5,-5 11,-11 18,-18zm34 -31c0,0 0,-1 0,-1 0,0 0,-1 0,-1 0,0 0,0 0,0 0,0 0,0 0,0 0,0 0,-1 0,-1 0,0 0,-1 0,-1 0,-1 0,-2 1,-3 0,-1 0,-2 1,-3 0,-1 0,-2 1,-3 0,-1 0,-2 1,-3 0,-3 1,-5 2,-7 1,-2 1,-5 2,-7 0,0 -1,0 -1,0 -1,0 -1,0 -1,0 -1,0 -1,0 -2,0 -1,0 -1,0 -1,0 -1,0 -2,1 -3,1 -1,0 -2,1 -3,1 -5,2 -10,5 -14,8 -4,4 -8,7 -10,10 0,0 0,0 0,1 0,0 0,0 0,1 0,1 -1,1 -1,2 0,1 -1,1 -1,2 -1,2 -2,3 -2,5 -1,1 -1,3 -1,4 0,0 0,0 0,1 0,0 0,1 0,1 0,0 0,1 0,1 0,0 0,1 0,1 0,1 1,2 1,2 1,1 2,1 3,1 3,0 5,0 8,-1 3,0 5,-1 7,-1 3,-1 6,-2 8,-3 3,-1 5,-3 8,-5z"/>
     <path class="fil5" d="M971 801c0,0 -1,0 -1,0 -1,0 -3,-1 -4,-1 -2,-1 -3,-2 -5,-3 -2,-2 -3,-5 -5,-7 -2,-2 -3,-4 -5,-6 -2,-4 -4,-7 -5,-11 -1,-4 -2,-7 -2,-11 0,-1 0,-1 0,-2 0,-1 0,-2 1,-2 0,-1 0,-3 1,-4 1,-1 1,-3 2,-5 0,-1 1,-1 1,-2 0,-1 1,-1 1,-2 0,0 0,-1 1,-1 0,0 0,-1 1,-1 3,-5 6,-10 9,-15 3,-5 6,-9 8,-14 29,-46 58,-86 87,-120 28,-34 55,-62 79,-86 3,-2 5,-5 7,-7 2,-2 4,-3 6,-4 1,0 1,0 2,0 0,0 1,0 2,0 2,0 5,1 8,3 1,1 2,1 3,2 -2,2 -5,4 -7,7 -24,25 -51,55 -79,90 -28,36 -57,78 -87,126 -3,5 -6,10 -9,15 -3,5 -6,10 -9,15 0,0 0,1 -1,1 0,0 0,1 -1,1 0,1 -1,1 -1,2 0,1 -1,1 -1,2 -1,2 -1,3 -2,5 -1,2 -1,3 -1,4 0,1 -1,1 -1,2 0,1 0,2 0,2 0,4 0,8 2,12 1,4 3,8 5,12l1 1z"/>
     <g>
      <path class="fil5" d="M1221 293c20,51 -78,76 -97,27 -20,-50 66,-96 97,-27zm-33 -20l0 -1c-5,-7 -34,-6 -39,-1 13,-5 40,-2 39,2zm-45 15c1,2 28,-9 58,3 -9,-15 -47,-10 -58,-3zm11 46c4,10 51,-11 49,-16 0,6 -46,19 -49,16zm-19 -28c10,-7 42,-10 65,-7 -35,-11 -57,1 -65,7zm90 -22c-34,-52 -109,-31 -111,23 -1,29 13,47 29,57 77,39 110,-47 82,-80z"/>
      <path class="fil5" d="M1049 286c0,0 10,13 35,26 25,14 50,54 27,81 -23,27 -67,28 -86,21 -19,-7 -43,-55 -13,-87 30,-32 36,-41 36,-41zm-120 63c25,0 51,12 53,36 -37,6 -46,-18 -53,-36zm5 4c12,2 34,11 42,29 -22,-2 -31,-16 -42,-29zm-28 -27c28,8 67,-23 94,7 -1,2 -5,10 -5,12 -13,-11 -25,-20 -46,-14 -21,5 -36,2 -36,2 -3,37 10,101 59,82 8,-2 20,-10 27,-21 1,3 3,6 4,9 -21,24 -39,39 -58,37 -70,-7 -28,-98 -39,-113zm197 52c-5,-4 -56,-35 -80,15 12,-18 48,-28 80,-15zm-54 -86c0,0 10,16 29,26 19,10 46,46 26,69 -20,23 -59,21 -75,15 -16,-6 -26,-49 -6,-74 20,-25 26,-37 26,-37z"/>
      <path class="fil5" d="M1298 286c0,0 -10,13 -35,26 -25,14 -50,54 -27,81 23,27 67,28 86,21 19,-7 43,-55 13,-87 -30,-32 -36,-41 -36,-41zm120 63c-25,0 -51,12 -53,36 37,6 46,-18 53,-36zm-5 4c-12,2 -34,11 -42,29 22,-2 31,-16 42,-29zm28 -27c-28,8 -67,-23 -94,7 1,2 5,10 5,12 13,-11 25,-20 46,-14 21,5 36,2 36,2 3,37 -10,101 -59,82 -8,-2 -20,-10 -27,-21 -1,3 -3,6 -4,9 21,24 39,39 58,37 70,-7 28,-98 39,-113zm-197 52c5,-4 56,-35 80,15 -12,-18 -48,-28 -80,-15zm54 -86c0,0 -10,16 -29,26 -19,10 -46,46 -26,69 20,23 59,21 75,15 16,-6 26,-49 6,-74 -20,-25 -26,-37 -26,-37z"/>
     </g>
     <path class="fil5" d="M1803 534c2,0 4,0 6,0 2,0 4,1 5,2 1,1 2,2 2,4 0,0 0,1 0,2 0,1 0,1 0,2 0,1 0,1 -1,2 0,1 -1,2 -1,2 -1,2 -1,3 -2,4 -1,1 -1,2 -2,3 -1,1 -1,2 -2,2 -1,1 -1,1 -2,1 -1,4 -2,8 -3,12 -1,4 -2,8 -2,11l-3 15c-1,4 -1,8 -2,13 -1,4 -1,9 -2,14 -2,14 -3,26 -4,38 -1,12 -1,20 -2,23 0,0 0,1 0,1 0,0 0,1 0,1 0,1 0,2 -1,3 0,1 0,2 0,3 0,3 -1,5 -3,7 -1,2 -4,3 -6,4 -1,0 -2,0 -4,1 -1,0 -3,0 -4,0 0,0 -1,0 -1,0 0,0 -1,0 -1,0 0,0 -1,0 -1,0 0,0 -1,0 -1,0 -3,-1 -5,-2 -6,-3 -1,-1 -2,-2 -3,-4 0,0 1,0 1,0 1,0 3,0 4,0 1,0 3,0 4,-1 3,-1 5,-2 6,-4 1,-2 2,-4 3,-7 0,-1 0,-2 0,-3 0,-1 0,-2 1,-3 0,0 0,-1 0,-1 0,0 0,-1 0,-1 0,-4 1,-11 2,-23 1,-12 2,-25 4,-38 0,-5 1,-9 2,-14 1,-4 1,-9 2,-13l3 -15c0,-3 1,-7 2,-11 1,-4 2,-8 3,-12 1,0 2,-1 2,-1 1,-1 1,-1 2,-2 1,-1 1,-2 2,-3 1,-1 1,-2 2,-4 0,-1 1,-2 1,-2 0,-1 0,-2 1,-2 0,-1 0,-1 0,-2z"/>
     <g>
      <path class="fil6" d="M892 638c0,0 0,1 0,2 0,1 0,1 0,2 0,1 0,2 0,3 0,1 0,2 0,2 -1,5 -4,10 -8,14 -4,4 -9,7 -14,10 -4,2 -9,4 -13,5 -4,1 -7,2 -10,2 -12,2 -21,0 -28,-7 -7,-6 -11,-16 -12,-30 0,-3 0,-6 0,-10 0,-3 0,-7 1,-10 0,-2 0,-3 1,-5 0,-2 1,-4 1,-5 0,0 0,0 0,-1 0,0 0,0 0,-1 4,-17 12,-34 24,-50 11,-16 25,-27 39,-32 2,0 3,-1 5,-1 2,0 3,-1 5,-1 6,-1 12,1 18,5 6,4 10,9 12,15 0,1 1,2 1,3 0,1 0,2 0,3 0,3 0,7 0,10 0,3 -1,7 -1,10 -2,8 -5,14 -10,20 -5,6 -9,11 -15,15 -7,5 -13,9 -19,12 -6,3 -10,4 -12,4 0,0 -1,0 -1,0 0,0 -1,0 -1,0 -2,0 -3,-1 -5,-3 -1,-1 -3,-3 -4,-4 -1,-1 -1,-2 -2,-3 -1,-1 -1,-1 -2,-2 0,0 -1,0 -1,0 0,0 -1,0 -1,0 0,0 0,0 -1,0 0,0 0,0 0,1 0,0 0,1 -1,1 0,0 0,1 0,1 0,1 0,1 0,2 0,1 0,2 0,3 0,1 0,2 0,3 0,1 0,3 0,4 0,2 0,4 0,6 0,2 0,3 0,4 1,5 2,8 5,9 2,1 5,2 8,1 2,0 4,-1 7,-2 3,-1 5,-2 8,-3 1,-1 2,-1 2,-1 1,0 1,-1 2,-1 1,0 1,-1 2,-1 1,0 1,-1 2,-1 2,-1 4,-2 6,-3 2,-1 4,-1 5,-2 2,0 4,0 5,1 1,1 2,3 2,6zm-22 -52c1,-1 2,-2 3,-3 1,-1 2,-2 3,-4 1,-1 2,-2 2,-3 1,-1 1,-2 1,-3 0,-1 1,-2 2,-3 1,-1 1,-2 2,-3 0,-1 1,-2 1,-3 0,-1 1,-2 1,-3 0,-1 0,-1 0,-2 0,-1 0,-1 0,-2 0,-2 -1,-4 -3,-5 -1,-1 -3,-1 -5,-1 -1,0 -2,1 -4,1 -1,1 -3,1 -4,2 -1,1 -1,1 -2,2 -1,1 -1,1 -2,2 -5,8 -10,15 -14,21 -4,6 -6,11 -7,15 0,1 0,1 0,2 0,1 0,1 0,2 0,1 1,1 1,2 1,0 2,1 3,0 2,0 5,-2 8,-4 4,-2 8,-6 13,-10z"/>
      <path class="fil6" d="M959 515c0,2 0,3 -1,5 0,2 -1,3 -1,5 0,1 0,2 -1,3 0,1 0,2 -1,3 0,2 -1,5 -1,8 0,3 -1,6 -1,9 0,1 0,1 0,2 0,1 0,1 0,1 0,0 0,1 1,1 0,0 1,0 1,0 0,0 1,0 1,-1 0,0 1,-1 1,-1 0,0 0,0 1,-1 0,0 0,0 1,0 1,-1 2,-2 4,-4 1,-1 2,-3 4,-4 7,-8 14,-17 20,-26 6,-9 12,-19 17,-29 0,-1 1,-1 1,-2 0,-1 1,-1 1,-1 0,0 1,-1 1,-1 0,0 1,0 1,0 0,0 0,0 0,0 0,0 0,0 1,0 0,0 0,0 0,0 0,0 0,0 0,0 3,2 5,4 6,6 1,2 2,4 3,6 0,1 0,2 0,3 0,1 0,2 0,4 0,1 0,2 0,3 0,1 -1,2 -1,3 -2,6 -5,13 -9,19 -4,7 -9,13 -14,19 -1,0 -1,1 -1,1 0,1 -1,1 -1,2 -1,1 -1,1 -2,2 -1,1 -1,1 -2,2 -2,2 -4,5 -7,7 -2,2 -4,4 -6,5 2,3 3,6 5,10 2,3 4,7 6,10 4,6 7,12 11,17 4,5 8,10 11,14 1,1 1,1 2,1 0,0 1,1 1,2 2,2 3,3 4,4 1,1 1,2 2,3 0,0 0,0 0,0 0,0 0,0 0,0 0,0 0,0 0,1 0,0 0,0 0,0 0,1 0,1 -1,2 0,1 -1,1 -1,2 -1,0 -1,1 -2,1 0,0 -1,1 -2,1 -1,0 -2,1 -3,2 -1,1 -2,1 -4,2 -2,1 -3,2 -5,3 -2,1 -4,2 -6,3 0,0 -1,0 -1,0 0,0 -1,0 -1,0l-1 1c0,0 -1,0 -1,0 0,0 -1,0 -1,0 -1,0 -3,0 -4,-1 -1,0 -2,-1 -4,-3 -4,-5 -8,-10 -12,-17 -4,-7 -8,-14 -11,-22 -1,-3 -2,-6 -4,-9 -1,-3 -2,-6 -3,-9 0,-2 -1,-3 -2,-4 -1,-1 -1,-2 -2,-2 0,0 0,0 0,0 0,0 0,0 -1,0 0,0 0,0 -1,0 0,0 0,1 0,1 0,1 -1,1 -1,1 0,0 0,1 -1,2 0,0 0,0 0,1 0,0 0,1 0,1 0,0 0,0 0,0 0,0 0,0 0,1 0,0 0,1 0,1 0,0 0,1 0,1 -2,10 -4,20 -6,30 -2,10 -3,19 -5,28 0,0 0,1 0,2 0,1 0,1 -1,2 -1,1 -1,3 -2,4 -1,1 -2,2 -4,3 -1,0 -3,0 -5,0 -2,0 -4,-1 -7,-2 -1,0 -1,-1 -2,-1 -1,0 -1,-1 -2,-1 -2,-2 -4,-3 -5,-5 -1,-2 -2,-4 -2,-5 0,0 0,-1 0,-1 0,0 0,0 0,-1 0,0 0,0 0,0 0,0 0,0 0,0 0,-2 1,-5 1,-7 0,-2 1,-5 1,-7 2,-11 4,-21 7,-29 2,-9 4,-16 5,-21 3,-13 5,-23 6,-30 2,-7 3,-14 4,-20 0,-1 0,-1 0,-2 0,-1 0,-2 1,-2 0,-2 1,-4 1,-6 0,-2 1,-5 1,-7 0,-1 1,-2 2,-3 1,-1 3,-2 4,-2 1,0 1,0 2,0 1,0 1,0 2,0 0,0 1,0 2,0 1,0 1,0 2,1 5,2 8,4 10,5 2,1 3,2 3,3 0,0 0,0 0,0 0,0 0,0 0,0 0,0 0,0 0,1 0,0 0,0 0,1l0 2z"/>
      <path class="fil6" d="M720 475c-1,1 -2,1 -3,2 -1,0 -2,1 -3,2 -41,27 -83,89 -101,135 -45,118 131,160 218,93 3,-2 4,-4 6,-6 2,-2 5,-3 7,-4 2,-1 5,-1 7,-1 4,0 7,1 11,4 3,3 5,6 6,10 0,1 1,2 1,3 0,1 0,2 0,3 0,1 0,2 0,3 0,112 -420,134 -307,-130 25,-62 106,-163 180,-163 1,0 2,0 3,0 1,0 2,0 2,0 53,0 46,102 -4,102 -1,0 -3,0 -4,0 -1,0 -3,0 -5,-1 -1,0 -1,-1 -2,-1 -1,0 -2,0 -2,-1 -3,-1 -5,-2 -7,-3 -2,-1 -2,-3 -2,-4 0,0 0,-1 0,-1 0,0 0,0 0,-1 0,-1 9,-24 9,-27 1,-3 1,-6 1,-9 0,-3 0,-5 -1,-6 -1,-1 -2,-2 -4,-2 0,0 -1,0 -1,0 -1,0 -1,0 -2,1 0,0 -1,0 -1,0 0,0 -1,0 -1,0z"/>
      <path class="fil6" d="M679 803c-122,6 -239,-74 -169,-228 28,-60 118,-160 192,-158 1,0 2,0 3,0 1,0 2,0 2,1l0 0c-126,15 -317,371 -28,385z"/>
      <path class="fil6" d="M876 699c2,-1 4,-2 5,-3 2,-1 5,-1 7,-1 4,0 7,1 11,4 3,3 5,6 6,10 0,1 1,2 1,3 0,1 0,2 0,3 0,1 0,2 0,3 0,42 -59,71 -126,78 59,-10 107,-37 107,-75 0,-1 0,-2 0,-3 0,-1 0,-2 0,-3 0,-1 0,-2 -1,-3 -1,-4 -3,-8 -6,-10 -1,-1 -2,-1 -3,-2z"/>
      <path class="fil6" d="M735 626c-2,7 -4,14 -7,20 -2,6 -4,12 -6,17 -1,4 -2,8 -3,12 -1,3 -1,6 -2,8 0,2 -1,4 -1,5 0,2 -1,3 -1,4 -1,3 -2,6 -4,7 -1,2 -3,2 -5,3 -1,0 -3,0 -5,-1 -2,-1 -4,-1 -7,-2 -2,-1 -4,-3 -5,-4 -2,-1 -3,-2 -3,-3 -1,-1 -1,-1 -1,-2 0,-1 0,-1 0,-2 0,-1 0,-2 0,-3 0,-1 1,-3 1,-4 0,-1 1,-2 1,-3 0,-1 1,-2 1,-3 3,-8 5,-15 8,-22 2,-7 5,-14 7,-21 -2,-2 -3,-3 -5,-5 -1,-1 -2,-3 -2,-4 0,0 0,-1 0,-1 0,0 0,-1 0,-1 1,-2 2,-4 5,-6 2,-2 6,-4 10,-6 1,-2 1,-4 2,-6 1,-2 1,-4 2,-6 1,-2 1,-4 2,-6 1,-2 1,-4 2,-6l7 -23c0,0 0,0 0,0 0,0 0,0 0,-1 0,0 0,-1 0,-1 0,-1 0,-1 0,-1 0,0 0,0 0,0 0,0 0,0 0,-1 0,0 0,0 0,-1 0,0 0,0 0,-1 1,-1 2,-3 3,-4 1,-1 3,-2 5,-2 1,0 2,0 4,0 1,0 3,0 4,1 2,1 3,1 4,2 1,0 2,1 3,1 2,1 3,2 4,3 1,1 1,2 2,4 0,0 0,1 0,1 0,1 0,1 0,2 0,2 -1,4 -2,7 -1,3 -2,7 -3,12 -1,3 -1,6 -3,9 -1,3 -3,7 -4,11 4,-1 7,-2 11,-2 4,-1 8,-1 13,-2 1,0 2,-1 3,-1 1,0 2,0 3,0 0,0 0,0 0,0 0,0 0,0 0,0 0,0 0,0 0,0 0,0 0,0 0,0 0,0 0,0 0,0 0,0 0,0 0,0 0,0 0,0 0,0 0,0 0,0 0,0 1,-2 1,-4 2,-7 1,-2 2,-5 2,-7 0,0 0,-1 1,-1 0,0 0,-1 1,-1 1,-3 2,-6 3,-9 1,-3 2,-6 3,-8 0,0 0,-1 0,-1 0,0 0,-1 0,-1 0,0 0,0 0,0 0,0 0,0 0,0 0,-1 0,-2 0,-3 0,-1 0,-2 1,-2 0,0 0,0 0,0 0,0 0,-1 0,-1 0,0 0,0 0,0 0,0 0,0 0,0 0,0 0,0 0,0 0,0 0,0 0,0 1,-2 2,-3 3,-4 1,-1 3,-2 5,-2 1,0 2,0 3,0 1,0 2,0 4,1 1,0 2,1 3,1 1,0 2,1 4,2 2,1 4,2 5,4 2,1 3,3 3,5 0,0 0,0 0,1 0,0 0,1 0,1l0 1c-3,7 -6,16 -9,26 -3,10 -7,21 -10,31 0,1 -1,2 -1,3 0,1 -1,2 -1,3 -1,3 -2,6 -3,9 -1,3 -2,6 -3,9 -3,10 -5,19 -6,27 -1,8 -2,13 -3,17 0,0 0,0 0,1 0,0 0,1 0,1 0,0 0,1 0,1 0,0 0,1 0,1 0,0 0,1 0,1 0,0 0,1 0,1 -1,3 -2,5 -4,6 -2,1 -4,2 -6,3 -1,0 -3,0 -5,0 -2,0 -4,-1 -5,-1 -1,0 -1,-1 -2,-1 -1,0 -1,0 -2,0 -2,-1 -4,-2 -5,-3 -1,-1 -2,-3 -2,-5 0,-2 0,-4 0,-7 1,-3 1,-6 3,-11 1,-2 2,-5 2,-7 1,-3 2,-5 3,-8 1,-2 1,-3 2,-6 1,-2 1,-4 2,-6l7 -24c-1,0 -2,0 -3,0 -1,0 -2,0 -3,0 0,0 0,0 -1,0 0,0 -1,0 -1,0 -1,0 -1,0 -2,0 -1,0 -1,0 -2,0 -3,1 -6,1 -9,2 -3,1 -7,2 -11,3z"/>
     </g>
    </g>
   </g>
  </g>
 </g>
</svg>
