<svg width="71" height="71" viewBox="0 0 71 71" fill="none" xmlns="http://www.w3.org/2000/svg">
<g clip-path="url(#clip0)">
<path d="M25.0684 7.54881C24.5113 6.54413 23.2452 6.18151 22.2406 6.73883C17.5521 9.33962 13.5262 13.0928 10.5983 17.5928C9.97179 18.5556 10.2444 19.8442 11.2072 20.4707C12.1702 21.0972 13.4586 20.8246 14.0851 19.8616C16.6438 15.929 20.1618 12.6492 24.2585 10.3767C25.263 9.81956 25.6256 8.55349 25.0684 7.54881Z" fill="#FFB238"/>
<path d="M61.3785 12.2611C55.1736 6.05344 46.9239 2.63477 38.1489 2.63477C37.0001 2.63477 36.0689 3.56609 36.0689 4.71484C36.0689 5.8636 37.0001 6.79492 38.1489 6.79492C53.9692 6.79492 66.8399 19.672 66.8399 35.5C66.8399 51.328 53.9692 64.2051 38.1489 64.2051C25.5417 64.2051 14.8078 56.0276 10.9675 44.6959L14.4069 44.3521C16.1509 44.1778 16.9093 42.0478 15.6695 40.8102L8.87456 34.0279C7.88416 33.0393 6.13759 33.2786 5.50289 34.604L0.352066 42.3408C-0.619191 43.7996 0.5469 45.737 2.29028 45.5634L6.72098 45.1205C10.7289 58.2845 23.0501 68.3652 38.1489 68.3652C56.3063 68.3652 70.9999 53.6657 70.9999 35.5C70.9999 26.7215 67.5829 18.4685 61.3785 12.2611Z" fill="#FFB238"/>
<path d="M38.1489 16.7794C27.8269 16.7794 19.4292 25.1775 19.4292 35.5001C19.4292 45.8227 27.8268 54.2208 38.1489 54.2208C48.4711 54.2208 56.8687 45.8227 56.8687 35.5001C56.8687 25.1775 48.471 16.7794 38.1489 16.7794ZM36.6084 42.737H28.4207C27.7767 42.737 26.8567 42.2995 26.8567 41.6315V39.3978H26.8566C26.8566 35.782 34.1014 33.7093 34.1014 30.7844C34.1014 30.0475 33.6414 29.1492 32.3534 29.1492C31.4335 29.1492 30.6285 29.6099 30.6285 30.8765C30.6285 31.5444 29.9154 32.1892 28.7425 32.1892C27.8226 32.1892 27.1326 31.7747 27.1326 30.3238C27.1326 27.514 29.7085 25.9019 32.3304 25.9019C34.9983 25.9019 37.6894 27.5832 37.6894 30.6692C37.6894 35.6668 30.5826 37.3019 30.5826 39.3976V39.6049H36.6084C37.1834 39.6049 37.6895 40.3188 37.6895 41.1479C37.6895 41.9771 37.1835 42.737 36.6084 42.737ZM48.8667 39.1907H47.8777V41.6319C47.8777 42.3688 46.9808 42.7374 46.0839 42.7374C45.1869 42.7374 44.2899 42.369 44.2899 41.6319V39.1907H38.908C37.8189 39.1905 37.4486 38.0773 37.896 37.256L43.2089 26.8234C43.5539 26.1556 44.1289 25.9022 44.7039 25.9022C45.3249 25.9022 46.4978 26.4318 46.4978 27.2609C46.4978 27.3992 46.4518 27.5373 46.3829 27.6984L42.312 35.8743H44.2899V34.2622C44.2899 33.5023 45.1868 33.1797 46.0839 33.1797C46.9808 33.1797 47.8777 33.5021 47.8777 34.2622V35.8743H48.8667C49.6027 35.8743 49.9707 36.7034 49.9707 37.5325C49.9707 38.3616 49.4187 39.1907 48.8667 39.1907Z" fill="#FFB238"/>
</g>
<defs>
<clipPath id="clip0">
<rect width="71" height="71" fill="white"/>
</clipPath>
</defs>
</svg>
