<svg width="65" height="72" viewBox="0 0 65 72" fill="none" xmlns="http://www.w3.org/2000/svg">
<path d="M45.4036 47.9054C48.872 43.084 51.0043 37.5438 51.6699 31.6959L32.3989 26.2161L13.1277 31.6959C13.7932 37.5436 15.9255 43.084 19.394 47.9054C22.7711 52.5995 27.2529 56.376 32.3989 58.874C37.5447 56.376 42.0267 52.5995 45.4036 47.9054Z" fill="#FFB238"/>
<path d="M32.399 21.7449L51.8957 27.289V18.3465L32.399 12.8024L12.9023 18.3465V27.289L32.399 21.7449Z" fill="#FFB238"/>
<path d="M34.5493 0V8.94253L56.1964 15.0982V27.7166C56.1964 35.9275 53.6717 43.7772 48.895 50.4172C45.1608 55.6074 40.2217 59.7995 34.5493 62.6088V72.0001C43.1148 68.6623 50.4661 62.9623 55.8773 55.4403C61.7131 47.3282 64.7978 37.7414 64.7978 27.7166V8.60148L34.5493 0Z" fill="#FFB238"/>
<path d="M30.2485 62.6086C24.5762 59.7994 19.6369 55.6073 15.903 50.417C11.1263 43.7772 8.60148 35.9275 8.60148 27.7164V15.098L30.2485 8.94239V0L0 8.60148V27.7164C0 37.7413 3.08478 47.3281 8.9206 55.4401C14.3319 62.9621 21.6832 68.6622 30.2485 72V62.6086Z" fill="#FFB238"/>
</svg>
