<svg width="22" height="22" viewBox="0 0 22 22" fill="none" xmlns="http://www.w3.org/2000/svg">
<g clip-path="url(#clip0)">
<path d="M17.5131 3.76739C16.1779 1.46324 13.8064 0.0555371 11.1692 0.00174023C11.0566 -0.000580078 10.9433 -0.000580078 10.8307 0.00174023C8.19351 0.0555371 5.82198 1.46324 4.48677 3.76739C3.12199 6.1226 3.08465 8.95166 4.38687 11.3352L9.84231 21.3206C9.84476 21.325 9.84721 21.3294 9.84974 21.3338C10.0898 21.751 10.5198 22 11 22C11.4802 22 11.9102 21.7509 12.1502 21.3338C12.1527 21.3294 12.1552 21.325 12.1576 21.3206L17.6131 11.3352C18.9152 8.95166 18.8779 6.1226 17.5131 3.76739ZM10.9999 9.96877C9.29403 9.96877 7.90618 8.58092 7.90618 6.87502C7.90618 5.16912 9.29403 3.78127 10.9999 3.78127C12.7058 3.78127 14.0937 5.16912 14.0937 6.87502C14.0937 8.58092 12.7059 9.96877 10.9999 9.96877Z" fill="#FFB238"/>
</g>
<defs>
<clipPath id="clip0">
<rect width="22" height="22" fill="white"/>
</clipPath>
</defs>
</svg>
