<svg width="73" height="73" viewBox="0 0 73 73" fill="none" xmlns="http://www.w3.org/2000/svg">
<path d="M66.4414 18.25H51.3281V14.8281C51.3281 6.65184 44.6763 0 36.5 0C28.3237 0 21.6719 6.65184 21.6719 14.8281V18.25H6.55859C2.94224 18.25 0 21.1922 0 24.8086V66.4414C0 70.0578 2.94224 73 6.55859 73H66.4414C70.0578 73 73 70.0578 73 66.4414V24.8086C73 21.1922 70.0578 18.25 66.4414 18.25ZM36.5796 43.3442C40.9457 43.387 44.4844 46.9521 44.4844 51.3281C44.4844 54.7631 42.3034 57.6969 39.2539 58.8212C38.9716 58.9253 38.7812 59.1905 38.7812 59.4913V60.3887C38.7812 61.617 37.8372 62.6739 36.6104 62.7318C35.3003 62.7935 34.2188 61.7496 34.2188 60.4531V59.4913C34.2188 59.1903 34.0284 58.9253 33.7461 58.821C30.7334 57.7104 28.5684 54.8334 28.5166 51.4519C28.4974 50.1945 29.487 49.0757 30.7443 49.0474C32.0282 49.0185 33.0781 50.0508 33.0781 51.3281C33.0781 53.3439 34.83 54.958 36.8911 54.7282C38.4609 54.5531 39.725 53.2891 39.9001 51.7194C40.1299 49.6581 38.5156 47.9062 36.5 47.9062C32.0975 47.9062 28.5156 44.3244 28.5156 39.9219C28.5156 36.4869 30.6966 33.5531 33.7461 32.4288C34.0284 32.3247 34.2188 32.0595 34.2188 31.7587V30.8613C34.2188 29.6329 35.1628 28.5759 36.3898 28.5182C37.6999 28.4566 38.7812 29.5004 38.7812 30.7969V31.7587C38.7812 32.0597 38.9716 32.3247 39.2539 32.429C42.2667 33.5396 44.4318 36.4167 44.4834 39.7983C44.5026 41.0558 43.5128 42.1745 42.2555 42.2027C40.9717 42.2314 39.9219 41.1992 39.9219 39.9219C39.9219 38.035 38.3867 36.5 36.5 36.5C34.605 36.5 33.0649 38.0484 33.0783 39.9464C33.0915 41.8405 34.6854 43.3255 36.5796 43.3442ZM46.7656 18.25H26.2344V14.8281C26.2344 9.16763 30.8395 4.5625 36.5 4.5625C42.1605 4.5625 46.7656 9.16763 46.7656 14.8281V18.25Z" fill="#FFB238"/>
</svg>
