<svg width="20" height="20" viewBox="0 0 20 20" fill="none" xmlns="http://www.w3.org/2000/svg">
<path d="M19.6667 0H0.333333C0.14925 0 0 0.14925 0 0.333333V19.6667C0 19.8507 0.14925 20 0.333333 20H19.6667C19.8507 20 20 19.8507 20 19.6667V0.333333C20 0.14925 19.8507 0 19.6667 0ZM19.3333 19.3333H0.666667V3.33333H19.3333V19.3333ZM19.3333 2.66667H0.666667V0.666667H19.3333V2.66667Z" fill="black"/>
<path d="M2.00065 1.33301H1.33398V1.99967H2.00065V1.33301Z" fill="black"/>
<path d="M3.33268 1.33301H2.66602V1.99967H3.33268V1.33301Z" fill="black"/>
<path d="M4.66667 1.33301H4V1.99967H4.66667V1.33301Z" fill="black"/>
<path d="M8.33333 16.3333H11.6667C11.8508 16.3333 12 16.1841 12 16V13.3333C12 13.1493 11.8508 13 11.6667 13H8.33333C8.14925 13 8 13.1493 8 13.3333V16C8 16.1841 8.14925 16.3333 8.33333 16.3333ZM8.66667 13.6667H11.3333V15.6667H8.66667V13.6667Z" fill="black"/>
<path d="M8.33333 9.66634H11.6667C11.8508 9.66634 12 9.51709 12 9.33301V6.66634C12 6.48226 11.8508 6.33301 11.6667 6.33301H8.33333C8.14925 6.33301 8 6.48226 8 6.66634V9.33301C8 9.51709 8.14925 9.66634 8.33333 9.66634ZM8.66667 6.99967H11.3333V8.99967H8.66667V6.99967Z" fill="black"/>
<path d="M13.6673 16.3333H17.0007C17.1847 16.3333 17.334 16.1841 17.334 16V13.3333C17.334 13.1493 17.1847 13 17.0007 13H13.6673C13.4832 13 13.334 13.1493 13.334 13.3333V16C13.334 16.1841 13.4832 16.3333 13.6673 16.3333ZM14.0007 13.6667H16.6673V15.6667H14.0007V13.6667Z" fill="black"/>
<path d="M13.6673 9.66634H17.0007C17.1847 9.66634 17.334 9.51709 17.334 9.33301V6.66634C17.334 6.48226 17.1847 6.33301 17.0007 6.33301H13.6673C13.4832 6.33301 13.334 6.48226 13.334 6.66634V9.33301C13.334 9.51709 13.4832 9.66634 13.6673 9.66634ZM14.0007 6.99967H16.6673V8.99967H14.0007V6.99967Z" fill="black"/>
<path d="M2.99935 16.3333H6.33268C6.51677 16.3333 6.66602 16.1841 6.66602 16V13.3333C6.66602 13.1493 6.51677 13 6.33268 13H2.99935C2.81527 13 2.66602 13.1493 2.66602 13.3333V16C2.66602 16.1841 2.81527 16.3333 2.99935 16.3333ZM3.33268 13.6667H5.99935V15.6667H3.33268V13.6667Z" fill="black"/>
<path d="M2.99935 9.66634H6.33268C6.51677 9.66634 6.66602 9.51709 6.66602 9.33301V6.66634C6.66602 6.48226 6.51677 6.33301 6.33268 6.33301H2.99935C2.81527 6.33301 2.66602 6.48226 2.66602 6.66634V9.33301C2.66602 9.51709 2.81527 9.66634 2.99935 9.66634ZM3.33268 6.99967H5.99935V8.99967H3.33268V6.99967Z" fill="black"/>
</svg>
