<svg width="12" height="16" viewBox="0 0 12 16" fill="none" xmlns="http://www.w3.org/2000/svg">
<path d="M5.99936 0C3.05861 0 0.666016 2.39259 0.666016 5.33334C0.666016 6.21616 0.886734 7.09147 1.30633 7.86784L5.7077 15.8281C5.7663 15.9342 5.87795 16 5.99936 16C6.12077 16 6.23242 15.9342 6.29102 15.8281L10.694 7.86522C11.112 7.09147 11.3327 6.21613 11.3327 5.33331C11.3327 2.39259 8.94011 0 5.99936 0ZM5.99936 8C4.52898 8 3.3327 6.80372 3.3327 5.33334C3.3327 3.86297 4.52898 2.66669 5.99936 2.66669C7.46973 2.66669 8.66602 3.86297 8.66602 5.33334C8.66602 6.80372 7.46973 8 5.99936 8Z" fill="#009A2B"/>
</svg>
